<svg width="257" height="30" viewBox="0 0 257 30" fill="none" xmlns="http://www.w3.org/2000/svg">
<path d="M56.8968 8.98595C52.121 10.3572 49.4258 13.9509 49.4258 19.0103C49.4258 22.6512 50.797 25.441 53.445 27.2851C57.6533 30.1695 63.4221 30.4059 68.387 27.8526C69.9946 27.0487 71.4605 26.4813 71.6969 26.6232C72.4534 27.096 72.1225 26.103 70.9403 24.3535L69.7582 22.5567L68.7652 23.5497C67.2521 25.0628 64.8406 25.8666 61.8617 25.8666C56.7549 25.8666 53.9178 23.4078 53.9178 19.0103C53.9178 16.1259 54.9108 14.3764 57.4169 12.9106C60.3486 11.2083 67.3467 12.2486 69.0017 14.6128C69.6636 15.5112 69.7109 15.464 70.8931 13.7617C72.1697 11.9176 72.4534 10.9246 71.6969 11.4448C71.4605 11.5866 69.9001 11.0192 68.2924 10.2154C64.8406 8.46582 60.4904 7.99297 56.8968 8.98595Z" fill="white"/>
<path d="M134.778 12.1515C134.589 12.4352 131.373 12.6243 126.597 12.6243C120.498 12.6243 118.89 12.7662 119.316 13.1918C120.119 13.9956 120.119 27.8027 119.316 28.6066C118.89 29.0321 120.45 29.174 126.456 29.174C130.853 29.174 134.541 29.3631 135.061 29.6468C135.913 30.1197 135.96 29.9778 135.96 27.6609C135.96 25.7695 135.818 25.3439 135.392 25.7695C135.014 26.1478 132.934 26.3369 129.198 26.3369H123.619L123.76 24.3037L123.902 22.3177L126.834 22.1759C128.489 22.0813 130.238 22.2704 130.759 22.5541C131.657 23.027 131.704 22.9324 131.704 20.5682C131.704 18.6768 131.562 18.2512 131.137 18.6768C130.806 19.0078 129.151 19.2442 127.118 19.2442H123.666V17.3528V15.4614H129.009C132.555 15.4614 134.541 15.6506 134.92 16.0288C135.345 16.4544 135.487 16.0288 135.487 14.1375C135.487 11.6786 135.345 11.2531 134.778 12.1515Z" fill="white"/>
<path d="M81.108 12.6731C78.9329 13.3351 76.5686 15.1792 75.6702 16.8815C75.2919 17.638 74.9609 19.4348 74.9609 20.9007C74.9609 24.0215 75.8121 25.8656 77.8926 27.426C81.9591 30.4049 87.3968 30.4049 91.4633 27.3787C96.0499 23.9742 95.057 15.8412 89.7611 13.3351C87.6332 12.2949 83.4249 11.9639 81.108 12.6731ZM87.7751 16.2195C90.2812 17.4962 91.2269 21.7045 89.4774 23.9742C86.6403 27.6624 80.446 26.8586 79.1693 22.6502C77.6562 17.5907 82.9048 13.6661 87.7751 16.2195Z" fill="white"/>
<path d="M146.597 12.6242C142.2 12.766 138.842 13.0497 139.173 13.2389C139.977 13.759 139.977 27.8026 139.173 28.6064C138.748 29.032 139.173 29.1738 141.159 29.1738H143.76L143.618 25.5802L143.429 21.9865L147.259 22.1757L151.089 22.3175V20.6626V19.0076L147.306 19.1495L143.524 19.3386V17.3526V15.414L149.198 15.5558L154.872 15.6977V13.9009C154.872 12.9552 154.825 12.1986 154.777 12.2459C154.683 12.2932 151.042 12.4823 146.597 12.6242Z" fill="white"/>
<path d="M163.289 12.7669C160.262 13.618 158.844 14.7055 157.709 16.8806C154.919 22.3184 158.276 28.4181 164.613 29.3638C172.698 30.5459 178.467 23.8315 175.157 17.0225C173.36 13.287 168.159 11.4429 163.289 12.7669ZM170.287 16.4551C172.273 18.11 172.887 21.1363 171.658 23.5005C170.571 25.581 169.152 26.3376 166.362 26.3376C164.282 26.3376 163.62 26.1012 162.343 24.9663C160.924 23.6896 160.783 23.3114 160.783 20.9471C160.783 18.7247 160.972 18.11 162.012 17.0698C164.045 15.0838 168.254 14.7528 170.287 16.4551Z" fill="white"/>
<path d="M205.796 12.8147C198.467 14.8006 197.048 24.3521 203.479 28.0876C206.6 29.9317 211.186 29.9317 215.253 28.0403L218.184 26.7164L217.191 25.2033L216.198 23.6901L215.158 24.7304C214.118 25.7707 211.281 26.8109 209.484 26.8109C208.964 26.8109 207.64 26.3854 206.552 25.8652C202.628 24.1157 202.013 19.7655 205.276 16.9284C206.694 15.6517 207.309 15.4626 209.531 15.4626C212.416 15.4626 215.064 16.361 215.726 17.5904C216.151 18.2997 216.34 18.1578 217.191 16.8339L218.184 15.2262L215.489 13.9968C212.085 12.3891 208.727 12.0108 205.796 12.8147Z" fill="white"/>
<path d="M229.579 12.6257L221.777 12.8621V21.0423V29.1753H229.39C234.639 29.1753 237.145 29.3645 237.523 29.7427C237.949 30.1683 238.091 29.8373 238.091 28.2296V26.1018L231.944 26.2437L225.797 26.3855V24.2577V22.0826H229.248C231.282 22.0826 232.937 22.319 233.268 22.65C233.693 23.0756 233.835 22.6973 233.835 20.9951C233.835 18.8672 233.788 18.7727 232.889 19.2455C232.369 19.5292 230.62 19.7184 228.965 19.6238L226.033 19.4819V17.5906V15.6992H231.849H237.618V13.9023C237.618 12.9567 237.57 12.2001 237.523 12.2474C237.429 12.2947 233.882 12.4838 229.579 12.6257Z" fill="white"/>
<path d="M245.042 12.767C242.252 13.6181 240.928 15.1785 240.928 17.5427C240.975 20.9472 242.441 21.9402 248.304 22.5549C252.891 23.0277 253.222 23.1696 253.222 24.6827C253.222 26.9997 246.98 27.4725 243.481 25.4393C242.583 24.9191 241.874 24.5409 241.874 24.6354C241.874 24.73 241.59 25.5338 241.212 26.4322C240.597 27.8508 240.597 28.0399 241.306 28.0872C241.732 28.0872 243.481 28.4655 245.136 28.9383C249.865 30.215 254.451 29.2693 256.248 26.716C257.383 25.1083 257.194 22.413 255.964 21.2782C254.309 19.8124 254.026 19.7178 249.817 19.1977C247.642 18.9613 245.514 18.6303 245.042 18.4884C243.812 18.1101 244.19 16.3606 245.656 15.5568C247.831 14.4219 254.593 15.8405 254.64 17.4954C254.688 17.7791 255.113 17.259 255.633 16.266C256.154 15.2258 256.532 14.3746 256.437 14.3273C256.343 14.2801 254.877 13.7599 253.08 13.1925C249.534 12.0577 247.737 11.9631 245.042 12.767Z" fill="white"/>
<path d="M97.5626 13.1916C97.9409 13.5699 98.13 15.9814 98.13 20.899C98.13 25.8166 97.9409 28.2281 97.5626 28.6064C97.137 29.032 98.461 29.1738 103.568 29.1738C109.242 29.1738 110.424 29.032 112.126 28.1808C115.815 26.4313 117.233 20.9463 115.105 16.5961C113.545 13.2862 111.559 12.6242 103.568 12.6242C98.461 12.6242 97.137 12.766 97.5626 13.1916ZM110.708 17.0217C112.221 18.7712 112.552 21.0409 111.653 23.216C110.755 25.391 108.675 26.3367 104.75 26.3367H101.913V20.8517V15.3667L105.743 15.5558C109.242 15.6977 109.667 15.8395 110.708 17.0217Z" fill="white"/>
<path d="M179.361 13.0497C179.834 13.3334 179.928 15.2248 179.834 21.2773L179.692 29.1738H181.82H183.947L183.806 25.8639L183.616 22.554H185.981C188.298 22.554 188.345 22.6012 190.047 25.2019C191.04 26.6677 191.702 28.1336 191.56 28.5118C191.371 29.032 191.939 29.1738 194.445 29.1738H197.613L196.383 27.8499C195.721 27.1406 194.539 25.6275 193.735 24.4926L192.222 22.4594L194.255 21.4191C195.816 20.6153 196.336 20.0952 196.667 18.6766C197.282 16.2651 196.289 14.1373 194.303 13.2862C192.553 12.5769 178.226 12.3405 179.361 13.0497ZM192.411 16.2178C193.31 17.1162 193.357 17.3999 192.553 18.4875C192.033 19.1967 191.182 19.3859 187.919 19.4332L183.947 19.4805L183.806 17.4472L183.664 15.4613H187.683C190.709 15.4613 191.844 15.6504 192.411 16.2178Z" fill="white"/>
<rect x="27.7695" y="11.7676" width="10.3553" height="17.8865" rx="2.82418" fill="white"/>
<rect x="13.6523" width="10.3553" height="29.6539" rx="2.82418" fill="white"/>
<rect y="8.47266" width="10.3553" height="21.1813" rx="2.82418" fill="white"/>
</svg>
