<svg width="33" height="41" viewBox="0 0 33 41" fill="none" xmlns="http://www.w3.org/2000/svg">
<path d="M16.5001 0C7.88595 0 0.903564 6.98339 0.903564 15.5966C0.903564 20.7094 6.39883 30.4162 10.8652 37.4613C13.8567 42.1796 19.1435 42.1796 22.135 37.4613C26.6014 30.4151 32.0967 20.7094 32.0967 15.5966C32.0967 6.98238 25.1143 0 16.5001 0ZM16.5001 22.931C12.2168 22.931 8.74382 19.458 8.74382 15.1747C8.74382 10.8914 12.2168 7.4184 16.5001 7.4184C20.7834 7.4184 24.2564 10.8914 24.2564 15.1747C24.2564 19.458 20.7834 22.931 16.5001 22.931Z" fill="white"/>
</svg>
