<svg width="795" height="921" viewBox="0 0 795 921" fill="none" xmlns="http://www.w3.org/2000/svg">
<path d="M35.5855 227.878L340.577 15.5734C340.577 15.5734 391.909 -17.2168 452.277 15.5734C512.644 48.3636 766.154 234.531 766.154 234.531C766.154 234.531 794.03 268.587 794.03 300.607C794.03 332.628 794.377 614.212 794.377 614.212C794.377 614.212 798.795 664.948 756.796 697.192C714.797 729.437 451.954 907.611 451.954 907.611C451.954 907.611 397.618 935.486 349.289 907.611C300.96 879.735 42.2379 701.015 42.2379 701.015C42.2379 701.015 2.00098 682.001 1.03291 629.08V288.097C1.03291 288.097 -1.39967 253.619 35.5607 227.878H35.5855Z" fill="#1D2933" stroke="#201600" stroke-miterlimit="10"/>
<path d="M531.484 164.432C531.484 164.432 447.535 226.934 424.401 241.207C401.266 255.455 375.898 241.207 375.898 241.207L263.453 164.432C316.076 128.117 362.99 95.6244 370.363 90.2131C388.259 77.0573 419.808 87.6812 419.808 87.6812C419.808 87.6812 471.96 123.45 531.484 164.432Z" fill="#F5D6BA"/>
<path d="M671.259 261.139L601.409 213.058C601.409 213.058 473.55 304.404 438.55 324.932C403.551 345.46 365.201 324.932 365.201 324.932L192.959 213.058C215.498 197.52 239.848 180.74 263.082 164.705L263.454 164.432L375.899 241.207C375.899 241.207 401.267 255.455 424.402 241.207C447.536 226.934 531.485 164.432 531.485 164.432H531.534C581.874 199.133 637.501 237.533 671.259 261.139Z" fill="#E8A98D"/>
<path d="M715.617 311.876C715.617 311.876 715.716 589.289 715.617 609.147C715.493 628.98 698.489 640.15 698.489 640.15C698.489 640.15 456.671 806.385 427.927 827.98C399.158 849.576 364.978 827.98 364.978 827.98C364.978 827.98 128.819 668.324 102.681 649.905C76.5432 631.487 79.9438 600.236 79.9438 600.236V311.876C79.9438 292.217 101.49 276.057 101.49 276.057C101.49 276.057 142.397 247.909 192.339 213.481L192.96 213.059L365.201 324.932C365.201 324.932 403.552 345.46 438.551 324.932C473.55 304.404 601.41 213.059 601.41 213.059L671.259 261.139C687.841 272.731 699.16 280.749 701.989 283.033C717.354 295.394 715.617 311.876 715.617 311.876Z" fill="#FEFEFC"/>
<path d="M397.767 186.326C425.582 186.326 448.131 163.777 448.131 135.962C448.131 108.147 425.582 85.5977 397.767 85.5977C369.951 85.5977 347.402 108.147 347.402 135.962C347.402 163.777 369.951 186.326 397.767 186.326Z" fill="#FFFFFD"/>
<path d="M671.259 261.139C671.259 261.139 498.273 388.899 450.59 418.066C402.931 447.207 350.705 418.066 350.705 418.066L123.035 261.809L192.339 213.481L192.959 213.059L365.201 324.932C365.201 324.932 403.551 345.46 438.551 324.932C473.55 304.404 601.41 213.059 601.41 213.059L671.259 261.139Z" fill="#D96C6F"/>
<path d="M347.501 623.048L79.793 442.267V346.379C79.793 346.379 330.274 506.731 334.171 510.007C338.118 513.309 346.955 517.876 347.302 535.748C347.65 553.62 347.501 623.048 347.501 623.048Z" fill="#ACD6D6"/>
<path d="M347.527 623.049V723.083L79.8187 541.88L78.7266 441.623L347.527 623.049Z" fill="#4EB1AC"/>
<path d="M347.006 623.049V723.083L80.3154 541.88L79.248 441.623L347.006 623.049Z" fill="#4EB1AC"/>
<path d="M715.641 342.109V439.289L473.004 603.165L448.008 617.041L448.405 540.067C448.405 540.067 445.302 524.95 468.958 509.113C492.613 493.277 715.641 342.109 715.641 342.109Z" fill="#96CCCD"/>
<path d="M715.665 538.678L447.436 720.699L448.006 617.042L715.64 438.371L715.665 538.678Z" fill="#4FADA4"/>
<path d="M701.692 637.619C685.185 652.984 444.186 816.29 444.186 816.29C445.824 813.435 446.842 810.357 446.99 806.981L447.437 720.699L715.667 538.678L715.617 609.148C715.617 609.148 718.198 622.254 701.692 637.619Z" fill="#4A768D"/>
<path d="M354.898 821.155C354.898 821.155 134.476 672.593 107.346 654.026C80.2149 635.484 79.793 613.219 79.793 613.219V541.309L347.526 723.082V798.169C347.526 798.169 347.551 798.169 347.551 798.244C347.551 798.442 347.551 799.088 347.65 800.105V800.205C347.7 801.148 347.848 803.581 348.444 805.194C349.239 808.793 350.753 813.41 353.632 818.151C354.377 819.963 354.873 821.155 354.873 821.155H354.898Z" fill="#4A7591"/>
</svg>
