<svg width="32" height="49" viewBox="0 0 32 49" fill="none" xmlns="http://www.w3.org/2000/svg">
<path fill-rule="evenodd" clip-rule="evenodd" d="M7.63068 1.05243C6.59711 1.5699 5.41589 2.54255 5.00574 3.21369C4.59559 3.88399 3.21668 5.38823 1.94112 6.55607C-0.790455 9.05622 -0.727293 9.25308 2.69333 8.89591C5.02461 8.65171 5.35519 8.4831 5.99091 7.21143C7.43381 4.32422 9.9152 3.20455 11.4434 4.75198C13.1152 6.44477 10.3532 10.1742 7.77587 9.7041C7.56342 9.66589 8.13598 10.5123 9.04733 11.5846C12.2145 15.3116 15.3308 22.9565 19.1419 36.3477C20.9588 42.7343 24.678 46.5468 29.3841 46.85L31.9844 47.0178L29.2873 45.7012C24.1662 43.2028 23.6174 41.9402 23.2171 31.7411L22.9136 24.0039L20.94 19.2246C19.0623 14.6786 18.9712 14.2501 19.0623 10.4259C19.26 2.18455 13.9904 -2.13547 7.63068 1.05243ZM5.9056 11.0223C7.19593 12.4667 6.56758 15.094 3.96397 19.1382C-1.45489 27.5557 -0.656748 34.4232 6.64551 42.2077C10.1957 45.9911 10.1605 45.9106 8.41734 46.2985C5.91545 46.855 5.82932 47.7944 8.2459 48.169C11.2211 48.6292 22.953 48.6441 25.6534 48.1906L27.8632 47.8201L26.1029 47.0178C22.1081 45.1962 19.5586 41.196 17.3832 33.3342C13.7411 20.1732 8.72003 10.1219 5.78748 10.1219C5.21163 10.1219 5.2305 10.2673 5.9056 11.0223ZM9.10885 14.4876C11.0792 17.8923 11.0964 21.3393 9.16709 26.3114C6.64633 32.8051 6.66766 34.8891 9.31639 41.2085L10.6141 44.3041L9.309 43.3631C2.43166 38.4051 0.37108 27.7625 4.68255 19.4754C6.16892 16.6181 7.03843 14.3838 7.03843 13.4186C7.03843 11.5348 7.5544 11.8014 9.10885 14.4876Z" fill="white"/>
</svg>
