<svg width="202" height="55" viewBox="0 0 202 55" fill="none" xmlns="http://www.w3.org/2000/svg">
<g clip-path="url(#clip0_501_6681)">
<path d="M188.423 42.349C186.546 44.2503 183.939 45.2569 180.884 45.2604C180.859 45.2604 180.835 45.2592 180.81 45.2589C180.785 45.2592 180.76 45.2604 180.736 45.2604C177.68 45.2569 175.074 44.2503 173.196 42.349C171.3 40.4274 170.273 37.6492 170.285 34.5008C170.273 31.3533 171.3 28.5725 173.197 26.6509C175.074 24.7494 177.68 23.742 180.736 23.7392H180.754C180.773 23.7392 180.791 23.7403 180.81 23.7403C180.829 23.7403 180.847 23.7392 180.866 23.7392H180.883C183.939 23.742 186.546 24.7494 188.423 26.6509C190.319 28.5725 191.346 31.3533 191.334 34.5008C191.346 37.6492 190.319 40.4274 188.423 42.349ZM202.002 34.498C201.975 26.5522 198.684 20.6256 192.193 16.8776C188.72 14.8721 184.78 13.9829 180.81 14.0101C176.839 13.9829 172.9 14.8721 169.426 16.8776C162.936 20.6256 159.645 26.5522 159.618 34.498H159.617C159.643 42.4457 162.935 48.3732 169.426 52.1223C172.796 54.0681 176.624 54.9795 180.505 55C180.606 55 180.708 54.9969 180.81 54.9958C180.911 54.9969 181.014 55 181.115 55C184.996 54.9795 188.824 54.0681 192.194 52.1223C198.685 48.3732 201.977 42.4457 202.002 34.498H202.002Z" fill="white"/>
<path d="M52.8633 14.4477V24.1936H67.7667V54.6426H78.6753V24.1936H93.8499V14.4477H52.8633Z" fill="white"/>
<path d="M38.332 54.6426H49.3409V14.3654H38.332V54.6426Z" fill="white"/>
<path d="M0 54.6426H11.0078V14.3654H0V54.6426Z" fill="white"/>
<path d="M27.6078 14.3654L11.0078 54.6426H22.3566L38.3218 14.3654H27.6078Z" fill="white"/>
<path d="M138.032 14.3654L127.106 40.8735L116.18 14.3654H97.3711V54.6426H108.379V21.7145L121.432 54.6426H132.78L145.833 21.7134V54.6426H156.843V14.3654H138.032Z" fill="white"/>
<path d="M43.8338 0.00177626C40.7905 0.00177626 38.3242 2.4041 38.3242 5.36601C38.3242 8.32878 40.7905 10.7305 43.8338 10.7305C46.8768 10.7305 49.3433 8.32878 49.3433 5.36601C49.3433 2.4041 46.8768 0.00177626 43.8338 0.00177626Z" fill="white"/>
</g>
<defs>
<clipPath id="clip0_501_6681">
<rect width="202" height="55" fill="white"/>
</clipPath>
</defs>
</svg>
