<svg width="853" height="987" viewBox="0 0 853 987" fill="none" xmlns="http://www.w3.org/2000/svg">
<path d="M38.1055 244.282L365.32 16.6271C365.32 16.6271 420.392 -18.5339 485.159 16.6271C549.925 51.7881 821.906 251.415 821.906 251.415C821.906 251.415 851.813 287.934 851.813 322.27C851.813 356.606 852.186 658.548 852.186 658.548C852.186 658.548 856.926 712.953 811.867 747.529C766.807 782.104 484.812 973.161 484.812 973.161C484.812 973.161 426.517 1003.05 374.667 973.161C322.817 943.27 45.2426 751.628 45.2426 751.628C45.2426 751.628 2.07392 731.239 1.03531 674.492V308.855C1.03531 308.855 -1.57452 271.884 38.0789 244.282H38.1055Z" fill="#1D2933" stroke="#201600" stroke-miterlimit="10"/>
<path d="M38.1055 244.282L365.32 16.6271C365.32 16.6271 420.392 -18.5339 485.159 16.6271C549.925 51.7881 821.906 251.415 821.906 251.415C821.906 251.415 851.813 287.934 851.813 322.27C851.813 356.606 852.186 658.548 852.186 658.548C852.186 658.548 856.926 712.953 811.867 747.529C766.807 782.104 484.812 973.161 484.812 973.161C484.812 973.161 426.517 1003.05 374.667 973.161C322.817 943.27 45.2426 751.628 45.2426 751.628C45.2426 751.628 2.07392 731.239 1.03531 674.492V308.855C1.03531 308.855 -1.57452 271.884 38.0789 244.282H38.1055Z" fill="#1D2933" stroke="#201600" stroke-miterlimit="10"/>
<path d="M570.059 177.18C570.059 177.18 479.993 244.202 455.173 259.506C430.353 274.785 403.136 259.506 403.136 259.506L282.498 177.18C338.956 138.24 389.288 103.398 397.197 97.5954C416.398 83.4884 450.246 94.8805 450.246 94.8805C450.246 94.8805 506.198 133.236 570.059 177.18Z" fill="#F5D6BA"/>
<path d="M720.016 280.879L645.077 229.322C645.077 229.322 507.901 327.273 470.351 349.285C432.802 371.297 391.657 349.285 391.657 349.285L206.865 229.322C231.046 212.66 257.171 194.667 282.098 177.472L282.497 177.18L403.135 259.506C403.135 259.506 430.352 274.784 455.172 259.506C479.992 244.201 570.058 177.18 570.058 177.18H570.111C624.118 214.39 683.798 255.567 720.016 280.879Z" fill="#E8A98D"/>
<path d="M767.605 335.286C767.605 335.286 767.712 632.757 767.605 654.051C767.472 675.318 749.23 687.296 749.23 687.296C749.23 687.296 489.792 865.549 458.953 888.706C428.088 911.863 391.417 888.706 391.417 888.706C391.417 888.706 138.051 717.506 110.008 697.756C81.9661 678.006 85.6145 644.496 85.6145 644.496V335.286C85.6145 314.206 108.73 296.878 108.73 296.878C108.73 296.878 152.618 266.694 206.199 229.777L206.865 229.324L391.657 349.287C391.657 349.287 432.802 371.299 470.351 349.287C507.901 327.275 645.077 229.324 645.077 229.324L720.016 280.881C737.805 293.311 749.949 301.909 752.985 304.357C769.47 317.613 767.605 335.286 767.605 335.286Z" fill="#FEFEFC"/>
<path d="M426.597 200.656C456.439 200.656 480.631 176.477 480.631 146.65C480.631 116.824 456.439 92.6445 426.597 92.6445C396.754 92.6445 372.562 116.824 372.562 146.65C372.562 176.477 396.754 200.656 426.597 200.656Z" fill="#FFFFFD"/>
<path d="M720.016 280.881C720.016 280.881 534.425 417.879 483.267 449.154C432.136 480.402 376.104 449.154 376.104 449.154L131.846 281.6L206.199 229.777L206.865 229.324L391.657 349.287C391.657 349.287 432.802 371.299 470.351 349.287C507.901 327.275 645.077 229.324 645.077 229.324L720.016 280.881Z" fill="#D96C6F"/>
<path d="M372.669 668.956L85.4551 475.104V372.283C85.4551 372.283 354.188 544.229 358.369 547.742C362.603 551.282 372.084 556.18 372.456 575.344C372.829 594.508 372.669 668.956 372.669 668.956Z" fill="#ACD6D6"/>
<path d="M372.697 668.955V776.222L85.4823 581.918L84.3105 474.412L372.697 668.955Z" fill="#4EB1AC"/>
<path d="M372.137 668.955V776.222L86.0409 581.918L84.8691 474.412L372.137 668.955Z" fill="#4EB1AC"/>
<path d="M767.633 367.705V471.91L507.315 647.636L480.498 662.515L480.924 579.975C480.924 579.975 477.595 563.766 502.975 546.784C528.354 529.802 767.633 367.705 767.633 367.705Z" fill="#96CCCD"/>
<path d="M767.66 578.485L479.887 773.667L480.499 662.515L767.634 470.926L767.66 578.485Z" fill="#4FADA4"/>
<path d="M752.666 684.58C734.956 701.055 476.396 876.168 476.396 876.168C478.154 873.107 479.246 869.807 479.406 866.187L479.885 773.667L767.659 578.484L767.605 654.05C767.605 654.05 770.375 668.104 752.666 684.58Z" fill="#4A768D"/>
<path d="M380.605 881.386C380.605 881.386 144.123 722.084 115.015 702.174C85.9078 682.291 85.4551 658.416 85.4551 658.416V581.307L372.696 776.223V856.739C372.696 856.739 372.723 856.739 372.723 856.819C372.723 857.032 372.723 857.724 372.829 858.815V858.922C372.882 859.933 373.042 862.541 373.681 864.271C374.534 868.131 376.158 873.082 379.247 878.166C380.046 880.109 380.579 881.386 380.579 881.386H380.605Z" fill="#4A7591"/>
<path d="M372.696 776.221C372.696 776.221 426.198 810.078 479.886 773.666L479.273 867.757C479.273 867.757 478.954 877.419 469.846 884.047C460.738 890.674 447.183 899.591 426.278 900.176C407.796 900.709 396.558 895.279 379.594 882.37C379.594 882.37 370.166 874.331 371.125 849.524C372.35 818.808 372.67 776.195 372.67 776.195L372.696 776.221Z" fill="#4BB2BC"/>
<path d="M372.67 668.955C372.67 668.955 426.518 705.021 480.498 662.514L479.886 772.335C479.886 772.335 479.566 783.594 470.405 791.34C461.271 799.085 447.609 809.493 426.597 810.185C408.009 810.797 396.691 804.489 379.647 789.423C379.647 789.423 370.167 780.028 371.152 751.095C372.377 715.215 372.67 668.955 372.67 668.955Z" fill="#B9DCDE"/>
<path d="M380.952 244.361C380.952 244.361 425.372 285.857 483.002 240.289L486.011 331.266C486.011 331.266 486.49 339.331 477.356 345C468.221 350.67 455.119 359.027 432.749 359.001C414.161 359.001 394.001 352.905 384.893 344.84C384.893 344.84 376.318 336.882 377.303 315.668C378.528 289.371 380.978 244.308 380.978 244.308L380.952 244.361Z" fill="#E9AD94"/>
</svg>
