<svg width="220" height="73" viewBox="0 0 220 73" fill="none" xmlns="http://www.w3.org/2000/svg">
<path d="M20.4291 2.72387C17.4498 7.57577 14.3855 19.3225 8.51211 48.7744C7.40553 54.3924 5.27751 57.0311 2.12803 57.0311C0.340484 57.0311 0 57.4567 0 59.5848C0 61.9681 0.255363 62.1384 2.97924 62.1384C6.97993 62.1384 10.1294 60.5211 11.4913 57.7972C12.1723 56.5204 14.4706 47.2422 16.5986 37.1128C20.7695 17.4498 23.7488 6.63944 25.1107 6.72456C26.5578 6.72456 27.9197 13.9599 31.8353 40.9432C33.9633 55.6692 36.1765 68.0969 36.9425 69.5439C39.7515 75.0768 44.8588 73.8 47.6678 66.9052L49.5405 62.1384H134.066C210.334 62.1384 218.591 61.9681 219.102 60.7764C220.634 56.8609 225.23 57.0311 133.385 57.0311C51.0726 57.0311 46.9868 57.1162 45.71 58.5633C44.9439 59.4145 43.8374 61.3723 43.3266 62.8194C42.8159 64.3515 42.0498 65.5432 41.7093 65.5432C40.8581 65.5432 40.6028 63.9259 37.8789 44.263C33.6228 13.4491 31.8353 4.42629 29.1965 1.44706C28.4304 0.595846 26.6429 -1.42728e-06 24.9405 -1.42728e-06C22.6422 -1.42728e-06 21.791 0.510725 20.4291 2.72387Z" fill="#0072BC"/>
<path d="M118.064 21.2795C117.554 23.5777 117.128 23.8331 114.489 23.8331C112.787 23.8331 110.233 24.3438 108.701 25.0248C105.552 26.3016 100.444 31.7493 100.444 33.7923C100.444 34.5583 100.274 34.9839 100.019 34.7286C99.7634 34.4732 100.104 31.5791 100.87 28.1743C101.551 24.7694 102.147 21.8753 102.147 21.6199C102.147 21.4497 97.9758 21.2795 92.9537 21.2795H83.7606L80.7814 28.2594L77.8872 35.3244L77.2914 31.494C77.036 29.366 76.6955 26.2165 76.6955 24.4289L76.6104 21.1943L67.5025 21.4497L58.4796 21.7051L55.6706 35.3244C54.0533 42.8151 52.6063 49.795 52.3509 50.8165C51.9253 52.6891 52.0956 52.7743 57.3731 52.7743C63.672 52.7743 62.9911 53.6255 65.2042 42.1341C65.9703 37.8781 66.9917 34.1327 67.3322 33.622C67.7578 33.1964 68.0983 37.1971 68.0983 42.8151V52.8594L73.7163 52.604L79.2492 52.3486L83.1647 43.6663C85.3779 38.8144 87.2506 35.0691 87.5059 35.2393C87.7613 35.5798 85.6333 47.7521 84.6118 51.2421C84.1862 52.604 84.8672 52.7743 90.0596 52.7743H96.018L97.5502 44.4324C98.9121 37.1971 99.1675 36.5161 99.6782 39.3251C100.615 45.1985 104.615 48.5182 110.999 48.5182C112.191 48.5182 112.446 49.0289 112.106 50.6462L111.765 52.8594L118.235 52.604C124.108 52.3486 124.704 52.1784 124.959 50.5611C125.129 49.114 125.981 48.6033 129.045 48.1777C131.173 47.9224 134.237 47.0711 135.855 46.3051C139.685 44.4324 143.005 38.8995 143.005 34.2179V30.6428H148.112C150.921 30.6428 153.219 30.9833 153.219 31.4089C153.219 32.0898 150.325 46.986 149.389 50.8165C148.963 52.6891 149.134 52.7743 155.262 52.7743C160.54 52.7743 161.646 52.5189 162.072 51.2421C162.327 50.476 163.349 45.4538 164.37 40.1763L166.243 30.6428H171.52H176.798L177.649 25.9611L178.5 21.2795H161.646H144.792L144.197 25.1099C143.941 27.2379 143.516 28.9404 143.26 28.9404C143.09 28.9404 142.069 27.9189 140.962 26.7272C139.515 25.0248 138.068 24.3438 134.663 24.0033C130.407 23.6628 130.322 23.5777 130.833 21.1943L131.343 18.7258H124.959H118.575L118.064 21.2795Z" fill="#0072BC"/>
<path d="M177.136 35.9216C175.519 44.0081 174.072 51.1583 173.816 51.669C173.561 52.5202 175.349 52.7756 180.967 52.7756H188.542L193.224 45.6254C195.778 41.6247 197.991 38.5604 198.161 38.6455C198.246 38.8157 197.821 41.3694 197.055 44.3486C195.012 53.1161 194.841 52.7756 201.992 52.7756H208.205L211.014 38.9008C212.547 31.3251 213.994 24.26 214.249 23.1534C214.675 21.2808 214.504 21.2808 207.184 21.2808H199.608L195.012 28.6012C192.543 32.6019 190.33 35.7514 190.16 35.5811C189.989 35.4109 190.415 32.9424 191.096 30.2185C193.224 21.1957 193.309 21.2808 186.159 21.2808H179.945L177.136 35.9216Z" fill="#0072BC"/>
<path d="M111.387 36.4729C111.387 32.8829 112.737 31.0871 115.876 31.087C117.671 31.0869 116.836 32.7572 116.779 36.025C116.929 38.3081 116.652 40.5083 114.976 40.9574C111.836 40.9624 111.387 40.0641 111.387 36.4729Z" fill="white"/>
<path d="M131.586 35.8533C131.586 39.4433 130.236 41.239 127.097 41.2392C125.301 41.2393 126.137 39.569 126.194 36.3011C126.044 34.0181 126.321 31.8179 127.996 31.3688C131.137 31.3638 131.586 32.2621 131.586 35.8533Z" fill="white"/>
</svg>
