<svg width="168" height="166" viewBox="0 0 168 166" fill="none" xmlns="http://www.w3.org/2000/svg">
<path d="M112.828 0.00724206C112.611 0.0673583 112.82 0.478205 113.349 0.805922C114.441 1.48228 115.351 3.22167 114.597 3.20196C114.265 3.19307 112.507 2.58583 111.615 2.1602C111.227 1.97497 110.075 1.52888 109.049 1.1879C107.194 0.571224 107.181 0.578113 104.021 0.701746C98.8935 0.902363 97.0413 1.08655 97.1559 1.43098C97.2227 1.63153 98.5004 2.11104 101.351 3.02833C102.072 3.26031 102.829 3.53097 103.05 3.61866C103.371 3.74532 104.6 4.05637 106.587 4.52152C106.643 4.53452 107.045 4.64054 107.489 4.72987C109.662 5.16743 109.478 5.65419 107.142 5.63272C105.296 5.61572 104.576 5.72618 104.576 6.04943C104.576 6.25295 107.422 7.98514 109.084 8.79272C109.749 9.11624 110.491 9.49499 110.713 9.62612C110.935 9.75726 111.837 10.1348 112.724 10.4595C113.612 10.7843 114.854 11.2319 115.464 11.4666C116.074 11.7012 116.878 11.9923 117.267 12.0916C117.655 12.1908 118.624 12.5002 119.416 12.7861C120.208 13.072 121.164 13.3362 121.532 13.3764C122.286 13.4592 122.525 13.7827 121.982 14.0015C121.783 14.0817 120.907 14.1868 120.075 14.2446C119.243 14.3024 118.385 14.4428 118.168 14.5571C117.776 14.7634 117.776 14.7923 118.168 15.078C120.371 16.6815 121.391 17.3351 121.566 17.3351C121.681 17.3351 121.911 17.4781 122.086 17.6476C122.77 18.3072 124.288 19.3441 125.831 20.1826C126.718 20.6647 128.063 21.4384 128.813 21.9188C129.563 22.3993 130.262 22.787 130.373 22.787C130.484 22.787 131.035 23.1274 131.587 23.5162C132.139 23.905 132.688 24.2107 132.8 24.2107C132.913 24.2107 133.008 24.291 133.008 24.3843C133.008 24.4777 133.369 24.6846 133.841 24.8358C134.312 24.9869 134.999 25.2984 135.332 25.5303C135.963 25.9704 136.607 26.2557 138.383 26.8151C138.966 26.9987 139.426 27.224 139.388 27.336C139.315 27.5573 136.751 28.0297 136.198 27.9263C136.012 27.8913 135.755 28.0004 135.644 28.1347C135.5 28.3084 135.842 28.9901 136.857 30.496C137.642 31.6593 138.349 32.6281 138.418 32.6837C138.486 32.7392 138.978 33.288 139.492 33.899C140.763 35.4074 142.696 37.3905 144.277 38.7606C146.638 40.8053 149.688 43.9042 149.756 44.3166C149.815 44.677 149.754 44.7051 148.924 44.6638L147.987 44.6291L147.849 45.6014C147.691 46.9317 147.874 49.2352 148.265 51.088C149.291 55.9544 150.424 59.6214 152.738 65.6031C153.473 67.503 153.339 67.6681 151.663 67.0963C151.138 66.9172 150.665 66.8458 150.588 66.9227C150.111 67.4008 150.205 73.5365 150.727 75.4998C152.463 82.0313 153.252 86.4448 152.842 87.5147C152.727 87.8152 152.669 87.8294 152.322 87.5147C152.113 87.3257 151.847 86.8302 151.732 86.4035C151.498 85.5305 151.231 85.3798 151.039 86.0563C150.584 87.6553 149.119 90.7651 148.161 92.0985C146.325 94.6531 143.006 98.916 142.925 98.8351C142.786 98.696 142.886 79.3468 143.029 78.764C143.122 78.3871 143.088 78.2927 142.856 78.382C142.195 78.6359 143.003 78.126 141.885 74.6664C141.584 73.7366 141.101 75.5315 141.053 76.4027C141.049 78.1304 140.921 78.5962 140.394 78.5209C139.972 78.4607 139.952 78.3729 139.943 73.6941C139.936 70.348 139.874 68.8351 139.7 68.5201C139.441 68.0494 139.345 67.5476 139.076 65.4642C138.894 64.0519 138.547 63.4134 138.383 64.2141C138.328 64.4801 138.206 65.3975 138.14 66.2282C138.024 67.6934 137.799 68.2842 137.481 67.9644C137.396 67.879 137.321 66.7599 137.308 65.4642C137.277 62.2952 137.281 62.3416 136.927 62.4779C136.1 62.7954 135.795 62.0128 136.198 60.6027C136.435 59.7766 136.296 59.2736 135.852 59.4568C135.33 59.6717 134.728 59.6869 134.465 59.4916C133.958 59.1155 133.818 59.5579 133.945 61.0542L134.049 62.5474L133.39 62.6168L132.731 62.6863L132.662 65.3949C132.627 66.8858 132.545 68.1507 132.488 68.2076C132.193 68.5038 131.971 67.7127 131.864 66.0546C131.689 63.3502 131.354 63.3721 131.067 66.1241C130.997 66.7906 130.888 67.5965 130.824 67.9298C130.76 68.2631 130.69 70.77 130.651 73.4858C130.611 76.2017 130.512 78.5213 130.408 78.6252C130.038 78.9952 129.576 78.564 129.576 77.8612C129.576 76.7858 129.334 75.3263 129.16 75.3263C128.933 75.3263 128.708 76.4938 128.744 77.4792C128.779 78.4861 128.339 79.0675 127.773 78.7641C127.528 78.6328 127.347 78.1992 127.253 77.4792C126.963 75.2667 126.898 74.9079 126.732 74.8054C126.575 74.7079 126.415 75.2997 126.282 76.5416C126.252 76.8194 126.15 76.9792 126.039 76.9236C125.928 76.8681 125.814 75.9649 125.796 74.9096C125.769 73.2768 125.722 73.0186 125.45 73.0691C125.195 73.1162 125.137 72.9298 125.137 72.201C125.137 71.5569 125.055 71.2634 124.86 71.2634C124.349 71.1408 123.79 71.2493 123.634 71.2589C123.478 71.2689 123.435 71.5455 123.438 71.9229C123.496 72.3071 123.508 72.8917 123.196 73.0688C122.88 73.2476 122.814 73.5226 122.814 74.9439C122.814 76.8097 122.453 77.4036 122.294 75.8121C122.16 74.4688 121.831 74.5295 121.705 75.9162C121.643 76.5905 121.409 77.3533 121.115 77.8261C120.692 78.5085 120.632 78.9029 120.526 81.2291L120.387 83.903H113.348H106.275L106.171 81.7847C106.072 79.6964 106.077 79.6591 105.512 79.3887C105.081 79.1821 104.945 79.0068 105.027 78.6942C105.143 78.2495 104.675 77.1316 104.368 77.1316C104.045 77.1316 103.57 78.0126 103.57 78.59C103.57 78.9606 103.386 79.2378 103.05 79.4582C102.569 79.7739 102.53 79.8907 102.53 81.7847C102.53 82.9928 102.455 83.8206 102.322 83.903C102.148 84.0108 100.445 84.0705 99.3056 84.0071C99.1741 83.9993 99.1323 80.5337 99.1323 74.0062C99.1323 65.5703 99.1546 63.8876 99.4097 63.2761C99.7503 62.4598 99.8034 61.7078 99.5136 61.8871C99.1754 62.0965 98.8818 61.1388 98.8549 59.8731C98.8352 58.9501 98.7256 58.6577 98.5081 58.6577C98.2911 58.6577 98.2166 59.0012 98.1614 60.0467C98.0829 61.5317 97.8231 62.2651 97.4332 62.1302C97.2089 62.0526 97.1751 61.5739 97.3292 60.6718C97.3828 60.3581 97.2921 60.2994 96.8091 60.2898C96.2289 60.2782 96.1724 60.2277 95.977 59.0397C95.8652 58.3601 95.6701 57.6483 95.5262 57.477C95.3697 57.2906 95.2165 56.3312 95.1448 55.081C95.066 53.9191 94.1739 53.1711 94.1739 53.1711C92.8625 54.4437 92.9936 55.5627 92.7523 57.477C92.6049 57.6716 92.4786 58.081 92.4749 58.3799C92.4672 59.0089 92.1651 59.2897 91.9895 58.8313C91.9236 58.6593 91.8812 54.8752 91.8856 50.4278C91.8911 44.8775 91.7938 42.2759 91.6428 42.0938C91.5219 41.9478 91.3909 41.0278 91.3308 40.045C91.2029 37.9536 91.1305 37.6064 90.8453 37.892C90.7338 38.0037 90.605 38.7215 90.568 39.4894C90.5309 40.2572 90.4781 41.0312 90.464 41.2256C90.4395 41.5606 89.8613 41.7545 89.8399 41.434C89.7492 40.0808 89.5852 39.5302 89.1811 38.9338C88.7092 38.2374 88.6944 38.1284 88.7303 34.3501C88.7555 31.7022 88.6939 30.2318 88.5223 29.7316C87.7193 27.3069 87.9357 31.9754 86.9273 29.3496C86.7256 28.7437 86.5176 28.602 86.7192 27.9259C87.1226 26.3503 87.1318 25.0826 85.9218 24.627C85.115 24.2747 85.5038 22.867 85.7137 22.1615C86.1821 20.6453 85.9128 20.873 85.6097 20.5642C85.4573 20.4089 85.1243 20.0461 85.1243 19.0362C85.1243 18.0263 84.9672 17.6156 84.9162 17.2305C84.8307 16.5836 84.5677 13.9969 84.5348 9.45209L84.5001 6.08374C84.5001 6.08374 83.6983 5.91013 83.7026 6.11854C83.7082 6.38277 83.6567 9.59604 83.6333 11.3273C83.5829 15.0472 83.4911 16.6889 83.2866 17.2306C83.1316 17.641 83.062 18.4069 83.0785 19.0363C83.104 20.0077 82.9792 20.2725 82.5931 20.5642C82.143 20.9042 82.1399 20.9114 82.4544 22.1269C82.8936 23.8245 82.8625 24.3466 82.3157 24.6271C81.2344 25.1816 80.9878 26.5017 81.4835 27.926C81.6603 28.4338 81.565 28.6927 81.2755 29.3497C80.8907 30.2231 80.5473 30.3329 80.5473 29.6969C80.5473 29.0038 80.2274 29.0666 79.8885 29.8358C79.6382 30.4042 79.5539 31.4876 79.4725 34.3501C79.3601 38.2981 79.3061 38.5719 78.7096 39.3505C78.4819 39.6479 78.3282 40.1607 78.3282 40.7048C78.3282 41.5833 78.1102 41.8678 77.8775 41.2604C77.8101 41.0847 77.7388 40.3695 77.7388 39.6631C77.7388 38.9566 77.636 38.3393 77.5307 38.2741C77.313 38.1393 77.1729 38.8871 77.0453 40.7743C76.9836 41.6861 76.8662 42.1633 76.6292 42.3369C76.3731 42.5245 76.3 42.7611 76.3865 43.3439C76.6631 45.2063 76.6025 59.1439 76.3172 59.1439C76.2062 59.1439 76.1091 58.9802 76.1091 58.7619C76.1091 58.5437 75.9221 58.2596 75.693 58.1369C75.326 57.9402 75.3063 57.7401 75.3463 56.5048C75.3829 55.3731 75.288 54.9162 74.8955 54.1088C74.6282 53.5587 74.3706 53.106 74.3061 53.1017C74.2416 53.0973 73.8738 53.5444 73.5086 54.1088C72.9249 55.0109 72.886 55.2176 73.0925 55.6714C73.4322 56.4181 73.1657 57.974 72.6764 58.1022C72.2992 58.2009 72.2213 58.3604 71.9829 59.8384C71.86 60.6008 71.8386 60.5927 71.1508 60.4635C70.917 60.4196 70.6299 60.1954 70.4573 60.3594C70.2159 60.5885 70.5523 61.0015 70.596 61.3317C70.7004 62.1203 70.6692 62.3481 70.4226 62.4429C69.943 62.6272 69.7247 62.2186 69.5905 60.7066C69.4004 58.5654 69.0834 58.5678 68.8623 60.7066C68.7683 61.6159 68.6415 62.1009 68.4116 62.2692C68.0945 62.5015 68.0749 62.6006 68.4809 63.5194C68.9094 64.4889 68.919 64.6743 68.897 74.18C68.8791 81.8691 68.8275 83.9077 68.6196 84.0419C68.2665 84.2699 65.9622 84.1564 65.7764 83.903C65.6949 83.7919 65.6393 82.9993 65.6377 82.1321C65.6343 80.6262 65.6141 80.5285 65.0135 79.9791C64.6677 79.6627 64.455 79.2989 64.5281 79.1804C64.6825 78.9302 64.1079 77.7567 63.8346 77.7567C63.5493 77.7567 63.3383 78.1575 63.2105 79.0415C63.1463 79.4859 62.9869 79.8297 62.8638 79.8055C62.4101 79.7162 62.2251 80.3323 62.1356 82.0626C62.0851 83.0376 62.0126 83.8874 61.9623 83.9378C61.912 83.9881 58.6328 84.0398 54.6808 84.0767C49.4835 84.1252 47.4921 84.1014 47.4687 83.9378C47.4509 83.8133 47.4108 82.597 47.3993 81.2639C47.381 79.1289 47.3111 78.7477 46.9139 78.1039C46.6637 77.6986 46.5385 77.0453 46.4631 76.6455C46.2703 75.623 46.1325 75.7547 45.9777 76.9233C45.8436 77.9359 45.6169 78.2145 45.3883 77.6178C45.3209 77.4422 45.3202 76.6363 45.3883 75.8121C45.4294 75.3125 45.866 74.6876 45.527 74.3189C45.4027 74.1838 45.1556 74.3189 44.9722 74.3189C44.4248 74.3189 44.4222 74.3156 44.5561 73.2424C44.6009 72.8828 44.8166 72.487 44.572 72.2199C44.0854 72.1366 43.5138 72.1842 43.1345 72.2007C42.8805 72.4649 43.1345 72.9452 43.1345 73.3119C43.1345 74.3429 43.1227 74.4012 42.6837 74.3537C42.2266 74.3042 42.2312 74.3515 42.337 75.6385C42.4479 76.9879 42.1819 78.1632 41.8515 77.8262C41.7521 77.7247 41.644 77.2635 41.6088 76.8192C41.5737 76.3748 41.4424 76.0205 41.3314 76.0205C41.2205 76.0205 41.0892 76.3748 41.0541 76.8192C41.0189 77.2635 40.9148 77.7207 40.8113 77.8262C40.7078 77.9318 40.638 78.4264 40.638 78.9374C40.638 79.4484 40.5283 79.9848 40.3953 80.1181C40.0767 80.4371 39.2408 80.44 39.2164 80.1181C39.2053 79.9792 39.1582 79.1233 39.1124 78.2429C39.0665 77.3625 38.9648 76.602 38.9043 76.5414C38.6379 76.2746 38.4217 77.1588 38.4189 78.486C38.4167 79.4969 38.313 79.9814 38.1068 80.1528C37.4665 80.685 37.4134 80.1688 37.4134 75.2218C37.4134 71.2253 37.3289 70.1419 37.0666 69.4227C36.8801 68.9114 36.7515 67.936 36.7546 67.0961C36.7579 66.1142 36.6971 65.5833 36.5118 65.4293C36.1081 65.0937 35.7914 65.7564 35.8184 66.9572C35.8306 67.4998 35.7926 68.2673 35.7144 68.624C35.5708 69.2789 35.2364 69.4713 35.0903 69.006C35.0278 68.8071 34.8048 65.281 34.7782 64.0403C34.7749 63.9014 34.6166 63.7972 34.3968 63.7972C33.8654 63.7972 33.6944 63.0564 33.9807 61.9915C34.1049 61.5297 34.1695 61.1003 34.1194 61.0192C34.0694 60.9381 33.4847 60.8949 32.8365 60.9151C32.4119 60.9283 31.9245 60.6609 31.6576 60.9499C31.3344 61.2997 31.7049 61.8975 31.7269 62.3736C31.7878 63.683 31.7448 63.7974 31.3802 63.7974C30.8271 63.7974 30.7766 64.0449 30.7561 66.6448C30.7399 68.7028 30.5748 69.5539 30.236 69.2145C30.171 69.1494 30.0571 68.3924 29.9933 67.5477C29.8654 65.8541 29.5836 65.2832 29.0224 65.4989C28.722 65.6143 28.6827 65.7897 28.7797 66.6101C28.8505 67.2088 28.7808 67.974 28.6063 68.5547C28.3955 69.2563 28.3167 70.8578 28.2943 74.7011C28.2775 77.5684 28.2062 80.0496 28.1209 80.1877C28.0357 80.3258 27.8365 80.3557 27.6701 80.2918C27.3724 80.1773 27.1108 78.8811 27.1154 77.3748C27.1187 76.3501 26.9437 75.864 26.6299 76.1247C26.476 76.2526 26.2984 77.0913 26.2138 78.1735C26.1104 79.4975 25.9782 80.0008 25.7631 80.0834C25.5613 80.161 25.5123 80.3829 25.5897 80.7432C25.7811 81.6344 25.914 101.151 25.7284 101.266C25.6329 101.325 25.2264 100.925 24.8269 100.398C24.2274 99.6058 23.0667 98.1773 21.6022 96.3348C20.4805 94.9235 19.2166 92.9833 18.7937 92.0636C17.6925 89.6687 17.4616 89.1332 17.2334 88.2786C17.0352 87.5365 16.9685 87.4187 16.7479 87.6535C16.603 87.8077 16.3141 88.4189 16.1238 89.0078C15.9282 89.6131 15.7005 90.0582 15.569 90.0148C15.2145 89.8979 15.0558 87.6953 15.3263 86.3339C15.8982 83.4556 16.0299 82.9049 16.3319 81.9238C17.5155 78.0774 17.9135 75.2393 17.7881 71.541C17.7339 69.9419 17.6208 68.5954 17.5454 68.5199C17.47 68.4444 16.9405 68.6075 16.3665 68.9019C15.1633 69.5191 14.7339 69.3833 15.0143 68.4852C15.3548 67.3941 16.6527 63.8839 16.8173 63.5889C16.9103 63.4223 17.3057 62.2134 17.7188 60.8804C18.1319 59.5473 18.5603 58.2065 18.655 57.9287C18.7496 57.651 18.959 56.7478 19.1404 55.9147C19.3219 55.0815 19.5589 54.0324 19.6605 53.5881C20.3674 50.4962 20.4374 46.5587 19.7992 46.1569C19.5388 45.9929 19.3678 46.0061 19.0711 46.1917C18.4683 46.5687 18.0309 46.4977 18.0309 46.0181C18.0309 45.5796 20.1248 43.395 22.6425 41.226C24.7504 39.4099 29.1406 34.8845 30.0279 33.6212C30.4716 32.9894 31.1723 32.0445 31.5883 31.5029C32.0042 30.9614 32.3511 30.4434 32.3511 30.357C32.3511 30.2705 32.5163 30.037 32.6978 29.8361C33.1105 29.3794 33.0635 29.3585 30.4787 29.0374C27.8861 28.7154 27.7327 28.4127 29.8546 27.8915C30.9492 27.6226 34.6428 25.8316 36.3385 24.7662C36.9193 24.4014 38.1125 23.6954 38.9737 23.2036C39.835 22.7117 40.8389 22.1003 41.2275 21.8146C42.0827 21.1857 42.4753 20.9378 43.6547 20.2867C44.1538 20.0111 45.2013 19.3473 45.9778 18.7935C46.7543 18.2396 48.1471 17.2643 49.0638 16.6405C49.9805 16.0167 50.685 15.4197 50.6241 15.321C50.4761 15.0811 49.5122 14.9075 47.7808 14.8348C46.9962 14.8018 46.247 14.7072 46.1165 14.6264C45.7915 14.4253 45.8101 14.1056 46.1512 14.1056C46.7154 14.1056 52.5547 12.2852 53.9181 11.6748C55.2446 11.081 56.9572 10.2621 57.6282 9.93855C57.9423 9.78713 58.2913 9.66075 58.391 9.66075C58.4908 9.66075 59.0671 9.35505 59.674 8.96624C60.8555 8.21242 61.9761 7.67201 63.3147 6.81328C63.5558 6.7675 63.7308 6.56524 63.7308 6.32713C63.7308 5.95305 63.6095 5.96044 61.685 6.0146C60.2902 6.05383 59.5645 5.96593 59.4659 5.80625C59.282 5.50818 59.7502 5.21992 60.4021 5.21592C60.8156 5.2137 63.1769 4.54498 64.4243 4.06999C64.5906 4.00665 65.541 3.66336 66.5394 3.30603C72.6985 1.10146 72.717 1.06136 66.678 0.909995C63.1469 0.821432 62.325 0.837323 60.5408 1.1878C59.3292 1.42581 58.0006 1.84196 57.3162 2.19483C56.6767 2.5245 55.9697 2.81988 55.7558 2.81988C55.542 2.81988 55.0514 2.9972 54.6463 3.23658C54.05 3.58893 53.8811 3.63111 53.7448 3.41021C53.543 3.08326 53.852 2.45414 54.4382 1.98648C56.7119 0.172866 56.5466 0.0909919 53.1207 1.29197C52.3996 1.54473 51.4007 1.8763 50.9015 2.0212C50.4024 2.1661 49.9029 2.30652 49.792 2.36845C49.681 2.43035 49.5701 2.49634 49.5146 2.50735C48.624 2.68414 43.1431 7.70003 42.2331 9.17459C41.7359 9.98038 41.053 10.1211 41.0195 9.41767C41.0077 9.16773 40.9979 8.31317 41.0195 7.50778C41.0412 6.70239 41.0066 6.04932 40.9502 6.04932C40.3678 6.04932 34.3622 11.0175 34.3622 11.5012C34.3622 11.838 33.3801 13.3069 33.1486 13.3069C32.9908 13.3069 32.9754 12.7499 33.0793 11.3623C33.2464 9.13031 33.357 9.16755 31.519 10.8414C30.9968 11.3169 30.5024 11.7095 30.4094 11.7095C30.3164 11.7095 29.0017 12.9115 27.4968 14.3834C24.9689 16.8561 23.4315 18.6015 22.6772 19.9394C22.5108 20.2345 22.049 21.0914 21.637 21.8146C20.6759 23.5014 19.5337 26.6153 19.3485 28.0999C19.116 29.9635 18.7633 29.7055 17.6148 26.7456C16.916 24.9443 16.8077 24.8615 16.1239 25.7733C15.8069 26.1959 15.4917 26.5859 15.4304 26.6414C15.2872 26.7711 14.7716 27.6691 14.0088 29.0722C13.6766 29.6831 13.224 30.4755 13.0032 30.8431C12.363 31.9095 10.9863 36.1514 10.264 39.3508C9.08932 44.5547 7.84751 48.8655 7.52481 48.8655C7.42307 48.8655 7.03284 48.1221 6.6233 47.2334C6.21376 46.3447 5.75909 45.6361 5.61776 45.6361C5.47644 45.6361 5.25522 45.9974 5.13233 46.4695C5.00945 46.9416 4.70607 47.9837 4.47353 48.7613C3.76576 51.1281 3.41276 53.7196 3.12126 58.6233C3.00983 60.4976 2.96987 62.0886 3.01727 62.1653C3.06465 62.2419 3.1044 63.0685 3.12126 64.0057C3.17308 66.8677 3.82231 70.8827 4.47353 72.4439C4.71431 73.0212 4.71022 73.1036 4.43879 73.2079C3.9825 73.3832 1.90762 72.59 1.90762 72.2356C1.90762 71.9329 1.10058 70.8813 0.867406 70.8813C0.722409 70.8813 0.675776 71.4912 0.763453 72.8259C0.834575 73.909 0.897365 75.4027 0.902147 76.1248C0.909914 77.3188 1.1448 79.4241 1.73431 84.2158C2.15052 87.5987 3.84428 93.1244 5.37505 96.0571C5.94273 97.1446 6.50289 98.0599 6.6233 98.1059C6.98913 98.2454 7.97557 99.309 7.97557 99.5643C7.97557 99.7218 7.7857 99.7526 7.42079 99.6684C6.64234 99.4889 3.87342 98.1047 3.60669 97.7585C3.2091 97.2425 3.1269 97.8465 3.43332 98.9739C5.91896 108.118 8.92665 114.295 12.7259 118.038C14.7887 120.07 18.0285 124.427 18.0309 125.157C18.0314 125.296 17.8487 125.4 17.6148 125.4C17.2592 125.4 17.229 125.488 17.3375 125.921C17.4088 126.205 17.7991 126.977 18.239 127.622C18.6788 128.268 19.0365 128.864 19.0365 128.942C19.0365 129.21 20.3563 130.975 21.6023 132.414C25.0182 136.361 25.9119 137.322 26.5606 137.658C26.8758 137.821 27.4689 138.236 27.8782 138.595C28.2876 138.955 29.0432 139.483 29.5426 139.741C30.0419 139.999 30.7497 140.624 31.1376 141.13C31.9886 142.241 32.6915 142.912 33.7728 143.769C34.4562 144.311 34.5678 144.536 34.5703 145.158C34.5747 146.234 34.9229 146.78 36.3386 147.867C37.4364 148.71 38.9974 149.376 39.4939 149.256C39.5816 149.235 39.8403 149.334 40.0834 149.464C40.3302 149.597 41.5597 149.716 42.8573 149.742C43.6316 149.758 44.6609 149.236 45.1804 149.812C45.3555 150.006 45.132 150.315 45.111 150.576C44.9987 151.969 46.4189 153.431 47.9196 153.458C48.5439 153.469 48.8366 153.824 48.5091 154.152C47.9334 154.729 48.5068 156.412 49.5493 157.208C50.6069 158.016 52.2089 158.227 53.7794 157.798C54.4725 157.609 55.1873 157.334 55.3744 157.173C55.873 156.746 56.1398 157.003 56.1026 157.937C56.0677 158.813 56.479 159.326 57.2121 159.326C57.6867 159.326 60.0794 158.235 60.2634 157.937C60.5637 157.451 60.8587 157.746 60.7489 158.423C60.5548 159.621 61.3997 160.183 63.1413 160.021C63.8992 159.95 64.2248 160.022 64.5283 160.299C65.0769 160.799 66.9509 161.965 67.1981 161.965C67.31 161.965 67.6389 162.089 67.961 162.243C69.3159 162.893 70.0581 163.186 71.3937 163.598C72.1701 163.837 73.7171 164.333 74.8264 164.709C75.9356 165.084 77.2884 165.428 77.843 165.473C78.3976 165.517 79.0427 165.591 79.2646 165.646C87.0653 166.402 90.3711 165.852 95.2145 164.882C96.3309 164.755 98.9941 163.979 99.2713 163.702C99.3404 163.632 99.5464 163.595 99.722 163.598C100.275 163.602 104.583 161.277 105.27 160.611C105.847 160.053 106.077 159.969 107.212 159.917C109.326 159.819 110.014 159.268 109.396 158.111C109.06 157.483 109.325 157.424 110.055 157.972C112.064 159.482 114.528 159.283 114.146 157.66C114.087 157.407 114.111 157.092 114.216 156.93C114.379 156.678 114.531 156.689 115.29 157.069C116.978 157.913 119.332 157.74 120.804 156.653C121.884 155.854 122.195 155.2 122.017 154.013C121.887 153.143 121.889 153.093 122.433 152.972C123.496 152.734 123.635 152.674 124.34 152.069C124.976 151.524 125.047 151.331 125.138 150.194L125.242 148.944L126.663 149.013C127.703 149.062 128.594 148.915 130.096 148.527C132.656 147.865 133.901 147.286 134.985 146.2C135.772 145.412 135.817 145.28 135.817 144.29C135.817 143.286 135.851 143.171 136.511 142.762C138.096 141.781 140.11 138.949 140.359 137.311C140.446 136.741 140.631 136.501 141.226 136.165C141.641 135.931 142.294 135.468 142.683 135.123C146.319 131.888 147.922 130.333 148.022 130.018C148.087 129.813 148.21 129.636 148.3 129.636C148.528 129.636 150.551 126.553 150.554 126.199C150.554 126.038 150.766 125.532 151.039 125.087C151.312 124.643 151.556 124.058 151.559 123.768C151.565 123.314 151.471 123.268 151.039 123.351C150.254 123.501 150.232 122.933 150.935 121.788C151.276 121.233 151.697 120.597 151.871 120.399C152.564 119.615 153.601 118.266 153.813 117.864C154.086 117.346 155.441 115.631 155.651 115.538C155.734 115.501 155.789 115.342 155.789 115.191C155.789 115.039 156.119 114.661 156.517 114.357C157.215 113.824 157.973 112.764 159.049 110.85C159.329 110.351 159.893 109.398 160.297 108.732C160.7 108.065 161.025 107.38 161.025 107.204C161.025 107.028 161.362 106.238 161.753 105.433C162.145 104.627 162.909 102.386 163.452 100.467C163.996 98.5484 164.561 96.6488 164.735 96.2307C165.127 95.2923 165.129 95.3255 164.7 95.3278C164.506 95.3289 163.974 95.6346 163.487 96.0223C162.768 96.5879 161.232 97.2883 160.262 97.4461C160.019 97.3527 160.191 97.0801 160.99 96.2654C161.821 95.4193 162.22 94.7424 163.036 92.8276C164.331 89.7908 164.902 87.8339 165.845 83.4865C166.117 82.2293 166.485 79.6622 166.607 77.9305C166.658 77.2084 166.776 75.5124 166.885 74.1455C167.14 70.9254 167.141 68.0338 166.885 68.0338C166.775 68.0338 166.467 68.3959 166.191 68.8325C165.715 69.5885 164.119 70.8813 163.66 70.8813C163.345 70.8813 163.404 70.0446 163.764 69.3534C163.936 69.0241 164.15 68.121 164.25 67.3393C164.349 66.5577 164.534 65.2556 164.666 64.4224C164.829 63.388 164.889 61.4487 164.804 58.3455C164.643 52.4509 164.371 50.058 163.625 47.3376C162.848 44.5011 162.653 44.004 162.308 44.004C161.971 44.004 161.258 45.1108 161.094 45.8792C160.936 46.6225 160.531 46.9531 160.158 46.6431C159.737 46.2934 159.138 44.2727 158.32 40.462C157.443 36.3752 157.014 34.6971 156.379 32.7183C155.741 30.7336 153.536 26.2271 152.599 25.0093C152.3 24.6205 151.864 24.0419 151.663 23.7245C151.233 23.0457 151.096 23.1712 150.623 24.5232C149.429 27.9316 149.432 27.9841 149.028 27.6484C148.871 27.5183 148.716 27.037 148.716 26.6067C148.716 24.3576 146.224 19.4199 143.133 15.5293C141.996 14.0978 139.291 11.5265 137.481 10.1816C136.852 9.71405 136.167 9.13594 135.956 8.89679C135.278 8.1292 135.147 8.3676 135.297 10.2858C135.389 11.4606 135.393 12.0915 135.262 12.0915C135.063 12.0915 134.888 11.927 133.702 10.2858C133.061 9.39914 130.566 7.20142 128.813 5.97987C128.048 5.44662 127.716 5.31323 127.599 5.49372C127.511 5.62993 127.461 6.44749 127.461 7.33416C127.461 9.44412 127.19 9.5309 125.727 7.82031C123.794 5.55887 121.22 3.11404 120.249 2.57681C119.453 2.13631 117.718 1.4312 116.955 1.25725C116.597 1.17568 113.553 0.215291 113.21 0.0765907C113.042 0.00880713 112.901 -0.0127597 112.828 0.00724206ZM106.275 1.6046C106.664 1.55126 107.103 1.64216 107.905 1.8824C108.444 2.04413 109.32 2.23184 109.846 2.29911C110.571 2.39156 110.817 2.52252 110.817 2.78526C110.817 3.02618 110.511 3.21778 109.846 3.41031C109.32 3.56304 108.786 3.71516 108.668 3.75756C108.549 3.80001 108.146 3.53964 107.766 3.20196C107.384 2.86315 106.727 2.54253 106.31 2.47273C105.537 2.34341 105.321 1.92873 105.894 1.70878C106.016 1.66166 106.146 1.62238 106.275 1.6046ZM62.7597 2.1602C63.2688 2.20776 63.0096 2.57822 62.2743 2.81998C61.8583 2.95674 61.1624 3.28855 60.7486 3.54921C59.9392 4.05916 59.7288 4.08157 58.4948 3.79229C57.5654 3.57441 57.2078 3.30819 57.4893 3.02833C57.8783 2.6415 61.4751 2.04035 62.7597 2.1602ZM117.579 3.20196C117.633 3.20196 118.382 3.57627 119.243 4.03536C120.104 4.49446 121.031 4.99269 121.323 5.14657C122.04 5.5234 124.513 8.30361 124.513 8.72327C124.513 8.78527 124.239 8.91384 123.889 9.03579C122.144 9.64501 121.028 8.95167 118.966 5.91053C118.335 4.98133 117.743 4.16374 117.648 4.10482C117.467 3.99266 117.407 3.20196 117.579 3.20196ZM51.144 3.86174C51.3883 3.90641 51.4231 4.15371 51.1093 4.34789C50.9873 4.42334 50.5433 4.97063 50.1384 5.598C48.3587 8.35562 47.4403 9.45646 46.7057 9.66085C46.3118 9.77041 45.6862 9.84673 45.3535 9.83447C43.4315 9.76358 43.5716 9.3466 46.2896 6.60503C47.5464 5.33737 49.3554 4.26758 50.8319 3.89646C50.957 3.86502 51.0626 3.84685 51.144 3.86174ZM133.459 5.4591C133.314 5.4391 133.13 5.44578 132.939 5.49389C132.09 5.70722 131.947 7.00095 132.696 7.75103C133.424 8.4801 134.245 7.83648 134.153 6.6051C134.1 5.907 133.895 5.51918 133.459 5.4591ZM112.794 5.80635C113.097 5.79635 113.308 5.80968 113.349 5.8758C113.404 5.96603 113.534 6.00186 113.626 5.94525C113.936 5.75313 115.498 6.44886 116.365 7.16063C117.336 7.95761 119.274 10.613 119.278 11.154C119.281 11.6208 119.205 11.6025 117.787 10.8762C117.121 10.5355 116.282 10.1172 115.949 9.97337C114.393 9.30079 112.515 8.33249 112.274 8.09821C112.127 7.95565 111.922 7.85514 111.823 7.85514C111.532 7.85514 110.193 6.63415 110.193 6.36195C110.193 6.1465 111.884 5.83494 112.794 5.80635ZM54.7154 6.36195C54.8566 6.35195 55.0273 6.34651 55.1662 6.36195C55.5544 6.40507 56.3661 6.46017 57.0039 6.46606C58.3334 6.4784 58.4818 6.69713 57.628 7.50782C56.9182 8.1818 53.9447 9.86925 52.635 10.3553C52.0804 10.5611 51.5323 10.7924 51.4214 10.8762C50.7251 11.4021 49.1072 12.253 49.0289 12.1263C48.8571 11.8478 50.0442 10.0341 51.3867 8.54957C52.6801 7.11942 53.7269 6.43234 54.7154 6.36195ZM35.7836 6.70921C35.645 6.69143 35.4509 6.70366 35.2288 6.744C34.1613 6.93905 33.9161 7.22482 34.1886 7.95938C34.3091 8.28411 34.5612 8.68894 34.7434 8.82751C35.2111 9.18326 35.8403 8.70819 36.061 7.8552C36.2597 7.08699 36.1993 6.76262 35.7836 6.70921ZM128.744 7.64679L129.923 9.00107C130.567 9.75727 131.458 10.8428 131.899 11.3971C132.339 11.9514 132.829 12.551 133.008 12.7514C133.556 13.3642 134.459 15.1062 134.326 15.3211C134.257 15.4325 134.125 15.5382 134.049 15.5294C133.781 15.4988 133.317 15.2838 133.217 15.1474C133.161 15.0719 132.655 14.7564 132.107 14.4876C130.661 13.7784 128.633 11.7769 128.362 10.7721C128.071 9.6878 128.113 9.18717 128.466 8.34129L128.744 7.64679ZM39.7364 8.37601C39.9345 8.4208 40.0605 8.91809 40.1525 9.90392C40.3149 11.6458 39.7649 12.8661 38.2801 14.0709C37.6983 14.5431 37.1465 14.9391 37.0665 14.9391C36.9865 14.9391 36.5352 15.1733 36.0263 15.4947C34.7033 16.3302 34.1886 16.4551 34.1886 15.9461C34.1886 15.4363 34.519 14.5767 34.8474 14.2098C34.9856 14.0554 35.1861 13.797 35.2982 13.6542C35.4102 13.5115 36.2635 12.495 37.2052 11.3624C38.1469 10.2298 39.079 9.05148 39.2856 8.75799C39.4752 8.48871 39.6175 8.34918 39.7364 8.37601ZM126.074 10.7373C126.585 10.8128 126.733 11.259 126.733 12.3C126.733 13.3414 126.71 13.4776 126.247 13.689C125.643 13.9645 125.742 13.9632 125.242 13.689C123.887 12.9468 124.023 11.0401 125.45 10.7721C125.706 10.7238 125.903 10.7122 126.074 10.7373ZM42.7183 11.2929C43.5192 11.2929 44.0706 11.8628 44.0706 12.7167C44.0706 13.1475 43.965 13.697 43.8626 13.9668C43.5177 14.875 42.2023 14.8106 41.7128 13.8627C41.1624 12.7967 41.7484 11.2929 42.7183 11.2929ZM137.412 11.6402C137.549 11.526 137.696 11.7091 138.244 12.3347C138.671 12.8217 139.037 13.2596 139.042 13.3417C139.046 13.4238 139.486 14.0026 140.013 14.5918C144.011 19.0628 146.705 22.9987 146.705 24.3496C146.705 24.9614 146.638 24.9383 145.387 24.2455C145.165 24.1227 144.469 23.7561 143.827 23.4121C143.184 23.0681 142.49 22.5943 142.266 22.3703C142.043 22.1464 141.456 21.733 140.983 21.4328C139.759 20.6551 138.076 18.9972 137.655 18.1686C136.849 16.5859 136.634 13.0443 137.273 11.8486C137.324 11.7531 137.367 11.6782 137.412 11.6402ZM115.949 12.543C115.745 12.5304 115.525 12.6702 115.256 12.9597C114.786 13.4645 114.742 13.8777 115.082 14.6265C115.275 15.0493 115.456 15.1268 115.949 15.078C116.47 15.0264 116.564 14.9092 116.712 14.2793C116.846 13.7068 116.803 13.4331 116.539 13.0292C116.33 12.7101 116.153 12.5557 115.949 12.543ZM30.7212 12.7167C30.8066 12.71 30.8979 12.7919 31.068 12.9597C31.6284 13.5129 31.6065 17.3319 31.0332 18.4463C30.2682 19.9337 30.0358 20.2751 29.0222 21.2591C28.1572 22.0987 24.6719 24.6274 24.3759 24.6274C24.3205 24.6274 23.8794 24.8909 23.405 25.2177C22.9307 25.5446 22.3124 25.873 22.0181 25.947C21.5519 26.0641 21.4611 26.0146 21.4633 25.5997C21.4678 24.7535 22.551 22.8522 24.8267 19.7312C25.0723 19.3943 26.3717 17.8311 27.7046 16.2586C29.0374 14.6862 30.282 13.2166 30.4438 12.9945C30.5838 12.8022 30.6359 12.7234 30.7212 12.7167ZM52.843 13.1334C52.6283 13.1126 52.3923 13.1584 52.1149 13.307C51.6771 13.5416 51.5845 14.6878 51.9415 15.3558C52.1852 15.8118 52.9874 15.8715 53.3285 15.4599C53.7537 14.9468 53.8037 13.8176 53.4324 13.4458C53.2383 13.2514 53.0578 13.1542 52.843 13.1334ZM127.634 15.1127C129.136 15.1514 130.316 15.7072 131.483 16.9184C132.248 17.7124 134.014 20.2139 134.014 20.4951C134.014 20.543 134.271 21.0114 134.603 21.5369C134.936 22.0624 135.228 22.6074 135.228 22.7522C135.228 23.12 134.817 23.0532 134.222 22.6133C133.178 21.8413 127.656 19.1756 127.114 19.1756C126.936 19.1756 124.68 17.5346 123.439 16.5017C123.116 16.2329 122.916 15.889 122.988 15.7725C123.161 15.4918 126.152 15.0746 127.634 15.1127ZM41.4701 15.8767C41.7946 15.8585 42.0867 15.8567 42.2329 15.8767C42.5253 15.9165 43.3565 15.9797 44.1053 16.0503C45.01 16.1356 45.4575 16.2952 45.4575 16.467C45.4575 16.9726 43.7433 18.3469 41.9555 19.2797C40.9572 19.8006 40.0692 20.2906 40.0138 20.3562C39.9583 20.4219 39.2507 20.8046 38.4188 21.1896C37.5869 21.5746 36.7475 22 36.5811 22.1272C36.4147 22.2544 35.8528 22.5818 35.2982 22.8911C34.7436 23.2005 34.0354 23.7617 33.7378 24.1065C33.2888 24.6269 33.1845 24.6582 33.0791 24.3843C32.9207 23.9731 33.3319 22.9156 34.2233 21.5369C34.5996 20.9547 35.1417 20.1061 35.4022 19.6617C36.0639 18.5329 36.5157 18.0533 37.9334 17.0226C38.9339 16.2951 39.4097 16.1206 40.4299 15.9808C40.776 15.9334 41.1455 15.8947 41.4701 15.8767ZM135.609 18.0991C135.756 18.088 135.99 18.316 136.233 18.7936C136.469 19.2575 136.842 19.8094 137.065 20.0437C137.288 20.278 137.71 20.8008 138.001 21.1896C138.293 21.5784 138.94 22.3821 139.423 22.9606C139.907 23.5391 140.223 24.0949 140.151 24.2107C139.867 24.6711 139.017 24.2294 137.724 22.9953C137.235 22.5284 136.823 22.0407 136.823 21.8841C136.823 21.7275 136.74 21.6063 136.649 21.6063C136.45 21.6063 135.679 19.7099 135.505 18.8283C135.409 18.34 135.462 18.1098 135.609 18.0991ZM32.975 18.3421C33.2964 18.3421 33.2178 18.9729 32.663 20.7382C32.1254 22.4488 31.0868 23.9959 29.9931 24.7663C27.7339 26.3577 27.2145 25.8875 29.0222 23.8982C30.1626 22.6432 32.767 18.9619 32.767 18.5852C32.767 18.4674 32.8641 18.3421 32.975 18.3421ZM149.374 19.9048C148.918 19.9631 148.536 20.411 148.404 21.1202C148.315 21.5954 148.384 21.9524 148.612 22.3008C148.836 22.6434 149.122 22.787 149.513 22.787C150.233 22.787 150.558 22.4356 150.692 21.4327C150.782 20.7585 150.705 20.5828 150.241 20.2173C149.936 19.977 149.648 19.8698 149.374 19.9048ZM18.7935 21.5369C18.7179 21.556 18.6592 21.5915 18.5508 21.641C18.2743 21.7671 17.8383 22.1467 17.6146 22.5091C17.245 23.1081 17.2529 23.2458 17.5107 23.8634C17.7362 24.404 17.9057 24.5309 18.3428 24.5232C19.4458 24.5035 20.0604 22.8674 19.3484 21.8493C19.1485 21.5635 19.0203 21.4794 18.7935 21.5369ZM152.044 25.7039C152.21 25.695 152.285 26.1611 152.564 28.0305C152.688 28.8581 153.012 30.2476 153.293 31.0863C153.796 32.5885 153.978 33.0111 154.888 35.0102C156.294 38.1012 157.884 42.8534 158.043 44.4208C158.08 44.7901 158.016 45.111 157.904 45.15C157.553 45.2728 153.981 41.5887 153.085 40.1843C151.139 37.1352 150.484 35.1723 150.276 31.7461C150.137 29.4578 150.878 26.6396 151.836 25.8428C151.924 25.7696 151.989 25.7068 152.044 25.7039ZM133.563 25.8428C133.264 25.8301 132.966 25.921 132.8 26.1206C132.485 26.5011 132.467 27.4373 132.766 27.9958C133.121 28.6603 133.911 28.5935 134.291 27.8568C134.665 27.1327 134.681 26.6581 134.326 26.19C134.164 25.9766 133.862 25.8554 133.563 25.8428ZM144.139 25.8428C144.523 25.8273 144.939 25.9247 145.179 26.19C145.548 26.5981 145.616 27.9382 145.318 28.725C145.109 29.2733 144.803 29.4231 144.139 29.3153C143.067 29.1413 142.5 27.2982 143.203 26.2942C143.4 26.0113 143.755 25.8583 144.139 25.8428ZM34.8127 26.7804C33.964 26.8972 33.5012 28.0416 34.0846 28.9333C34.443 29.4811 34.609 29.5445 35.3328 29.35C36.1773 29.1232 36.0566 26.9717 35.1941 26.7804C35.0597 26.7506 34.934 26.7637 34.8127 26.7804ZM23.4745 27.0929C23.6336 27.0437 23.7919 27.0742 24.0986 27.1623C24.4931 27.2757 24.8891 27.5685 25.0348 27.8568C25.3761 28.5324 25.3611 29.702 25 30.2182C24.6739 30.6845 24.2338 30.847 23.5437 30.739C22.4514 30.5681 22.0794 28.5282 22.9543 27.5096C23.1682 27.2605 23.3153 27.1421 23.4745 27.0929ZM16.089 27.6832C16.3253 27.6888 16.6262 28.1208 17.0598 29.0028C17.719 30.3436 17.7533 30.4223 17.7533 32.9962C17.7533 36.1224 17.4616 37.1353 15.9503 39.9065C14.8108 41.9959 13.3809 43.9407 11.6507 45.6709C11.0122 46.3094 10.3678 46.8513 10.2291 46.8515C10.0804 46.8518 9.9864 46.5691 9.9864 46.1918C9.9864 45.1218 11.1562 41.0619 11.9975 39.2467C12.4335 38.3058 12.795 37.4822 12.795 37.441C12.795 37.3998 13.068 36.7888 13.3844 36.0867C14.7422 33.0739 15.3878 31.0073 15.6035 28.9681C15.6956 28.0976 15.8526 27.678 16.089 27.6832ZM139.943 28.6903L141.469 29.4542C143.929 30.6898 144.836 32.0124 146.601 37.1632C146.892 38.0138 147.121 38.7642 147.121 38.83C147.121 39.1504 146.596 38.7054 144.069 36.1562C141.443 33.506 141.335 33.3416 140.602 31.5724C140.182 30.5601 139.837 29.4988 139.874 29.2111L139.943 28.6903ZM28.3981 29.8709C28.6861 29.8709 28.5001 31.0549 28.0514 31.9891C27.7838 32.5462 27.3538 33.4121 27.1152 33.9338C26.8236 34.5714 25.7879 35.8091 23.9599 37.6494C22.4643 39.155 21.2016 40.3579 21.1513 40.3579C20.9451 40.3579 21.1217 39.7694 21.8795 37.5799C23.2338 33.6668 24.016 32.3242 25.5895 31.3294C26.4813 30.7656 28.203 29.8709 28.3981 29.8709ZM147.502 30.6696C147.588 30.6696 147.756 31.5608 147.883 32.6489C148.107 34.558 148.318 35.2958 149.132 37.0243C149.341 37.4686 149.708 38.2713 149.929 38.7953C150.151 39.3193 150.594 40.1746 150.935 40.6704C151.275 41.1663 151.559 41.7114 151.559 41.8858C151.559 42.2532 151.419 42.231 150.796 41.8858C149.756 41.2945 149.209 40.1141 148.542 39.0384C147.999 38.2243 147.439 37.2396 147.294 36.8159C146.84 35.4875 147.005 30.6696 147.502 30.6696ZM20.6659 32.0933C20.8636 32.0933 21.2553 34.4278 21.2553 35.6006C21.2553 36.8126 20.452 39.1522 19.695 40.1148C19.372 40.5256 18.8664 41.3277 18.5855 41.8858C18.3045 42.4439 17.7716 43.1456 17.4066 43.4485C16.6862 44.0462 16.2277 44.155 16.2277 43.7263C16.2277 43.5771 16.8741 42.3265 17.6493 40.9482C18.4244 39.57 19.0348 38.3524 19.0362 38.2397C19.0373 38.1269 19.2298 37.7178 19.4523 37.3021C19.6777 36.881 19.9932 35.5528 20.1805 34.3157C20.3654 33.0945 20.5855 32.0933 20.6659 32.0933ZM85.7136 32.1974C85.9405 32.1103 86.017 32.3851 86.0257 33.5517C86.0313 34.3536 86.0202 35.5104 86.0257 36.1214C86.0313 36.7324 86.0368 37.5313 86.0257 37.8924C86.0131 38.3092 85.8921 38.5521 85.7136 38.5521C85.2921 38.5521 85.2817 38.2929 85.3669 35.1838C85.4277 32.9639 85.4939 32.2819 85.7136 32.1974ZM84.0146 32.2669C84.3066 32.2051 84.3662 33.2003 84.2573 35.6005C84.1314 38.376 83.9365 39.1725 83.6679 38.1007C83.5238 37.5257 83.7074 32.5051 83.8759 32.3363C83.9268 32.2854 83.9729 32.2758 84.0146 32.2669ZM82.385 32.3017C82.4959 32.3017 82.5903 32.4059 82.593 32.5448C82.5952 32.6836 82.603 34.0552 82.6278 35.6006C82.6617 37.7016 82.6082 38.4538 82.4197 38.5175C82.2252 38.5833 82.177 37.8557 82.177 35.4269C82.177 33.4633 82.2591 32.3017 82.385 32.3017ZM160.782 40.0454C160.642 40.0462 160.478 40.071 160.331 40.1495C159.872 40.3954 159.43 41.3005 159.43 41.9205C159.43 42.062 159.66 42.4434 159.95 42.7886C160.54 43.4905 161.048 43.4687 161.684 42.7192C162.496 41.7612 161.763 40.0396 160.782 40.0454ZM7.00447 41.8164C6.80282 41.8264 6.60055 41.9669 6.27633 42.2678C5.81395 42.7824 6.01063 45.1952 7.14317 45.0805C8.43663 44.7418 8.82279 42.9511 7.76729 42.1984C7.3957 41.9334 7.20612 41.806 7.00447 41.8164ZM146.635 41.8164C146.341 41.7908 146.021 41.9367 145.734 42.3025C145.236 42.9362 145.181 43.4098 145.595 44.2124C146.175 45.3363 147.537 44.6883 147.537 43.2748C147.537 42.413 147.125 41.859 146.635 41.8164ZM21.7754 43.2401C21.5544 43.2209 21.2799 43.297 20.9433 43.5179C20.3562 43.9031 20.2798 44.8659 20.7699 45.5667C20.9452 45.8174 21.2986 46.0181 21.5674 46.0181C22.5173 46.0181 23.0076 44.5758 22.3649 43.6568C22.1785 43.3903 21.9965 43.2594 21.7754 43.2401ZM155.72 46.0181C156.893 46.0181 157.442 47.846 156.587 48.935C155.681 50.0875 154.367 49.326 154.367 47.6502C154.367 46.5589 154.811 46.0181 155.72 46.0181ZM150.657 46.6432C151.04 46.6432 153.026 49.1046 153.882 50.6366C154.506 51.7537 154.653 52.2042 154.922 54.4563C155.229 57.0224 155.205 59.6831 154.818 63.5543C154.593 65.8085 154.319 66.0145 153.639 64.4919C153.146 63.3863 151.945 60.171 151.559 58.9359C151.468 58.6459 151.295 58.2189 151.178 57.9983C150.899 57.4773 150.586 55.0705 150.345 51.7825C150.123 48.7487 150.24 46.6432 150.657 46.6432ZM161.233 47.2335C161.376 47.2878 161.394 48.0566 161.476 50.6019C161.539 52.5932 161.7 54.9219 161.822 55.8106C162.062 57.5489 162.392 66.2187 162.273 67.7214C162.233 68.2232 162.129 68.659 162.03 68.659C161.661 68.659 160.756 66.9129 160.123 64.9434C159.231 62.1677 158.919 59.5859 159.083 56.2968C159.257 52.8157 160.253 48.3704 161.059 47.3724C161.137 47.2767 161.185 47.2154 161.233 47.2335ZM84.188 47.7891C85.5354 47.7721 86.8819 47.7847 86.9272 47.8586C86.9743 47.9348 86.8913 48.0935 86.7539 48.2058C86.3992 48.4956 81.6599 48.5264 81.4835 48.2406C81.4073 48.1172 81.3659 47.9764 81.4141 47.9281C81.4889 47.8532 82.8406 47.8062 84.188 47.7891ZM12.1015 47.8586C12.4341 47.8263 12.818 47.9247 13.107 48.1364C13.3688 48.328 13.4795 48.7048 13.5231 49.4212C13.5783 50.326 13.537 50.5137 13.0724 50.8797C12.1524 51.3559 10.5033 50.0115 11.304 48.31C11.4838 48.0529 11.7689 47.8908 12.1015 47.8586ZM17.3719 48.4489C17.6931 48.4489 17.8573 49.4462 17.8573 51.4005C17.8573 55.5001 16.9525 60.0129 15.4302 63.7974C15.0057 64.8528 14.5996 65.9505 14.5287 66.2282C14.4578 66.5059 14.2238 66.9582 14.0085 67.2352C13.705 67.6257 13.5972 67.6775 13.5231 67.4436C13.2267 66.508 12.947 62.9277 12.9337 59.9082C12.9177 56.27 13.2138 54.5243 14.1819 52.2687C14.7579 50.9267 16.8299 48.4489 17.3719 48.4489ZM158.078 48.4489C158.177 48.4489 158.177 49.2133 158.078 50.2199C157.813 52.8857 157.876 59.8236 158.181 61.5403C158.369 62.5947 158.404 63.088 158.251 63.2418C158.097 63.3956 157.895 63.1836 157.592 62.4779C156.785 60.5955 156.557 59.3258 156.448 56.1232C156.358 53.4909 156.401 52.7614 156.691 51.852C157.323 49.8633 157.899 48.4489 158.078 48.4489ZM6.72708 49.2476C7.07791 49.2476 7.74609 51.4577 8.77283 56.019C9.01471 57.0936 9.01328 60.6612 8.77283 62.7557C8.64815 63.8417 8.21359 65.5524 7.52458 67.5825C6.937 69.3137 6.33779 70.7682 6.20698 70.8119C5.61987 71.0079 5.62312 67.7159 6.24172 58.797C6.39861 56.5347 6.52801 54.5964 6.51911 54.5258C6.41803 53.7242 6.59438 49.2476 6.72708 49.2476ZM9.88238 50.1504C10.1577 50.2403 10.1919 50.9658 10.3678 51.2964C11.2708 52.9935 11.5814 54.725 11.5814 57.8247C11.5814 59.8588 11.4841 60.8485 11.2 61.8181C10.9931 62.5241 10.1481 63.9016 10.6105 63.9016C11.0729 63.9016 10.2314 64.8969 10.0558 65.117C9.76186 65.4852 9.77548 65.3451 9.91706 63.2071C10.1202 60.14 10.1164 53.5819 9.91706 51.6783C9.86424 51.1734 9.25892 50.3338 9.74369 50.1851C9.79473 50.1695 9.84311 50.1376 9.88238 50.1504ZM84.7428 50.3241C85.0394 50.1243 85.1162 51.2249 85.0895 54.63C85.0613 58.2332 84.9295 59.2271 84.5347 58.8317C84.3164 58.613 84.3812 50.8029 84.6041 50.463C84.6558 50.3841 84.7004 50.3526 84.7428 50.3241ZM86.3031 50.3588C86.4165 50.2871 86.5456 51.6021 86.6152 54.3175C86.6706 56.4837 86.6329 58.3943 86.5458 58.5887C86.1015 59.5805 86.0087 58.7426 86.0604 54.6648C86.0957 51.883 86.1896 50.4306 86.3031 50.3588ZM81.4835 50.463C81.506 50.4574 81.5579 50.463 81.5874 50.463C81.7155 50.463 81.7608 52.0064 81.7608 54.6994C81.7608 57.3925 81.7155 58.9706 81.5874 58.9706C81.3359 58.9706 81.3399 59.1316 81.3447 54.9078C81.3491 50.928 81.3261 50.5051 81.4835 50.463ZM83.1478 50.5324C83.4043 50.4468 83.4228 50.9101 83.4599 56.0537C83.4746 58.0964 83.4383 58.8389 83.2518 58.9012C83.1132 58.9474 82.9255 58.8756 82.8704 58.7275C82.8154 58.5794 82.8022 56.6849 82.8357 54.5258C82.8794 51.7109 82.9752 50.59 83.1478 50.5324ZM84.6041 60.95L89.0076 61.0889C89.0537 61.3138 85.0028 61.4831 84.5001 61.4361C84.4727 61.4082 83.1449 61.3539 81.5181 61.332C79.8914 61.3101 78.5362 61.2127 78.5362 61.1237C78.5362 61.0346 79.4311 60.9885 80.5126 60.9848C81.5941 60.9814 83.4394 60.9578 84.6041 60.95ZM150.068 62.4431C149.611 62.4081 149.134 62.6393 148.924 63.0335C148.657 63.5319 148.774 64.8941 149.132 65.3253C149.394 65.6413 150.092 65.7138 150.484 65.4642C151.231 64.9886 151.259 62.979 150.519 62.582C150.384 62.5098 150.22 62.4548 150.068 62.4431ZM166.677 63.8669C166.381 63.8959 166.08 64.0928 165.81 64.4572C165.261 65.196 165.506 66.6099 166.261 66.9921C166.538 67.1326 166.821 67.2336 166.885 67.2352C167.206 67.243 167.856 66.253 167.96 65.5684C168.058 64.9211 167.994 64.7002 167.578 64.2836C167.271 63.9758 166.972 63.8379 166.677 63.8669ZM17.9613 64.2141C17.7401 64.2531 17.5142 64.4125 17.3372 64.6656C16.9792 65.1774 16.9232 66.4815 17.2333 67.0616C17.3775 67.3316 17.6554 67.4436 18.1348 67.4436C18.6989 67.4436 18.8901 67.3379 19.1403 66.8532C19.549 66.0617 19.5369 65.6851 19.0363 64.8739C18.7247 64.3689 18.3301 64.1492 17.9613 64.2141ZM75.9357 65.6379C76.0507 65.6199 76.178 65.7596 76.3171 66.0198C76.5862 66.5235 76.8884 100.398 76.3171 100.398C75.8732 100.398 75.8059 100.867 75.6236 100.571C75.4669 100.318 75.5012 66.7507 75.6584 66.124C75.7319 65.8305 75.8206 65.6559 75.9357 65.6379ZM95.3529 65.6379C95.5189 65.6132 95.75 65.6981 96.0117 65.7073H96.6012V84.32V102.898L98.9936 102.933C101.052 102.982 101.337 103.036 101.282 103.315C101.227 103.592 100.795 103.657 98.0921 103.697L94.9368 103.732L94.7981 101.509C94.7242 100.275 94.6774 91.732 94.6942 82.5492C94.7216 67.5196 94.6339 65.7449 95.3529 65.6379ZM92.267 65.6727C92.3412 65.6827 92.4307 65.6978 92.5097 65.7768C92.8366 66.1042 92.9715 99.5847 92.6484 100.189C92.3976 100.659 92.128 100.658 91.8856 100.224C91.6462 99.7959 91.8505 66.0007 92.0936 65.7421C92.1501 65.682 92.1927 65.6622 92.267 65.6727ZM72.607 65.8116C72.963 65.8228 73.2971 65.9369 73.3005 66.0894C73.3038 66.2282 73.3049 74.6455 73.3005 84.8062C73.2949 97.3018 73.2927 103.488 73.0924 103.488C72.9165 103.488 71.7099 103.697 70.0065 103.697C66.3283 103.697 66.0057 103.64 66.0884 103.211C66.1451 102.916 66.4838 102.886 68.7236 102.863C70.1414 102.849 71.3463 102.806 71.3934 102.759C71.4406 102.712 71.5156 94.4773 71.5668 84.4591C71.6181 74.4408 71.7054 66.1324 71.7748 66.02C71.867 65.8705 72.251 65.8003 72.607 65.8116ZM0.971258 66.1935C0.832397 66.2234 0.689064 66.3197 0.5205 66.506C-0.288644 67.4 -0.131453 68.8953 0.832563 69.4576C1.32293 69.7437 1.3736 69.7269 1.8381 69.2146C2.73028 68.2306 2.57598 66.6945 1.52604 66.2976C1.27309 66.202 1.11012 66.1636 0.971258 66.1935ZM85.1935 66.3324C85.2981 66.2677 85.4463 66.4252 85.5056 66.6796C85.5919 67.0498 85.5239 96.0831 85.4363 96.2655C85.4229 96.2933 85.3054 96.3349 85.1935 96.3349C84.924 96.3349 84.9241 66.4991 85.1935 66.3324ZM81.6568 66.4713C81.7074 66.4093 81.7607 66.5175 81.8302 66.7838C81.9058 67.073 81.8725 94.8214 81.7955 95.8835C81.7855 96.0224 81.6984 96.1266 81.5874 96.1266C81.4548 96.1266 81.3794 91.0265 81.3794 81.2642C81.3794 70.4882 81.4375 66.7397 81.6568 66.4713ZM158.286 68.1728C158.38 68.1684 158.458 68.1888 158.563 68.2076C159.444 68.3653 159.815 68.8117 159.811 69.7355C159.808 70.6689 159.718 70.8499 159.014 71.3329C158.365 71.7777 158.284 71.7824 157.696 71.194C157.317 70.8143 157.211 70.4673 157.211 69.7702C157.211 68.7932 157.623 68.2044 158.286 68.1728ZM152.322 68.2423C152.582 68.2423 154.575 70.2402 154.575 70.4994C154.575 70.5976 154.791 71.0428 155.061 71.4717C156.436 73.6534 156.552 77.2743 155.373 80.8822C155.01 81.9931 154.592 83.1464 154.437 83.4519C154.282 83.7574 154.09 84.0075 153.986 84.0075C153.581 84.0075 153.426 83.179 153.189 79.771C153.053 77.827 152.796 75.0827 152.634 73.6941C152.149 69.5482 152.077 68.2423 152.322 68.2423ZM135.262 69.7007C136.67 69.7007 137.828 70.8601 137.828 72.2704C137.828 73.6806 136.67 74.8053 135.262 74.8053C133.854 74.8053 132.731 73.6806 132.731 72.2704C132.731 70.8601 133.854 69.7007 135.262 69.7007ZM32.6283 69.7355C33.3158 69.7085 34.0116 69.9247 34.57 70.3953C35.6807 71.3312 35.5696 73.4581 34.362 74.3192C33.6017 74.8614 32.2528 75.0145 31.4147 74.6318C30.1136 74.0376 29.7603 71.6325 30.7906 70.5342C31.2702 70.0229 31.9408 69.7625 32.6283 69.7355ZM9.60499 70.0828C9.7563 70.0883 9.88579 70.1809 10.1251 70.3258C10.6029 70.6153 10.6972 70.8046 10.7492 71.8537C10.7905 72.6856 10.7017 73.1152 10.5065 73.2775C10.3524 73.4055 9.97144 73.5583 9.63967 73.6247C8.87506 73.7779 8.42744 73.3756 8.25272 72.3399C8.08689 71.3569 8.36865 70.6217 9.05022 70.2564C9.287 70.1295 9.45368 70.077 9.60499 70.0828ZM15.8463 70.2217C15.9146 70.2031 15.9655 70.2044 15.9849 70.2564C16.0929 70.5452 15.455 76.5382 15.2568 77.132C15.2012 77.2987 15.1256 78.3477 15.0834 79.4586C15.0413 80.5695 14.9175 82.1524 14.806 82.9659C14.6946 83.7793 14.598 84.7867 14.598 85.223C14.598 85.7797 14.5249 86.0217 14.3206 86.0217C13.7488 86.0217 13.4378 85.358 12.3095 81.6116C11.6088 79.2847 11.7111 76.9176 12.6216 74.1457C12.9658 73.0977 13.3011 72.5913 14.4593 71.4024C15.2073 70.6346 15.6411 70.2774 15.8463 70.2217ZM33.5645 70.2564C33.0661 70.7333 32.2863 72.111 32.4203 72.5136C33.6927 72.7532 35.8841 73.571 34.674 72.965C33.464 72.3591 32.4611 72.5511 33.5645 70.2564ZM164.527 72.4789C164.705 72.4789 164.583 74.4916 164.249 77.0279C163.572 82.1761 163.37 83.3246 162.828 85.223C162.495 86.3894 161.776 88.4459 161.198 89.8067C159.689 93.3574 159.21 93.1564 158.84 88.7303C158.662 86.5974 158.872 84.5171 159.603 80.9865C160.132 78.4309 161.155 75.9454 162.238 74.6318C162.945 73.775 164.317 72.4789 164.527 72.4789ZM3.46776 74.7013C3.71301 74.7013 5.77755 76.9317 6.1723 77.6182C7.2124 79.4269 7.73629 80.6126 8.04468 81.8894C8.23251 82.667 8.51409 83.6675 8.66881 84.1118C9.44055 86.3282 9.47556 91.4448 8.73815 93.8349C8.40725 94.9074 8.05739 94.7874 7.35121 93.4182C5.53292 89.8924 4.50259 85.7263 3.64113 78.4516C3.29388 75.5192 3.24387 74.7013 3.46776 74.7013ZM159.326 75.4998C159.358 75.5234 159.382 75.5867 159.395 75.6734C159.429 75.9052 159.3 76.6212 159.118 77.2708C158.35 80.0102 157.203 84.5843 157.003 85.709C156.884 86.3756 156.713 87.0773 156.656 87.2717C156.448 87.9781 156.23 87.6033 156.101 86.3688C155.975 85.166 156.181 82.5171 156.587 80.2224C156.798 79.0267 157.312 77.9406 158.494 76.3332C158.992 75.6552 159.23 75.4293 159.326 75.4998ZM8.66881 77.6181C8.99043 77.5937 9.82562 78.7982 10.7492 80.6044C11.5261 82.1236 11.6296 82.5274 11.7894 84.32C11.8881 85.427 11.9935 87.133 11.9975 88.1051C12.0019 89.0798 11.8941 89.8413 11.7894 89.8413C11.4874 89.8413 11.4072 89.6226 11.1653 88.0356C11.0401 87.2139 10.8104 86.0422 10.6452 85.4312C10.48 84.8202 10.2844 84.0282 10.1944 83.695C10.1045 83.3617 9.68132 82.1528 9.29293 80.9864C8.54172 78.7303 8.35263 77.642 8.66881 77.6181ZM150.553 81.1947C150.319 81.2048 150.089 81.3368 149.895 81.5767C149.44 82.1393 149.399 83.5376 149.825 84.1464C150.112 84.5567 150.638 84.6325 151.143 84.32C151.531 84.0806 151.757 82.6636 151.524 81.9934C151.337 81.4554 150.943 81.1785 150.553 81.1947ZM17.4759 83.2088C17.3352 83.2327 17.197 83.3639 16.9558 83.5908C16.2964 84.2112 16.2418 85.3311 16.8519 85.9868C17.4386 86.6175 18.253 86.5144 18.6202 85.7438C19.0111 84.9234 18.7123 83.8183 17.9961 83.4172C17.7415 83.2746 17.6167 83.1849 17.4759 83.2088ZM138.73 83.2088C139.156 83.2088 139.191 83.2988 139.284 84.1464C139.343 84.6741 139.391 89.3347 139.354 94.4945C139.293 102.996 139.226 103.93 138.903 104.53C138.564 105.161 138.196 105.489 138.001 105.294C137.892 105.184 138.027 83.8084 138.14 83.4519C138.184 83.313 138.464 83.2088 138.73 83.2088ZM128.882 83.7297C128.966 83.7264 129.049 83.7521 129.125 83.7991C129.35 83.9383 129.404 86.1304 129.402 96.2308C129.4 108.355 129.398 108.493 128.986 108.905C128.614 109.278 128.581 109.273 128.466 108.975C128.261 108.441 128.463 84.011 128.674 83.7991C128.727 83.7468 128.799 83.7331 128.882 83.7297ZM38.8349 84.4242C38.9342 84.4057 39.044 84.4042 39.1469 84.4242C39.5067 84.494 39.5283 84.9723 39.5283 96.6822C39.5283 103.384 39.4688 108.926 39.3897 108.975C39.2034 109.09 38.4115 108.332 38.3841 108.003C38.2676 106.6 38.462 84.6587 38.5922 84.5284C38.64 84.4805 38.7355 84.4425 38.8349 84.4242ZM29.3343 84.7367C29.5387 84.6832 29.8035 84.7552 29.9237 84.8756C30.0753 85.0274 30.1318 88.3599 30.1318 95.7446C30.1318 102.597 30.0875 106.429 29.9584 106.509C29.848 106.578 29.5124 106.398 29.2303 106.093C29.0593 105.908 28.8013 105.772 28.7102 105.537C27.6614 102.835 28.7623 99.755 28.7795 96.8558C28.8474 85.4403 28.861 84.8607 29.3343 84.7367ZM104.368 87.5495C104.475 87.5288 104.592 87.5517 104.715 87.5843C105.129 87.6927 105.16 87.797 105.166 89.3205C105.201 99.1579 105.146 114.395 105.062 114.531C104.911 114.775 104.214 114.752 104.056 114.496C103.935 114.301 103.887 106.491 103.952 93.1749C103.966 90.2789 104.047 87.8153 104.125 87.6884C104.165 87.6249 104.261 87.5701 104.368 87.5495ZM120.283 87.6189L120.318 89.3899C120.356 97.1834 120.286 113.372 120.214 113.489C120.099 113.676 118.585 113.733 118.411 113.559C118.235 113.382 118.268 88.8889 118.446 88.244C118.562 87.8223 118.742 87.7402 119.451 87.6884L120.283 87.6189ZM63.0371 87.6537C63.2892 87.6155 63.531 87.9329 63.6265 88.5218C63.6955 88.947 63.7415 95.1592 63.6959 102.342C63.6092 115.976 63.5837 116.145 62.7597 115.677C62.4229 115.486 62.3992 114.72 62.4129 102.065C62.4218 94.0771 62.5067 88.4062 62.621 88.1051C62.7302 87.8176 62.8858 87.6766 63.0371 87.6537ZM48.4741 88.1399C48.7979 88.1432 49.1338 88.2102 49.237 88.3135C49.3602 88.4369 49.4103 113.818 49.237 113.837C49.1808 113.842 48.8395 113.98 48.4395 114.045C47.8793 114.136 47.6699 114.056 47.5726 113.802C47.4132 113.386 47.616 88.5455 47.7807 88.2788C47.8434 88.1772 48.1504 88.1365 48.4741 88.1399ZM151.143 90.0845C151.196 90.0778 151.262 90.1049 151.351 90.1886C151.494 90.3233 151.59 91.0257 151.594 91.9248C151.602 94.2929 150.839 96.0828 149.201 97.6198C148.728 98.0641 148.102 98.9117 147.814 99.4949C147.527 100.078 147.242 100.571 147.19 100.571C147.138 100.571 147.027 100.316 146.913 100.016C146.773 99.6471 146.744 98.8149 146.878 97.4809C147.051 95.7475 147.175 95.3926 147.814 94.3556C148.215 93.7057 149.072 92.5532 149.721 91.8207C150.37 91.0881 150.95 90.3704 151.004 90.2233C151.04 90.1242 151.09 90.091 151.143 90.0845ZM156.621 90.5012C156.903 90.4956 157.203 90.6326 157.523 90.9526C158.157 91.588 158.209 93.2377 157.627 93.7653C157.102 94.2406 155.847 94.1929 155.581 93.6959C155.219 93.0182 155.329 91.5724 155.789 90.9873C156.05 90.655 156.339 90.5072 156.621 90.5012ZM165.394 90.8137L164.908 91.3693C164.263 92.1209 164.279 93.3435 164.943 94.0084C165.581 94.6469 165.723 94.6328 166.365 93.8695C166.783 93.3712 166.898 93.0517 166.85 92.4111C166.799 91.7192 166.681 91.5613 166.087 91.2304L165.394 90.8137ZM17.0598 91.8207C17.431 91.7752 17.4682 92.4176 17.684 92.7235C18.04 93.2282 18.78 94.1887 19.3136 94.8418C20.4064 96.179 21.1356 97.4872 21.3594 98.5226C21.5315 99.3194 22.1998 101.822 21.3594 101.822C20.5756 101.822 20.9704 102.51 20.3538 101.509C19.3655 99.9051 19.2372 99.7262 18.8975 99.356C18.2231 98.6211 17.3337 97.4678 17.0598 96.96C16.6875 96.2697 16.52 93.1738 16.8171 92.411C16.8938 92.2143 16.8505 91.8463 17.0598 91.8207ZM11.5467 92.6888C11.7515 92.691 11.9346 92.7161 12.1015 92.8277C12.8207 93.3086 13.0356 95.124 12.4482 95.8488C11.9563 96.4558 11.0173 96.5687 10.5412 96.0919C10.1963 95.7464 10.0255 94.6619 10.1598 93.6958C10.242 93.1044 10.9324 92.6817 11.5467 92.6888ZM2.18483 93.4875C1.20242 93.4875 0.725236 95.6202 1.52604 96.4738C2.23751 97.2323 3.13284 96.98 3.50243 95.9182C3.93148 94.6856 3.28794 93.4875 2.18483 93.4875ZM156.24 96.1266C156.797 96.1274 156.736 96.6112 155.72 97.342C154.17 98.4569 152.311 101.25 151.559 103.593C151.302 104.391 150.978 105.016 150.831 105.016C150.557 105.016 149.548 103.041 149.548 102.516C149.548 101.893 151.096 99.6209 152.322 98.4532C153.022 97.7866 154.069 96.9877 154.645 96.6822C155.356 96.305 155.905 96.1261 156.24 96.1266ZM83.3905 96.8558C83.7541 96.7868 84.181 97.0268 84.8468 97.585L85.8177 98.3837L86.9966 97.8976C88.4355 97.2758 88.8207 97.4065 88.4182 98.3837C88.2653 98.755 87.7752 99.4412 87.3433 99.9116C86.0945 101.272 86.3193 101.413 89.389 101.301C90.8049 101.249 92.052 101.205 92.1629 101.197C92.2739 101.188 92.7733 101.189 93.2725 101.231L94.174 101.335L94.2434 102.447C94.2999 103.508 94.2616 103.61 93.8273 103.627C93.5722 103.637 91.8139 103.663 89.9092 103.697C88.0044 103.73 86.3702 103.807 86.2684 103.87C85.9946 104.04 85.6096 103.573 85.6096 103.072C85.6096 102.831 85.4154 102.417 85.1935 102.134C84.9717 101.852 84.8121 101.415 84.8121 101.197C84.8121 100.978 84.6816 100.728 84.5347 100.606C84.1461 100.283 83.8066 100.71 83.8066 101.509C83.8066 101.869 83.6951 102.213 83.5985 102.273C83.5019 102.333 83.3841 102.618 83.3212 102.933C83.283 103.124 83.3677 103.4 83.2172 103.523C82.0558 104.474 80.2096 103.493 78.7096 103.488C77.2097 103.484 75.2912 104.521 74.2021 103.488C73.9454 103.245 74.153 102.8 74.1327 102.447C74.1124 102.093 73.8607 101.633 74.098 101.37C74.2923 101.155 74.6756 101.347 74.9648 101.335C75.442 101.316 75.9912 101.317 76.2131 101.335C77.2865 101.424 81.0285 101.341 81.2061 101.231C81.3169 101.163 80.958 100.74 80.4086 100.259C79.6658 99.6081 79.3524 99.1404 79.1603 98.4532C79.0182 97.9448 78.9567 97.4765 79.0216 97.4114C79.0866 97.3463 79.5427 97.4891 80.0272 97.7239C81.2042 98.2946 81.7749 98.2783 81.7955 97.6892C81.8044 97.4392 81.8436 97.3419 81.8995 97.4808C82.0504 97.8554 82.3678 97.8001 82.7663 97.3072C82.972 97.0528 83.1723 96.8972 83.3905 96.8558ZM11.9281 98.2795C12.1259 98.242 12.5098 98.3589 13.2457 98.6615C14.8956 99.3401 17.2593 101.535 18.1347 103.211C18.333 103.59 18.691 103.929 18.7242 104.356C18.7559 104.764 18.4739 105.115 18.3428 105.502C17.8317 107.013 17.5981 107.326 17.2679 106.996C17.1307 106.858 17.0252 106.626 17.0252 106.475C17.0252 105.828 15.2394 102.509 14.3553 101.509C14.1624 101.291 13.9616 100.955 13.9045 100.78C13.8475 100.605 13.3426 100.162 12.795 99.7727C11.7145 99.0057 11.5569 98.7258 11.7894 98.349C11.8177 98.3031 11.8622 98.2921 11.9281 98.2795ZM144.52 98.5573C145.29 98.5573 148.943 105.179 149.929 108.35C151.11 112.146 151.426 114.146 151.316 117.309L151.247 119.74L150.207 120.816C149.635 121.422 149.101 122.156 149.028 122.448C148.848 123.163 148.494 123.318 146.601 123.49C145.713 123.571 144.908 123.699 144.798 123.768C144.687 123.837 144.203 123.99 143.723 124.115C142.633 124.398 142.552 124.264 142.856 122.518C143.169 120.718 143.141 117.693 142.786 116.024C142.329 113.872 142.007 112.977 140.879 110.607C139.756 108.246 139.746 108.194 140.741 106.996C141.575 105.99 142.701 103.456 144.139 99.2171C144.261 98.8561 144.438 98.5573 144.52 98.5573ZM161.268 98.7657C161.498 98.7791 161.649 98.8592 161.649 99.0088C161.649 99.1496 161.402 99.5777 161.129 99.9811C160.855 100.384 160.417 101.241 160.123 101.891C159.829 102.541 159.252 103.766 158.875 104.6C158.498 105.433 158.134 106.239 158.043 106.405C156.843 108.593 156.424 109.336 155.754 110.329C155.321 110.971 154.686 111.784 154.333 112.17C153.117 113.496 152.908 113.049 153.189 109.565C153.489 105.83 154.372 102.847 155.477 101.752C156.691 100.549 157.554 100.065 160.401 98.9393C160.731 98.8089 161.037 98.7523 161.268 98.7657ZM23.7518 100.224C23.7963 100.213 23.8256 100.205 23.8558 100.224C23.9717 100.296 24.2262 100.907 24.4106 101.544C24.9087 103.264 26.5311 107.092 26.9071 107.447C27.6639 108.162 28.5367 109.472 28.5367 109.878C28.5367 110.118 28.2919 110.716 28.0166 111.232C27.017 113.107 26.3353 114.996 25.7975 117.274C25.3816 119.036 25.3566 123.287 25.7628 124.636C26.0246 125.505 26.0237 125.621 25.6935 125.921C25.4749 126.119 25.2832 126.147 25.208 126.025C25.0952 125.842 24.6606 125.761 22.1914 125.504C21.7477 125.458 21.2483 125.385 21.0819 125.33C20.9155 125.276 20.5127 125.187 20.215 125.122C19.9062 125.054 19.6338 124.811 19.5562 124.566C19.4814 124.331 18.9376 123.617 18.3427 122.969C17.7477 122.321 17.2025 121.56 17.1291 121.268C16.8944 120.331 16.9137 117.481 17.1984 115.295C17.6857 111.554 20.0884 104.922 21.5673 103.176C21.8026 102.898 22.1313 102.349 22.3301 101.96C22.7933 101.054 23.4404 100.301 23.7518 100.224ZM6.90045 100.988C7.22059 100.987 7.68396 101.099 8.21805 101.301C10.9957 102.349 11.7259 102.767 12.6909 103.836C14.2294 105.539 15.0253 108.378 15.0834 112.343C15.1062 113.898 15.0494 114.795 14.9101 114.843C14.6632 114.929 13.9049 114.12 12.5869 112.378C11.272 110.64 10.3447 109.012 9.39695 106.822C8.60623 104.995 7.19881 102.481 6.58839 101.752C6.19272 101.28 6.36689 100.99 6.90045 100.988ZM91.1574 104.773C98.9255 104.752 101.143 104.809 101.143 105.016C101.143 105.116 100.748 105.219 100.277 105.225C99.8051 105.23 96.3189 105.269 92.5097 105.329C86.237 105.428 85.582 105.412 85.6443 105.12C85.7051 104.835 86.3413 104.786 91.1574 104.773ZM74.0633 104.877C78.5234 104.84 82.8704 104.945 82.8704 105.12C82.8704 105.251 79.9478 105.316 74.5487 105.329C66.0178 105.348 63.5315 105.145 69.7291 104.947C71.0785 104.904 72.5766 104.89 74.0633 104.877ZM70.6306 106.266C70.9593 106.249 71.2693 106.283 71.4974 106.509C72.0938 107.102 71.4908 108.203 71.4974 109.044C71.5497 116.167 71.597 115.92 70.908 115.92C70.4073 115.92 70.3445 115.67 70.4226 113.906C70.4594 113.073 70.3743 111.794 70.2492 111.058C70.0592 109.941 69.9545 109.731 69.6597 109.808C69.3916 109.878 69.1911 109.603 68.7929 108.732C68.2499 107.544 67.8104 107.355 67.6833 108.246C67.645 108.515 67.5193 108.871 67.406 109.01C67.2814 109.161 67.2571 109.739 67.3366 110.503C67.4122 111.228 67.3629 112.215 67.2327 112.795C67.1078 113.35 67.4917 114.878 66.8859 114.878C65.8551 114.878 66.5155 116.313 66.1924 115.989C66.0055 115.802 66.0048 106.974 66.1924 106.718C66.2778 106.601 67.4506 106.509 68.9317 106.509C69.4674 106.509 70.0827 106.296 70.6306 106.266ZM91.0534 106.336C91.3129 106.336 91.3654 106.931 91.3654 110.642C91.3654 113.791 91.2963 114.994 91.1227 115.052C90.6425 115.212 90.5367 114.32 90.6373 110.364C90.7241 106.953 90.798 106.336 91.0534 106.336ZM95.3182 106.336C95.3574 106.309 96.6918 106.344 98.3002 106.405L101.247 106.509V110.78C101.247 114.887 101.222 115.017 100.831 115.017C100.5 115.017 100.387 114.84 100.277 114.01C100.203 113.454 100.056 112.517 99.9298 111.961C99.8034 111.406 99.7621 110.53 99.8259 110.017C99.9202 109.256 99.845 108.912 99.4098 108.072C98.8642 107.019 98.5083 106.883 98.5083 107.725C98.5083 107.984 98.3915 108.253 98.2309 108.315C98.0703 108.377 97.8068 108.809 97.6761 109.287C97.4546 110.097 97.453 110.127 97.26 109.704C96.9896 109.111 96.8442 109.137 96.4279 109.843C96.1589 110.299 96.0835 110.918 96.0811 112.621C96.0778 114.906 95.9525 115.406 95.4917 115.121C95.2779 114.989 95.2459 114.046 95.249 110.676C95.2512 108.323 95.2792 106.362 95.3182 106.336ZM79.9578 106.405C80.2219 106.414 80.3097 107.608 80.2699 110.607C80.2533 111.849 79.5711 113.273 80.2351 114.323C80.3309 114.474 80.5579 114.491 80.7206 114.566C81.2537 114.809 81.5467 114.527 81.5527 113.836C81.555 113.553 81.7369 113.489 82.4543 113.489C82.9469 113.489 83.4259 113.586 83.4945 113.697C83.563 113.809 83.4185 113.906 83.1824 113.906C82.8528 113.906 82.7515 114.009 82.801 114.357C82.8588 114.764 82.989 114.808 83.9799 114.809C84.8706 114.81 85.1027 114.871 85.1588 115.156C85.2206 115.47 85.0396 115.517 83.4598 115.538C82.4811 115.551 81.5943 115.536 81.4834 115.503C81.3724 115.471 81.0811 115.433 80.8593 115.434C80.6374 115.434 80.3206 115.523 80.1311 115.607C79.8723 115.722 79.733 115.615 79.6457 115.26C79.4881 114.619 79.6791 106.649 79.8537 106.475C79.8991 106.429 79.9201 106.404 79.9578 106.405ZM86.0951 106.405C86.5553 106.405 86.6422 107.084 86.5111 109.808C86.4428 111.23 86.2993 112.45 86.1991 112.552C85.9295 112.826 85.8161 112.397 85.7136 110.468C85.6635 109.524 85.5812 108.406 85.5056 108.003C85.3547 107.196 85.6393 106.405 86.0951 106.405ZM88.4182 106.405C88.6394 106.393 88.6942 107.378 88.6609 110.503C88.6382 112.638 88.57 114.414 88.5222 114.461C88.4744 114.509 88.3653 114.394 88.2795 114.184C88.1037 113.753 88.1359 106.653 88.3142 106.475C88.3533 106.436 88.3867 106.407 88.4182 106.405ZM94.07 106.405C94.4676 106.405 94.4699 106.538 94.4167 110.711C94.3792 113.659 94.296 115 94.1393 115.052C93.7299 115.188 93.6886 114.508 93.6886 110.433C93.6886 106.532 93.6749 106.405 94.07 106.405ZM72.607 106.44C72.8572 106.402 73.1745 106.548 73.4392 106.544C74.3646 106.531 74.5015 106.572 74.5141 106.926C74.615 109.766 74.5834 115.283 74.5834 115.573C74.5834 115.874 74.3084 115.931 73.5779 115.885C73.0773 115.853 72.5733 115.776 72.4683 115.712C72.3545 115.641 72.295 113.748 72.3296 111.058C72.3489 109.554 71.3374 107.609 72.399 106.544C72.4613 106.482 72.5236 106.453 72.607 106.44ZM77.1146 106.475C77.2641 106.425 77.4434 106.473 77.5307 106.614C77.6179 106.755 77.724 108.769 77.7387 111.058C77.7603 114.422 77.6993 115.283 77.4613 115.607C77.1722 116.002 77.1603 115.999 76.9759 115.503C76.8726 115.226 76.7887 113.105 76.8025 110.781C76.8224 107.432 76.8992 106.547 77.1146 106.475ZM82.385 106.475C82.4731 106.448 82.5943 106.492 82.7317 106.579C83.0169 106.76 83.0321 106.859 82.8704 110.086C82.7832 111.825 82.66 112.473 82.4543 112.552C82.0336 112.713 81.939 112.045 82.0036 109.149C82.0461 107.243 82.1206 106.555 82.385 106.475ZM137.377 110.329C137.481 110.326 137.594 110.336 137.724 110.364C138.761 110.589 138.908 111.108 138.106 111.753C136.883 112.736 135.379 114.386 134.673 115.503C134.261 116.155 133.446 117.202 132.904 117.83C132.363 118.458 131.787 119.042 131.587 119.15C130.953 119.489 130.915 118.972 131.518 118.073C131.83 117.607 132.242 116.899 132.454 116.51C132.665 116.122 133.009 115.595 133.217 115.33C133.424 115.065 133.598 114.761 133.598 114.67C133.598 114.353 135.487 111.809 136.302 111.024C136.831 110.516 137.067 110.34 137.377 110.329ZM30.5479 110.746C30.7143 110.746 30.8958 110.811 31.172 110.954C32.2715 111.524 32.9033 112.416 34.2926 115.295C34.6947 116.128 35.2875 117.349 35.6102 118.004C35.9329 118.658 36.1997 119.36 36.1997 119.566C36.1997 119.773 36.1095 119.954 36.0263 119.948C35.7616 119.931 34.1409 117.804 33.5298 116.684C32.2518 114.342 31.3765 113.171 30.5132 112.691C29.1554 111.936 29.0042 111.448 29.9584 110.954C30.2321 110.813 30.3814 110.746 30.5479 110.746ZM139.527 112.968C140.892 112.836 140.717 113.386 138.626 115.399C137.573 116.412 136.481 117.538 136.233 117.899C135.767 118.579 135.545 118.696 135.332 118.351C135.124 118.015 136.944 114.876 137.897 113.941C138.558 113.292 138.982 113.021 139.527 112.968ZM28.2247 113.767C28.7197 113.747 29.4835 114.061 29.9931 114.6C30.6249 115.269 32.3509 118.296 32.3509 118.733C32.3509 119.369 32.1036 119.219 31.172 117.934C30.6912 117.271 30.2461 116.719 30.1665 116.719C29.8919 116.719 27.7393 114.471 27.7393 114.184C27.7393 113.916 27.9277 113.779 28.2247 113.767ZM80.3739 116.684C81.4797 116.572 82.7386 117.031 83.8759 117.031H88.4182V118.281C88.4184 120.226 88.4093 120.211 90.3599 120.052L92.0242 119.913L93.4112 120.816C96.0029 122.524 95.3937 122.404 102.114 122.275C105.411 122.211 108.265 122.126 108.46 122.066C109.021 121.894 108.871 122.461 108.113 123.455C107.186 124.671 106.969 125.072 106.969 125.747C106.969 126.453 106.465 127.24 105.998 127.24C105.807 127.24 105.449 127.068 105.2 126.893C104.784 126.601 104.691 126.627 104.091 126.997C103.323 127.471 100.612 128.228 97.9188 128.734C95.3738 129.211 95.5498 129.182 90.9147 129.532C87.2397 129.81 79.6012 130.038 77.3226 129.914C73.2754 129.695 68.143 128.853 65.8456 128.039C65.2356 127.823 64.4933 127.592 64.216 127.553C63.3736 127.434 62.6046 126.989 62.517 126.546C62.4714 126.315 62.3997 125.784 62.3436 125.365C62.2796 124.887 61.9646 124.263 61.5114 123.733C61.1148 123.269 60.8187 122.828 60.8526 122.726C60.8866 122.624 61.5854 122.539 62.4129 122.552C64.1332 122.58 68.3989 122.574 70.7693 122.552C71.6536 122.545 72.5072 122.456 72.6417 122.344C72.7762 122.232 73.6839 121.76 74.6874 121.268C75.2956 120.969 75.8657 120.519 76.5251 120.365C77.9376 120.034 79.4088 120.336 80.8593 120.33H85.2282L85.1589 119.774L85.0895 119.253H81.8302C80.0378 119.253 78.5362 119.183 78.4669 119.115C78.3975 119.046 78.539 118.546 78.8136 118.003C78.98 117.675 79.0201 117.224 79.3337 117.031C79.6567 116.832 80.0053 116.721 80.3739 116.684ZM141.018 117.344C142.118 117.344 142.699 119.011 141.92 119.913C141.292 120.64 140.755 120.632 140.151 119.913C139.7 119.377 139.628 119.159 139.735 118.559C139.881 117.743 140.333 117.344 141.018 117.344ZM27.7393 118.142C28.9098 118.142 29.4617 119.372 28.8835 120.643C28.7548 120.926 28.5237 121.163 28.3288 121.163C28.1338 121.163 27.8209 121.21 27.67 121.268C26.818 121.595 26.2288 119.88 26.8031 118.767C27.0604 118.269 27.2702 118.142 27.7393 118.142ZM122.641 119.844C123.248 119.87 123.685 120.147 124.409 120.781C125.125 121.408 125.16 121.559 125.172 122.587C125.18 123.198 125.12 123.943 125.034 124.254L124.895 124.81L125.9 124.671C126.805 124.55 126.922 124.594 127.218 125.018C127.913 126.012 127.449 127.356 125.866 128.942C124.854 129.955 124.823 130.028 125.068 130.47C125.213 130.731 125.307 131.321 125.311 131.755C125.321 132.845 124.607 133.721 123.057 134.498C122.363 134.846 121.566 135.253 121.289 135.401C120.075 136.049 119.892 136.01 119.208 135.019C118.796 134.422 117.06 134.517 116.088 135.192C115.679 135.476 115.263 135.713 115.186 135.713C114.765 135.713 115.201 135.052 116.33 133.977C118.166 132.23 118.934 131.204 119.902 129.15C120.568 127.738 120.759 127.001 120.838 125.921C120.97 124.112 120.654 124.211 120.006 126.129C119.115 128.764 117.18 131.742 114.597 134.533C113.449 135.773 110.393 137.936 109.777 137.936C109.247 137.936 109.309 137.338 109.916 136.443C111 134.842 111.504 133.491 111.025 133.491C110.86 133.491 110.249 134.267 108.806 136.373C108.645 136.609 108.194 137.199 107.801 137.658C107.408 138.117 106.891 138.729 106.657 139.012C106.392 139.333 105.764 139.634 105.027 139.846C104.374 140.033 103.742 140.291 103.605 140.401C103.426 140.545 103.293 140.453 103.154 140.089C102.871 139.342 103.438 137.407 104.299 136.199C105.212 134.918 106.6 133.491 106.899 133.491C107.359 133.491 108.172 131.977 108.702 130.123C108.771 129.882 109.158 129.431 109.569 129.116C110.174 128.652 110.483 128.535 111.268 128.56C111.843 128.578 112.407 128.748 112.62 128.942C113.161 129.432 113.371 129.01 113.522 127.136C113.615 125.984 113.796 125.152 114.215 124.254C115.048 122.472 115.8 122.088 117.024 122.761C117.634 123.096 118.064 122.93 118.064 122.344C118.064 121.253 119.027 120.559 121.254 120.052C121.859 119.914 122.277 119.829 122.641 119.844ZM47.7113 120.087C47.9109 120.073 48.1102 120.065 48.3008 120.087C50.0111 120.284 51.8922 121.679 51.9762 122.796C52.014 123.298 52.4223 123.31 52.7737 122.83C53.0073 122.511 53.4716 122.427 54.5767 122.553C54.6518 122.561 54.8387 122.837 54.9928 123.143C55.1469 123.448 55.3625 123.858 55.4782 124.08C55.9812 125.046 56.3451 126.674 56.3451 127.9C56.3451 129.307 56.5457 129.644 57.0385 129.15C57.5056 128.683 58.2522 128.445 58.9803 128.56C60.5077 128.801 60.7303 129.051 61.5461 131.477C61.9899 132.797 62.3265 133.238 63.0024 133.387C63.3674 133.467 63.7579 133.759 64.0079 134.151C65.6217 136.676 65.9929 137.315 66.2964 138.075C66.485 138.547 66.6431 139.202 66.6431 139.533C66.6431 140.252 66.4547 140.28 64.7708 139.741C63.2815 139.265 62.967 138.991 60.8526 136.026C59.9022 134.693 59.0878 133.539 59.0496 133.491C59.0114 133.443 58.8938 133.508 58.7722 133.63C58.5219 133.881 59.1643 135.546 60.0551 136.859C61.0033 138.257 60.0507 138.225 57.836 136.79C54.9838 134.941 51.2869 130.454 50.3812 127.727C50.1968 127.171 49.9931 126.617 49.8958 126.511C49.7985 126.406 49.6893 126.1 49.6877 125.817C49.6844 125.163 49.4235 124.699 49.1329 124.879C48.848 125.055 48.8501 126.467 49.1329 127.518C49.6547 129.457 50.7788 131.303 52.7043 133.317C54.6704 135.374 54.9081 136.007 53.4325 135.262C52.2846 134.682 51.1595 134.719 50.6933 135.331C49.9108 136.359 49.9794 136.339 48.8556 135.887C48.2753 135.654 47.6211 135.424 47.3993 135.366C47.1774 135.308 46.4724 134.884 45.8389 134.429C44.2438 133.281 43.8344 132.051 44.6947 130.956C45.0758 130.471 45.0938 130.388 44.8334 130.192C43.2237 128.982 42.5301 127.975 42.3369 126.685C42.1423 125.385 42.5292 125.021 43.8972 125.157C44.8971 125.256 44.9146 125.238 44.7641 124.775C44.5257 124.041 44.3912 122.62 44.5214 122.101C44.7737 121.094 46.3145 120.185 47.7113 120.087ZM153.015 120.295C152.676 120.425 152.148 121.427 152.148 121.962C152.148 122.194 152.289 122.602 152.46 122.865C152.688 123.212 152.966 123.351 153.466 123.351C154.091 123.351 154.199 123.254 154.506 122.448C154.822 121.62 154.825 121.546 154.506 121.059C154.141 120.501 153.437 120.135 153.015 120.295ZM136.684 120.365C137.209 120.342 137.775 120.513 138.348 120.886C139.553 121.668 140.047 122.495 140.047 123.768C140.047 124.355 139.889 125.175 139.701 125.574C139.426 126.152 139.418 126.301 139.631 126.372C139.778 126.421 140.186 126.722 140.533 127.032C141.08 127.522 141.153 127.721 141.122 128.525C141.069 129.936 140.717 130.817 140.047 131.164C139.386 131.507 139.294 131.823 139.77 132.171C139.948 132.301 140.132 132.789 140.186 133.283C140.273 134.073 140.24 134.24 139.735 134.706C139.42 134.997 138.687 135.393 138.14 135.574C136.937 135.974 137.085 135.965 136.857 135.54C136.646 135.144 136.615 135.073 136.615 134.463C136.615 133.409 134.389 132.12 132.766 132.241C132.362 132.271 131.976 132.193 131.899 132.067C131.819 131.937 132.17 131.378 132.731 130.782C133.622 129.836 134.302 128.783 135.921 125.712C136.652 124.326 136.247 124.114 135.401 125.435C133.857 127.844 129.591 132.195 129.194 131.755C128.952 131.485 128.57 130.257 128.57 129.741C128.57 129.43 128.747 129.226 129.125 129.081C130.394 128.595 130.491 128.402 130.477 126.268C130.471 125.19 130.39 123.934 130.304 123.49C130.163 122.76 130.19 122.641 130.72 122.136C131.043 121.828 131.606 121.476 131.968 121.372C132.536 121.209 132.693 121.264 133.113 121.684C133.38 121.952 133.598 122.36 133.598 122.587C133.598 123.34 134.179 122.984 134.603 121.997C135.052 120.952 135.808 120.402 136.684 120.365ZM32.767 121.268C34.0139 121.181 35.1904 121.848 35.5062 123.108C35.6769 123.789 36.1432 123.701 36.3037 122.969C36.3919 122.567 36.6528 122.246 37.0665 122.032C37.6449 121.732 37.7454 121.754 38.3148 122.066C38.6541 122.253 39.0808 122.621 39.2856 122.9C39.6389 123.381 39.6523 123.517 39.355 125.122C39.084 126.585 39.0815 126.943 39.3202 127.865C39.5824 128.877 39.9783 129.414 40.9499 129.984C41.292 130.184 41.3144 130.26 41.0886 130.887C40.9499 131.271 40.8459 131.839 40.8459 132.137C40.8459 132.434 40.7983 132.692 40.7419 132.692C40.0029 132.692 35.1675 127.563 34.2926 125.851C33.9551 125.191 33.7077 125.056 33.4951 125.4C33.2904 125.732 36.3289 130.725 37.6213 132.171C38.0961 132.703 37.9593 132.895 36.9278 132.901C34.4609 133.119 33.6108 136.079 32.6976 136.547C32.0322 136.674 30.9392 136.344 30.2011 135.783C29.4144 135.185 29.3346 134.342 29.9584 133.317C30.3777 132.629 30.3444 132.276 29.8545 132.276C29.449 132.276 28.6187 131.067 28.4675 130.262C28.2894 129.313 29.0034 127.848 29.7851 127.553C30.4379 127.306 30.4687 127.17 30.0625 126.546C29.9023 126.3 29.655 125.692 29.5424 125.192C29.3668 124.412 29.4266 124.183 29.7851 123.49C30.0151 123.046 30.3804 122.506 30.6173 122.275C31.2469 121.659 32.0188 121.32 32.767 121.268ZM14.9794 121.997C14.7335 122.015 14.4951 122.186 14.2166 122.483C13.6598 123.077 13.6027 124.072 14.1126 124.636C14.5241 125.091 15.4672 125.121 15.8116 124.705C15.9461 124.543 16.0963 124.023 16.1584 123.559C16.2554 122.836 16.2274 122.664 15.8116 122.344C15.4848 122.092 15.2253 121.978 14.9794 121.997ZM76.3171 123.803C74.4725 123.831 74.3754 123.965 74.3754 124.462C74.3754 124.681 76.3407 124.701 83.5292 124.636C88.6052 124.59 92.6449 124.497 92.7524 124.393C93.2776 123.886 92.3689 123.773 87.7941 123.803C85.1999 123.819 81.1636 123.814 78.8136 123.803C77.7531 123.798 76.932 123.793 76.3171 123.803ZM148.508 125.122C149.021 125.105 149.34 125.129 149.34 125.226C149.34 125.626 148.294 127.027 146.497 129.046C145.463 130.206 144.532 131.222 144.416 131.303C144.061 131.553 143.814 131.463 143.445 130.956C143.007 130.352 142.981 130.094 143.411 128.56C143.871 126.917 145.209 125.546 146.531 125.33C147.292 125.207 147.994 125.14 148.508 125.122ZM83.5985 125.504C78.0304 125.511 72.4702 125.572 72.3643 125.678C72.2994 125.743 72.5467 126.094 72.3643 126.094C72.0694 126.094 73.707 126.411 83.5292 126.303C89.6061 126.236 94.6677 126.114 94.7635 126.025C94.8592 125.936 94.865 125.751 94.7982 125.643C94.7329 125.537 89.1667 125.498 83.5985 125.504ZM21.29 126.997C23.6862 127.031 25.2739 128.405 25.9016 131.025C26.1126 131.906 26.0847 132.059 25.6589 132.727C25.4025 133.129 25.0993 133.486 24.9654 133.491C24.8315 133.495 24.4777 133.169 24.1679 132.762C23.8582 132.354 23.4189 131.819 23.1971 131.581C21.3452 129.594 19.7034 127.336 19.9377 127.101C19.9993 127.04 20.5983 126.987 21.29 126.997ZM126.663 133.178L127.703 133.248C129.206 133.328 129.761 133.592 130.096 134.394C130.477 135.308 130.625 135.377 131.587 135.088C132.874 134.702 134.4 135.101 135.297 136.095C136.141 137.031 136.372 138.06 136.025 139.221C135.742 140.168 134.602 141.374 133.979 141.374C133.612 141.374 133.589 141.452 133.737 142.033C134.068 143.339 133.912 144.486 133.321 145.263C132.818 145.923 132.115 146.338 131.726 146.235C131.642 146.213 131.587 146.308 131.587 146.409C131.587 146.509 130.935 146.787 130.131 147.034C128.657 147.485 125.349 147.803 125.068 147.52C124.985 147.436 124.93 147.001 124.93 146.582C124.93 144.498 123.567 143.391 121.046 143.388C119.997 143.386 119.631 143.061 119.382 141.86C119.307 141.5 119.003 141.042 118.654 140.783C117.615 140.014 118.192 139.697 121.185 139.429C121.961 139.359 122.684 139.243 122.78 139.186C122.876 139.128 123.569 139.079 124.305 139.047C127.906 138.89 130.173 138.682 130.269 138.526C130.601 137.988 128.876 137.788 126.282 138.075C124.962 138.22 124.571 138.191 123.924 137.901C122.746 137.373 122.207 136.155 123.265 136.408C123.963 136.575 124.078 136.584 124.826 136.477C126.259 136.273 126.801 135.568 126.698 134.116L126.663 133.178ZM103.536 133.387C103.574 133.42 103.363 134.039 103.085 134.741C102.351 136.596 101.806 138.638 101.559 140.366C101.264 142.443 100.94 147.197 101.039 147.937C101.338 150.162 101.798 152.789 102.149 154.083C102.557 155.585 103.546 157.741 104.091 158.354C104.246 158.53 104.368 158.768 104.368 158.875C104.368 159.33 99.9955 161.896 98.9936 162.035C98.6779 162.079 97.5509 162.415 96.4971 162.764C95.4434 163.113 94.2016 163.438 93.7579 163.493C93.3142 163.549 92.5581 163.67 92.0589 163.771C91.5598 163.873 90.7717 163.995 90.3252 164.049C89.8788 164.103 89.3169 164.258 89.0423 164.362C88.7677 164.465 87.0409 164.556 85.2282 164.57C83.5648 164.596 81.7202 164.769 79.9925 164.257C79.4665 164.204 78.7164 164.08 78.3282 163.98C77.9399 163.879 76.8785 163.642 75.9357 163.459C72.8493 162.86 69.8147 161.916 68.0648 160.993C66.0423 159.927 65.8456 159.799 65.8456 159.396C65.8456 159.228 66.1767 158.353 66.6085 157.451C67.0403 156.55 67.5122 155.43 67.6487 154.986C67.7851 154.541 67.9757 154.054 68.0648 153.875C68.1537 153.695 68.4115 152.614 68.6542 151.479C69.0419 149.665 69.094 148.983 69.0009 146.027C68.8888 142.465 68.7531 141.114 68.4462 140.54C68.3428 140.347 68.2728 139.977 68.2728 139.741C68.2728 139.506 67.7727 138.209 67.1632 136.859C66.5537 135.509 66.1085 134.339 66.1924 134.255C66.2763 134.171 66.5751 134.236 66.8512 134.394C67.1272 134.552 67.4823 134.73 67.6487 134.81C67.8151 134.891 68.1689 135.134 68.4462 135.331C69.1741 135.85 72.5183 136.906 74.5141 137.241C78.2924 137.875 85.5316 138.005 87.6207 137.484C88.0089 137.388 88.8136 137.252 89.4237 137.206C91.8844 137.021 99.3018 135.369 99.8258 134.88C99.9312 134.781 100.139 134.709 100.311 134.706C100.483 134.703 101.268 134.383 102.045 134.012C102.821 133.64 103.497 133.354 103.536 133.387ZM43.0304 133.491C43.0821 133.484 43.1597 133.521 43.2384 133.595C43.4042 133.75 43.3765 133.97 43.2037 134.428C42.7004 135.764 43.8978 136.929 45.7695 136.929C46.2584 136.929 46.7065 136.831 46.7751 136.72C46.9652 136.412 47.2952 136.476 47.2952 136.824C47.2952 137.312 46.6858 138.109 46.0816 138.422C45.6636 138.638 45.0239 138.685 43.5157 138.595C41.4107 138.47 39.7254 138.74 39.875 139.186C39.9318 139.355 40.5521 139.425 41.9554 139.394C44.9179 139.328 49.8543 139.764 51.0053 140.193C51.8483 140.506 51.8586 140.492 51.248 141.13C50.946 141.446 50.5407 142.149 50.3465 142.693C50.2288 143.023 50.2736 143.482 49.9997 143.7C49.6312 143.993 49.0456 143.785 48.5781 143.839C47.8067 143.928 46.8833 144.129 46.5324 144.29C45.7399 144.655 45.0761 145.991 45.0761 147.172C45.0761 147.672 44.642 148.145 44.7987 148.145C45.2125 148.145 43.4871 148.421 43.4117 148.353C43.3746 148.32 42.7319 148.212 41.9554 148.145C40.197 147.992 38.9363 147.611 37.9333 146.929C37.5067 146.639 37.0751 146.409 36.9971 146.409C36.9191 146.409 36.7118 146.121 36.5117 145.749C36.1544 145.084 36.1524 144.014 36.5117 142.832C36.622 142.469 36.5377 142.389 36.0262 142.276C35.6871 142.202 35.1059 141.779 34.7086 141.339C34.0518 140.611 33.9805 140.455 33.9805 139.325C33.9805 137.795 34.5166 136.745 35.6102 136.13C36.4818 135.639 37.0915 135.555 38.4534 135.783C39.3789 135.937 39.3997 135.927 39.7363 135.262C40.3465 134.056 40.5955 133.873 41.7474 133.873C42.4126 133.873 42.8337 133.788 42.8916 133.63C42.9239 133.541 42.9787 133.498 43.0304 133.491ZM120.595 137.033C120.886 137.038 121.15 137.07 121.393 137.137C121.93 137.286 122.121 137.447 122.121 137.797C122.121 138.233 121.998 138.287 119.347 138.595C117.822 138.773 116.403 138.976 116.226 139.047C116.046 139.119 115.815 139.012 115.672 138.838C115.457 138.579 115.481 138.507 115.88 138.352C116.141 138.251 116.719 138.039 117.163 137.866C118.625 137.297 119.723 137.017 120.595 137.033ZM48.5782 137.484C49.0266 137.427 49.7305 137.514 50.832 137.727C53.1111 138.168 54.334 138.597 54.334 138.943C54.334 139.081 53.8607 139.117 53.0164 139.082C52.287 139.051 51.6841 139.031 51.6641 139.012C51.6441 138.993 50.7886 138.907 49.7917 138.839C47.907 138.708 47.5938 138.597 47.7807 138.109C47.9235 137.737 48.1297 137.542 48.5782 137.484ZM123.369 140.436C123.129 140.676 123.524 141.12 124.097 141.235C124.441 141.303 124.972 141.514 125.276 141.721C125.58 141.928 126.331 142.432 126.941 142.832C128.169 143.636 128.285 143.681 128.466 143.388C128.83 142.798 127.803 141.905 126.108 141.304C125.62 141.131 124.826 140.819 124.34 140.644C123.854 140.47 123.424 140.381 123.369 140.436ZM46.1857 141.026C45.7184 141.079 44.7682 141.503 43.0651 142.346C41.7882 142.978 41.5239 143.162 41.4701 143.631C41.435 143.936 41.4961 144.186 41.6088 144.186C41.7214 144.186 42.9054 143.526 44.244 142.728C45.8159 141.791 46.6241 141.222 46.4977 141.096C46.4414 141.039 46.3415 141.009 46.1857 141.026ZM113.071 141.165C115.053 141.165 116.032 142.208 115.256 143.526C115.025 143.917 114.889 144.31 114.978 144.395C115.067 144.48 115.859 144.607 116.747 144.672C119.224 144.856 119.69 145.429 119.278 147.832C119.188 148.356 119.721 148.759 120.699 148.909C121.3 149.001 121.855 149.678 122.017 150.541C122.164 151.324 121.692 152.202 120.838 152.659C120.352 152.92 120.309 153.012 120.422 154.222C120.534 155.429 120.526 155.506 119.971 156.062C119.479 156.555 119.204 156.662 118.272 156.687C116.559 156.733 114.513 155.545 113.938 154.187C113.33 152.752 113.402 149.846 114.042 149.846C114.154 149.846 114.811 150.103 115.498 150.437C116.904 151.119 117.059 151.168 117.059 150.784C117.059 150.418 114.74 149.302 113.661 149.152C113.182 149.086 112.702 148.981 112.586 148.909C112.47 148.837 111.505 148.598 110.436 148.388C108.334 147.976 104.766 147.897 103.466 148.214C102.514 148.447 102.271 148.344 101.976 147.693C101.567 146.795 101.698 146.288 102.496 145.679C103.571 144.858 103.901 144.564 104.715 143.769C106.375 142.149 107.238 141.847 108.147 142.485C108.387 142.653 108.598 143.014 108.633 143.318C108.714 144.027 109.057 143.954 109.257 143.179C109.546 142.063 111.259 141.165 113.071 141.165ZM56.5531 141.235C56.8333 141.226 57.1493 141.269 57.6627 141.373C59.3788 141.723 60.3004 142.254 60.4712 142.936C60.7607 144.091 61.4074 144.247 61.4074 143.179C61.4074 142.372 61.7841 142.149 62.7944 142.311C63.7052 142.457 64.7409 143.163 64.9441 143.804C65.013 144.022 65.1502 144.186 65.2562 144.186C65.3623 144.186 65.9803 144.534 66.6431 144.95C67.9481 145.77 68.2196 146.252 67.9261 147.277C67.8655 147.488 67.9272 147.769 67.7527 147.902C66.8974 148.552 65.6019 147.928 64.528 147.937C62.6751 147.951 60.8318 148.063 60.1938 148.214C55.9475 149.221 54.9047 149.567 53.7792 150.402C52.5969 151.279 53.0494 151.561 54.334 150.749C54.7663 150.476 55.3352 150.195 55.6169 150.124C56.0512 150.015 56.1614 150.085 56.2757 150.541C56.3498 150.837 56.3609 151.785 56.3105 152.659C56.2346 153.973 56.149 154.363 55.721 154.916C54.7495 156.173 54.3564 156.472 53.2592 156.792C51.9328 157.178 51.4327 157.194 50.5893 156.826C49.8039 156.484 49.4197 155.399 49.6878 154.222C49.8497 153.511 49.84 153.456 49.3064 153.18C48.4859 152.755 48.0928 152.098 48.0928 151.131C48.0928 150.419 48.2187 150.202 48.8209 149.673C49.213 149.328 49.7125 149.027 49.9305 149.013C50.9379 148.949 50.8599 149.08 50.5893 147.207C50.4751 146.417 50.5285 146.222 50.936 145.749C51.4707 145.128 52.5012 144.819 54.0913 144.811C55.2572 144.806 55.3718 144.631 54.7501 143.839C53.9774 142.855 54.3022 142.043 55.721 141.443C56.0333 141.311 56.2729 141.244 56.5531 141.235ZM103.917 149.673C104.125 149.675 104.554 149.931 105.443 150.541C106.172 151.041 106.847 151.478 106.934 151.478C107.021 151.478 107.424 151.808 107.835 152.242C108.366 152.803 108.598 153.223 108.598 153.666C108.598 154.289 108.337 154.437 107.835 154.118C107.168 153.693 103.744 150.21 103.744 149.951C103.744 149.777 103.793 149.671 103.917 149.673ZM64.424 149.881C64.676 149.828 64.8408 149.881 64.8401 150.089C64.8396 150.228 63.9517 151.197 62.8984 152.242C61.8451 153.287 60.9913 154.232 60.9913 154.326C60.9913 154.63 60.249 154.512 60.1245 154.187C59.8669 153.515 60.9491 152.287 63.4532 150.402C63.838 150.112 64.1721 149.934 64.424 149.881Z" fill="black"/>
<path d="M135.174 71.8047C135.798 72.0374 136.559 72.123 137.288 72.1977C136.7 72.1675 135.756 72.1445 135.525 72.2563C135.029 72.3219 134.701 73.3416 134.273 73.9764C134.676 73.3195 134.76 73.0258 135.174 71.8047Z" fill="black" stroke="black" stroke-width="0.157954" stroke-linecap="round" stroke-linejoin="round"/>
<path fill-rule="evenodd" clip-rule="evenodd" d="M79.0223 157.044C78.5092 156.787 78.2527 156.53 77.9961 156.53C78.2527 154.475 79.8774 147.624 81.2455 146.254C80.2194 145.997 78.2527 145.74 77.2266 146.254C77.2266 145.226 77.4831 144.456 77.7396 143.771C79.5353 143.514 81.502 143.514 83.5543 143.514C81.6731 147.881 79.5353 151.992 79.5353 156.873C79.2788 156.873 79.0223 156.873 79.0223 157.13V157.044Z" fill="black"/>
<path fill-rule="evenodd" clip-rule="evenodd" d="M84.7526 145.996C85.0092 145.996 85.2657 145.996 85.7787 146.253C85.7787 146.51 85.7787 146.767 85.7787 147.024C91.5934 148.223 91.5079 153.018 86.0353 156.101C85.7787 156.101 85.5222 156.101 85.2657 156.101C85.2657 155.844 85.2657 155.587 85.2657 155.331C88.4295 152.162 89.5412 150.792 84.4961 148.308C84.4961 147.538 84.4961 146.767 84.7526 146.082V145.996Z" fill="black"/>
<path fill-rule="evenodd" clip-rule="evenodd" d="M93.0469 156.016C92.7904 155.759 92.7904 155.503 92.7904 155.246C95.7832 152.248 96.9804 151.306 95.2702 149.508C94.6716 148.909 93.389 148.823 92.2773 147.71C92.5339 146.168 92.7904 144.969 93.3035 143.685C94.8426 143.428 96.2963 143.428 97.8355 143.428C97.579 144.198 97.3224 144.969 97.0659 145.654C95.7832 145.397 94.8426 145.14 93.8165 145.14C93.56 145.654 93.56 146.168 93.56 146.682C99.7167 148.223 98.6051 154.132 93.0469 156.016Z" fill="black"/>
<path fill-rule="evenodd" clip-rule="evenodd" d="M71.4128 155.073C72.7809 155.073 72.1824 145.91 72.1824 145.482C71.6693 145.225 71.4128 144.968 71.1562 144.711C71.9258 144.197 72.952 143.941 73.8926 143.684C74.9187 144.711 74.4056 152.761 74.4056 154.474C74.6622 154.474 74.9187 154.474 75.1752 154.731C75.1752 154.988 75.1752 155.245 75.1752 155.501C74.4911 155.501 71.4128 155.844 71.4128 154.988V155.073Z" fill="black"/>
<path fill-rule="evenodd" clip-rule="evenodd" d="M84.7539 145.997C85.0104 145.226 85.267 144.456 85.78 143.771C87.0627 143.514 88.5163 143.514 90.0555 143.514C89.799 144.027 89.799 144.541 89.799 145.055C89.0294 145.826 85.78 144.798 85.78 146.34C85.267 146.083 85.0104 146.083 84.7539 146.083V145.997Z" fill="black"/>
<path fill-rule="evenodd" clip-rule="evenodd" d="M84.7963 5.7115L84.108 5.40985L83.4397 5.74542L83.5481 5.06735L82.9844 4.60316L83.7396 4.48574L84.0596 3.86328L84.4179 4.46878L85.1793 4.54827L84.6456 5.03991L84.7963 5.7115Z" fill="black"/>
<path d="M84.8998 3.82422C85.4453 4.28611 85.5165 5.10678 85.0587 5.65724C84.6009 6.2077 83.7875 6.2795 83.2419 5.81761C82.6963 5.35572 82.6252 4.53505 83.083 3.98459C83.1312 3.92657 83.1844 3.87291 83.2419 3.82422" stroke="black" stroke-width="0.317726" stroke-miterlimit="4.7" stroke-linecap="round"/>
</svg>
