<svg width="3977" height="987" viewBox="0 0 3977 987" fill="none" xmlns="http://www.w3.org/2000/svg">
<path d="M38.1055 244.282L365.32 16.6271C365.32 16.6271 420.392 -18.5339 485.159 16.6271C549.925 51.7881 821.906 251.415 821.906 251.415C821.906 251.415 851.813 287.934 851.813 322.27C851.813 356.606 852.186 658.548 852.186 658.548C852.186 658.548 856.926 712.953 811.867 747.529C766.807 782.104 484.812 973.161 484.812 973.161C484.812 973.161 426.517 1003.05 374.667 973.161C322.817 943.27 45.2426 751.628 45.2426 751.628C45.2426 751.628 2.07392 731.239 1.03531 674.492V308.855C1.03531 308.855 -1.57452 271.884 38.0789 244.282H38.1055Z" fill="white" stroke="#201600" stroke-miterlimit="10"/>
<path d="M570.059 177.18C570.059 177.18 479.993 244.202 455.173 259.506C430.353 274.785 403.136 259.506 403.136 259.506L282.498 177.18C338.956 138.24 389.288 103.398 397.197 97.5954C416.398 83.4884 450.246 94.8805 450.246 94.8805C450.246 94.8805 506.198 133.236 570.059 177.18Z" fill="#F5D6BA"/>
<path d="M720.016 280.879L645.077 229.322C645.077 229.322 507.901 327.273 470.351 349.285C432.802 371.297 391.657 349.285 391.657 349.285L206.865 229.322C231.046 212.66 257.171 194.667 282.098 177.472L282.497 177.18L403.135 259.506C403.135 259.506 430.352 274.784 455.172 259.506C479.992 244.201 570.058 177.18 570.058 177.18H570.111C624.118 214.39 683.798 255.567 720.016 280.879Z" fill="#E8A98D"/>
<path d="M767.605 335.286C767.605 335.286 767.712 632.757 767.605 654.051C767.472 675.318 749.23 687.296 749.23 687.296C749.23 687.296 489.792 865.549 458.953 888.706C428.088 911.863 391.417 888.706 391.417 888.706C391.417 888.706 138.051 717.506 110.008 697.756C81.9661 678.006 85.6145 644.496 85.6145 644.496V335.286C85.6145 314.206 108.73 296.878 108.73 296.878C108.73 296.878 152.618 266.694 206.199 229.777L206.865 229.324L391.657 349.287C391.657 349.287 432.802 371.299 470.351 349.287C507.901 327.275 645.077 229.324 645.077 229.324L720.016 280.881C737.805 293.311 749.949 301.909 752.985 304.357C769.47 317.613 767.605 335.286 767.605 335.286Z" fill="#2A373E"/>
<path d="M426.597 200.656C456.439 200.656 480.631 176.477 480.631 146.65C480.631 116.824 456.439 92.6445 426.597 92.6445C396.754 92.6445 372.562 116.824 372.562 146.65C372.562 176.477 396.754 200.656 426.597 200.656Z" fill="#FFFFFD"/>
<path d="M720.016 280.881C720.016 280.881 534.425 417.879 483.267 449.154C432.136 480.402 376.104 449.154 376.104 449.154L131.846 281.6L206.199 229.777L206.865 229.324L391.657 349.287C391.657 349.287 432.802 371.299 470.351 349.287C507.901 327.275 645.077 229.324 645.077 229.324L720.016 280.881Z" fill="#D96C6F"/>
<path d="M372.669 668.956L85.4551 475.104V372.283C85.4551 372.283 354.188 544.229 358.369 547.742C362.603 551.282 372.084 556.18 372.456 575.344C372.829 594.508 372.669 668.956 372.669 668.956Z" fill="#ACD6D6"/>
<path d="M372.697 668.955V776.222L85.4823 581.918L84.3105 474.412L372.697 668.955Z" fill="#4EB1AC"/>
<path d="M372.137 668.955V776.222L86.0409 581.918L84.8691 474.412L372.137 668.955Z" fill="#4EB1AC"/>
<path d="M767.633 367.705V471.91L507.315 647.636L480.498 662.515L480.924 579.975C480.924 579.975 477.595 563.766 502.975 546.784C528.354 529.802 767.633 367.705 767.633 367.705Z" fill="#96CCCD"/>
<path d="M767.66 578.485L479.887 773.667L480.499 662.515L767.634 470.926L767.66 578.485Z" fill="#4FADA4"/>
<path d="M752.666 684.58C734.956 701.055 476.396 876.168 476.396 876.168C478.154 873.107 479.246 869.807 479.406 866.187L479.885 773.667L767.659 578.484L767.605 654.05C767.605 654.05 770.375 668.104 752.666 684.58Z" fill="#4A768D"/>
<path d="M380.605 881.386C380.605 881.386 144.123 722.084 115.015 702.174C85.9078 682.291 85.4551 658.416 85.4551 658.416V581.307L372.696 776.223V856.739C372.696 856.739 372.723 856.739 372.723 856.819C372.723 857.032 372.723 857.724 372.829 858.815V858.922C372.882 859.933 373.042 862.541 373.681 864.271C374.534 868.131 376.158 873.082 379.247 878.166C380.046 880.109 380.579 881.386 380.579 881.386H380.605Z" fill="#4A7591"/>
<path d="M372.696 776.221C372.696 776.221 426.198 810.078 479.886 773.666L479.273 867.757C479.273 867.757 478.954 877.419 469.846 884.047C460.738 890.674 447.183 899.591 426.278 900.176C407.796 900.709 396.558 895.279 379.594 882.37C379.594 882.37 370.166 874.331 371.125 849.524C372.35 818.808 372.67 776.195 372.67 776.195L372.696 776.221Z" fill="#4BB2BC"/>
<path d="M372.67 668.955C372.67 668.955 426.518 705.021 480.498 662.514L479.886 772.335C479.886 772.335 479.566 783.594 470.405 791.34C461.271 799.085 447.609 809.493 426.597 810.185C408.009 810.797 396.691 804.489 379.647 789.423C379.647 789.423 370.167 780.028 371.152 751.095C372.377 715.215 372.67 668.955 372.67 668.955Z" fill="#B9DCDE"/>
<path d="M380.952 244.361C380.952 244.361 425.372 285.857 483.002 240.289L486.011 331.266C486.011 331.266 486.49 339.331 477.356 345C468.221 350.67 455.119 359.027 432.749 359.001C414.161 359.001 394.001 352.905 384.893 344.84C384.893 344.84 376.318 336.882 377.303 315.668C378.528 289.371 380.978 244.308 380.978 244.308L380.952 244.361Z" fill="#E9AD94"/>
<path d="M1490.8 271.926C1481.66 237.765 1446.53 217.497 1412.35 226.632C1399.31 230.058 1388.36 237.289 1380.27 246.71L1376.17 252.134L1259.07 406.571L1143.97 258.699C1131.78 235.672 1105.98 220.923 1077.23 225.205C1049.43 229.296 1027.06 252.229 1023.53 280.109C1021.44 296.666 1025.63 312.272 1034.2 324.737C1034.96 325.974 1035.81 327.021 1036.77 328.163L1037.81 329.59L1179.1 514.477C1186.62 524.278 1190.71 536.267 1191 548.542L1193.95 724.009C1193.95 724.009 1193.95 724.199 1193.95 724.294C1197.85 755.886 1224.89 780.245 1257.55 780.245C1290.2 780.245 1316 756.837 1320.76 726.197C1320.95 725.626 1321.05 725.055 1321.05 724.484L1326.86 547.115C1327.24 535.792 1331.05 524.849 1337.8 515.809L1472.52 335.49C1489.28 319.884 1496.99 295.715 1490.7 272.021L1490.8 271.926ZM1254.5 471.276H1260.88L1257.74 473.75L1254.5 471.276Z" fill="white"/>
<path d="M1193.47 716.107C1193.47 713.443 1193.67 710.874 1194.05 708.305V723.91C1193.67 721.341 1193.47 718.772 1193.47 716.107Z" fill="#FEFEFC"/>
<path d="M1321.71 716.11C1321.71 718.87 1321.52 721.725 1321.14 724.389V707.832C1321.52 710.496 1321.71 713.351 1321.71 716.11Z" fill="#FEFEFC"/>
<path d="M1034.29 324.646C1035.05 325.884 1035.91 326.93 1036.86 328.072L1034.19 324.646H1034.29Z" fill="#FEFEFC"/>
<path d="M1260.88 471.275L1257.74 473.749L1254.5 471.275H1260.88Z" fill="#FEFEFC"/>
<path d="M1260.88 471.275L1257.74 473.749L1254.5 471.275H1260.88Z" fill="#FEFEFC"/>
<path d="M1194.05 723.912C1194.05 724.673 1194.14 725.34 1194.33 726.101H1194.05V723.912Z" fill="#FEFEFC"/>
<path d="M1254.5 471.275H1260.88L1257.74 473.749L1254.5 471.275Z" fill="#FEFEFC"/>
<path d="M1321.14 724.387V726.1H1320.86C1321.05 725.529 1321.14 724.958 1321.14 724.387Z" fill="#FEFEFC"/>
<path d="M1625.8 400.865C1520.79 400.865 1435.67 486.029 1435.67 590.986C1435.67 695.942 1520.79 781.106 1625.8 781.106C1730.81 781.106 1816.02 695.942 1816.02 590.986C1816.02 486.029 1730.9 400.865 1625.8 400.865ZM1625.8 669.964C1582.19 669.964 1546.87 634.567 1546.87 590.986C1546.87 547.404 1582.19 512.007 1625.8 512.007C1669.4 512.007 1704.82 547.404 1704.82 590.986C1704.82 634.567 1669.5 669.964 1625.8 669.964Z" fill="white"/>
<path d="M2228.73 709.168C2228.73 710.31 2228.64 711.356 2228.35 712.403C2228.35 712.688 2228.35 712.974 2228.45 713.259C2231.59 742.567 2213.03 771.019 2184.65 779.202C2148.57 789.669 2115.25 768.544 2105.92 737.143C2080.02 761.788 2042.7 777.299 2001 777.299C1941.41 777.299 1890.19 747.04 1869.43 702.317C1864.19 691.088 1860.96 686.14 1859.81 673.579C1859.72 672.533 1858.58 665.016 1858.48 663.969C1857.34 665.016 1857.82 642.939 1857.72 648.554C1857.63 655.785 1858.01 635.993 1858.01 633.614L1856.96 510.008C1856.96 508.295 1856.67 490.12 1856.96 479.368C1856.67 470.708 1856.77 471.565 1857.34 461.764C1859.05 432.171 1880.28 406.384 1909.51 401.435C1948.55 394.775 1979.3 412.283 1980.06 450.25C1980.25 458.529 1980.63 472.707 1980.53 479.463C1981.11 512.577 1980.53 509.532 1980.53 510.959V620.102C1980.53 627.239 1981.39 634.376 1983.96 641.037C1993.77 666.538 2016.14 678.147 2042.61 678.147C2077.74 678.147 2106.21 650.076 2106.21 615.44L2103.92 491.167C2104.4 479.653 2102.21 461.764 2104.59 450.536C2109.82 425.415 2130.86 405.622 2156.19 401.816C2190.84 396.583 2219.79 421.418 2227.5 451.487C2228.26 455.484 2228.64 459.575 2228.64 463.762V709.263L2228.73 709.168Z" fill="white"/>
<path d="M2760.74 642.556C2784.92 668.344 2785.3 709.07 2760.46 732.954C2760.26 733.144 2760.17 733.239 2759.98 733.43C2759.22 734.096 2758.55 734.762 2757.79 735.238C2756.08 736.665 2754.36 737.997 2752.65 739.329C2703.33 778.153 2641.16 801.37 2573.57 801.37C2413.62 801.37 2284.05 671.769 2284.05 512.003C2284.05 352.238 2413.62 222.541 2573.57 222.541C2641.16 222.541 2703.33 245.664 2752.65 284.582C2752.84 284.677 2753.03 284.868 2753.22 284.963C2756.46 287.437 2759.5 290.101 2762.55 292.766C2762.55 292.861 2762.64 292.861 2762.64 292.861C2784.07 315.222 2786.64 352.523 2769.12 378.215C2749.32 407.333 2708.09 415.896 2678.2 395.533C2678.2 395.533 2678.1 395.533 2678.1 395.438C2675.63 393.25 2672.96 391.156 2670.3 389.158C2670.11 389.063 2670.01 388.872 2669.82 388.777C2643.64 369.175 2611.27 357.662 2576.14 357.662C2489.6 357.662 2419.43 427.791 2419.43 514.287C2419.43 600.783 2489.6 670.818 2576.14 670.818C2611.17 670.818 2643.54 659.304 2669.63 639.797C2669.63 639.702 2669.82 639.702 2669.82 639.702C2673.06 637.323 2676.2 634.753 2679.15 632.184C2704.28 615.532 2738.94 619.243 2760.74 642.556Z" fill="white"/>
<path d="M3000.37 400.865C2895.36 400.865 2810.25 486.029 2810.25 590.986C2810.25 695.942 2895.36 781.106 3000.37 781.106C3105.38 781.106 3190.59 695.942 3190.59 590.986C3190.59 486.029 3105.48 400.865 3000.37 400.865ZM3000.37 669.964C2956.77 669.964 2921.45 634.567 2921.45 590.986C2921.45 547.404 2956.77 512.007 3000.37 512.007C3043.98 512.007 3079.39 547.404 3079.39 590.986C3079.39 634.567 3044.07 669.964 3000.37 669.964Z" fill="white"/>
<path d="M3594.73 257.368C3595.21 254.514 3595.4 251.659 3595.4 248.709C3595.4 215.119 3568.17 188 3534.66 188C3501.15 188 3475.16 213.787 3473.92 246.235C3473.82 246.996 3473.82 247.853 3473.82 248.709V412.091C3450.88 402.29 3425.65 396.866 3399.09 396.866C3294.08 396.866 3208.96 482.03 3208.96 586.986C3208.96 691.942 3294.08 777.106 3399.09 777.106C3424.6 777.106 3448.88 772.063 3471.06 763.023C3484.3 776.535 3502.67 785.004 3523.04 785.004C3563.03 785.004 3595.4 752.651 3595.4 712.781C3595.4 709.641 3595.21 706.501 3594.73 703.456V257.368ZM3473.82 612.678C3463.16 643.699 3433.74 665.965 3399.09 665.965C3355.48 665.965 3320.16 630.567 3320.16 586.986C3320.16 543.405 3355.48 508.007 3399.09 508.007C3433.74 508.007 3463.16 530.274 3473.82 561.294C3476.58 569.382 3478.11 577.946 3478.11 586.986C3478.11 596.026 3476.58 604.59 3473.82 612.678Z" fill="white"/>
<path d="M3473.92 246.234C3473.83 246.996 3473.83 247.852 3473.83 248.709V246.234H3473.92Z" fill="white"/>
<path d="M3763.92 621.816L3906.54 615.631C3946.14 614.965 3967.99 604.745 3973.35 574.358C3976.23 558.005 3981.35 517.368 3969.77 490.346C3953.69 452.808 3930.45 400.58 3816.28 400.58C3718.6 402.864 3635.58 480.225 3630.25 580.233C3624.35 690.233 3709.65 781.392 3815.61 781.392C3850.17 781.392 3882.54 771.686 3910.25 754.843H3910.34C3911.68 753.987 3912.91 753.225 3914.25 752.369C3914.34 752.369 3914.44 752.369 3914.53 752.179C3917.1 750.561 3919.67 748.753 3922.15 747.04C3922.34 746.945 3922.43 746.755 3922.62 746.66C3942.52 729.912 3949.95 703.079 3939 681.764C3926.53 657.499 3894.63 649.316 3867.22 663.113C3866.55 663.399 3865.88 663.684 3865.22 664.065C3865.22 664.16 3865.03 664.16 3864.93 664.256C3852.65 670.726 3836.18 674.627 3818.18 674.627C3780.2 674.627 3749.26 657.119 3749.26 635.518V635.328C3749.35 627.716 3756.3 621.816 3763.92 621.816ZM3748.3 545.026C3748.3 519.81 3778.1 499.351 3814.85 499.351C3827.71 499.351 3839.61 501.825 3849.79 506.202C3868.83 514.195 3881.5 528.564 3881.5 545.026C3881.5 547.881 3881.12 550.735 3880.35 553.399H3749.45C3748.68 550.735 3748.3 547.881 3748.3 545.026Z" fill="white"/>
</svg>
