<svg width="1101" height="234" viewBox="0 0 1101 234" fill="none" xmlns="http://www.w3.org/2000/svg">
<path d="M274.329 121.135L225.214 43.0803H258.026L287.169 91.3805H288.799L316.923 43.0803H350.142L301.842 121.135V189H274.329V121.135ZM395.384 192.261C384.651 192.261 375.072 189.883 366.648 185.128C358.225 180.237 351.635 173.647 346.88 165.359C342.261 156.936 339.951 147.493 339.951 137.031C339.951 126.706 342.261 117.331 346.88 108.907C351.635 100.484 358.225 93.8941 366.648 89.1388C375.072 84.2476 384.651 81.802 395.384 81.802C405.982 81.802 415.492 84.2476 423.916 89.1388C432.34 93.8941 438.861 100.484 443.48 108.907C448.236 117.331 450.613 126.706 450.613 137.031C450.613 147.493 448.236 156.936 443.48 165.359C438.861 173.647 432.34 180.237 423.916 185.128C415.492 189.883 405.982 192.261 395.384 192.261ZM395.384 167.601C400.547 167.601 405.302 166.378 409.65 163.933C413.998 161.487 417.462 157.955 420.044 153.335C422.625 148.716 423.916 143.281 423.916 137.031C423.916 130.917 422.625 125.551 420.044 120.931C417.462 116.312 413.998 112.779 409.65 110.334C405.302 107.888 400.547 106.665 395.384 106.665C390.221 106.665 385.466 107.888 381.118 110.334C376.77 112.779 373.238 116.312 370.521 120.931C367.939 125.551 366.648 130.917 366.648 137.031C366.648 143.145 367.939 148.58 370.521 153.335C373.238 157.955 376.77 161.487 381.118 163.933C385.466 166.378 390.221 167.601 395.384 167.601ZM507.545 192.261C495.045 192.261 485.535 188.389 479.013 180.644C472.492 172.9 469.231 162.099 469.231 148.24V85.0628H495.928V144.98C495.928 152.045 497.627 157.615 501.023 161.691C504.42 165.631 508.904 167.601 514.474 167.601C522.082 167.601 528.128 164.816 532.612 159.245C537.096 153.675 539.337 146.61 539.337 138.05V85.0628H566.035V189H540.968V175.957H539.337C536.212 180.984 531.797 184.992 526.091 187.981C520.52 190.834 514.338 192.261 507.545 192.261ZM664.802 192.261C650.672 192.261 637.765 188.932 626.081 182.275C614.396 175.481 605.157 166.31 598.364 154.762C591.707 143.077 588.378 130.17 588.378 116.04C588.378 101.91 591.707 89.0708 598.364 77.5222C605.157 65.8378 614.396 56.6669 626.081 50.0095C637.765 43.2162 650.672 39.8195 664.802 39.8195C686.813 39.8195 705.019 47.7677 719.42 63.664L700.06 82.4134C690.685 71.4083 679 65.9057 665.006 65.9057C655.903 65.9057 647.615 68.0117 640.143 72.2235C632.67 76.2995 626.76 82.1417 622.412 89.7502C618.2 97.3586 616.095 106.122 616.095 116.04C616.095 125.958 618.2 134.722 622.412 142.33C626.76 149.939 632.67 155.849 640.143 160.061C647.615 164.137 655.903 166.175 665.006 166.175C680.359 166.175 693.198 159.789 703.524 147.018L723.089 165.563C715.888 174.259 707.328 180.916 697.41 185.535C687.628 190.019 676.759 192.261 664.802 192.261ZM790.642 192.261C779.908 192.261 770.33 189.883 761.906 185.128C753.482 180.237 746.893 173.647 742.138 165.359C737.518 156.936 735.208 147.493 735.208 137.031C735.208 126.706 737.518 117.331 742.138 108.907C746.893 100.484 753.482 93.8941 761.906 89.1388C770.33 84.2476 779.908 81.802 790.642 81.802C801.239 81.802 810.75 84.2476 819.173 89.1388C827.597 93.8941 834.119 100.484 838.738 108.907C843.493 117.331 845.871 126.706 845.871 137.031C845.871 147.493 843.493 156.936 838.738 165.359C834.119 173.647 827.597 180.237 819.173 185.128C810.75 189.883 801.239 192.261 790.642 192.261ZM790.642 167.601C795.804 167.601 800.56 166.378 804.907 163.933C809.255 161.487 812.72 157.955 815.301 153.335C817.883 148.716 819.173 143.281 819.173 137.031C819.173 130.917 817.883 125.551 815.301 120.931C812.72 116.312 809.255 112.779 804.907 110.334C800.56 107.888 795.804 106.665 790.642 106.665C785.479 106.665 780.723 107.888 776.376 110.334C772.028 112.779 768.495 116.312 765.778 120.931C763.197 125.551 761.906 130.917 761.906 137.031C761.906 143.145 763.197 148.58 765.778 153.335C768.495 157.955 772.028 161.487 776.376 163.933C780.723 166.378 785.479 167.601 790.642 167.601ZM910.93 192.261C901.556 192.261 892.996 189.951 885.252 185.332C877.643 180.576 871.597 174.055 867.114 165.767C862.766 157.343 860.592 147.765 860.592 137.031C860.592 126.434 862.766 116.923 867.114 108.5C871.597 100.076 877.643 93.5544 885.252 88.935C892.996 84.1797 901.556 81.802 910.93 81.802C917.995 81.802 924.245 83.3645 929.68 86.4894C935.115 89.4784 939.258 93.2147 942.112 97.6983H943.742L942.112 83.0248V43.0803H968.605V189H943.742V176.568H942.112C939.394 181.052 935.25 184.788 929.68 187.777C924.245 190.766 917.995 192.261 910.93 192.261ZM915.414 167.601C920.441 167.601 925.128 166.31 929.476 163.729C933.824 161.148 937.288 157.547 939.87 152.928C942.451 148.308 943.742 143.009 943.742 137.031C943.742 131.053 942.451 125.755 939.87 121.135C937.288 116.516 933.824 112.983 929.476 110.538C925.128 107.956 920.441 106.665 915.414 106.665C910.523 106.665 905.903 107.956 901.556 110.538C897.208 112.983 893.743 116.516 891.162 121.135C888.581 125.755 887.29 131.053 887.29 137.031C887.29 143.009 888.581 148.308 891.162 152.928C893.743 157.547 897.208 161.148 901.556 163.729C905.903 166.31 910.523 167.601 915.414 167.601ZM1042.58 192.261C1032.25 192.261 1022.95 189.883 1014.66 185.128C1006.37 180.373 999.85 173.851 995.094 165.563C990.475 157.14 988.165 147.697 988.165 137.235C988.165 127.317 990.475 118.146 995.094 109.722C999.714 101.163 1006.1 94.3696 1014.25 89.3426C1022.4 84.3155 1031.51 81.802 1041.56 81.802C1052.29 81.802 1061.53 84.1117 1069.28 88.7312C1077.02 93.3506 1082.86 99.6683 1086.8 107.684C1090.88 115.7 1092.92 124.6 1092.92 134.382C1092.92 137.507 1092.71 140.496 1092.31 143.349H1014.25C1015.61 151.637 1018.87 157.955 1024.03 162.302C1029.33 166.514 1035.65 168.62 1042.99 168.62C1049.1 168.62 1054.33 167.329 1058.68 164.748C1063.16 162.031 1066.7 158.43 1069.28 153.947L1090.88 164.544C1080.28 183.022 1064.18 192.261 1042.58 192.261ZM1067.24 124.396C1066.97 121.135 1065.74 117.942 1063.57 114.817C1061.53 111.557 1058.61 108.907 1054.81 106.869C1051.14 104.695 1046.79 103.608 1041.76 103.608C1035.38 103.608 1029.88 105.511 1025.26 109.315C1020.77 112.983 1017.51 118.01 1015.47 124.396H1067.24Z" fill="white"/>
<path d="M9.74245 58.3307L86.8375 4.68444C86.8375 4.68444 99.8132 -3.60115 115.073 4.68444C130.332 12.97 194.414 60.0116 194.414 60.0116C194.414 60.0116 201.46 68.6171 201.46 76.7082C201.46 84.7994 201.548 155.951 201.548 155.951C201.548 155.951 202.665 168.772 192.049 176.919C181.432 185.067 114.991 230.089 114.991 230.089C114.991 230.089 101.256 237.133 89.0398 230.089C76.8233 223.045 11.424 177.885 11.424 177.885C11.424 177.885 1.25303 173.081 1.00832 159.708V73.547C1.00832 73.547 0.393417 64.8349 9.73618 58.3307H9.74245Z" fill="white" stroke="white" stroke-width="0.673094" stroke-miterlimit="10"/>
<path d="M9.74245 58.3307L86.8375 4.68444C86.8375 4.68444 99.8132 -3.60115 115.073 4.68444C130.332 12.97 194.414 60.0116 194.414 60.0116C194.414 60.0116 201.46 68.6171 201.46 76.7082C201.46 84.7994 201.548 155.951 201.548 155.951C201.548 155.951 202.665 168.772 192.049 176.919C181.432 185.067 114.991 230.089 114.991 230.089C114.991 230.089 101.256 237.133 89.0398 230.089C76.8233 223.045 11.424 177.885 11.424 177.885C11.424 177.885 1.25303 173.081 1.00832 159.708V73.547C1.00832 73.547 0.393417 64.8349 9.73618 58.3307H9.74245Z" fill="white" stroke="white" stroke-width="0.673094" stroke-miterlimit="10"/>
<path d="M135.076 42.5192C135.076 42.5192 113.856 58.3126 108.008 61.9191C102.16 65.5194 95.7478 61.9191 95.7478 61.9191L67.3242 42.5192C80.6262 33.343 92.485 25.1326 94.3486 23.7653C98.8725 20.441 106.847 23.1255 106.847 23.1255C106.847 23.1255 120.03 32.1638 135.076 42.5192Z" fill="#F5D6BA"/>
<path d="M170.408 66.9541L152.751 54.8048C152.751 54.8048 120.431 77.8866 111.584 83.0737C102.737 88.2608 93.0428 83.0737 93.0428 83.0737L49.5039 54.8048C55.2012 50.8784 61.3565 46.6384 67.2294 42.5866L67.3235 42.5176L95.7471 61.9175C95.7471 61.9175 102.16 65.5178 108.008 61.9175C113.855 58.311 135.076 42.5176 135.076 42.5176H135.088C147.813 51.2861 161.874 60.9892 170.408 66.9541Z" fill="#E8A98D"/>
<path d="M181.619 79.7744C181.619 79.7744 181.644 149.873 181.619 154.89C181.588 159.902 177.29 162.724 177.29 162.724C177.29 162.724 116.163 204.729 108.898 210.186C101.625 215.643 92.9854 210.186 92.9854 210.186C92.9854 210.186 33.2896 169.843 26.6825 165.189C20.0755 160.535 20.9351 152.639 20.9351 152.639V79.7744C20.9351 74.8068 26.3814 70.7236 26.3814 70.7236C26.3814 70.7236 36.7218 63.6109 49.3461 54.9113L49.503 54.8047L93.0419 83.0735C93.0419 83.0735 102.736 88.2607 111.583 83.0735C120.43 77.8864 152.75 54.8047 152.75 54.8047L170.407 66.954C174.598 69.8831 177.459 71.909 178.175 72.4861C182.058 75.6096 181.619 79.7744 181.619 79.7744Z" fill="#FEFEFC"/>
<path d="M101.278 48.0522C108.309 48.0522 114.009 42.3545 114.009 35.3259C114.009 28.2974 108.309 22.5996 101.278 22.5996C94.2467 22.5996 88.5469 28.2974 88.5469 35.3259C88.5469 42.3545 94.2467 48.0522 101.278 48.0522Z" fill="#FFFFFD"/>
<path d="M170.407 66.954C170.407 66.954 126.68 99.237 114.627 106.607C102.58 113.97 89.378 106.607 89.378 106.607L31.8281 67.1233L49.3466 54.9113L49.5034 54.8047L93.0423 83.0735C93.0423 83.0735 102.736 88.2607 111.584 83.0735C120.431 77.8864 152.751 54.8047 152.751 54.8047L170.407 66.954Z" fill="#D96C6F"/>
<path d="M88.5691 158.404L20.8984 112.724V88.4941C20.8984 88.4941 84.2146 129.013 85.1997 129.841C86.1974 130.675 88.4311 131.829 88.5189 136.345C88.6068 140.861 88.5691 158.404 88.5691 158.404Z" fill="#ACD6D6"/>
<path d="M88.5796 158.404V183.681L20.9089 137.894L20.6328 112.561L88.5796 158.404Z" fill="#4EB1AC"/>
<path d="M88.445 158.404V183.681L21.0378 137.894L20.7617 112.561L88.445 158.404Z" fill="#4EB1AC"/>
<path d="M181.628 87.4141V111.97L120.295 153.379L113.977 156.885L114.077 137.435C114.077 137.435 113.293 133.615 119.272 129.613C125.252 125.612 181.628 87.4141 181.628 87.4141Z" fill="#96CCCD"/>
<path d="M181.634 137.084L113.832 183.078L113.976 156.886L181.628 111.738L181.634 137.084Z" fill="#4FADA4"/>
<path d="M178.104 162.085C173.931 165.968 113.012 207.232 113.012 207.232C113.426 206.511 113.683 205.733 113.721 204.88L113.834 183.078L181.636 137.084L181.624 154.891C181.624 154.891 182.276 158.203 178.104 162.085Z" fill="#4A768D"/>
<path d="M90.4389 208.461C90.4389 208.461 34.7212 170.922 27.8632 166.23C21.0051 161.545 20.8984 155.919 20.8984 155.919V137.748L88.5754 183.679V202.653C88.5754 202.653 88.5817 202.653 88.5817 202.672C88.5817 202.722 88.5817 202.885 88.6068 203.142V203.167C88.6193 203.406 88.657 204.02 88.8076 204.428C89.0083 205.337 89.3911 206.504 90.1189 207.702C90.3072 208.16 90.4327 208.461 90.4327 208.461H90.4389Z" fill="#4A7591"/>
<path d="M88.5777 183.68C88.5777 183.68 101.183 191.659 113.833 183.078L113.688 205.25C113.688 205.25 113.613 207.527 111.467 209.089C109.321 210.651 106.128 212.752 101.202 212.89C96.8476 213.015 94.1997 211.736 90.2028 208.694C90.2028 208.694 87.9817 206.8 88.2075 200.954C88.4962 193.716 88.5715 183.674 88.5715 183.674L88.5777 183.68Z" fill="#4BB2BC"/>
<path d="M88.5699 158.405C88.5699 158.405 101.257 166.903 113.975 156.887L113.831 182.766C113.831 182.766 113.756 185.419 111.597 187.244C109.445 189.069 106.226 191.522 101.276 191.685C96.8962 191.829 94.2295 190.343 90.2138 186.793C90.2138 186.793 87.9801 184.579 88.2122 177.761C88.5009 169.306 88.5699 158.405 88.5699 158.405Z" fill="#B9DCDE"/>
<path d="M90.5188 58.3483C90.5188 58.3483 100.985 68.1267 114.563 57.3887L115.272 78.8271C115.272 78.8271 115.385 80.7276 113.233 82.0635C111.08 83.3995 107.993 85.369 102.723 85.3627C98.3431 85.3627 93.5933 83.9264 91.4474 82.0259C91.4474 82.0259 89.427 80.1505 89.6592 75.1516C89.9478 68.9546 90.5251 58.3358 90.5251 58.3358L90.5188 58.3483Z" fill="#E9AD94"/>
</svg>
