<svg width="159" height="159" viewBox="0 0 159 159" fill="none" xmlns="http://www.w3.org/2000/svg">
<circle cx="79.5" cy="79.5" r="79.5" fill="#162831"/>
<path d="M71.1619 94.7998C71.673 94.1297 72.4078 93.6717 73.2285 93.512L102.899 90.7368C107.077 89.9235 108.154 94.1478 104.134 95.5616L77.1136 108.213C76.3244 108.491 75.4621 108.467 74.689 108.145L69.0926 105.378C67.5675 103.69 67.2925 102.649 67.6801 100.034L71.1619 94.7998Z" fill="white"/>
<path fill-rule="evenodd" clip-rule="evenodd" d="M78.5 46.309C57.3739 46.309 40.25 63.6624 40.25 85.0663C40.25 95.7016 44.4748 105.333 51.3219 112.338L48.3031 115.371C40.6997 107.592 36 96.8833 36 85.0663C36 61.2804 55.0289 42 78.5 42C101.971 42 121 61.2804 121 85.0663C121 97.2054 116.041 108.174 108.07 116L105.113 112.904C112.292 105.857 116.75 95.9907 116.75 85.0663C116.75 63.6624 99.6261 46.309 78.5 46.309Z" fill="white"/>
<path fill-rule="evenodd" clip-rule="evenodd" d="M76.375 57.0815V46.3091L80.625 46.3091V57.0815H76.375Z" fill="white"/>
<path fill-rule="evenodd" clip-rule="evenodd" d="M105.502 113.245L97.752 105.387L100.757 102.34L108.508 110.197L105.502 113.245Z" fill="white"/>
<path fill-rule="evenodd" clip-rule="evenodd" d="M57.5085 64.6986L49.9951 57.0817L53.0003 54.0347L60.5137 61.6517L57.5085 64.6986Z" fill="white"/>
<path fill-rule="evenodd" clip-rule="evenodd" d="M107.58 80.7808H118.205V85.0897H107.58V80.7808Z" fill="white"/>
<path fill-rule="evenodd" clip-rule="evenodd" d="M38.2373 80.7808H48.8624V85.0897H38.2373V80.7808Z" fill="white"/>
<path fill-rule="evenodd" clip-rule="evenodd" d="M96.7451 61.3904L104.496 53.5332L107.501 56.5803L99.7501 64.4375L96.7451 61.3904Z" fill="white"/>
<path fill-rule="evenodd" clip-rule="evenodd" d="M57.6686 105.822L49.9183 113.68L46.9131 110.633L54.6632 102.775L57.6686 105.822Z" fill="white"/>
</svg>
