<svg width="184" height="87" viewBox="0 0 184 87" fill="none" xmlns="http://www.w3.org/2000/svg">
<path d="M7.28105 85.7782H12.5826V73.4434H19.8633V68.9547H0V73.4434H7.28066L7.28105 85.7782ZM35.945 68.9543L27.1088 78.7447V68.9543H21.984V85.7782H26.508L35.3441 75.9879V85.7782H40.469V68.9543H35.945ZM49.4761 79.5221H57.7109V85.778H62.8358V68.9541H57.7109V75.1039H49.4761V68.9541H44.3512V85.778H49.4761V79.5221ZM77.1079 85.778C78.2742 85.778 79.3345 85.6719 80.3241 85.3892C82.9749 84.647 84.7068 82.491 84.7068 79.5574C84.7068 76.7653 83.2224 74.8214 80.8544 73.9377C79.7233 73.5136 78.3803 73.4783 77.1079 73.4783H71.8417V68.9543H66.7168V85.7782L77.1079 85.778ZM71.8417 77.4367H76.2243C76.9312 77.4367 77.6027 77.4367 78.2036 77.6487C79.0518 77.9315 79.5467 78.6383 79.5467 79.4866C79.5467 80.3702 79.0519 81.1124 78.2389 81.4658C77.6734 81.7132 77.108 81.7132 76.2243 81.7132H71.8417V77.4367ZM92.4824 79.4159H93.8961L100.011 85.7778H106.832L98.3138 77.0127L106.514 68.9546H100.082L93.8964 75.2811H92.4826V68.9546H87.3578V85.7785H92.4826L92.4824 79.4159ZM117.377 68.4946C110.485 68.4946 106.35 72.3824 106.35 77.4011C106.35 82.4197 110.485 86.3075 117.377 86.3075C124.234 86.3075 128.369 82.4197 128.369 77.4011C128.369 72.3824 124.233 68.4946 117.377 68.4946ZM117.377 82.2082C113.949 82.2082 111.757 80.1582 111.757 77.4014C111.757 74.6445 113.949 72.6299 117.377 72.6299C120.77 72.6299 122.997 74.6445 122.997 77.4014C122.997 80.1582 120.77 82.2082 117.377 82.2082ZM145.437 69.6965V68H140.312V69.6965C133.879 69.8379 130.026 72.5594 130.026 77.3662C130.026 82.1731 133.879 84.6824 140.312 84.8237V86.5202H145.437V84.8237C151.904 84.6823 155.757 82.1729 155.757 77.3662C155.757 72.5596 151.905 69.8378 145.437 69.6965ZM140.312 81.2185C136.777 81.0771 135.222 79.628 135.222 77.366C135.222 75.104 136.777 73.4782 140.312 73.3369V81.2185ZM145.437 81.2185V73.3365C149.006 73.4779 150.526 75.1037 150.526 77.3657C150.526 79.6277 149.006 81.0771 145.437 81.2185ZM172.807 69.6965V68H167.682V69.6965C161.25 69.8379 157.397 72.5594 157.397 77.3662C157.397 82.1731 161.249 84.6824 167.682 84.8237V86.5202H172.807V84.8237C179.274 84.6823 183.127 82.1729 183.127 77.3662C183.127 72.5596 179.275 69.8378 172.807 69.6965ZM167.682 81.2185C164.147 81.0771 162.592 79.628 162.592 77.366C162.592 75.104 164.147 73.4782 167.682 73.3369V81.2185ZM172.807 81.2185V73.3365C176.376 73.4779 177.896 75.1037 177.896 77.3657C177.896 79.6277 176.376 81.0771 172.807 81.2185Z" fill="white"/>
<path d="M85.0203 43.9995C85.0203 43.9995 85.7978 43.6814 85.8685 43.4517L85.7625 43.1937C85.69 43.024 85.6989 42.8403 85.842 42.7413L86.6796 42.1599L88.081 42.4303C88.081 42.4303 87.8266 42.1122 87.8513 41.6881L86.5153 41.4053L85.2535 42.1741C85.0334 42.3373 84.8743 42.5696 84.8015 42.8338C84.7288 43.0981 84.7467 43.3791 84.8524 43.632L85.0203 44.0013L85.0203 43.9995ZM94.9285 47.6612C95.1776 47.6506 95.4569 47.647 95.759 47.647C95.759 47.647 96.4801 45.5352 96.5207 45.4681C95.9852 45.2183 95.4626 44.9416 94.9549 44.6392C95.1688 44.9608 95.6883 45.3267 95.5859 45.6094L94.9285 47.6612ZM95.3579 23.0244C94.287 24.0882 93.2602 24.4823 92.343 24.5742C92.1752 24.5924 92.0065 24.6018 91.8376 24.6025H91.8146C91.4773 24.6024 91.1408 24.5669 90.8108 24.4964C90.7508 24.735 90.6748 25.2352 90.8921 25.7087C91.0865 26.1381 91.4806 26.458 92.0567 26.6718L92.2511 26.7478L92.2529 26.9564C92.2529 27.0182 92.2989 28.3719 93.7727 28.7483C94.0131 28.5009 94.2322 28.2765 94.3913 28.0874C94.0908 27.3788 94.2499 26.6542 94.6864 26.299C94.6687 26.375 94.4743 28.151 95.8969 28.8119L96.1319 28.9232L96.0612 29.1724C96.0382 29.2484 95.5646 30.9678 97.2876 31.6076L97.5916 31.7242L97.4555 32.0193C97.4255 32.0847 96.7504 33.6452 98.3408 34.5323H101.789V31.7878C100.562 31.6376 100.044 30.6498 99.91 29.95C99.3392 29.8528 98.8992 29.6071 98.597 29.206C97.8725 28.2517 98.4945 27.3769 98.5034 27.3292C98.5016 27.3363 98.5034 28.2658 99.076 28.8419C99.3605 29.1176 99.6963 29.3332 100.207 29.3809L100.456 29.4039L100.477 29.6601C100.483 29.7149 100.619 30.9749 101.789 31.1728L101.787 25.5708C101.787 24.7014 102.04 23.8284 102.344 23.0226H95.3575L95.3579 23.0244ZM86.0751 25.5921L85.9832 29.1583L86.3896 29.2219L87.3793 25.7988L86.8756 24.7456L86.0769 25.5921H86.0751ZM88.2204 38.8C88.1932 38.7992 88.1665 38.7928 88.1419 38.7812C88.1173 38.7697 88.0953 38.7533 88.0772 38.7329C88.0592 38.7125 88.0455 38.6887 88.037 38.6629C88.0285 38.6371 88.0254 38.6098 88.0278 38.5827C88.0293 38.5559 88.0362 38.5297 88.0481 38.5056C88.0599 38.4815 88.0764 38.46 88.0967 38.4424C88.1169 38.4248 88.1405 38.4114 88.166 38.403C88.1915 38.3946 88.2184 38.3914 88.2452 38.3936C88.3618 38.3989 88.4431 38.4996 88.4395 38.6092C88.4355 38.6634 88.4102 38.7139 88.3692 38.7496C88.3281 38.7853 88.2747 38.8035 88.2204 38.8ZM96.9888 41.958C97.0188 41.958 97.0541 41.9616 97.086 41.9704C97.7045 42.1471 97.8583 44.3702 98.938 44.5681C99.044 44.5911 99.143 44.5964 99.2278 44.5964C99.5406 44.5964 99.7261 44.4639 99.9276 44.2253C99.9276 44.2253 99.3833 43.3718 98.9768 42.7939C98.4378 42.0375 98.019 41.1239 97.0135 41.1239C96.9887 41.1239 96.9605 41.1239 96.934 41.1275C96.7425 41.1352 96.5572 41.1977 96.4003 41.3077C96.0646 41.0857 95.6717 40.9659 95.2692 40.9631C94.6419 40.9631 94.1506 41.2529 93.905 41.2529H93.8961L91.6518 41.0303C91.3001 40.9949 91.0227 40.6415 90.922 40.5036L90.8831 40.4435C90.8831 40.3817 90.8831 40.3198 90.8796 40.2651C90.8036 38.4254 89.3827 37.639 88.8755 37.6249C88.8755 37.6249 88.9356 37.275 88.7996 37.1424L88.3047 37.7433L86.6789 36.9268L87.8382 38.2841L86.8574 39.3885C86.7337 39.514 86.7496 39.6837 86.8009 39.7561L87.225 40.1308L87.7622 39.8038C87.7887 39.7844 87.8382 39.7773 87.8983 39.7773C88.0467 39.7773 88.2694 39.8162 88.4691 39.8162C88.69 39.8162 88.8791 39.7703 88.9021 39.5635C88.8349 40.2456 88.2023 41.4314 88.6175 42.3627L88.925 43.0661L86.9405 42.7798L86.0109 44.3509C85.7247 44.874 85.6787 45.4394 85.9544 45.7469L86.3025 46.1834C86.3025 46.1834 86.7903 45.6656 86.8981 45.3246L86.7408 45.1514C86.6083 45.0047 86.6153 44.8739 86.6966 44.7167L87.2798 43.7482L89.6213 44.3013L89.745 44.0893C89.9041 43.8242 90.1338 43.7464 90.3848 43.7464C90.489 43.7464 90.5951 43.7588 90.7046 43.7765C91.1394 43.8631 91.8551 43.9779 92.5708 43.9779C93.3572 43.9779 94.1365 43.8366 94.5518 43.3718C95.4 44.6317 97.1213 44.8315 96.9852 45.473L96.5328 47.6325C96.8333 47.6183 97.1213 47.5989 97.3952 47.5618L97.8264 45.3157C97.8614 45.1249 97.892 44.9334 97.9183 44.7413C97.7522 44.5717 97.351 44.2165 97.1231 43.7835C96.8209 43.1986 96.9852 42.8929 96.7025 42.133C96.7025 42.133 96.7909 41.9563 96.9888 41.9563L96.9888 41.958ZM117.773 34.6064C115.952 33.7052 114.804 31.3194 114.525 30.4605C114.224 35.193 111.918 38.4762 109.223 41.6359C107.823 43.2758 107.336 44.8699 107.336 44.8699C107.336 44.8699 107.606 43.0638 108.815 41.5936C111.329 38.5681 113.719 34.8001 113.897 30.4423C114.019 27.4026 113.24 24.9374 112.02 22.9056C112.703 25.021 112.605 27.6134 110.292 30.0323C110.292 30.0323 114.899 24.5046 108.46 18.8354C105.883 16.6795 103.063 15.3469 101.612 14.4033C106.855 16.1175 109.417 14.2301 109.417 14.2301C107.742 15.6844 105.573 15.6597 104.228 15.4494C104.594 15.6279 104.974 15.8152 105.381 16.0326C109.804 18.4395 113.777 22.3996 114.456 27.8815V27.8391C115.482 33.2237 117.773 34.6053 117.773 34.6053L117.773 34.6064ZM119.119 28.3326C119.16 28.3362 119.195 28.3362 119.236 28.3362C121.701 28.3362 122.535 25.6907 122.535 25.6907H122.488C122.035 25.6907 118.37 25.5846 115.779 22.2853C114.075 20.117 112.678 18.2101 109.917 17.4608L109.645 17.4113L109.587 17.1339C109.511 16.7115 109.799 16.3157 110.456 15.8898C114.264 13.391 111.675 10.203 111.675 10.203C111.675 10.203 110.59 12.7513 108.157 12.7513L107.975 12.7477C107.699 12.7336 107.432 12.7248 107.164 12.6665L106.715 12.5781C106.715 12.5781 107.409 10.6872 105.734 8.9536C104.474 7.6423 102.938 7.41966 102.053 7.41966C101.606 7.41966 101.323 7.47797 101.323 7.47797C102.164 8.57891 102.772 10.408 101.8 11.5355C100.961 12.5039 98.9109 12.5516 98.9109 13.9972C98.9109 14.6086 99.4817 15.3226 100.507 15.9641C103.589 17.908 106.648 20.4881 107.92 23.9461C109.51 28.2581 107.718 31.121 105.163 32.7626C105.163 32.7626 105.965 33.5013 107.126 33.5968C107.363 33.6197 107.595 33.6303 107.81 33.6303C110.265 33.6303 111.534 32.4764 111.534 32.4764C111.534 32.4764 111.323 34.0704 110.049 35.5495C108.869 36.9138 107.322 37.7196 104.963 37.7531C104.963 37.7531 104.889 38.8488 105.933 39.7995C106.603 40.3986 108.146 40.5948 108.146 40.5948C108.146 40.5948 105.255 41.1797 104.935 45.4581C104.762 47.7766 104.172 48.5807 104.172 48.5807H104.223C110.931 48.5807 110.76 42.8162 110.76 42.8162C110.76 42.8162 111.226 44.5233 113.098 44.9685C113.324 45.0286 113.566 45.0516 113.796 45.0516C114.396 45.0516 114.921 44.9102 114.921 44.9102C114.921 44.9102 113.941 42.8391 114.912 39.9426C115.72 37.5375 115.589 35.7562 115.589 35.7562C115.589 35.7562 116.492 37.1258 118.735 37.1382H118.758C119.288 37.1464 119.811 37.0208 120.279 36.7731C120.747 36.5253 121.146 36.1634 121.437 35.7209C116.964 33.86 117.406 27.8567 117.406 27.8567C117.406 27.8567 117.986 28.2914 119.118 28.3339L119.119 28.3326ZM74.4285 41.6363C71.7336 38.4765 69.4274 35.1932 69.1234 30.4609C68.846 31.3215 67.6991 33.7072 65.8807 34.6068C65.8807 34.6068 68.1674 33.2248 69.1941 27.8406V27.883C69.8745 22.4012 73.8471 18.4411 78.2704 16.036C78.6769 15.8151 79.0586 15.6296 79.4209 15.4528C78.0778 15.6614 75.9077 15.6861 74.2342 14.2335C74.2342 14.2335 76.7966 16.119 82.0376 14.4049C80.5885 15.3486 77.768 16.681 75.1928 18.837C68.7517 24.5061 73.3585 30.034 73.3585 30.034C71.0435 27.6129 70.948 25.024 71.6302 22.9073C70.4108 24.9395 69.6297 27.4048 69.757 30.4464C69.9319 34.8025 72.3193 38.5698 74.8288 41.5977C76.0446 43.0645 76.3185 44.8706 76.3185 44.8706C76.3185 44.8706 75.8237 43.2784 74.4276 41.6383L74.4285 41.6363ZM75.5065 40.5936C75.5065 40.5936 77.0493 40.3992 77.719 39.7984C78.7617 38.8494 78.6893 37.7538 78.6893 37.7538C76.3283 37.7202 74.7838 36.9144 73.5979 35.5501C72.3291 34.071 72.117 32.477 72.117 32.477C72.117 32.477 73.3859 33.631 75.837 33.631C76.0579 33.631 76.2876 33.6204 76.5227 33.5974C77.2479 33.524 77.9341 33.2332 78.4913 32.7633C75.9324 31.1216 74.1406 28.2586 75.7292 23.9449C77.0016 20.49 80.0589 17.9083 83.1449 15.9628C84.1681 15.3231 84.7371 14.6091 84.7371 13.9977C84.7371 12.5522 82.6907 12.5044 81.8513 11.536C80.8794 10.4085 81.489 8.5795 82.3285 7.47849C82.3285 7.47849 82.0475 7.42018 81.5986 7.42018C80.715 7.42018 79.1793 7.64284 77.9175 8.95412C76.2387 10.6895 76.9367 12.5804 76.9367 12.5804L76.4879 12.6687C76.221 12.7235 75.9506 12.7341 75.675 12.75L75.4982 12.7518C73.0595 12.7518 71.9762 10.2053 71.9762 10.2053C71.9762 10.2053 69.3908 13.3916 73.199 15.8903C73.8529 16.3162 74.1409 16.7139 74.0649 17.1344L74.0066 17.4101L73.7291 17.4596C70.9741 18.2106 69.5762 20.1174 67.8694 22.2858C65.2787 25.5851 61.6173 25.6912 61.1628 25.6912H61.1133C61.1133 25.6912 61.9491 28.3367 64.4162 28.3367C64.455 28.3367 64.4904 28.3367 64.5328 28.3332C65.6655 28.2925 66.247 27.8578 66.247 27.8578C66.247 27.8578 66.6853 33.8607 62.2143 35.722C62.2143 35.722 63.029 37.141 64.8952 37.141H64.9164C67.1607 37.1269 68.062 35.7573 68.062 35.7573C68.062 35.7573 67.9312 37.5404 68.7352 39.9437C69.7072 42.8419 68.7317 44.9095 68.7317 44.9095C68.7317 44.9095 69.253 45.0509 69.8556 45.0509C70.0889 45.0509 70.3275 45.0297 70.5519 44.9696C72.4216 44.5243 72.8899 42.8172 72.8899 42.8172C72.8899 42.8172 72.7184 48.5818 79.428 48.5818H79.4774C79.4774 48.5818 78.8889 47.7777 78.7176 45.4591C78.3995 41.1825 75.5048 40.5941 75.5048 40.5941L75.5065 40.5936ZM90.3105 19.3517H93.4738V20.4385C93.1027 19.9825 92.3781 20.0762 92.3781 20.0762V21.6437C92.3781 21.6437 92.4029 22.4142 92.675 22.7482H91.1093C91.3832 22.4142 91.4062 21.6437 91.4062 21.6437V20.0762C91.4062 20.0762 90.6851 19.9825 90.3105 20.4385L90.3105 19.3517ZM86.8645 19.5142C86.9741 19.6326 87.0819 19.7616 87.1861 19.8906C87.2109 19.9207 87.2339 19.9472 87.2586 19.9825C87.3558 20.1098 87.453 20.2476 87.5467 20.3855L87.6103 20.4791C87.7216 20.6488 87.8276 20.8237 87.9337 21.0058C88.9021 22.6793 90.4501 23.6795 91.8233 23.6813C93.1999 23.6795 94.7462 22.6793 95.7164 21.0058C95.8242 20.8202 95.932 20.6399 96.0451 20.4703C96.1741 20.2726 96.3121 20.081 96.4586 19.8959C96.5664 19.7616 96.6777 19.6309 96.7908 19.5107C96.8103 19.493 96.8262 19.4736 96.8456 19.4577C97.3404 18.9523 97.9254 18.567 98.6959 18.3532L98.353 18.1535H98.3353L96.9711 17.3618L95.5732 16.5577L91.8339 18.597L91.8233 18.5882L91.818 18.597L88.0786 16.5577L86.679 17.3618L85.3147 18.1535H85.2988L84.9542 18.3532C85.723 18.5653 86.3097 18.947 86.8044 19.4541C86.8257 19.4718 86.8398 19.4966 86.8645 19.5142ZM91.8232 6.76943C89.5083 6.7712 87.7711 7.53108 87.3929 8.42705L91.8232 10.1766L96.2554 8.42705C95.8807 7.53108 94.1435 6.7712 91.8232 6.76943ZM91.8709 53.1386H91.7826C90.3795 53.1474 88.4444 52.8594 87.5148 52.5855L86.3944 55.6233C87.1331 55.8866 89.6354 56.3921 91.8285 56.3921C94.018 56.3921 96.5222 55.8866 97.2591 55.6233L96.1405 52.5872C95.2057 52.8594 93.2741 53.1474 91.8709 53.1386ZM100.348 50.1167C99.5137 50.5903 97.6529 51.3007 96.5696 51.6294L97.4779 54.1387C99.1532 53.6793 100.537 53.1438 101.679 52.5694L99.7912 51.9421L100.348 50.1167ZM83.3034 50.1167L83.8619 51.9422L81.9727 52.5696C83.1126 53.1439 84.5016 53.6794 86.1716 54.1371L87.0817 51.6277C86.0002 51.299 84.1358 50.5903 83.3034 50.1167ZM91.8228 3.86597C93.5706 3.86597 95.2812 4.28479 96.5995 5.01817C96.7197 4.61525 96.8875 4.12397 97.1155 3.60974L96.6172 3.66983L96.0958 3.72284L95.8749 3.24747L95.2069 1.83904L93.9947 2.47172L93.5211 2.71206L93.1429 2.34095L91.8228 1.0332L90.5062 2.34095L90.1298 2.71206L89.658 2.47172L88.4386 1.83904L87.7795 3.24747L87.5551 3.72461L87.032 3.66983L86.5371 3.60974C86.7651 4.124 86.9312 4.61533 87.0532 5.01817C88.375 4.28478 90.0857 3.86597 91.8246 3.86597H91.8228ZM118.481 20.1545C118.709 20.2322 118.938 20.2676 119.166 20.2676C120.156 20.2676 121.11 19.6261 121.437 18.8945C121.437 18.8945 119.626 18.7849 117.678 16.8038C117.06 16.1641 116.403 15.9715 115.841 15.9715C114.966 15.9715 114.308 16.4327 114.308 16.4327C116.662 17.6874 117.141 19.7021 118.481 20.1545ZM64.4843 20.2658C64.7141 20.2658 64.9438 20.2322 65.1647 20.1527C66.5078 19.7003 66.992 17.6875 69.3406 16.4345C69.3406 16.4345 68.6832 15.9715 67.8137 15.9715C67.2482 15.9715 66.5926 16.1624 65.9705 16.8056C64.0249 18.7849 62.2152 18.8963 62.2152 18.8963C62.5403 19.6261 63.4964 20.2676 64.4843 20.2676L64.4843 20.2658ZM90.6335 12.4428V13.4678L90.4374 13.3759C90.4285 13.3688 90.1387 13.3052 89.6386 12.9058C88.8097 12.2625 88.7939 11.6688 88.7939 11.6688L90.6318 12.4428L90.6335 12.4428ZM91.4994 17.2443V10.8785L87.4561 9.5036L88.5235 15.6713L91.5012 17.2441L91.4994 17.2443ZM93.0192 12.4428L94.8571 11.6687C94.8571 11.6687 94.843 12.2625 94.0106 12.9058C93.5105 13.3034 93.2224 13.3688 93.2136 13.3758L93.0192 13.466L93.0192 12.4428ZM95.1275 15.6733L96.1895 9.50557L92.148 10.8787V17.2445L95.1274 15.6716L95.1275 15.6733ZM85.7807 32.0004C86.1748 32.1418 86.6519 32.1718 86.8975 32.1718C86.9064 32.1418 86.9205 32.1047 86.9329 32.0587C86.9523 31.9881 86.9735 31.9138 86.9894 31.8361C87.0583 31.4826 87.0813 31.085 87.0884 30.827C86.8624 30.6926 86.6782 30.4981 86.5565 30.265C86.4063 29.9487 86.1924 29.8003 85.8797 29.8003C85.4732 29.8003 85.0367 30.0477 84.8477 30.1608C84.6992 31.0408 85.3478 31.8396 85.7808 31.9986L85.7807 32.0004ZM94.7258 28.6233C93.9765 29.4415 92.5044 30.8676 92.4337 30.9383L92.3453 31.0266L87.6977 30.9542C87.6938 31.3387 87.6439 31.7213 87.5492 32.094L87.5121 32.2407L93.0381 33.2374C93.6124 32.8345 95.194 31.677 95.8091 31.2228C95.362 30.569 95.3195 29.7932 95.4203 29.2489C95.155 29.0813 94.9201 28.8697 94.7258 28.6233Z" fill="#FFFFFE"/>
<path d="M101.79 35.1377H81.8651V42.6465C81.8651 45.7179 84.083 47.6388 87.3575 47.6388C90.0914 47.6388 90.8124 47.7448 91.8285 48.7574C92.5301 48.0558 93.1097 47.7961 94.3026 47.6971L94.3291 47.5822L94.9565 45.6366C94.9211 45.5924 93.8961 44.4243 93.8961 44.4243C93.4897 44.5604 93.1469 44.5834 92.5707 44.5834C91.9822 44.5834 91.316 44.5127 90.5933 44.3784C90.5255 44.3623 90.4561 44.354 90.3865 44.3536C90.2981 44.3536 90.2928 44.3607 90.2681 44.4049L90.1444 44.6116L89.9147 44.9898L89.4852 44.8891L87.5731 44.4384L87.3098 44.8714L87.3504 44.9191L87.5819 45.1754L87.4794 45.5111C87.3381 45.9476 86.8821 46.4583 86.7425 46.5997L86.2654 47.1122L85.8289 46.5626L85.5019 46.1508C85.1573 45.7656 85.0778 45.1753 85.2722 44.5568C85.2665 44.561 85.2598 44.5634 85.2528 44.5639L84.7138 44.7883L84.4717 44.2582L84.3002 43.8853C84.1357 43.5038 84.1061 43.0776 84.2163 42.677C84.3265 42.2764 84.5699 41.9253 84.9064 41.6817L86.4439 40.8105L87.9107 41.0985C87.946 40.9571 87.999 40.4552 88.0397 40.3262C88.0114 40.3227 87.9849 40.3174 87.9566 40.3174L87.1119 40.6319L86.299 40.07C86.299 40.07 85.9809 39.7625 86.269 39.455L87.0554 38.2586L85.0585 35.7492L88.1281 37.0109L88.3331 36.7582L88.7466 36.2599L89.2167 36.7087C89.3403 36.8296 89.4262 36.9836 89.4641 37.1523C90.3088 37.4828 91.825 38.4565 91.9594 40.0399L91.4858 40.229V40.2413C91.5936 40.3703 91.6837 40.4233 91.712 40.4286L93.9033 40.6442C93.9598 40.6336 94.027 40.6089 94.1047 40.5877C94.3786 40.494 94.7868 40.358 95.2711 40.358C95.667 40.358 96.0487 40.4498 96.4145 40.623C96.5506 40.57 96.7149 40.5329 96.9093 40.5205L97.0153 40.517C98.187 40.517 98.7702 41.3953 99.2384 42.0968C99.3162 42.2187 99.394 42.3318 99.4752 42.4449C99.8852 43.0246 100.421 43.871 100.442 43.9082L100.684 44.2846L100.387 44.6309C100.161 44.896 99.8163 45.2053 99.2296 45.2053C99.0967 45.2042 98.9641 45.1906 98.8338 45.1646C98.7135 45.1416 98.5962 45.1054 98.4839 45.0568C98.4659 45.1816 98.4452 45.3059 98.422 45.4297L98.0385 47.439C100.336 46.8735 101.796 45.1345 101.796 42.6464L101.79 35.1377ZM81.8651 34.5333H97.3636C96.5895 33.731 96.6019 32.7185 96.7981 32.0593C96.589 31.9588 96.3946 31.8304 96.2202 31.6776C95.614 32.1247 93.7656 33.473 93.2831 33.8123L93.1789 33.883L87.0961 32.7802H86.9724C86.8275 32.7802 86.6137 32.7749 86.3804 32.7449C86.3555 32.8566 86.2987 32.9587 86.2169 33.0387C86.1351 33.1188 86.0319 33.1735 85.9197 33.1961C85.8075 33.2187 85.6912 33.2083 85.5847 33.1662C85.4783 33.1241 85.3864 33.052 85.3201 32.9587C85.2735 32.895 85.2401 32.8227 85.2219 32.7459C85.2037 32.6691 85.201 32.5895 85.2141 32.5116L85.237 32.3791C84.6114 31.9373 84.0301 30.9477 84.288 29.905L84.3128 29.7955L84.4011 29.7318C84.4903 29.671 84.5823 29.6144 84.6768 29.5622L84.235 29.4915C84.1566 29.478 84.0865 29.4345 84.0396 29.3701C83.9927 29.3058 83.9728 29.2257 83.9841 29.1469C84.0124 28.9808 84.1661 28.8641 84.3305 28.8942L85.3819 29.0603L85.4791 25.3474L87.0448 23.6863L88.0239 25.7486L86.9919 29.3219L87.9214 29.4685C88.0008 29.4815 88.0718 29.5255 88.1188 29.5907C88.1659 29.656 88.1851 29.7372 88.1724 29.8167C88.161 29.887 88.1248 29.951 88.0703 29.997C88.0159 30.0431 87.9468 30.0681 87.8755 30.0676L87.8278 30.0658L87.0696 29.9421C87.0802 29.9669 87.0943 29.9792 87.1049 30.004C87.1893 30.1503 87.3163 30.2674 87.469 30.3397L92.1043 30.4157C92.3005 30.2231 92.7865 29.746 93.2884 29.2405C92.8515 29.0802 92.468 28.8013 92.1808 28.4351C91.8937 28.069 91.7142 27.6301 91.6626 27.1676C91.0264 26.8955 90.5846 26.489 90.3407 25.9589C90.0438 25.3015 90.1498 24.6441 90.2294 24.3243C89.6108 24.0998 88.9605 23.6863 88.296 23.0254H81.3125C81.6129 23.8313 81.8656 24.7042 81.8656 25.5719V34.5316L81.8651 34.5333Z" fill="white"/>
<path d="M91.828 10.1796L87.3976 8.4265C87.774 7.53231 89.5112 6.77243 91.828 6.77066C94.1465 6.77243 95.8837 7.53231 96.2601 8.4265L91.828 10.1796ZM95.1309 15.6738L92.1531 17.2466V10.8777L96.1947 9.50279L95.1309 15.6705L95.1309 15.6738ZM96.9758 17.3632L98.3366 18.1549H98.356L98.6989 18.3546C97.9301 18.5667 97.3417 18.9537 96.8486 19.4591L96.7956 19.5121C96.6794 19.6362 96.568 19.7647 96.4616 19.8974L96.3998 19.9787C96.2937 20.1147 96.193 20.2543 96.0994 20.3993L96.0481 20.4717C95.9335 20.6467 95.8245 20.8253 95.7212 21.0072C94.7492 22.6807 93.2029 23.6809 91.828 23.6845C90.4531 23.6809 88.9051 22.6807 87.9367 21.0072C87.8337 20.8287 87.7259 20.6531 87.6133 20.4805L87.5497 20.3869C87.4573 20.2504 87.3619 20.1161 87.2634 19.984C87.2386 19.9486 87.2157 19.9221 87.1909 19.8921C87.0872 19.7632 86.9793 19.6376 86.8675 19.5157C86.8446 19.498 86.8287 19.475 86.8074 19.4556C86.3025 18.9269 85.6628 18.5462 84.9572 18.3546L85.3036 18.1549H85.3177L86.6838 17.3632L88.0816 16.5591L91.821 18.5985L91.828 18.5914L91.8386 18.5985L95.5762 16.5591L96.9758 17.3632ZM102.348 23.0253C102.042 23.8311 101.79 24.7041 101.79 25.5718L101.793 31.1738C100.625 30.9794 100.485 29.7176 100.482 29.6628L100.461 29.4066L100.208 29.3836C99.7795 29.3459 99.379 29.1544 99.0805 28.8446C98.5062 28.2703 98.5062 27.3407 98.5062 27.3319C98.4991 27.3796 97.877 28.2509 98.5981 29.2051C98.902 29.6081 99.3438 29.8572 99.9128 29.9544C100.047 30.6525 100.567 31.6403 101.793 31.7923V34.5315H98.3454C96.7549 33.6462 97.4282 32.0874 97.4601 32.0203L97.5944 31.7235L97.2904 31.6086C95.5674 30.9688 96.0428 29.2476 96.0658 29.1734L96.1365 28.9225L95.8997 28.8129C94.4789 28.152 94.6715 26.3742 94.691 26.3C94.2527 26.6552 94.0954 27.378 94.3958 28.0902C94.2333 28.2775 94.0141 28.5019 93.7755 28.7493C93.3604 28.6586 92.9867 28.4339 92.712 28.1097C92.4373 27.7855 92.277 27.3799 92.2557 26.9556L92.254 26.7471L92.0596 26.6728C91.4852 26.4608 91.0911 26.1391 90.895 25.7097C90.6776 25.2343 90.7536 24.7378 90.8137 24.4957C91.1439 24.5642 91.4802 24.5997 91.8175 24.6017H91.8404C92.0119 24.6017 92.1797 24.5911 92.3459 24.5752C93.2648 24.4833 94.2898 24.0892 95.3607 23.0254L102.348 23.0253ZM98.0396 47.439L98.4249 45.4298L98.4867 45.0587C98.7245 45.1518 98.9771 45.2015 99.2325 45.2053C99.8192 45.2053 100.162 44.8943 100.39 44.631L100.683 44.2864L100.443 43.9082C100.422 43.8711 99.8863 43.0246 99.4763 42.445C99.3949 42.3305 99.3165 42.2138 99.2413 42.0951C98.773 41.3953 98.1881 40.517 97.0146 40.517L96.9104 40.5205C96.7414 40.5296 96.5747 40.5636 96.4156 40.6213C96.0585 40.4505 95.668 40.3612 95.2722 40.3597C94.874 40.3693 94.4803 40.4458 94.1076 40.5859C94.0298 40.6089 93.9591 40.6336 93.9043 40.6442L91.713 40.4286C91.6848 40.4216 91.5964 40.3686 91.4868 40.2413V40.229L91.9605 40.0399C91.8279 38.4565 90.3099 37.4827 89.4652 37.1523C89.4277 36.983 89.3417 36.8282 89.2178 36.707L88.7477 36.2599L88.3341 36.7565L88.1309 37.0109L85.0596 35.7474L87.0565 38.2585L86.27 39.455C85.9802 39.7607 86.3001 40.07 86.3001 40.07L87.113 40.6319L87.9577 40.3156C87.986 40.3156 88.0107 40.3227 88.0408 40.3262C88.0001 40.4552 87.9471 40.9589 87.9118 41.0985L86.4467 40.8104L84.9093 41.6816C84.1157 42.2648 84.008 43.2262 84.3031 43.8853L84.4728 44.2599L84.7149 44.7883L85.2539 44.5657C85.2627 44.5621 85.2698 44.5603 85.2751 44.5551C85.0807 45.1754 85.1602 45.7638 85.5048 46.1508L85.8317 46.5626L86.2664 47.114L86.7436 46.5997C86.885 46.4583 87.3409 45.9476 87.4805 45.5094L87.583 45.1754L87.3515 44.9191L87.3126 44.8714L87.5742 44.4384L89.4863 44.8908L89.9175 44.9898L90.1472 44.6099L90.271 44.4049C90.2939 44.3607 90.2992 44.3536 90.3876 44.3536C90.4565 44.3536 90.5237 44.3607 90.5961 44.3784C91.2482 44.5071 91.9107 44.5751 92.5754 44.5816C93.1462 44.5816 93.4908 44.5604 93.8972 44.4243C93.8972 44.4243 94.9239 45.5907 94.9593 45.6366L94.3301 47.5805L94.3018 47.6971C93.1125 47.7943 92.5329 48.0559 91.8313 48.7575C90.8134 47.7466 90.0941 47.6389 87.3603 47.6389C84.0858 47.6389 81.8662 45.7179 81.8662 42.6448V35.1379H101.793L101.796 42.6448C101.796 45.1348 100.337 46.8718 98.0396 47.439ZM85.7662 43.1943L85.8705 43.454C85.7998 43.6802 85.0222 44.0019 85.0222 44.0019L84.8561 43.6325C84.75 43.3794 84.7319 43.098 84.8046 42.8334C84.8773 42.5688 85.0367 42.3362 85.2573 42.1728L86.5172 41.4041L87.855 41.6868C87.8285 42.1127 88.083 42.4308 88.083 42.4308L86.6834 42.1622L85.844 42.7418C85.7026 42.8408 85.692 43.0246 85.7662 43.1943ZM97.8274 45.3149L97.398 47.561C97.1223 47.5999 96.8324 47.6211 96.5356 47.6317L96.988 45.4757C97.1223 44.8325 95.4046 44.6328 94.5545 43.3728C94.1392 43.8393 93.3599 43.9789 92.5753 43.9789C91.8578 43.9789 91.1439 43.8641 90.7074 43.7775C90.6023 43.7592 90.4959 43.7492 90.3893 43.7474C90.1366 43.7474 89.9086 43.8252 89.7495 44.092L89.6258 44.3041L87.2825 43.751L86.6993 44.7177C86.6181 44.8749 86.611 45.0057 86.7435 45.1524L86.9026 45.3256C86.793 45.6666 86.3053 46.1844 86.3053 46.1844L85.9571 45.7479C85.6814 45.4404 85.7274 44.8749 86.0137 44.3518L86.9432 42.779L88.9278 43.0671L88.6203 42.362C88.205 41.4307 88.8376 40.2467 88.9048 39.5645C88.8818 39.7713 88.6927 39.8172 88.4736 39.8172C88.2721 39.8172 88.0495 39.7801 87.901 39.7801C87.8427 39.7801 87.7915 39.7854 87.7649 39.8049L87.2277 40.1318L86.8036 39.7571C86.7524 39.6865 86.7365 39.515 86.8601 39.3878L87.8427 38.2851L86.6834 36.9279L88.3057 37.7461L88.8023 37.1435C88.9384 37.2778 88.8783 37.6259 88.8783 37.6259C89.3855 37.64 90.8081 38.4265 90.8823 40.2643C90.8876 40.3209 90.8876 40.3827 90.8876 40.4446L90.9247 40.5047C91.0254 40.6443 91.3029 40.9995 91.6545 41.0313L93.8989 41.254H93.9077C94.1551 41.254 94.6446 40.9641 95.272 40.9641C95.6166 40.9641 95.9965 41.0525 96.403 41.3087C96.403 41.3087 96.608 41.1462 96.9385 41.1285C96.9632 41.1249 96.9915 41.1249 97.0144 41.1249C98.0217 41.1249 98.4405 42.0368 98.9813 42.7949C99.3878 43.371 99.9303 44.2263 99.9303 44.2263C99.7306 44.4649 99.5433 44.5975 99.2305 44.5975C99.1332 44.5978 99.0361 44.5883 98.9407 44.5692C97.8627 44.3695 97.7054 42.1481 97.0905 41.9714C97.0582 41.9629 97.0249 41.9588 96.9915 41.9591C96.7936 41.9591 96.707 42.1358 96.707 42.1358C96.9897 42.8939 96.8236 43.1996 97.1276 43.7846C97.3538 44.2176 97.7549 44.5728 97.9211 44.7424C97.9211 44.7424 97.8769 45.0711 97.8274 45.3167L97.8274 45.3149ZM95.7615 47.6476C95.4611 47.6476 95.1819 47.6511 94.931 47.6617L95.5883 45.61C95.6908 45.3255 95.1712 44.9597 94.9574 44.638C95.2808 44.843 96.1202 45.2918 96.5249 45.4686C96.2626 46.1922 96.0082 46.9185 95.7615 47.6476ZM85.9851 29.1592L86.0788 25.593L86.8776 24.7465L87.3795 25.7997L86.3898 29.2228L85.9833 29.161L85.9851 29.1592ZM86.5595 30.2655C86.6808 30.4978 86.8643 30.6917 87.0896 30.8257C87.0835 31.1646 87.051 31.5026 86.9924 31.8365C86.9748 31.9142 86.9571 31.9867 86.9341 32.0592C86.9235 32.1051 86.9094 32.1422 86.9005 32.1723C86.6549 32.1723 86.176 32.1422 85.7854 31.9991C85.3507 31.84 84.7022 31.0413 84.8523 30.1612C85.0396 30.0463 85.4744 29.8007 85.8825 29.8007C86.1953 29.8007 86.4093 29.9491 86.5595 30.2655ZM95.8125 31.2233C95.1993 31.6774 93.6159 32.8349 93.0416 33.2378L87.5138 32.2411L87.5527 32.0945C87.6234 31.8064 87.6994 31.4141 87.7029 30.9528L92.3489 31.0271L92.4372 30.9387C92.5079 30.868 93.98 29.4419 94.7293 28.6237C94.9078 28.8482 95.1305 29.0602 95.4238 29.2476C95.3248 29.7954 95.3654 30.5695 95.8125 31.2233ZM88.2968 23.0258C88.963 23.6867 89.6116 24.0985 90.2302 24.3247C90.1506 24.6428 90.0446 25.3037 90.3415 25.9593C90.5854 26.4894 91.0272 26.8959 91.6651 27.168C91.7358 27.8218 92.1476 28.8062 93.2909 29.2409C92.7891 29.7463 92.3013 30.2235 92.1069 30.4143L87.4698 30.3419C87.3166 30.2687 87.1896 30.1502 87.1057 30.0026C87.0969 29.9796 87.081 29.9672 87.0704 29.9425L87.8286 30.0662L87.8763 30.068C87.9476 30.0685 88.0167 30.0435 88.0711 29.9974C88.1256 29.9514 88.1618 29.8874 88.1732 29.817C88.1859 29.7379 88.1669 29.6569 88.1203 29.5917C88.0736 29.5265 88.003 29.4823 87.924 29.4689L86.9927 29.3205L88.0247 25.7489L87.0474 23.6866L85.4799 25.3478L85.3845 29.0607L84.3312 28.8928C84.1686 28.861 84.0131 28.9812 83.9831 29.1455C83.9713 29.2251 83.9912 29.3061 84.0384 29.3711C84.0857 29.4362 84.1565 29.4802 84.2358 29.4936L84.6776 29.5608C84.5185 29.6509 84.4143 29.7234 84.4019 29.7322L84.3135 29.7958L84.2888 29.9054C84.0326 30.9481 84.6122 31.9377 85.2378 32.3795L85.2148 32.512C85.1901 32.6711 85.2254 32.8301 85.3209 32.9591C85.3752 33.0375 85.4479 33.1013 85.5326 33.1451C85.6173 33.1888 85.7115 33.2111 85.8068 33.2101C85.9408 33.209 86.0704 33.1626 86.1746 33.0786C86.2789 32.9945 86.3517 32.8777 86.3812 32.747C86.6145 32.7736 86.8283 32.7806 86.9732 32.7806H87.0987L93.1797 33.8816L93.284 33.8126C93.7682 33.4733 95.6166 32.125 96.221 31.6779C96.3889 31.8211 96.5744 31.9518 96.7989 32.0596C96.6027 32.7188 96.5904 33.7314 97.3644 34.5337H81.866V25.574C81.866 24.7046 81.6133 23.8316 81.3128 23.0257L88.2968 23.0258ZM87.4592 9.50672L91.5043 10.8799V17.2456L88.5265 15.6728L87.4592 9.50507V9.50672ZM97.3268 8.73798C97.3268 7.18459 94.7167 5.78674 91.8362 5.78674H91.8185C88.938 5.78674 86.3297 7.18459 86.3297 8.73798L86.3862 9.11969L87.5367 15.7344L86.381 16.4059L83.3927 18.1555H83.4033C83.4033 18.1555 82.7318 18.5018 82.4189 18.7139C81.2808 19.5057 81.0387 20.6613 81.6997 21.1385C81.8622 20.1966 82.6062 19.2122 83.997 19.2122C85.0008 19.2122 85.7642 19.7318 86.3827 20.5076C86.5417 20.7037 86.692 20.914 86.8316 21.1385C87.0047 21.423 87.1797 21.6739 87.3511 21.9142H79.6497C80.2152 23.0541 80.7542 24.2611 80.7542 25.5723V42.6471C80.7542 46.7788 83.9263 48.751 87.3582 48.751C90.0108 48.751 90.3677 48.6308 91.831 50.0905C93.2871 48.6308 93.6458 48.751 96.3002 48.751C99.7339 48.751 102.901 46.7788 102.901 42.6471V25.5723C102.901 24.261 103.44 23.0541 104.009 21.9142H96.3039C96.4771 21.6739 96.6503 21.423 96.8235 21.1385C96.9648 20.914 97.115 20.7037 97.2706 20.5076C97.8926 19.7282 98.656 19.2122 99.6598 19.2122C101.051 19.2122 101.793 20.1966 101.957 21.1385C102.618 20.6614 102.38 19.5056 101.233 18.7139C100.929 18.5018 100.254 18.1555 100.254 18.1555H100.266L97.2706 16.4059L96.1219 15.7344L97.2706 9.11969L97.3268 8.73798ZM65.9733 16.8068C66.5953 16.1653 67.2509 15.971 67.8165 15.971C68.6859 15.971 69.3451 16.4358 69.3451 16.4358C66.9948 17.6905 66.5105 19.7015 65.1675 20.1557C64.9487 20.2316 64.7186 20.2692 64.4871 20.2671C63.4992 20.2671 62.5432 19.6273 62.218 18.8975C62.218 18.8975 64.0276 18.7861 65.9733 16.8068ZM64.487 21.0728C64.8104 21.0728 65.1268 21.0234 65.4272 20.9209C66.2683 20.6416 66.8056 19.9719 67.3711 19.2721C67.949 18.5599 68.5993 17.7522 69.7268 17.1514L70.8861 16.5276L69.8081 15.7677C69.7197 15.7129 68.9121 15.1668 67.8165 15.1668C66.9187 15.1668 66.0846 15.5326 65.3972 16.236C63.7237 17.9484 62.2233 18.0862 62.1685 18.088L61.0021 18.1569L61.4793 19.2296C61.9635 20.2987 63.2288 21.0728 64.487 21.0728ZM69.7586 30.4456C69.6349 27.4043 70.4124 24.9391 71.6318 22.9065C70.9532 25.0236 71.0451 27.6143 73.3637 30.0357C73.3637 30.0357 68.7548 24.5044 75.1962 18.8388C77.7728 16.6811 80.5915 15.3486 82.041 14.4049C76.7995 16.1191 74.2389 14.2317 74.2389 14.2317C75.9124 15.686 78.0807 15.6631 79.4255 15.451C79.0615 15.6295 78.6798 15.8151 78.2734 16.036C73.8501 18.4411 69.8795 22.4017 69.1971 27.883V27.8423C68.1704 33.2252 65.8836 34.6073 65.8836 34.6073C67.7038 33.706 68.849 31.3203 69.1281 30.4614C69.4321 35.1939 71.7365 38.477 74.4297 41.6387C75.8293 43.2768 76.3206 44.8691 76.3206 44.8691C76.3206 44.8691 76.0485 43.0648 74.8344 41.5963C72.325 38.5691 69.9357 34.8016 69.759 30.445L69.7586 30.4456ZM90.3125 19.3526V20.4412C90.6871 19.9835 91.4081 20.0772 91.4081 20.0772V21.6447C91.4081 21.6447 91.3852 22.4152 91.1112 22.7492H92.677C92.4049 22.4152 92.3783 21.6447 92.3783 21.6447V20.0772C92.3783 20.0772 93.1029 19.9835 93.474 20.4412V19.3526H90.3107H90.3125ZM89.641 12.9064C90.1411 13.304 90.4309 13.3712 90.4397 13.3765L90.6341 13.4666V12.4434L88.7963 11.6694C88.7963 11.6694 88.8122 12.2632 89.641 12.9064ZM94.013 12.9064C94.8436 12.2631 94.8612 11.6694 94.8612 11.6694L93.0216 12.4434V13.4684L93.216 13.3765C93.2248 13.3712 93.5129 13.304 94.013 12.9064ZM115.844 15.9725C116.406 15.9725 117.063 16.1651 117.681 16.8066C119.629 18.7858 121.44 18.8972 121.44 18.8972C121.112 19.627 120.157 20.2686 119.169 20.2686C118.941 20.2686 118.71 20.2332 118.485 20.1537C117.144 19.7013 116.665 17.6884 114.313 16.4355C114.313 16.4355 114.967 15.9725 115.844 15.9725ZM113.93 17.1494C115.055 17.7503 115.713 18.5578 116.289 19.2718C116.854 19.9699 117.39 20.6414 118.233 20.9207C118.53 21.0232 118.846 21.0726 119.169 21.0726C120.429 21.0726 121.696 20.2986 122.177 19.2277L122.66 18.1568L121.491 18.0861C121.437 18.0861 119.933 17.9465 118.261 16.2358C117.572 15.5325 116.739 15.1649 115.843 15.1649C114.748 15.1649 113.935 15.7128 113.847 15.7693L112.772 16.5275L113.93 17.1494ZM114.458 27.8426V27.8833C113.779 22.4015 109.807 18.4427 105.383 16.0363C104.977 15.8172 104.597 15.6298 104.231 15.4531C105.576 15.6616 107.744 15.6864 109.419 14.2337C109.419 14.2337 106.857 16.1193 101.614 14.4052C103.063 15.3488 105.885 16.6813 108.462 18.8373C114.9 24.5064 110.295 30.0342 110.295 30.0342C112.609 27.615 112.705 25.0243 112.023 22.9075C113.242 24.9398 114.02 27.4051 113.9 30.4467C113.723 34.8028 111.332 38.5701 108.817 41.598C107.608 43.0648 107.34 44.8709 107.34 44.8709C107.34 44.8709 107.828 43.2786 109.225 41.6404C111.92 38.4771 114.227 35.1955 114.527 30.4631C114.806 31.3237 115.955 33.7094 117.775 34.609C117.775 34.609 115.486 33.227 114.458 27.8441L114.458 27.8426ZM79.4322 48.5822C72.7224 48.5822 72.8941 42.8194 72.8941 42.8194C72.8941 42.8194 72.424 44.5265 70.5561 44.97C70.3279 45.0275 70.0934 45.0554 69.8581 45.0531C69.2572 45.0531 68.7341 44.9117 68.7341 44.9117C68.7341 44.9117 69.7114 42.8406 68.7377 39.9441C67.9354 37.5408 68.0662 35.7577 68.0662 35.7577C68.0662 35.7577 67.1632 37.1273 64.9206 37.1414H64.8976C63.0332 37.1414 62.2185 35.7224 62.2185 35.7224C66.6895 33.8615 66.2512 27.8582 66.2512 27.8582C66.2512 27.8582 65.668 28.2929 64.537 28.3353H64.4186C61.9516 28.3353 61.1157 25.6916 61.1157 25.6916H61.167C61.6229 25.6916 65.2828 25.5856 67.8717 22.2862C69.577 20.1179 70.9767 18.211 73.7315 17.4617L74.0089 17.4123L74.0672 17.1348C74.145 16.7142 73.8552 16.3166 73.2014 15.8907C69.3931 13.392 71.9785 10.2057 71.9785 10.2057C71.9785 10.2057 73.06 12.7522 75.5006 12.7522L75.6773 12.7504C75.953 12.7363 76.2233 12.7239 76.4902 12.6674L76.9391 12.5808C76.9391 12.5808 76.2428 10.6899 77.9216 8.95453C79.1834 7.64324 80.7155 7.4206 81.6009 7.4206C82.0516 7.4206 82.329 7.47891 82.329 7.47891C81.4914 8.57985 80.8835 10.4089 81.8519 11.5364C82.693 12.5066 84.7412 12.5526 84.7412 13.9963C84.7412 14.6096 84.1704 15.3235 83.1472 15.965C80.0635 17.9089 77.0046 20.489 75.7316 23.947C74.1447 28.259 75.9366 31.1219 78.4937 32.7655C78.4937 32.7655 77.6896 33.5042 76.5268 33.5977C76.2989 33.6197 76.0701 33.6309 75.8411 33.6313C73.3882 33.6313 72.1194 32.4791 72.1194 32.4791C72.1194 32.4791 72.3315 34.0714 73.6003 35.5523C74.7844 36.9165 76.3306 37.7206 78.6899 37.7542C78.6899 37.7542 78.7659 38.8499 77.7214 39.8006C77.0517 40.4015 75.5089 40.5958 75.5089 40.5958C75.5089 40.5958 78.4018 41.1825 78.7199 45.4591C78.8931 47.7776 79.4798 48.5817 79.4798 48.5817L79.4322 48.5822ZM80.1443 48.1227C80.1426 48.1139 79.6743 47.3805 79.524 45.4013C79.3473 43.0297 78.4531 41.6442 77.5678 40.849C77.824 40.7288 78.0626 40.5786 78.2605 40.3984C79.5594 39.2285 79.5046 37.8537 79.4958 37.7017L79.4463 36.9595L78.7023 36.9489C76.7196 36.9171 75.3358 36.3233 74.2137 35.0191C73.9718 34.7367 73.7564 34.4326 73.5704 34.1107C74.1889 34.2998 74.9453 34.4394 75.8413 34.4394C76.0798 34.4394 76.3308 34.4253 76.5941 34.4076C77.4961 34.3175 78.3489 33.9537 79.0381 33.365L79.8104 32.6528L78.9304 32.0873C76.9582 30.8238 74.9419 28.4292 76.4916 24.2288C77.4937 21.4985 79.8104 19.0262 83.5778 16.6541C84.8502 15.85 85.5464 14.901 85.5464 13.9963C85.5464 12.5984 84.3801 12.0471 83.5248 11.653C83.1077 11.4533 82.673 11.2554 82.4627 11.0097C81.8001 10.2409 82.3567 8.7689 82.9734 7.97006L83.7616 6.93629L82.484 6.68358C82.4487 6.67826 82.1129 6.61643 81.6004 6.61643C80.6478 6.61643 78.8259 6.84794 77.3415 8.3907C76.1027 9.67367 75.9401 11.0398 76.0037 11.9215C75.8835 11.9321 75.7634 11.9374 75.6361 11.9427H75.5C73.6339 11.9427 72.7538 9.96352 72.7203 9.88749L72.1954 8.65045L71.3471 9.6931C71.2994 9.75671 70.0571 11.3048 70.361 13.2469C70.5607 14.537 71.3701 15.6503 72.7591 16.5657C72.9111 16.6629 73.0153 16.746 73.0913 16.8149C70.4688 17.6684 69.0074 19.5399 67.4628 21.5068L67.2402 21.786C64.8792 24.7956 61.5372 24.8856 61.1381 24.8856L60 24.8503L60.3464 25.9353C60.387 26.0661 61.3943 29.1463 64.418 29.1463L64.5629 29.141C64.8828 29.1322 65.1708 29.088 65.4253 29.0385C65.3016 30.7174 64.6831 33.8223 61.905 34.9764L61.0568 35.3299L61.5162 36.1304C61.5586 36.2029 62.5907 37.9471 64.927 37.9471C65.7631 37.9554 66.5889 37.7614 67.3339 37.3815C67.424 38.1414 67.6113 39.1152 67.9754 40.2056C68.8201 42.7256 68.0337 44.4946 68.0037 44.5652L67.5866 45.4453L68.5285 45.6944C68.5921 45.7121 69.1718 45.857 69.8574 45.857C70.8008 45.8594 71.7138 45.5233 72.4304 44.9098C72.6867 45.6998 73.1267 46.5922 73.8884 47.3821C75.1855 48.7163 77.0499 49.3896 79.485 49.3896L80.9606 49.3701L80.1443 48.1227ZM88.2468 38.3945C88.2199 38.3923 88.1928 38.3955 88.1672 38.404C88.1416 38.4125 88.118 38.4261 88.0977 38.4439C88.0774 38.4617 88.0609 38.4834 88.0492 38.5077C88.0375 38.532 88.0308 38.5584 88.0294 38.5853C88.0273 38.6123 88.0306 38.6394 88.0392 38.665C88.0478 38.6906 88.0615 38.7142 88.0796 38.7344C88.0976 38.7545 88.1195 38.7708 88.144 38.7823C88.1685 38.7937 88.195 38.8 88.222 38.8009C88.2761 38.8043 88.3292 38.7864 88.3702 38.7511C88.4112 38.7157 88.4367 38.6657 88.4412 38.6118C88.4441 38.5572 88.4252 38.5038 88.3888 38.463C88.3524 38.4223 88.3013 38.3976 88.2468 38.3945ZM97.4821 54.14L96.572 51.6306C97.6553 51.3001 99.5161 50.5897 100.352 50.1179L99.7954 51.9434L101.681 52.5708C100.539 53.1434 99.1574 53.6788 97.4821 54.1383L97.4821 54.14ZM91.8307 56.3932C89.6376 56.3932 87.1352 55.8878 86.3966 55.6244L87.5169 52.5884C88.4465 52.8605 90.3798 53.1486 91.7847 53.1397H91.8731C93.2762 53.1486 95.2078 52.8587 96.1426 52.5884L97.2613 55.6244C96.5225 55.8895 94.0203 56.3932 91.8307 56.3932ZM81.977 52.5707L83.8643 51.9434L83.3059 50.1179C84.1382 50.5897 86.0044 51.3019 87.0841 51.6306L86.1741 54.1399C84.5041 53.6805 83.1168 53.1433 81.977 52.5707ZM101.766 52.0141L100.617 51.5723L100.935 50.3847L101.284 49.0894C101.284 49.0894 99.2514 50.1957 96.3832 51.0245C95.5703 51.2578 94.9553 51.3656 94.9553 51.3656V52.2475C94.9553 52.2475 93.4214 52.5125 91.8734 52.5125H91.785C90.2334 52.5125 88.7031 52.2475 88.7031 52.2475V51.3638C88.7031 51.3638 88.0863 51.2578 87.2734 51.0245C84.4088 50.194 82.3765 49.0894 82.3765 49.0894L82.7193 50.3847L83.0445 51.5723L81.8923 52.0141L80.6146 52.4912C82.0779 53.1998 84.1066 54.2302 85.9621 54.7391L85.5256 55.9373C85.5256 55.9373 87.8795 57.0117 91.8011 57.0223V57.024H91.8541V57.0223C95.7808 57.0117 98.1347 55.9373 98.1347 55.9373L97.6929 54.7391C99.5502 54.2301 101.582 53.2016 103.039 52.4912L101.766 52.0141ZM87.0362 3.66872L87.5576 3.72527L87.782 3.24812L88.4393 1.8397L89.6587 2.47238L90.1323 2.71448L91.8253 1.03209L93.1454 2.33984L93.5236 2.71448L93.9972 2.47238L95.2094 1.8397L95.8774 3.24812L96.0983 3.72527L96.6197 3.66872L97.118 3.6104C96.89 4.12465 96.7222 4.61421 96.6002 5.0206C95.2837 4.28366 93.573 3.86663 91.8271 3.86663C90.0881 3.86663 88.3775 4.28368 87.0556 5.0206C86.9131 4.54028 86.7407 4.0693 86.5396 3.6104L87.0344 3.66872H87.0362ZM91.8253 4.60004C94.1633 4.60004 96.0312 5.37759 97.0651 6.20285C97.0651 6.20285 97.3725 4.35262 98.4187 2.72149L96.5367 2.93355L95.5523 0.839389L93.6614 1.81665L91.8253 0L89.9963 1.81665L88.1018 0.839389L87.1192 2.93533L85.2372 2.71973C86.2851 4.35264 86.5909 6.2011 86.5909 6.2011C87.63 5.37577 89.4926 4.60004 91.8253 4.60004ZM121.44 35.7217C121.44 35.7217 120.627 37.1407 118.761 37.1407H118.738C116.497 37.1266 115.593 35.757 115.593 35.757C115.593 35.757 115.723 37.5383 114.918 39.9434C113.946 42.8416 114.925 44.9092 114.925 44.9092C114.925 44.9092 114.402 45.0524 113.799 45.0524C113.569 45.0524 113.329 45.0294 113.101 44.9693C111.229 44.5258 110.763 42.8186 110.763 42.8186C110.763 42.8186 110.936 48.5815 104.226 48.5815H104.173C104.173 48.5815 104.765 47.7774 104.94 45.4588C105.258 41.1822 108.149 40.5938 108.149 40.5938C108.149 40.5938 106.606 40.3994 105.937 39.8002C104.892 38.8512 104.965 37.7539 104.965 37.7539C107.326 37.7203 108.874 36.9162 110.053 35.5502C110.812 34.6762 111.325 33.6153 111.537 32.4771C111.537 32.4771 110.268 33.631 107.814 33.631C107.598 33.631 107.368 33.6204 107.131 33.5975C105.969 33.5038 105.166 32.7633 105.166 32.7633C107.722 31.1216 109.514 28.257 107.925 23.9449C106.653 20.4901 103.592 17.9084 100.512 15.9641C99.4869 15.3226 98.9143 14.6087 98.9143 13.9955C98.9143 12.5517 100.964 12.5058 101.805 11.5355C102.777 10.4081 102.168 8.57906 101.326 7.47806C101.326 7.47806 101.609 7.41974 102.056 7.41974C102.943 7.41974 104.477 7.6424 105.739 8.95368C107.413 10.6891 106.718 12.5799 106.718 12.5799L107.167 12.6683C107.436 12.7231 107.703 12.7355 107.98 12.7496L108.16 12.7514C110.594 12.7514 111.68 10.2031 111.68 10.2031C111.68 10.2031 114.268 13.3911 110.459 15.8899C109.804 16.3158 109.514 16.7134 109.59 17.134L109.65 17.4114L109.92 17.4591C112.681 18.2102 114.079 20.1188 115.784 22.2854C118.375 25.5847 122.04 25.6908 122.491 25.6908H122.54C122.54 25.6908 121.704 28.3363 119.239 28.3363C119.198 28.3363 119.163 28.3363 119.123 28.3327C117.991 28.2921 117.408 27.8574 117.408 27.8574C117.408 27.8574 116.968 33.8602 121.441 35.7216L121.44 35.7217ZM119.238 29.1456C122.26 29.1456 123.271 26.0654 123.314 25.9346L123.649 24.8478L122.518 24.8831H122.515C122.114 24.8831 118.781 24.7948 116.418 21.7853L116.194 21.5061C114.649 19.5392 113.184 17.6677 110.565 16.8141C110.67 16.7225 110.782 16.6392 110.899 16.565C112.288 15.6496 113.098 14.538 113.299 13.2462C113.598 11.304 112.359 9.75602 112.306 9.69235L111.465 8.6497L110.938 9.88673C110.903 9.96272 110.019 11.942 108.16 11.942H108.022C107.895 11.9367 107.773 11.9314 107.653 11.9208C107.718 11.0372 107.557 9.67291 106.32 8.38994C104.834 6.84713 103.01 6.61568 102.056 6.61568C101.547 6.61568 101.208 6.6793 101.171 6.68283L99.9002 6.93553L100.683 7.96931C101.298 8.76809 101.857 10.2402 101.196 11.0089C100.984 11.2563 100.549 11.4525 100.134 11.6522C99.2783 12.0463 98.1083 12.5977 98.1083 13.9955C98.1083 14.9003 98.8099 15.8493 100.082 16.6534C103.843 19.0232 106.165 21.4972 107.167 24.228C108.719 28.4269 106.695 30.8232 104.728 32.0846L103.848 32.6519L104.621 33.3623C104.725 33.4542 105.667 34.2865 107.061 34.4067C107.326 34.4244 107.579 34.4385 107.816 34.4385C108.708 34.4385 109.47 34.2972 110.088 34.1098C109.903 34.4325 109.688 34.7367 109.445 35.0182C108.323 36.3224 106.941 36.9162 104.953 36.948L104.214 36.9586L104.157 37.7008C104.15 37.851 104.096 39.2276 105.395 40.3975C105.594 40.5777 105.835 40.7279 106.087 40.8481C105.204 41.6433 104.309 43.0288 104.136 45.4004C103.99 47.3796 103.518 48.113 103.512 48.1218L102.696 49.3694L104.172 49.3889C106.608 49.3889 108.475 48.7174 109.766 47.3814C110.436 46.6796 110.935 45.8339 111.226 44.9091C111.944 45.521 112.856 45.8569 113.799 45.8563C114.488 45.8563 115.064 45.7096 115.128 45.6955L116.07 45.4446L115.655 44.5645C115.623 44.4938 114.838 42.7266 115.683 40.2048C116.047 39.1145 116.233 38.139 116.323 37.3773C116.917 37.6884 117.71 37.9428 118.737 37.9464C121.069 37.9464 122.096 36.2021 122.142 36.1297L122.602 35.3274L121.75 34.9775C118.972 33.8218 118.357 30.7186 118.233 29.0396C118.486 29.0873 118.772 29.1315 119.096 29.1403L119.238 29.1456Z" fill="black"/>
</svg>
