<svg width="208" height="208" viewBox="0 0 208 208" fill="none" xmlns="http://www.w3.org/2000/svg">
<g clip-path="url(#clip0_501_6749)">
<path d="M205.882 124.927C217.433 68.6611 181.184 13.6849 124.918 2.13415C68.6523 -9.41656 13.676 26.8323 2.12534 83.0982C-9.42537 139.364 26.8235 194.34 83.0893 205.891C139.355 217.442 194.331 181.193 205.882 124.927Z" fill="#102D69"/>
<path d="M179.46 92.1764L186.187 91.5649H186.268C186.513 93.1141 186.676 94.7041 186.839 96.2532C187.002 97.8024 187.084 99.3924 187.165 100.982H187.084L180.357 101.594L180.439 104.488L196.746 102.939L196.624 100.045L189.775 100.697H189.734C189.652 99.107 189.571 97.5578 189.408 95.9679C189.245 94.4187 189.081 92.8287 188.837 91.2795H188.878L195.768 90.6272L195.319 87.7734L179.012 89.3226L179.46 92.1764Z" fill="white"/>
<path d="M60.7858 41.0947L57.2389 35.2648L58.9512 34.2048L63.8026 36.0802C66.2487 37.0586 68.6541 37.3848 70.3663 35.4687L69.0618 33.3079C68.2464 34.2048 66.9418 34.1641 65.0665 33.5118L59.7666 31.5957L61.5196 21.6074L58.5843 23.2789L57.3205 32.0441L55.8936 32.941L52.306 27.0704L49.9414 28.7419L58.462 42.6846L60.7858 41.0947Z" fill="white"/>
<path d="M96.4976 15.7365L96.3753 14.1465C96.6606 14.1057 96.946 14.1057 97.1906 14.065C98.8214 13.9427 100.452 13.8611 102.083 13.8204L103.143 27.6408L106.037 27.437L104.977 13.8611L104.774 11.252C103.224 11.252 101.634 11.252 100.085 11.3335L93.8884 11.8227C93.7661 11.8227 93.603 11.8635 93.4807 11.8635L93.6846 14.4319L93.7253 15.0842C94.4592 24.9501 92.9915 26.1324 91.32 26.2547C90.9531 26.2955 90.5862 26.2547 90.3823 26.1732L90.3008 28.5785C90.7492 28.66 91.6869 28.7416 92.3392 28.7008C95.5191 28.4562 97.2722 26.2139 96.4976 15.7365Z" fill="white"/>
<path d="M80.5157 31.718C85.3263 30.1281 87.5686 25.3174 86.1009 20.9144C84.6333 16.4299 80.108 13.8615 75.2565 15.4515C70.4459 17.0414 68.2036 21.8521 69.6713 26.2551C71.1389 30.7396 75.705 33.308 80.5157 31.718ZM76.0719 18.0199C79.2111 17.0007 82.2279 18.8353 83.2471 21.8929C83.7364 23.4421 83.6548 25.032 83.0433 26.3366C82.4318 27.6412 81.331 28.7012 79.7411 29.2312C76.6019 30.2504 73.585 28.4158 72.5658 25.3582C71.7505 22.7898 72.6066 20.2214 74.6858 18.8353C75.1342 18.5091 75.5419 18.183 76.0719 18.0199Z" fill="white"/>
<path d="M167.231 47.006C170.37 43.5814 170.329 38.2816 166.578 34.857C164.295 32.8186 161.564 32.1255 158.995 32.6963L159.648 35.5908C161.401 35.1424 163.276 35.5093 164.784 36.8547C166.864 38.7708 167.108 41.5838 165.722 43.8668C164.499 42.603 163.235 41.3799 161.931 40.2384C161.401 39.7492 160.83 39.26 160.3 38.7708L158.628 40.7277C159.158 41.1761 159.688 41.6653 160.218 42.1138C161.523 43.2961 162.787 44.5191 164.01 45.7829C161.849 47.3729 158.955 47.4137 156.835 45.4975C155.285 44.1114 154.755 42.1953 155.122 40.3607L152.228 39.9531C151.861 42.603 152.758 45.416 155.082 47.4952C158.832 50.9197 164.051 50.4713 167.231 47.006Z" fill="white"/>
<path d="M125.973 90.3422C129.56 86.1838 131.069 81.1285 131.069 76.3179C131.069 72.4449 130.009 64.6989 123.201 59.3582C118.512 55.7298 114.395 54.0176 104.488 54.0176H99.4735C99.3104 54.0176 99.1881 54.0176 98.9842 54.0176H78.3555V151.495H137.266V132.782C137.266 114.885 131.477 102.858 116.515 97.5582C121.203 95.6013 124.098 92.6252 125.973 90.3422ZM114.272 88.4668C111.582 91.8098 107.219 94.9082 101.023 94.9082C100.982 94.9082 100.941 94.9082 100.9 94.9082V99.7596C117.452 99.7596 123.934 110.767 123.934 130.907V146.072H113.294V113.539H101.023V146.113H91.6459V58.869H101.308C104.936 58.869 110.399 59.6844 114.272 64.495C116.27 66.9411 117.534 70.1618 117.942 73.4233H101.023V78.234H118.064C117.942 81.3324 117.289 84.7977 114.272 88.4668Z" fill="white"/>
<path d="M140.69 31.5554C142.321 32.3708 144.318 31.7185 145.134 30.0877C145.949 28.457 145.297 26.4594 143.666 25.644C142.035 24.8286 140.037 25.4809 139.222 27.1117C138.407 28.7424 139.059 30.74 140.69 31.5554Z" fill="white"/>
<path d="M114.965 24.5838C116.27 24.7469 117.534 24.9507 118.838 25.1953C120.102 25.4399 121.407 25.7253 122.67 26.0107L123.526 30.1691L126.584 31.0252L122.507 13.0871L119.857 12.6387L109.543 27.8453L112.641 28.1306L114.965 24.5838ZM120.469 16.3078L122.059 23.2792C121.121 23.0754 120.224 22.8715 119.287 22.7084C118.349 22.5454 117.452 22.3823 116.514 22.2192L120.469 16.3078Z" fill="white"/>
<path d="M180.44 66.5344C176.037 68.1652 173.672 72.8127 175.425 77.5826C177.178 82.3525 182.111 84.3502 186.474 82.7194C190.877 81.0887 193.241 76.4411 191.488 71.6712C189.694 66.9013 184.802 64.9037 180.44 66.5344ZM188.96 72.5681C190.102 75.6258 188.43 78.7649 185.414 79.8657C185.128 79.988 184.843 79.9472 184.598 80.0287C181.826 80.681 179.013 79.4987 177.994 76.6857C177.26 74.7696 177.668 72.8127 178.809 71.3859C178.972 71.1412 179.217 70.9374 179.421 70.7336C179.461 70.6928 179.502 70.6113 179.543 70.5705C179.665 70.4482 179.828 70.3666 179.991 70.2443C180.155 70.122 180.318 69.9997 180.481 69.8774C180.481 69.8774 180.481 69.8774 180.521 69.8774C180.848 69.6736 181.174 69.5105 181.541 69.3882C183.049 68.8174 184.639 68.8582 185.984 69.3882C187.289 69.959 188.39 71.0189 188.96 72.5681Z" fill="white"/>
<path d="M165.519 58.7479L171.226 54.9972L172.327 56.6687L170.615 61.5609C169.718 64.0478 169.473 66.4531 171.43 68.1246L173.55 66.7385C172.653 65.9639 172.653 64.6593 173.224 62.784L174.936 57.4025L184.965 58.8294L183.171 55.9349L174.365 54.9564L173.428 53.5703L179.176 49.7789L177.423 47.4551L163.766 56.4241L165.519 58.7479Z" fill="white"/>
<path d="M25.2348 75.8702C27.0694 76.0333 28.6593 74.7287 28.8632 72.8941C29.0263 71.0595 27.7217 69.4695 25.8871 69.2657C24.0525 69.1026 22.4626 70.4072 22.2587 72.2418C22.0549 74.0764 23.4002 75.6663 25.2348 75.8702Z" fill="white"/>
<path d="M131.762 175.14L126.748 189.409L123.079 177.953L120.266 178.606L125.321 194.261L128.052 193.568L132.985 179.421L136.654 190.795L139.304 189.735L134.29 174.121L131.762 175.14Z" fill="white"/>
<path d="M104.041 185.373C102.206 185.373 100.738 186.841 100.738 188.675C100.738 190.51 102.206 191.978 104.041 191.978C105.875 191.978 107.343 190.51 107.343 188.675C107.343 186.881 105.875 185.373 104.041 185.373Z" fill="white"/>
<path d="M147.661 166.66L151.248 172.49L149.536 173.55L144.685 171.715C142.239 170.737 139.833 170.451 138.121 172.368L139.466 174.528C140.282 173.631 141.586 173.672 143.462 174.324L148.802 176.2L147.131 186.188L150.066 184.476L151.289 175.67L152.716 174.773L156.345 180.603L158.709 178.931L150.107 165.029L147.661 166.66Z" fill="white"/>
<path d="M163.274 152.147L165.965 167.027L157.118 158.874L155.039 160.831L167.147 171.96L169.186 169.963L166.495 155.245L175.301 163.318L177.095 161.116L164.987 149.986L163.274 152.147Z" fill="white"/>
<path d="M188.959 110.319C184.312 109.504 179.909 112.317 179.053 117.331C178.156 122.346 181.376 126.545 185.983 127.36C190.631 128.176 195.034 125.363 195.89 120.348C196.746 115.334 193.525 111.094 188.959 110.319ZM193.24 119.818C193.118 120.634 192.792 121.367 192.384 121.979C191.161 123.814 188.837 124.751 186.472 124.344C183.659 123.854 181.662 121.694 181.58 119.003C181.58 118.636 181.58 118.228 181.662 117.821C181.784 117.005 182.11 116.271 182.518 115.66C183.741 113.825 186.065 112.888 188.429 113.295C191.65 113.866 193.811 116.598 193.24 119.818Z" fill="white"/>
<path d="M75.5413 179.869C74.889 182.071 75.8675 183.498 77.539 184.68C76.1936 184.965 74.8075 185.658 74.2367 187.575C73.9106 188.675 74.0329 189.654 74.5221 190.551C75.1744 191.733 76.4382 192.752 78.232 193.282L84.2657 194.831L88.8318 179.054L82.635 177.26C79.1697 176.2 76.3974 177.016 75.5413 179.869ZM79.3735 190.795C77.5797 190.265 76.8051 189.205 77.172 187.982C77.2536 187.697 77.3759 187.452 77.4982 187.248C77.9466 186.637 78.6397 186.392 79.5366 186.433C79.9443 186.433 80.352 186.515 80.8004 186.637L83.4911 187.411L82.2681 191.611L79.3735 190.795ZM80.882 184.109C78.6805 183.457 77.8651 182.356 78.232 181.011C78.5582 179.91 79.4143 179.38 80.5966 179.462C81.0043 179.462 81.4527 179.543 81.9012 179.706L85.4072 180.725L84.1434 185.088L80.882 184.109Z" fill="white"/>
<path d="M175.222 131.6L181.011 134.902C182.968 136.003 185.292 137.267 187.208 138.327L187.167 138.367C185.088 137.878 173.02 136.411 173.02 136.411L171.96 138.612C171.96 138.612 180.277 147.744 181.867 149.13L181.826 149.212C179.829 148.193 177.464 147.173 175.507 146.317L169.31 143.627L167.68 146.236L183.009 152.636L185.088 149.089C185.088 149.089 177.383 140.691 175.956 139.509L175.996 139.427C177.831 139.835 189.042 141.058 189.042 141.058L190.632 137.185L176.282 128.746L175.222 131.6Z" fill="white"/>
<path d="M29.7184 121.57L25.6008 120.551C25.3154 119.287 25.1116 117.983 24.9077 116.719C24.6631 115.455 24.5 114.151 24.3777 112.846L27.9653 110.604L27.7615 107.424L12.2695 117.331L12.6772 119.98L30.493 124.547L29.7184 121.57ZM21.9316 114.354C22.0539 115.292 22.1762 116.23 22.3393 117.167C22.5024 118.105 22.6655 119.002 22.8285 119.94L15.8979 118.187L21.9316 114.354Z" fill="white"/>
<path d="M59.8889 172.735C58.2174 175.589 59.4404 178.443 62.6203 180.359L64.8626 181.704L61.8458 186.841L64.3326 188.309L72.7309 174.08L68.0018 171.227C64.6995 169.311 61.5604 169.881 59.8889 172.735ZM66.1264 179.503L63.9657 178.239C62.0904 177.138 61.4788 175.711 62.335 174.243C62.8242 173.428 63.4357 172.98 64.1695 172.857C64.9034 172.735 65.7595 172.98 66.6972 173.51L68.8987 174.814L66.1264 179.503Z" fill="white"/>
<path d="M39.8301 62.9049C43.7438 56.7896 48.5137 51.2859 53.9767 46.516L51.9383 44.7222L41.42 35.6309C40.727 36.2832 39.9932 36.9354 39.3409 37.6285L49.8591 46.6791C48.2691 48.1875 46.7607 49.7367 45.293 51.3674L34.8563 42.3576C34.2041 43.0915 33.5925 43.8253 32.9402 44.5591L43.3769 53.5689C41.9908 55.1997 40.6862 56.9119 39.4632 58.7057L28.9449 49.6552C28.3742 50.4298 27.8442 51.2451 27.2734 52.0197L37.7917 61.1111L39.8301 62.9049Z" fill="white"/>
<path d="M16.3877 102.003C19.2008 102.248 20.7907 100.535 21.3615 99.19L24.256 101.677C25.0306 102.37 25.5606 103.675 25.2345 104.571L27.7213 104.531C28.3329 103.185 28.0067 101.228 26.0498 99.5977L22.1769 96.3362L22.3399 94.2978L28.2513 94.8278L28.659 91.8925L12.3109 90.5879C12.1478 91.4848 11.7809 95.1132 11.7402 95.6024C11.3325 100.128 13.534 101.799 16.3877 102.003ZM14.7162 93.7271L19.6084 94.1347L19.4454 96.0101C19.3231 97.6816 18.3446 99.1085 16.6324 98.9454C15.3278 98.8231 14.3086 98.0485 14.4716 95.6839C14.5532 95.1539 14.5939 94.5017 14.7162 93.7271Z" fill="white"/>
<path d="M41.0508 147.173C36.9332 141.18 33.7533 134.657 31.511 127.727L29.065 128.909L16.5898 135.024C16.916 135.921 17.2421 136.818 17.6091 137.756L30.0434 131.6C30.818 133.638 31.6334 135.676 32.571 137.633L20.1775 143.708C20.5851 144.605 21.0336 145.461 21.4413 146.317L33.8348 140.242C34.8133 142.159 35.8733 144.034 37.0148 145.868L24.6212 152.024C25.1104 152.84 25.6404 153.655 26.1704 154.471L38.6455 148.355L41.0508 147.173Z" fill="white"/>
<path d="M57.5268 164.783L48.0312 178.291L50.3993 179.956L59.8949 166.448L57.5268 164.783Z" fill="white"/>
<path d="M48.1887 155.532C46.0687 153.249 43.2557 152.393 40.6465 152.76L41.0542 155.654C42.8888 155.287 44.8049 155.776 46.191 157.326C48.4333 159.731 48.0664 163.278 45.7018 165.439C43.2965 167.64 39.8312 167.762 37.5889 165.357C36.2028 163.889 35.8359 161.973 36.2843 160.22L33.3898 159.609C32.8598 162.136 33.5528 164.909 35.5913 167.11C39.0566 170.82 44.3565 170.82 47.7402 167.681C51.2055 164.46 51.6132 159.283 48.1887 155.532Z" fill="white"/>
</g>
<defs>
<clipPath id="clip0_501_6749">
<rect width="208" height="208" fill="white"/>
</clipPath>
</defs>
</svg>
