<svg width="244" height="71" viewBox="0 0 244 71" fill="none" xmlns="http://www.w3.org/2000/svg">
<g clip-path="url(#clip0_500_6472)">
<path d="M232.632 61.8229C237.419 61.8229 240.809 60.9521 243.336 59.0767V50.5701C240.743 52.3786 237.618 53.5172 233.23 53.5172C225.85 53.5172 222.792 47.7569 222.792 38.6474C222.792 29.0691 226.515 24.1795 233.297 24.1795C237.286 24.1795 241.208 25.5861 243.269 26.9257V18.0842C241.075 16.8786 237.286 16.0078 232.1 16.0078C218.869 16.0078 212.021 25.5861 212.021 38.9823C212.088 53.6512 218.803 61.8229 232.632 61.8229ZM167.942 57.938V49.4314C164.751 51.6418 159.299 53.5842 154.312 53.5842C146.733 53.5842 143.874 49.9672 143.409 42.5993H168.407V37.1069C168.407 21.7682 161.692 16.0078 151.387 16.0078C138.755 16.0078 132.771 25.7201 132.771 39.0493C132.771 54.388 140.284 61.8229 153.448 61.8229C160.03 61.8229 164.884 60.0144 167.942 57.938ZM73.0677 16.8116V34.2267H59.2388V16.8116H48.8672V60.9522H59.2388V42.5323H73.0677V60.9522H83.4394V16.8116H73.0677ZM130.178 52.6465H125.591V16.8116H95.4067V20.5625C95.4067 31.3465 94.7418 45.2786 91.0852 52.6465H87.7609V70.9993H97.3348V60.9522H120.538V70.9993H130.112V52.6465H130.178ZM200.985 60.9522H212.753L196.132 37.1739L210.758 16.8116H200.32L185.693 37.1739V16.8116H175.322V60.9522H185.693V39.2503L200.985 60.9522ZM151.121 24.1795C156.24 24.1795 157.836 28.4663 157.836 34.0257V34.8965H143.409C143.675 27.8635 146.201 24.1795 151.121 24.1795ZM115.219 52.6465H100.593C103.451 46.0154 104.249 33.9588 104.249 26.3229V24.9833H115.219V52.6465Z" fill="black"/>
<path d="M40.2234 60.9528H29.6523V8.23868H24.9319C16.2888 8.23868 11.7678 12.5925 11.7678 19.0896C11.7678 26.4575 14.8926 29.8736 21.3417 34.2274L26.6605 37.8443L11.3689 60.9528H0L13.7624 40.3226C5.85068 34.6292 1.39619 29.0698 1.39619 19.6925C1.39619 7.97075 9.50736 0 24.8654 0H40.1569V60.9528H40.2234Z" fill="#FC3F1D"/>
</g>
<defs>
<clipPath id="clip0_500_6472">
<rect width="244" height="71" fill="white"/>
</clipPath>
</defs>
</svg>
