<svg width="140" height="140" viewBox="0 0 140 140" fill="none" xmlns="http://www.w3.org/2000/svg">
<circle cx="70.3339" cy="69.5179" r="69.5179" fill="#162831"/>
<path d="M73.3664 94.1853C72.7001 94.4892 71.9471 94.5361 71.2492 94.317L47.2288 84.0822C43.675 82.9669 44.5586 79.2583 48.2335 79.844L74.2169 81.3527C74.9386 81.4678 75.5942 81.8461 76.0604 82.4164L79.2556 86.8863C79.7472 88.8249 79.5373 89.7425 78.1767 91.5992L73.3664 94.1853Z" fill="white"/>
<path fill-rule="evenodd" clip-rule="evenodd" d="M70.3341 40.4945C51.8606 40.4945 36.8868 55.669 36.8868 74.3854C36.8868 83.6854 40.5811 92.1074 46.5685 98.2331L43.9287 100.885C37.28 94.0829 33.1704 84.7187 33.1704 74.3854C33.1704 53.5861 49.8101 36.7266 70.3341 36.7266C90.8581 36.7266 107.498 53.5861 107.498 74.3854C107.498 85.0004 103.161 94.592 96.1911 101.435L93.6058 98.7282C99.8833 92.5652 103.781 83.9382 103.781 74.3854C103.781 55.669 88.8076 40.4945 70.3341 40.4945Z" fill="white"/>
<path fill-rule="evenodd" clip-rule="evenodd" d="M68.4761 49.9139V40.4942L72.1924 40.4941V49.9139H68.4761Z" fill="white"/>
<path fill-rule="evenodd" clip-rule="evenodd" d="M93.9451 99.0252L87.168 92.154L89.7958 89.4897L96.573 96.3607L93.9451 99.0252Z" fill="white"/>
<path fill-rule="evenodd" clip-rule="evenodd" d="M51.9782 56.575L45.4082 49.9144L48.036 47.25L54.606 53.9107L51.9782 56.575Z" fill="white"/>
<path fill-rule="evenodd" clip-rule="evenodd" d="M95.7632 70.6372H105.054V74.4051H95.7632V70.6372Z" fill="white"/>
<path fill-rule="evenodd" clip-rule="evenodd" d="M35.126 70.6372H44.417V74.4051H35.126V70.6372Z" fill="white"/>
<path fill-rule="evenodd" clip-rule="evenodd" d="M86.2881 53.6822L93.0656 46.8115L95.6933 49.476L88.9157 56.3467L86.2881 53.6822Z" fill="white"/>
<path fill-rule="evenodd" clip-rule="evenodd" d="M52.1189 92.5349L45.3417 99.4063L42.7139 96.742L49.4909 89.8706L52.1189 92.5349Z" fill="white"/>
</svg>
