<svg width="35" height="55" viewBox="0 0 35 55" fill="none" xmlns="http://www.w3.org/2000/svg">
<path d="M30.0736 0H4.9266C2.73798 0 0.956055 1.55574 0.956055 3.46635V51.5336C0.956055 53.4443 2.73809 54.9999 4.9266 54.9999H30.0736C32.2622 54.9999 34.0442 53.4442 34.0442 51.5336V3.46635C34.0442 1.55574 32.2632 0 30.0736 0ZM30.0736 53.6134H4.9266C3.74282 53.6134 2.76444 52.8527 2.58241 51.8617C3.15309 52.8324 4.29878 53.5034 5.63182 53.5034H29.3684C30.7015 53.5034 31.8472 52.8314 32.4178 51.8617C32.2357 52.8527 31.2573 53.6134 30.0736 53.6134ZM14.9461 2.56784C14.9842 2.65841 15.0838 2.71757 15.1928 2.71757H19.5172C19.6336 2.71757 19.7363 2.65107 19.7702 2.55392L19.947 2.04739C19.9576 2.01597 19.9406 1.98823 19.9364 1.95681H29.3674C30.9736 1.95681 32.2792 3.0966 32.2792 4.49884V50.4992C32.2792 51.9015 30.9736 53.0413 29.3674 53.0413H5.63171C4.02551 53.0413 2.71993 51.9015 2.71993 50.4992V4.49981C2.71993 3.09757 4.02551 1.95778 5.63171 1.95778H14.7301C14.7259 1.99287 14.7111 2.02622 14.7269 2.06131L14.9461 2.56784ZM15.2469 1.95778H19.425L19.3202 2.25541H15.3751L15.2469 1.95778ZM29.3684 1.49562H5.63171C4.29867 1.49562 3.15298 2.16764 2.5823 3.1373C2.76444 2.14724 3.74271 1.38561 4.92649 1.38561H30.0735C31.2572 1.38561 32.2355 2.14637 32.4177 3.1373C31.8472 2.16764 30.7015 1.49562 29.3684 1.49562Z" fill="white"/>
<path d="M3.73535 5.89254V45.987C3.73535 46.1783 3.91318 46.3337 4.13242 46.3337H30.5374C30.7565 46.3337 30.9345 46.1784 30.9345 45.987V5.89254C30.9345 5.70124 30.7566 5.5459 30.5374 5.5459H4.13242C3.91318 5.5459 3.73535 5.70114 3.73535 5.89254ZM4.52948 6.23919H30.1403V45.6405H4.52948V6.23919Z" fill="white"/>
<path d="M18.2284 48.3564H16.7058C15.9753 48.3564 15.3823 48.875 15.3823 49.5119V49.9167C15.3823 50.5536 15.9753 51.0722 16.7058 51.0722H18.2284C18.958 51.0722 19.552 50.5536 19.552 49.9167V49.5119C19.5521 48.8741 18.958 48.3564 18.2284 48.3564ZM19.0226 49.9159C19.0226 50.2976 18.6657 50.6092 18.2284 50.6092H16.7058C16.2686 50.6092 15.9117 50.2976 15.9117 49.9159V49.511C15.9117 49.1293 16.2686 48.8177 16.7058 48.8177H18.2284C18.6657 48.8177 19.0226 49.1293 19.0226 49.511V49.9159Z" fill="white"/>
<path d="M23.8307 4.12213C24.257 4.12213 24.6026 3.82044 24.6026 3.44827C24.6026 3.07611 24.257 2.77441 23.8307 2.77441C23.4044 2.77441 23.0588 3.07611 23.0588 3.44827C23.0588 3.82044 23.4044 4.12213 23.8307 4.12213Z" fill="white"/>
<path d="M25.9919 49.3906H25.4614V49.2168L24.8896 49.5043L25.4614 49.7927V49.6226H25.9919C26.6504 49.6226 26.9184 49.6485 26.9184 49.911C26.9184 50.1865 26.7861 50.1993 26.3667 50.1993H25.6828C25.6097 50.1993 25.5505 50.251 25.5505 50.3148C25.5505 50.3786 25.6097 50.4303 25.6828 50.4303H26.3667C26.731 50.4303 27.1831 50.4303 27.1831 49.9109C27.1831 49.3914 26.5763 49.3906 25.9919 49.3906Z" fill="white"/>
<path d="M9.49337 48.9629H8.20263C8.12955 48.9629 8.07031 49.0147 8.07031 49.0784V50.1765C8.07031 50.2403 8.12955 50.292 8.20263 50.292H9.49337C9.56645 50.292 9.62569 50.2403 9.62569 50.1765V49.0784C9.62569 49.0147 9.56645 48.9629 9.49337 48.9629ZM9.36105 50.0601H8.33506V49.5979H8.79878V49.1931H9.36105V50.0601Z" fill="white"/>
</svg>
