<svg width="497" height="459" viewBox="0 0 497 459" fill="none" xmlns="http://www.w3.org/2000/svg">
<path fill-rule="evenodd" clip-rule="evenodd" d="M115.117 97.0942C41.2876 97.0942 33.6501 0.352539 115.117 0.352539C173.671 0.352539 199.129 18.1734 247.5 38.54C300.963 18.1734 321.329 0.352539 379.883 0.352539C461.35 0.352539 453.713 97.0942 379.883 97.0942H115.117Z" fill="#5C85DE"/>
<path fill-rule="evenodd" clip-rule="evenodd" d="M115.117 97.0942H379.883C400.25 97.0942 418.071 86.9109 425.708 76.7275L247.5 97.0942L69.2915 76.7275C76.929 86.9109 94.7498 97.0942 115.117 97.0942Z" fill="#3367D6"/>
<path fill-rule="evenodd" clip-rule="evenodd" d="M456.258 249.844H267.867V458.602H420.617C440.983 458.602 458.804 440.781 458.804 420.415V249.844H456.258Z" fill="#85A4E6"/>
<path fill-rule="evenodd" clip-rule="evenodd" d="M38.7417 249.844H229.679V458.602H76.9292C56.5625 458.602 38.7417 440.781 38.7417 420.415V249.844Z" fill="#85A4E6"/>
<path fill-rule="evenodd" clip-rule="evenodd" d="M227.133 229.477V97.0938H38.7417C18.375 97.0938 0.554199 114.915 0.554199 135.281V229.477H227.133Z" fill="#85A4E6"/>
<path fill-rule="evenodd" clip-rule="evenodd" d="M496.992 229.477H267.867V97.0938H458.804C479.171 97.0938 496.992 114.915 496.992 135.281V229.477Z" fill="#85A4E6"/>
<path d="M229.679 229.478H38.7417V267.665H229.679V229.478Z" fill="#3367D6"/>
<path d="M458.804 229.478H267.867V267.665H458.804V229.478Z" fill="#3367D6"/>
<path d="M306.054 97.0938H285.688V458.602H306.054V97.0938Z" fill="#3367D6"/>
<path d="M285.688 97.0938H209.312V458.602H285.688V97.0938Z" fill="#5C85DE"/>
</svg>
