<svg width="159" height="159" viewBox="0 0 159 159" fill="none" xmlns="http://www.w3.org/2000/svg">
<circle cx="79.5" cy="79.5" r="79.5" fill="#162831"/>
<path fill-rule="evenodd" clip-rule="evenodd" d="M79.5 46.1835C58.3739 46.1835 41.25 63.0315 41.25 83.812C41.25 94.1377 45.4748 103.489 52.3219 110.29L49.3031 113.235C41.6997 105.682 37 95.285 37 83.812C37 60.7189 56.0289 42 79.5 42C102.971 42 122 60.7189 122 83.812C122 95.5977 117.041 106.247 109.07 113.845L106.113 110.839C113.292 103.997 117.75 94.4184 117.75 83.812C117.75 63.0315 100.626 46.1835 79.5 46.1835Z" fill="white"/>
<path fill-rule="evenodd" clip-rule="evenodd" d="M77.375 56.6422V46.1836L81.625 46.1836V56.6422H77.375Z" fill="white"/>
<path fill-rule="evenodd" clip-rule="evenodd" d="M106.502 111.17L98.752 103.541L101.757 100.583L109.507 108.211L106.502 111.17Z" fill="white"/>
<path fill-rule="evenodd" clip-rule="evenodd" d="M58.5085 64.0374L50.9951 56.6423L54.0003 53.6841L61.5137 61.0793L58.5085 64.0374Z" fill="white"/>
<path fill-rule="evenodd" clip-rule="evenodd" d="M108.58 79.6514H119.205V83.8348H108.58V79.6514Z" fill="white"/>
<path fill-rule="evenodd" clip-rule="evenodd" d="M39.2373 79.6514H49.8624V83.8348H39.2373V79.6514Z" fill="white"/>
<path fill-rule="evenodd" clip-rule="evenodd" d="M97.7451 60.8256L105.496 53.1973L108.501 56.1556L100.75 63.784L97.7451 60.8256Z" fill="white"/>
<path fill-rule="evenodd" clip-rule="evenodd" d="M58.6686 103.963L50.9183 111.593L47.9131 108.635L55.6632 101.005L58.6686 103.963Z" fill="white"/>
<path d="M73.0233 110.605C72.5172 109.951 72.2709 109.137 72.3312 108.317L77.3666 79.408C77.673 75.2313 81.9764 75.2693 82.2828 79.4461L87.3429 108.317C87.403 109.137 87.1569 109.951 86.6507 110.605L82.5654 115.231C80.5626 116.256 79.5001 116.256 77.1084 115.231L73.0233 110.605Z" fill="white"/>
</svg>
