<svg width="49" height="49" viewBox="0 0 49 49" fill="none" xmlns="http://www.w3.org/2000/svg">
<g clip-path="url(#clip0_701_34)">
<path d="M24.5 32.6665V42.8748" stroke="white" stroke-width="4.08333" stroke-linecap="round"/>
<path d="M18.375 42.875H30.625" stroke="white" stroke-width="4.08333" stroke-linecap="round"/>
<path fill-rule="evenodd" clip-rule="evenodd" d="M24.4998 32.6665C29.7497 32.6665 34.1248 30.8517 34.9999 25.4072L36.5215 10.4143C36.6438 9.21143 35.6995 8.1665 34.4905 8.1665H14.5092C13.3001 8.1665 12.3558 9.21143 12.4779 10.4143L13.9998 25.4072C14.8748 30.8517 19.2498 32.6665 24.4998 32.6665Z" stroke="white" stroke-width="4.08333" stroke-linecap="round"/>
<path d="M36.7502 14.2915H41.7614C42.3766 14.2915 42.8752 14.7901 42.8752 15.4051V18.3748C42.8752 22.8851 39.2187 26.5415 34.7085 26.5415" stroke="white" stroke-width="4.08333" stroke-linecap="round"/>
<path d="M12.25 14.2915H7.23863C6.6236 14.2915 6.125 14.7901 6.125 15.4051V18.3748C6.125 22.8851 9.78134 26.5415 14.2917 26.5415" stroke="white" stroke-width="4.08333" stroke-linecap="round"/>
</g>
<defs>
<clipPath id="clip0_701_34">
<rect width="49" height="49" fill="white"/>
</clipPath>
</defs>
</svg>
