<svg width="207" height="207" viewBox="0 0 207 207" fill="none" xmlns="http://www.w3.org/2000/svg">
<rect width="207" height="207" rx="20" fill="#525252"/>
<path d="M47.291 154.189C49.668 157.306 53.5924 159.008 57.8303 158.241C62.0684 157.475 65.4643 154.45 67.0637 150.614C64.6867 147.497 60.7623 145.796 56.5245 146.562C52.2867 147.328 48.8907 150.353 47.291 154.189Z" fill="url(#paint0_linear_1883_197)"/>
<path d="M36.9395 130.137C38.0621 133.482 40.7349 136.314 44.2406 137.34C47.7463 138.365 51.1287 137.303 53.2959 134.92C52.1733 131.575 49.5005 128.743 45.9948 127.718C42.4891 126.692 39.1064 127.754 36.9395 130.137Z" fill="url(#paint1_linear_1883_197)"/>
<path d="M33.5234 106.286C33.7386 109.536 35.3833 112.9 38.1346 115.02C40.8859 117.14 43.9936 117.438 46.3602 116.178C46.1451 112.928 44.5004 109.564 41.749 107.444C38.998 105.324 35.8903 105.026 33.5234 106.286Z" fill="url(#paint2_linear_1883_197)"/>
<path d="M36.7895 81.9961C36.0322 84.8087 36.435 88.3832 38.1193 91.4335C39.8038 94.4846 42.3105 96.1804 44.6486 96.2304C45.4058 93.4178 45.0031 89.8433 43.3188 86.793C41.6342 83.7419 39.1273 82.0464 36.7895 81.9961Z" fill="url(#paint3_linear_1883_197)"/>
<path d="M42.5599 66.4487C41.5357 68.6341 41.3762 71.7176 42.3615 74.6511C43.3468 77.5845 45.2086 79.5683 47.1573 80.1356C48.1815 77.9502 48.341 74.8667 47.3557 71.9332C46.3704 68.9998 44.5086 67.0163 42.5599 66.4487Z" fill="url(#paint4_linear_1883_197)"/>
<path d="M67.0995 46.1088C64.5868 45.5528 61.6257 46.7028 59.3256 49.5075C57.0255 52.3122 56.0136 56.0073 56.3679 59.1949C58.8807 59.7509 61.8418 58.6009 64.1419 55.7962C66.4423 52.9914 67.4539 49.2967 67.0995 46.1088Z" fill="url(#paint5_linear_1883_197)"/>
<path d="M70.2153 137.301C69.6135 131.921 67.2379 127.611 64.2259 125.58C61.7785 128.597 60.4424 133.579 61.0442 138.958C61.1166 139.605 61.2158 140.234 61.3373 140.847C60.0644 139.374 58.8534 137.804 57.7151 136.137C57.0188 135.118 56.3556 134.069 55.7231 132.995C57.2678 131.234 58.4761 128.702 59.0252 125.679C59.833 121.233 58.9966 116.943 57.1196 114.194C54.4843 115.618 52.2533 119.008 51.4456 123.454C51.4175 123.608 51.396 123.762 51.3721 123.916C50.3227 121.168 49.4517 118.316 48.7689 115.387C50.4854 114.447 52.0867 112.715 53.2285 110.322C54.8925 106.833 55.1263 102.893 54.137 99.8925C51.5859 100.165 48.9454 102.251 47.2814 105.739C47.2664 105.77 47.2536 105.802 47.2389 105.834C47.0505 103.738 46.9542 101.621 46.9542 99.4924C46.9542 98.5434 46.9797 97.5988 47.0167 96.6565C48.6757 96.6332 50.4502 95.9376 52.0432 94.5162C54.43 92.3865 55.7564 89.2175 55.7958 86.2619C53.5955 85.3046 50.7991 85.8138 48.4129 87.9431C48.1996 88.1338 47.9976 88.3349 47.8011 88.5413C48.1954 86.0145 48.7245 83.5304 49.3885 81.1046C50.706 81.3587 52.1725 81.143 53.5942 80.3704C55.8923 79.1217 57.4464 76.762 57.8908 74.2922C56.2738 73.0661 54.0291 72.8197 51.8485 73.848C52.5729 72.0692 53.3756 70.3346 54.2542 68.6494C55.2472 69.0542 56.3797 69.1716 57.5514 68.9135C59.7194 68.437 61.427 66.8175 62.2022 64.8166C60.9432 63.2631 58.9066 62.4665 56.7389 62.943C55.201 63.2811 53.8969 64.1957 52.991 65.4121C53.5879 63.9186 53.8279 62.0504 53.5619 60.0958C53.187 57.3402 51.9128 55.1699 50.3385 54.1846C49.1162 55.7847 48.4895 58.3735 48.8644 61.1284C49.0915 62.7976 49.6503 64.2504 50.4043 65.3571C45.1139 75.4872 42.3223 87.2636 42.3223 99.4917C42.3223 114.381 46.5468 128.766 54.2175 139.996C61.8111 151.113 72.2684 158.434 83.6633 160.613L84.3523 154.792C78.8254 153.735 73.5426 151.338 68.7711 147.792C70.0631 144.905 70.6526 141.21 70.2153 137.301Z" fill="url(#paint6_linear_1883_197)"/>
<path d="M156.714 154.189C154.337 157.306 150.413 159.008 146.175 158.241C141.937 157.475 138.541 154.45 136.942 150.614C139.319 147.497 143.243 145.796 147.481 146.562C151.719 147.328 155.115 150.353 156.714 154.189Z" fill="url(#paint7_linear_1883_197)"/>
<path d="M167.068 130.137C165.945 133.482 163.272 136.314 159.767 137.34C156.261 138.365 152.879 137.303 150.711 134.92C151.834 131.575 154.507 128.743 158.013 127.718C161.518 126.692 164.901 127.754 167.068 130.137Z" fill="url(#paint8_linear_1883_197)"/>
<path d="M172.141 106.286C171.926 109.536 170.281 112.9 167.529 115.02C164.778 117.14 161.67 117.438 159.304 116.178C159.519 112.928 161.164 109.564 163.915 107.444C166.666 105.324 169.774 105.026 172.141 106.286Z" fill="url(#paint9_linear_1883_197)"/>
<path d="M168.875 81.9961C169.632 84.8087 169.229 88.3832 167.545 91.4335C165.86 94.4846 163.354 96.1804 161.015 96.2304C160.258 93.4178 160.661 89.8433 162.345 86.793C164.03 83.7419 166.537 82.0464 168.875 81.9961Z" fill="url(#paint10_linear_1883_197)"/>
<path d="M163.103 66.4487C164.127 68.6341 164.287 71.7176 163.302 74.6511C162.316 77.5845 160.454 79.5683 158.506 80.1356C157.482 77.9502 157.322 74.8667 158.307 71.9332C159.293 68.9998 161.155 67.0163 163.103 66.4487Z" fill="url(#paint11_linear_1883_197)"/>
<path d="M136.907 46.1088C139.42 45.5528 142.381 46.7028 144.681 49.5075C146.981 52.3122 147.993 56.0073 147.639 59.1949C145.126 59.7509 142.165 58.6009 139.865 55.7962C137.565 52.9914 136.553 49.2967 136.907 46.1088Z" fill="url(#paint12_linear_1883_197)"/>
<path d="M133.792 137.301C134.393 131.921 136.769 127.611 139.781 125.58C142.228 128.597 143.564 133.579 142.963 138.958C142.89 139.605 142.791 140.234 142.67 140.847C143.942 139.374 145.153 137.804 146.292 136.137C146.988 135.118 147.651 134.069 148.284 132.995C146.739 131.234 145.531 128.702 144.982 125.679C144.174 121.233 145.01 116.943 146.887 114.194C149.523 115.618 151.754 119.008 152.561 123.454C152.589 123.608 152.611 123.762 152.635 123.916C153.684 121.168 154.555 118.316 155.238 115.387C153.521 114.447 151.92 112.715 150.778 110.322C149.114 106.833 148.881 102.893 149.87 99.8925C152.421 100.165 155.061 102.251 156.725 105.739C156.74 105.77 156.753 105.802 156.768 105.834C156.956 103.738 157.053 101.621 157.053 99.4924C157.053 98.5434 157.027 97.5988 156.99 96.6565C155.331 96.6332 153.557 95.9376 151.964 94.5162C149.577 92.3865 148.25 89.2175 148.211 86.2619C150.411 85.3046 153.208 85.8138 155.594 87.9431C155.807 88.1338 156.009 88.3349 156.206 88.5413C155.811 86.0145 155.282 83.5304 154.618 81.1046C153.301 81.3587 151.834 81.143 150.413 80.3704C148.115 79.1217 146.56 76.762 146.116 74.2922C147.733 73.0661 149.978 72.8197 152.158 73.848C151.434 72.0692 150.631 70.3346 149.753 68.6494C148.76 69.0542 147.627 69.1716 146.455 68.9135C144.287 68.437 142.58 66.8175 141.805 64.8166C143.064 63.2631 145.1 62.4665 147.268 62.943C148.806 63.2811 150.11 64.1957 151.016 65.4121C150.419 63.9186 150.179 62.0504 150.445 60.0958C150.82 57.3402 152.094 55.1699 153.668 54.1846C154.891 55.7847 155.517 58.3735 155.142 61.1284C154.915 62.7976 154.356 64.2504 153.603 65.3571C158.893 75.4872 161.685 87.2636 161.685 99.4917C161.685 114.381 157.46 128.766 149.789 139.996C142.196 151.113 131.738 158.434 120.344 160.613L119.655 154.792C125.181 153.735 130.464 151.338 135.236 147.792C133.944 144.905 133.354 141.21 133.792 137.301Z" fill="url(#paint13_linear_1883_197)"/>
<path d="M132.626 89.0728C132.625 87.9484 132.385 86.9548 131.899 86.1021C131.421 85.2636 130.706 84.5608 129.746 84.0052C121.825 79.4381 113.897 74.8849 105.979 70.3131C103.844 69.0807 101.774 69.1257 99.6555 70.3758C96.5028 72.2351 80.7185 81.2783 76.0149 84.0026C74.0779 85.124 73.1353 86.8401 73.1349 89.0707C73.1318 98.2554 73.1349 107.44 73.1318 116.625C73.1323 117.725 73.3625 118.699 73.8274 119.539C74.3053 120.403 75.0307 121.125 76.0124 121.693C80.7161 124.417 96.5026 133.46 99.6546 135.32C101.774 136.57 103.844 136.615 105.979 135.382C113.898 130.81 121.827 126.257 129.749 121.69C130.73 121.122 131.456 120.4 131.933 119.536C132.398 118.696 132.628 117.722 132.629 116.622C132.629 116.622 132.629 98.2577 132.626 89.0728Z" fill="url(#paint14_linear_1883_197)"/>
<path d="M102.972 102.758L73.8281 119.538C74.306 120.402 75.0314 121.124 76.0131 121.693C80.7169 124.417 96.5033 133.459 99.6553 135.319C101.775 136.57 103.845 136.615 105.98 135.382C113.899 130.81 121.827 126.257 129.749 121.69C130.731 121.122 131.456 120.399 131.934 119.536L102.972 102.758Z" fill="url(#paint15_linear_1883_197)"/>
<path d="M94.3384 107.728C96.0343 110.689 99.2223 112.686 102.879 112.686C106.559 112.686 109.765 110.664 111.453 107.671L102.97 102.758L94.3384 107.728Z" fill="url(#paint16_linear_1883_197)"/>
<path d="M132.626 89.0727C132.625 87.9483 132.385 86.9548 131.898 86.1021L102.971 102.758L131.933 119.536C132.398 118.696 132.628 117.722 132.629 116.622C132.629 116.622 132.629 98.2577 132.626 89.0727Z" fill="url(#paint17_linear_1883_197)"/>
<path d="M131.034 103.958H128.771V106.221H126.507V103.958H124.244V101.695H126.507V99.4316H128.771V101.695H131.034V103.958Z" fill="white"/>
<path d="M122.776 103.958H120.513V106.221H118.25V103.958H115.986V101.695H118.25V99.4316H120.513V101.695H122.776V103.958Z" fill="white"/>
<path d="M111.453 107.672C109.766 110.665 106.56 112.687 102.88 112.687C99.223 112.687 96.0349 110.69 94.3391 107.729C93.5152 106.291 93.0415 104.625 93.0415 102.848C93.0415 97.4146 97.4466 93.0098 102.88 93.0098C106.514 93.0098 109.685 94.9817 111.389 97.9121L119.989 92.9602C116.571 87.0599 110.189 83.0903 102.88 83.0903C91.9679 83.0903 83.1221 91.9364 83.1221 102.848C83.1221 106.428 84.0744 109.785 85.7389 112.681C89.1483 118.612 95.5479 122.606 102.88 122.606C110.226 122.606 116.635 118.596 120.04 112.647L111.453 107.672Z" fill="white"/>
<g clip-path="url(#clip0_1883_197)">
<path d="M91.8396 167.9V172.804H86.0479V166.22H91.8396V167.9Z" fill="url(#paint18_linear_1883_197)"/>
<path d="M117.248 167.9V172.804H111.457V166.22H117.248V167.9Z" fill="url(#paint19_linear_1883_197)"/>
<path d="M116.286 167.9H86.9819V145.45C86.9819 144.935 87.4029 144.514 87.9175 144.514H115.35C115.865 144.514 116.286 144.935 116.286 145.45L116.286 167.9Z" fill="url(#paint20_linear_1883_197)"/>
<path d="M86.982 152.408H78.104L80.3435 162.606L78.104 172.804H91.8395L86.982 167.9V152.408Z" fill="url(#paint21_linear_1883_197)"/>
<path d="M116.314 152.408H125.192L122.952 162.606L125.192 172.804H111.456L116.285 167.9L116.314 152.408Z" fill="url(#paint22_linear_1883_197)"/>
<path d="M98.7772 157.093L96.333 154.548L99.8241 154.03L101.49 150.919L103.061 154.079L106.535 154.702L104.014 157.173L104.495 160.669L101.367 159.036L98.1904 160.574L98.7772 157.093Z" fill="url(#paint23_linear_1883_197)"/>
<g opacity="0.33">
<path d="M78.948 168.896L78.0898 172.804H86.0336H91.8254V168.896H86.0336H78.948Z" fill="url(#paint24_linear_1883_197)"/>
<path d="M116.285 163.992H86.9814V167.899H116.285V163.992Z" fill="url(#paint25_linear_1883_197)"/>
<path d="M117.234 168.896H111.442V172.804H117.234H125.177L124.319 168.896H117.234Z" fill="url(#paint26_linear_1883_197)"/>
</g>
</g>
<defs>
<linearGradient id="paint0_linear_1883_197" x1="57.1774" y1="146.379" x2="57.1774" y2="158.424" gradientUnits="userSpaceOnUse">
<stop stop-color="white"/>
<stop offset="1" stop-color="#BCBCBC"/>
</linearGradient>
<linearGradient id="paint1_linear_1883_197" x1="45.1177" y1="127.328" x2="45.1177" y2="137.73" gradientUnits="userSpaceOnUse">
<stop stop-color="white"/>
<stop offset="1" stop-color="#BCBCBC"/>
</linearGradient>
<linearGradient id="paint2_linear_1883_197" x1="39.9418" y1="105.538" x2="39.9418" y2="116.926" gradientUnits="userSpaceOnUse">
<stop stop-color="white"/>
<stop offset="1" stop-color="#BCBCBC"/>
</linearGradient>
<linearGradient id="paint3_linear_1883_197" x1="40.719" y1="81.9961" x2="40.719" y2="96.2304" gradientUnits="userSpaceOnUse">
<stop stop-color="white"/>
<stop offset="1" stop-color="#BCBCBC"/>
</linearGradient>
<linearGradient id="paint4_linear_1883_197" x1="44.8586" y1="66.4487" x2="44.8586" y2="80.1356" gradientUnits="userSpaceOnUse">
<stop stop-color="white"/>
<stop offset="1" stop-color="#BCBCBC"/>
</linearGradient>
<linearGradient id="paint5_linear_1883_197" x1="61.7337" y1="45.9727" x2="61.7337" y2="59.331" gradientUnits="userSpaceOnUse">
<stop stop-color="white"/>
<stop offset="1" stop-color="#BCBCBC"/>
</linearGradient>
<linearGradient id="paint6_linear_1883_197" x1="63.3373" y1="54.1846" x2="63.3373" y2="160.613" gradientUnits="userSpaceOnUse">
<stop stop-color="white"/>
<stop offset="1" stop-color="#BCBCBC"/>
</linearGradient>
<linearGradient id="paint7_linear_1883_197" x1="146.828" y1="146.379" x2="146.828" y2="158.424" gradientUnits="userSpaceOnUse">
<stop stop-color="white"/>
<stop offset="1" stop-color="#BCBCBC"/>
</linearGradient>
<linearGradient id="paint8_linear_1883_197" x1="158.89" y1="127.328" x2="158.89" y2="137.73" gradientUnits="userSpaceOnUse">
<stop stop-color="white"/>
<stop offset="1" stop-color="#BCBCBC"/>
</linearGradient>
<linearGradient id="paint9_linear_1883_197" x1="165.722" y1="105.538" x2="165.722" y2="116.926" gradientUnits="userSpaceOnUse">
<stop stop-color="white"/>
<stop offset="1" stop-color="#BCBCBC"/>
</linearGradient>
<linearGradient id="paint10_linear_1883_197" x1="164.945" y1="81.9961" x2="164.945" y2="96.2304" gradientUnits="userSpaceOnUse">
<stop stop-color="white"/>
<stop offset="1" stop-color="#BCBCBC"/>
</linearGradient>
<linearGradient id="paint11_linear_1883_197" x1="160.804" y1="66.4487" x2="160.804" y2="80.1356" gradientUnits="userSpaceOnUse">
<stop stop-color="white"/>
<stop offset="1" stop-color="#BCBCBC"/>
</linearGradient>
<linearGradient id="paint12_linear_1883_197" x1="142.273" y1="45.9727" x2="142.273" y2="59.331" gradientUnits="userSpaceOnUse">
<stop stop-color="white"/>
<stop offset="1" stop-color="#BCBCBC"/>
</linearGradient>
<linearGradient id="paint13_linear_1883_197" x1="140.67" y1="54.1846" x2="140.67" y2="160.613" gradientUnits="userSpaceOnUse">
<stop stop-color="white"/>
<stop offset="1" stop-color="#BCBCBC"/>
</linearGradient>
<linearGradient id="paint14_linear_1883_197" x1="102.88" y1="69.4131" x2="102.88" y2="136.283" gradientUnits="userSpaceOnUse">
<stop stop-color="white"/>
<stop offset="1" stop-color="#BCBCBC"/>
</linearGradient>
<linearGradient id="paint15_linear_1883_197" x1="102.881" y1="102.758" x2="102.881" y2="136.282" gradientUnits="userSpaceOnUse">
<stop stop-color="white"/>
<stop offset="1" stop-color="#BCBCBC"/>
</linearGradient>
<linearGradient id="paint16_linear_1883_197" x1="102.896" y1="102.758" x2="102.896" y2="112.686" gradientUnits="userSpaceOnUse">
<stop stop-color="white"/>
<stop offset="1" stop-color="#BCBCBC"/>
</linearGradient>
<linearGradient id="paint17_linear_1883_197" x1="117.8" y1="86.1021" x2="117.8" y2="119.536" gradientUnits="userSpaceOnUse">
<stop stop-color="white"/>
<stop offset="1" stop-color="#BCBCBC"/>
</linearGradient>
<linearGradient id="paint18_linear_1883_197" x1="88.9437" y1="166.22" x2="88.9437" y2="172.804" gradientUnits="userSpaceOnUse">
<stop stop-color="white"/>
<stop offset="1" stop-color="#BCBCBC"/>
</linearGradient>
<linearGradient id="paint19_linear_1883_197" x1="114.352" y1="166.22" x2="114.352" y2="172.804" gradientUnits="userSpaceOnUse">
<stop stop-color="white"/>
<stop offset="1" stop-color="#BCBCBC"/>
</linearGradient>
<linearGradient id="paint20_linear_1883_197" x1="101.634" y1="144.514" x2="101.634" y2="167.9" gradientUnits="userSpaceOnUse">
<stop stop-color="white"/>
<stop offset="1" stop-color="#BCBCBC"/>
</linearGradient>
<linearGradient id="paint21_linear_1883_197" x1="84.9718" y1="152.408" x2="84.9718" y2="172.804" gradientUnits="userSpaceOnUse">
<stop stop-color="white"/>
<stop offset="1" stop-color="#BCBCBC"/>
</linearGradient>
<linearGradient id="paint22_linear_1883_197" x1="118.324" y1="152.408" x2="118.324" y2="172.804" gradientUnits="userSpaceOnUse">
<stop stop-color="white"/>
<stop offset="1" stop-color="#BCBCBC"/>
</linearGradient>
<linearGradient id="paint23_linear_1883_197" x1="101.434" y1="150.919" x2="101.434" y2="160.669" gradientUnits="userSpaceOnUse">
<stop stop-color="white"/>
<stop offset="1" stop-color="#BCBCBC"/>
</linearGradient>
<linearGradient id="paint24_linear_1883_197" x1="84.9576" y1="168.896" x2="84.9576" y2="172.804" gradientUnits="userSpaceOnUse">
<stop stop-color="white"/>
<stop offset="1" stop-color="#BCBCBC"/>
</linearGradient>
<linearGradient id="paint25_linear_1883_197" x1="101.633" y1="163.992" x2="101.633" y2="167.899" gradientUnits="userSpaceOnUse">
<stop stop-color="white"/>
<stop offset="1" stop-color="#BCBCBC"/>
</linearGradient>
<linearGradient id="paint26_linear_1883_197" x1="118.31" y1="168.896" x2="118.31" y2="172.804" gradientUnits="userSpaceOnUse">
<stop stop-color="white"/>
<stop offset="1" stop-color="#BCBCBC"/>
</linearGradient>
<clipPath id="clip0_1883_197">
<rect width="47.1018" height="47.1018" fill="white" transform="translate(78.0898 135.108)"/>
</clipPath>
</defs>
</svg>
