<svg width="89" height="89" viewBox="0 0 89 89" fill="none" xmlns="http://www.w3.org/2000/svg">
<circle cx="44.5" cy="44.5" r="44.5" fill="#2D6FFF"/>
<path d="M65.75 31.75V36.8925C65.75 40.25 63.625 42.375 60.2675 42.375H53V27.5213C53 25.1625 54.9338 23.25 57.2925 23.25C59.6088 23.2712 61.7337 24.2063 63.2637 25.7363C64.7937 27.2875 65.75 29.4125 65.75 31.75Z" stroke="white" stroke-width="3.1875" stroke-miterlimit="10" stroke-linecap="round" stroke-linejoin="round"/>
<path d="M23.25 33.875V63.625C23.25 65.3887 25.2475 66.3875 26.65 65.325L30.2837 62.605C31.1337 61.9675 32.3238 62.0525 33.0888 62.8175L36.6162 66.3662C37.445 67.195 38.805 67.195 39.6338 66.3662L43.2038 62.7962C43.9475 62.0525 45.1375 61.9675 45.9662 62.605L49.6 65.325C51.0025 66.3662 53 65.3675 53 63.625V27.5C53 25.1625 54.9125 23.25 57.25 23.25H33.875H31.75C25.375 23.25 23.25 27.0537 23.25 31.75V33.875Z" stroke="white" stroke-width="3.1875" stroke-miterlimit="10" stroke-linecap="round" stroke-linejoin="round"/>
<path opacity="0.4" d="M31.75 38.125H44.5" stroke="white" stroke-width="3.1875" stroke-linecap="round" stroke-linejoin="round"/>
<path opacity="0.4" d="M33.3438 46.625H42.9062" stroke="white" stroke-width="3.1875" stroke-linecap="round" stroke-linejoin="round"/>
</svg>
