<svg width="70" height="70" viewBox="0 0 70 70" fill="none" xmlns="http://www.w3.org/2000/svg">
<g clip-path="url(#clip0_651_426)">
<path d="M59.7604 19.7856H56.9399V37.2453H59.7604C61.6736 37.2453 63.2248 35.6941 63.2248 33.781V23.2508C63.2248 21.3369 61.6736 19.7856 59.7604 19.7856Z" fill="white"/>
<path d="M60.7933 52.0786C60.7941 50.0046 59.9468 48.1097 58.5864 46.7512C57.2289 45.391 55.334 44.5435 53.259 44.5444C51.1842 44.5435 49.2891 45.391 47.9316 46.7512C46.5705 48.1097 45.7239 50.0046 45.7239 52.0786V54.7309H43.2935V65.1784C43.2935 67.8417 45.4531 70.0004 48.1162 70.0004H58.4028C61.0659 70.0004 63.2246 67.8417 63.2246 65.1784V54.7309H60.7932V52.0786H60.7933ZM49.382 52.0786C49.382 51.5384 49.4901 51.033 49.6857 50.57C49.9785 49.8763 50.4721 49.2806 51.0913 48.8624C51.7133 48.4432 52.449 48.2023 53.2592 48.2014C53.7992 48.2014 54.3048 48.3097 54.7676 48.5052C55.4613 48.798 56.057 49.2927 56.4752 49.9119C56.8934 50.5329 57.1353 51.2685 57.1361 52.0786V54.7309H49.382V52.0786ZM53.2592 64.0527C51.8834 64.0527 50.7677 62.9369 50.7677 61.5613C50.7677 60.1855 51.8834 59.0698 53.2592 59.0698C54.6348 59.0698 55.7504 60.1855 55.7504 61.5613C55.7504 62.9369 54.6348 64.0527 53.2592 64.0527Z" fill="white"/>
<path d="M58.2754 0H54.4956H11.7246C8.99133 0 6.77539 2.21594 6.77539 4.94813V60.2288C6.77539 62.9621 8.99133 65.1781 11.7246 65.1781H40.5001V51.9373H42.8988L42.9789 51.0934C43.0325 50.5243 43.1344 49.9687 43.2753 49.4277C40.5349 50.0169 36.0685 50.4451 30.5602 50.4451C21.3229 50.4451 14.9762 49.2458 14.879 48.0938C14.4761 43.2793 20.711 40.7124 23.2433 39.8195C24.4745 39.3876 26.5667 37.8381 26.5667 36.9225C26.5667 36.3141 26.5667 35.554 26.5667 34.5148C25.7819 33.6474 25.191 31.8825 24.8399 29.8858C24.0143 29.591 23.5442 29.1201 22.9596 27.0661C22.3576 24.9612 23.7743 24.9483 23.8862 24.9483C23.6898 23.6053 23.4197 20.9494 24.1225 19.6137C24.1225 19.6137 23.6424 18.748 23.6424 17.5932C25.6609 17.8814 32.1049 13.7471 34.0299 17.1113C36.8185 16.8249 38.4827 20.7602 37.2179 24.9483C37.2179 24.9483 38.7836 24.8747 38.1571 27.0661C37.5688 29.1201 37.1015 29.591 36.2777 29.8858C35.9249 31.8825 35.3348 33.6474 34.5528 34.5148C34.5528 35.5541 34.5528 36.3143 34.5528 36.9225C34.5528 37.8381 36.5214 39.3148 37.8707 39.8195C39.8192 40.5497 43.9846 42.2245 45.5939 45.1696C45.7148 45.0368 45.8305 44.9013 45.9586 44.774C47.9045 42.8236 50.4959 41.7506 53.2555 41.7506C53.6737 41.7506 54.0865 41.7834 54.4957 41.8316V17.4587H59.7603C61.6734 17.4587 63.2246 15.9083 63.2246 13.9952V4.94813C63.2246 2.21594 61.0087 0 58.2754 0Z" fill="white"/>
</g>
<defs>
<clipPath id="clip0_651_426">
<rect width="70" height="70" fill="white"/>
</clipPath>
</defs>
</svg>
