<svg width="70" height="70" viewBox="0 0 70 70" fill="none" xmlns="http://www.w3.org/2000/svg">
<path d="M34.9998 43.7498L43.7498 34.9998M43.7498 34.9998L34.9998 26.2498M43.7498 34.9998H11.6665M26.2498 21.1416V21.0004C26.2498 17.7334 26.2498 16.0987 26.8856 14.8509C27.4449 13.7533 28.3366 12.8615 29.4343 12.3023C30.682 11.6665 32.3168 11.6665 35.5838 11.6665H49.0004C52.2674 11.6665 53.8987 11.6665 55.1464 12.3023C56.244 12.8615 57.1388 13.7533 57.6979 14.8509C58.3332 16.0975 58.3332 17.7302 58.3332 20.9908V49.0103C58.3332 52.2709 58.3332 53.9013 57.6979 55.1479C57.1388 56.2454 56.244 57.1388 55.1464 57.6979C53.8998 58.3332 52.2694 58.3332 49.0089 58.3332H35.5741C32.3136 58.3332 30.6808 58.3332 29.4343 57.6979C28.3366 57.1388 27.4449 56.2445 26.8856 55.147C26.2498 53.8993 26.2498 52.2668 26.2498 48.9998V48.854" stroke="white" stroke-width="6.02928" stroke-linecap="round" stroke-linejoin="round"/>
</svg>
