<svg width="176" height="176" viewBox="0 0 176 176" fill="none" xmlns="http://www.w3.org/2000/svg">
<circle cx="88" cy="88" r="88" fill="white"/>
<path fill-rule="evenodd" clip-rule="evenodd" d="M74.8525 27C65.3088 27 57.5724 34.4909 57.5724 43.7315V55.3148H87.4802V58.5324H44.28C34.7365 58.5324 27 66.0234 27 75.2638V100.361C27 109.602 34.7365 117.092 44.28 117.092H54.2493V102.935C54.2493 93.6948 61.9859 86.2036 71.5295 86.2036H103.431C111.506 86.2036 118.052 79.8652 118.052 72.0464V43.7315C118.052 34.4909 110.316 27 100.773 27H74.8525ZM70.8649 47.5926C74.1683 47.5926 76.8463 44.9995 76.8463 41.8009C76.8463 38.6023 74.1683 36.0092 70.8649 36.0092C67.5611 36.0092 64.8831 38.6023 64.8831 41.8009C64.8831 44.9995 67.5611 47.5926 70.8649 47.5926Z" fill="url(#paint0_linear_2012_8)"/>
<path fill-rule="evenodd" clip-rule="evenodd" d="M100.772 148.625C110.315 148.625 118.052 141.134 118.052 131.894V120.31H88.1439V117.093H131.344C140.888 117.093 148.624 109.602 148.624 100.361V75.2641C148.624 66.0236 140.888 58.5327 131.344 58.5327H121.375V72.69C121.375 81.9308 113.638 89.4216 104.095 89.4216H72.1933C64.1178 89.4216 57.5717 95.76 57.5717 103.579V131.894C57.5717 141.134 65.3084 148.625 74.8516 148.625H100.772ZM104.76 128.033C101.456 128.033 98.7779 130.626 98.7779 133.824C98.7779 137.023 101.456 139.616 104.76 139.616C108.063 139.616 110.741 137.023 110.741 133.824C110.741 130.626 108.063 128.033 104.76 128.033Z" fill="url(#paint1_linear_2012_8)"/>
<defs>
<linearGradient id="paint0_linear_2012_8" x1="72.5264" y1="27" x2="72.5264" y2="117.092" gradientUnits="userSpaceOnUse">
<stop stop-color="#327EBD"/>
<stop offset="1" stop-color="#1565A7"/>
</linearGradient>
<linearGradient id="paint1_linear_2012_8" x1="103.098" y1="58.5327" x2="103.098" y2="148.625" gradientUnits="userSpaceOnUse">
<stop stop-color="#FFDA4B"/>
<stop offset="1" stop-color="#F9C600"/>
</linearGradient>
</defs>
</svg>
