<svg width="207" height="207" viewBox="0 0 207 207" fill="none" xmlns="http://www.w3.org/2000/svg">
<rect width="207" height="207" rx="20" fill="#525252"/>
<path d="M47.8003 154.189C50.1773 157.306 54.1017 159.008 58.3395 158.241C62.5776 157.475 65.9736 154.45 67.573 150.614C65.196 147.497 61.2716 145.796 57.0338 146.562C52.7959 147.329 49.4 150.353 47.8003 154.189Z" fill="url(#paint0_linear_1883_40)"/>
<path d="M37.4473 130.137C38.5699 133.482 41.2427 136.315 44.7484 137.34C48.2541 138.365 51.6365 137.304 53.8038 134.921C52.6811 131.575 50.0083 128.743 46.5026 127.718C42.9969 126.693 39.6142 127.754 37.4473 130.137Z" fill="url(#paint1_linear_1883_40)"/>
<path d="M34.0312 106.286C34.2464 109.536 35.8911 112.9 38.6424 115.02C41.3937 117.14 44.5014 117.438 46.868 116.178C46.6529 112.928 45.0082 109.564 42.2568 107.444C39.5058 105.324 36.3981 105.026 34.0312 106.286Z" fill="url(#paint2_linear_1883_40)"/>
<path d="M37.2968 81.9965C36.5396 84.8091 36.9423 88.3836 38.6266 91.4339C40.3111 94.485 42.8178 96.1808 45.1559 96.2308C45.9131 93.4182 45.5104 89.8437 43.8261 86.7934C42.1415 83.7423 39.6346 82.0468 37.2968 81.9965Z" fill="url(#paint3_linear_1883_40)"/>
<path d="M43.0677 66.4492C42.0435 68.6346 41.884 71.7181 42.8693 74.6515C43.8546 77.585 45.7164 79.5688 47.6651 80.1361C48.6894 77.9507 48.8488 74.8672 47.8635 71.9337C46.8782 69.0003 45.0164 67.0168 43.0677 66.4492Z" fill="url(#paint4_linear_1883_40)"/>
<path d="M67.6069 46.109C65.0941 45.553 62.133 46.703 59.8329 49.5077C57.5328 52.3125 56.5209 56.0075 56.8753 59.1951C59.388 59.7511 62.3491 58.6012 64.6492 55.7964C66.9496 52.9917 67.9612 49.297 67.6069 46.109Z" fill="url(#paint5_linear_1883_40)"/>
<path d="M70.7231 137.301C70.1213 131.921 67.7457 127.611 64.7338 125.58C62.2863 128.598 60.9502 133.579 61.552 138.959C61.6245 139.605 61.7236 140.234 61.8451 140.847C60.5722 139.374 59.3612 137.804 58.2229 136.137C57.5266 135.118 56.8634 134.069 56.2309 132.995C57.7756 131.234 58.984 128.702 59.533 125.679C60.3408 121.233 59.5044 116.943 57.6274 114.194C54.9921 115.619 52.7611 119.008 51.9534 123.454C51.9253 123.608 51.9038 123.762 51.8799 123.916C50.8305 121.168 49.9596 118.316 49.2767 115.388C50.9932 114.448 52.5945 112.715 53.7363 110.322C55.4003 106.834 55.6341 102.893 54.6448 99.8927C52.0937 100.165 49.4532 102.251 47.7892 105.739C47.7742 105.771 47.7614 105.803 47.7467 105.834C47.5583 103.738 47.462 101.621 47.462 99.4926C47.462 98.5436 47.4875 97.599 47.5245 96.6567C49.1835 96.6333 50.958 95.9378 52.551 94.5164C54.9378 92.3867 56.2642 89.2177 56.3036 86.2621C54.1033 85.3048 51.307 85.814 48.9207 87.9433C48.7074 88.134 48.5054 88.3351 48.3089 88.5415C48.7032 86.0147 49.2323 83.5306 49.8963 81.1048C51.2138 81.3589 52.6803 81.1432 54.102 80.3706C56.4001 79.1219 57.9543 76.7621 58.3987 74.2924C56.7816 73.0663 54.5369 72.8199 52.3563 73.8482C53.0807 72.0693 53.8834 70.3348 54.762 68.6496C55.755 69.0544 56.8876 69.1718 58.0592 68.9137C60.2272 68.4372 61.9348 66.8177 62.71 64.8167C61.451 63.2633 59.4145 62.4667 57.2467 62.9432C55.7088 63.2813 54.4047 64.1959 53.4988 65.4123C54.0957 63.9188 54.3357 62.0505 54.0697 60.0959C53.6948 57.3404 52.4206 55.1701 50.8463 54.1848C49.624 55.7849 48.9973 58.3737 49.3722 61.1286C49.5994 62.7978 50.1582 64.2506 50.9121 65.3572C45.6217 75.4874 42.8301 87.2638 42.8301 99.4919C42.8301 114.381 47.0546 128.766 54.7253 139.996C62.3189 151.113 72.7762 158.435 84.1711 160.614L84.8601 154.792C79.3332 153.736 74.0504 151.338 69.2789 147.793C70.5709 144.905 71.1604 141.21 70.7231 137.301Z" fill="url(#paint6_linear_1883_40)"/>
<path d="M157.223 154.189C154.846 157.306 150.922 159.008 146.684 158.241C142.446 157.475 139.05 154.45 137.45 150.614C139.827 147.497 143.752 145.796 147.99 146.562C152.227 147.328 155.623 150.353 157.223 154.189Z" fill="url(#paint7_linear_1883_40)"/>
<path d="M167.575 130.137C166.453 133.482 163.78 136.314 160.274 137.34C156.768 138.365 153.386 137.304 151.219 134.921C152.341 131.575 155.014 128.743 158.52 127.718C162.026 126.693 165.408 127.754 167.575 130.137Z" fill="url(#paint8_linear_1883_40)"/>
<path d="M172.648 106.286C172.433 109.536 170.788 112.9 168.037 115.02C165.285 117.14 162.178 117.438 159.811 116.178C160.026 112.928 161.671 109.564 164.422 107.444C167.173 105.324 170.281 105.026 172.648 106.286Z" fill="url(#paint9_linear_1883_40)"/>
<path d="M169.382 81.9964C170.14 84.809 169.737 88.3835 168.053 91.4338C166.368 94.4848 163.861 96.1807 161.523 96.2307C160.766 93.4181 161.169 89.8436 162.853 86.7932C164.538 83.7422 167.045 82.0467 169.382 81.9964Z" fill="url(#paint10_linear_1883_40)"/>
<path d="M163.612 66.4491C164.636 68.6345 164.795 71.718 163.81 74.6514C162.825 77.5849 160.963 79.5687 159.014 80.1359C157.99 77.9506 157.83 74.8671 158.816 71.9336C159.801 69.0001 161.663 67.0167 163.612 66.4491Z" fill="url(#paint11_linear_1883_40)"/>
<path d="M137.415 46.1089C139.928 45.5529 142.889 46.7029 145.189 49.5076C147.489 52.3124 148.501 56.0074 148.147 59.195C145.634 59.751 142.673 58.601 140.373 55.7963C138.072 52.9916 137.061 49.2969 137.415 46.1089Z" fill="url(#paint12_linear_1883_40)"/>
<path d="M134.299 137.301C134.901 131.921 137.276 127.611 140.288 125.58C142.736 128.598 144.072 133.579 143.47 138.958C143.398 139.605 143.298 140.234 143.177 140.847C144.45 139.374 145.661 137.804 146.799 136.137C147.495 135.118 148.159 134.069 148.791 132.995C147.246 131.234 146.038 128.702 145.489 125.679C144.681 121.233 145.518 116.943 147.395 114.194C150.03 115.618 152.261 119.008 153.069 123.454C153.097 123.608 153.118 123.762 153.142 123.916C154.191 121.168 155.062 118.316 155.745 115.387C154.029 114.447 152.427 112.715 151.286 110.322C149.622 106.833 149.388 102.893 150.377 99.8926C152.928 100.165 155.569 102.251 157.233 105.739C157.248 105.77 157.261 105.802 157.275 105.834C157.464 103.738 157.56 101.621 157.56 99.4925C157.56 98.5435 157.534 97.5989 157.497 96.6566C155.838 96.6332 154.064 95.9377 152.471 94.5162C150.084 92.3866 148.758 89.2176 148.718 86.262C150.919 85.3047 153.715 85.8138 156.101 87.9432C156.315 88.1339 156.517 88.335 156.713 88.5414C156.319 86.0146 155.79 83.5305 155.126 81.1047C153.808 81.3588 152.342 81.1431 150.92 80.3705C148.622 79.1218 147.068 76.762 146.623 74.2922C148.24 73.0662 150.485 72.8198 152.666 73.8481C151.941 72.0692 151.139 70.3347 150.26 68.6495C149.267 69.0543 148.134 69.1716 146.963 68.9136C144.795 68.4371 143.087 66.8176 142.312 64.8166C143.571 63.2631 145.608 62.4666 147.775 62.943C149.313 63.2811 150.617 64.1958 151.523 65.4121C150.926 63.9187 150.686 62.0504 150.952 60.0958C151.327 57.3403 152.601 55.1699 154.176 54.1846C155.398 55.7848 156.025 58.3736 155.65 61.1285C155.423 62.7977 154.864 64.2504 154.11 65.3571C159.4 75.4873 162.192 87.2636 162.192 99.4918C162.192 114.381 157.967 128.766 150.297 139.996C142.703 151.113 132.246 158.435 120.851 160.614L120.162 154.792C125.689 153.735 130.972 151.338 135.743 147.793C134.451 144.905 133.862 141.21 134.299 137.301Z" fill="url(#paint13_linear_1883_40)"/>
<path d="M101.528 99.3044C99.1493 98.9298 97.8746 97.3128 98.5089 92.3155L98.579 91.7125C99.1127 87.3699 99.5579 86.4046 101.616 86.5173C102.22 86.5568 102.915 86.9436 103.611 87.5222C104.254 88.2744 105.684 89.2519 106.493 91.1887C107.072 92.6078 107.267 93.5336 107.35 94.5324L107.478 95.7566V95.7505C107.56 96.2346 107.812 96.6738 108.188 96.9897C108.565 97.3056 109.041 97.4776 109.533 97.475C110.025 97.4724 110.499 97.2955 110.873 96.9757C111.246 96.6559 111.493 96.2142 111.57 95.7292C111.595 95.5952 112.107 82.4366 112.107 82.2204C112.107 81.0632 111.186 80.1191 110.033 80.1009C109.759 80.1021 109.487 80.1572 109.234 80.2631C108.981 80.3691 108.752 80.5237 108.559 80.7183C108.366 80.9129 108.213 81.1435 108.109 81.397C108.005 81.6506 107.952 81.9221 107.953 82.196C107.953 82.2234 107.95 84.0384 107.911 85.8686C106.276 84.0658 104.181 82.4488 101.83 82.3056C95.5539 81.9707 94.8677 87.8206 94.453 91.1918L94.392 91.7886C93.5442 98.4547 95.7368 102.657 100.888 103.473C106.493 104.366 110.228 105.666 110.262 109.162C110.283 110.52 109.579 111.912 108.35 112.981C107.627 113.61 106.775 114.074 105.854 114.34C104.932 114.607 103.964 114.67 103.016 114.525C102.457 114.429 101.907 114.285 101.372 114.095C100.641 113.681 98.7894 112.542 97.8532 111.227C97.0603 110.118 96.7859 108.373 96.7005 107.268C96.7127 106.771 96.7157 106.446 96.7157 106.406C96.7264 105.853 96.5182 105.318 96.1362 104.917C95.7543 104.516 95.2294 104.282 94.6756 104.265C94.3997 104.262 94.1259 104.314 93.8699 104.417C93.6139 104.519 93.3807 104.672 93.1836 104.865C92.9865 105.057 92.8294 105.287 92.7212 105.541C92.613 105.794 92.5559 106.066 92.5531 106.342C92.5531 106.382 92.5013 110.505 92.3518 112.99C92.1384 116.988 92.3518 120.378 92.3518 120.524C92.4372 121.687 93.4192 122.564 94.5689 122.485C94.8435 122.467 95.1118 122.395 95.3583 122.273C95.6048 122.151 95.8245 121.981 96.0046 121.773C96.1848 121.566 96.3219 121.324 96.4078 121.063C96.4938 120.802 96.5269 120.527 96.5053 120.253C96.5053 120.235 96.4047 118.593 96.4169 116.324C98.2078 117.499 100.218 118.3 102.327 118.678C103.873 118.936 105.458 118.846 106.965 118.414C108.471 117.982 109.863 117.219 111.036 116.181C113.211 114.296 114.458 111.723 114.421 109.116C114.348 101.336 105.684 99.9682 101.528 99.3044ZM109.969 64.8562C107.056 64.8586 104.193 65.6173 101.662 67.058H101.321C93.2789 67.058 86.2649 71.297 82.5658 78.4107C80.3458 82.6528 79.8212 86.7852 79.5193 89.3098C79.4827 89.5808 79.4644 89.8275 79.4339 90.1076C79.068 93.0737 79.0589 95.9058 79.4035 98.5491C78.194 100.94 77.5423 103.573 77.4975 106.251V106.299C77.4724 108.28 77.4144 110.259 77.3237 112.238C77.1676 115.22 77.1595 118.208 77.2993 121.191L77.3389 121.827C78.022 130.866 85.527 137.943 94.4438 137.943C98.2819 137.954 102.008 136.653 105.004 134.258C110.857 134.027 116.452 131.791 120.847 127.924C126.415 123.091 129.566 116.215 129.477 109.074C129.437 104.926 128.422 101.04 126.495 97.6142C126.851 93.7376 127.169 82.4001 127.169 82.2965C127.169 72.847 119.593 65.0298 110.277 64.8562H109.969ZM110.14 73.0023C115.147 73.0937 119.221 77.3023 119.221 82.3848C119.221 82.5005 118.779 96.0794 118.566 97.2549C118.44 97.9766 118.233 98.6816 117.947 99.3561C120.252 102.066 121.499 105.447 121.53 109.272C121.594 114.007 119.453 118.639 115.657 121.94C112.457 124.763 108.338 126.326 104.068 126.337C103.336 126.332 102.605 126.284 101.879 126.191C101.713 126.416 101.538 126.635 101.354 126.846C100.501 127.84 99.4419 128.638 98.2499 129.184C97.0578 129.73 95.7613 130.01 94.4499 130.007C89.653 130.007 85.6154 126.185 85.2616 121.31L85.2372 120.938C85.1106 118.237 85.1157 115.532 85.2525 112.831C85.3714 110.764 85.4355 107.256 85.4416 106.497C85.4736 104.223 86.3207 102.035 87.8294 100.331C87.1066 97.7878 86.8779 94.7395 87.3201 91.1339L87.3933 90.4883C87.6464 88.3718 88.0276 85.2504 89.589 82.2661C91.9219 77.7804 96.2004 75.2071 101.324 75.2071C102.166 75.2022 103.007 75.2735 103.836 75.4203C105.502 73.8976 107.709 72.9536 110.14 73.0023Z" fill="url(#paint14_linear_1883_40)"/>
<g clip-path="url(#clip0_1883_40)">
<path d="M91.8396 167.9V172.803H86.0479V166.22H91.8396V167.9Z" fill="url(#paint15_linear_1883_40)"/>
<path d="M117.248 167.9V172.803H111.457V166.22H117.248V167.9Z" fill="url(#paint16_linear_1883_40)"/>
<path d="M116.286 167.9H86.9819V145.449C86.9819 144.935 87.4029 144.514 87.9175 144.514H115.35C115.865 144.514 116.286 144.935 116.286 145.449L116.286 167.9Z" fill="url(#paint17_linear_1883_40)"/>
<path d="M86.982 152.408H78.104L80.3435 162.606L78.104 172.803H91.8395L86.982 167.9V152.408Z" fill="url(#paint18_linear_1883_40)"/>
<path d="M116.314 152.408H125.192L122.952 162.606L125.192 172.803H111.456L116.285 167.9L116.314 152.408Z" fill="url(#paint19_linear_1883_40)"/>
<path d="M98.7772 157.093L96.333 154.548L99.8241 154.03L101.49 150.919L103.061 154.079L106.535 154.702L104.014 157.173L104.495 160.669L101.367 159.035L98.1904 160.573L98.7772 157.093Z" fill="white"/>
<g opacity="0.33">
<path d="M78.948 168.896L78.0898 172.803H86.0336H91.8254V168.896H86.0336H78.948Z" fill="url(#paint20_linear_1883_40)"/>
<path d="M116.285 163.992H86.9814V167.899H116.285V163.992Z" fill="url(#paint21_linear_1883_40)"/>
<path d="M117.234 168.896H111.442V172.803H117.234H125.177L124.319 168.896H117.234Z" fill="url(#paint22_linear_1883_40)"/>
</g>
</g>
<defs>
<linearGradient id="paint0_linear_1883_40" x1="57.6867" y1="146.38" x2="57.6867" y2="158.424" gradientUnits="userSpaceOnUse">
<stop stop-color="white"/>
<stop offset="1" stop-color="#BCBCBC"/>
</linearGradient>
<linearGradient id="paint1_linear_1883_40" x1="45.6255" y1="127.328" x2="45.6255" y2="137.73" gradientUnits="userSpaceOnUse">
<stop stop-color="white"/>
<stop offset="1" stop-color="#BCBCBC"/>
</linearGradient>
<linearGradient id="paint2_linear_1883_40" x1="40.4496" y1="105.538" x2="40.4496" y2="116.926" gradientUnits="userSpaceOnUse">
<stop stop-color="white"/>
<stop offset="1" stop-color="#BCBCBC"/>
</linearGradient>
<linearGradient id="paint3_linear_1883_40" x1="41.2263" y1="81.9965" x2="41.2263" y2="96.2308" gradientUnits="userSpaceOnUse">
<stop stop-color="white"/>
<stop offset="1" stop-color="#BCBCBC"/>
</linearGradient>
<linearGradient id="paint4_linear_1883_40" x1="45.3664" y1="66.4492" x2="45.3664" y2="80.1361" gradientUnits="userSpaceOnUse">
<stop stop-color="white"/>
<stop offset="1" stop-color="#BCBCBC"/>
</linearGradient>
<linearGradient id="paint5_linear_1883_40" x1="62.2411" y1="45.9729" x2="62.2411" y2="59.3313" gradientUnits="userSpaceOnUse">
<stop stop-color="white"/>
<stop offset="1" stop-color="#BCBCBC"/>
</linearGradient>
<linearGradient id="paint6_linear_1883_40" x1="63.8451" y1="54.1848" x2="63.8451" y2="160.614" gradientUnits="userSpaceOnUse">
<stop stop-color="white"/>
<stop offset="1" stop-color="#BCBCBC"/>
</linearGradient>
<linearGradient id="paint7_linear_1883_40" x1="147.337" y1="146.379" x2="147.337" y2="158.424" gradientUnits="userSpaceOnUse">
<stop stop-color="white"/>
<stop offset="1" stop-color="#BCBCBC"/>
</linearGradient>
<linearGradient id="paint8_linear_1883_40" x1="159.397" y1="127.328" x2="159.397" y2="137.73" gradientUnits="userSpaceOnUse">
<stop stop-color="white"/>
<stop offset="1" stop-color="#BCBCBC"/>
</linearGradient>
<linearGradient id="paint9_linear_1883_40" x1="166.23" y1="105.538" x2="166.23" y2="116.926" gradientUnits="userSpaceOnUse">
<stop stop-color="white"/>
<stop offset="1" stop-color="#BCBCBC"/>
</linearGradient>
<linearGradient id="paint10_linear_1883_40" x1="165.453" y1="81.9964" x2="165.453" y2="96.2307" gradientUnits="userSpaceOnUse">
<stop stop-color="white"/>
<stop offset="1" stop-color="#BCBCBC"/>
</linearGradient>
<linearGradient id="paint11_linear_1883_40" x1="161.313" y1="66.4491" x2="161.313" y2="80.1359" gradientUnits="userSpaceOnUse">
<stop stop-color="white"/>
<stop offset="1" stop-color="#BCBCBC"/>
</linearGradient>
<linearGradient id="paint12_linear_1883_40" x1="142.781" y1="45.9728" x2="142.781" y2="59.3311" gradientUnits="userSpaceOnUse">
<stop stop-color="white"/>
<stop offset="1" stop-color="#BCBCBC"/>
</linearGradient>
<linearGradient id="paint13_linear_1883_40" x1="141.177" y1="54.1846" x2="141.177" y2="160.614" gradientUnits="userSpaceOnUse">
<stop stop-color="white"/>
<stop offset="1" stop-color="#BCBCBC"/>
</linearGradient>
<linearGradient id="paint14_linear_1883_40" x1="103.34" y1="64.8562" x2="103.34" y2="137.943" gradientUnits="userSpaceOnUse">
<stop stop-color="white"/>
<stop offset="1" stop-color="#BCBCBC"/>
</linearGradient>
<linearGradient id="paint15_linear_1883_40" x1="88.9437" y1="166.22" x2="88.9437" y2="172.803" gradientUnits="userSpaceOnUse">
<stop stop-color="white"/>
<stop offset="1" stop-color="#BCBCBC"/>
</linearGradient>
<linearGradient id="paint16_linear_1883_40" x1="114.352" y1="166.22" x2="114.352" y2="172.803" gradientUnits="userSpaceOnUse">
<stop stop-color="white"/>
<stop offset="1" stop-color="#BCBCBC"/>
</linearGradient>
<linearGradient id="paint17_linear_1883_40" x1="101.634" y1="144.514" x2="101.634" y2="167.9" gradientUnits="userSpaceOnUse">
<stop stop-color="white"/>
<stop offset="0.567488" stop-color="#BCBCBC"/>
</linearGradient>
<linearGradient id="paint18_linear_1883_40" x1="84.9718" y1="152.408" x2="84.9718" y2="172.803" gradientUnits="userSpaceOnUse">
<stop stop-color="white"/>
<stop offset="1" stop-color="#BCBCBC"/>
</linearGradient>
<linearGradient id="paint19_linear_1883_40" x1="118.324" y1="152.408" x2="118.324" y2="172.803" gradientUnits="userSpaceOnUse">
<stop stop-color="white"/>
<stop offset="1" stop-color="#BCBCBC"/>
</linearGradient>
<linearGradient id="paint20_linear_1883_40" x1="84.9576" y1="168.896" x2="84.9576" y2="172.803" gradientUnits="userSpaceOnUse">
<stop stop-color="white"/>
<stop offset="1" stop-color="#BCBCBC"/>
</linearGradient>
<linearGradient id="paint21_linear_1883_40" x1="101.633" y1="163.992" x2="101.633" y2="167.899" gradientUnits="userSpaceOnUse">
<stop offset="0.153948" stop-color="white"/>
<stop offset="0.755821" stop-color="#BCBCBC"/>
</linearGradient>
<linearGradient id="paint22_linear_1883_40" x1="118.31" y1="168.896" x2="118.31" y2="172.803" gradientUnits="userSpaceOnUse">
<stop stop-color="white"/>
<stop offset="1" stop-color="#BCBCBC"/>
</linearGradient>
<clipPath id="clip0_1883_40">
<rect width="47.1018" height="47.1018" fill="white" transform="translate(78.0898 135.108)"/>
</clipPath>
</defs>
</svg>
