<svg width="207" height="207" viewBox="0 0 207 207" fill="none" xmlns="http://www.w3.org/2000/svg">
<rect width="207" height="207" rx="20" fill="#001D64" fill-opacity="0.4"/>
<circle cx="102.88" cy="90.485" r="21.0719" fill="white"/>
<path d="M123.952 109.904C123.952 121.542 110.799 132.629 99.1617 132.629C87.524 132.629 78.0898 123.195 78.0898 111.557C78.0898 99.9192 87.524 90.485 99.1617 90.485C110.799 90.485 123.952 98.2665 123.952 109.904Z" fill="white"/>
<path d="M47.2915 154.189C49.6685 157.306 53.5929 159.008 57.8308 158.241C62.0688 157.475 65.4648 154.45 67.0642 150.614C64.6872 147.497 60.7628 145.796 56.525 146.562C52.2872 147.329 48.8912 150.353 47.2915 154.189Z" fill="#FFC82D"/>
<path d="M36.9395 130.137C38.0621 133.482 40.7349 136.314 44.2406 137.34C47.7463 138.365 51.1287 137.304 53.2959 134.921C52.1733 131.575 49.5005 128.743 45.9948 127.718C42.4891 126.693 39.1064 127.754 36.9395 130.137Z" fill="#FFC82D"/>
<path d="M33.5234 106.286C33.7386 109.536 35.3833 112.9 38.1346 115.02C40.8859 117.14 43.9936 117.438 46.3602 116.178C46.1451 112.928 44.5004 109.564 41.749 107.444C38.998 105.324 35.8903 105.026 33.5234 106.286Z" fill="#FFC82D"/>
<path d="M36.789 81.9964C36.0318 84.809 36.4345 88.3835 38.1188 91.4339C39.8033 94.4849 42.31 96.1808 44.6481 96.2307C45.4053 93.4182 45.0026 89.8436 43.3183 86.7933C41.6337 83.7423 39.1268 82.0467 36.789 81.9964Z" fill="#FFC82D"/>
<path d="M42.5599 66.4492C41.5357 68.6345 41.3762 71.718 42.3615 74.6515C43.3468 77.585 45.2086 79.5687 47.1573 80.136C48.1815 77.9506 48.341 74.8671 47.3557 71.9337C46.3704 69.0002 44.5086 67.0168 42.5599 66.4492Z" fill="#FFC82D"/>
<path d="M67.099 46.109C64.5863 45.553 61.6252 46.7029 59.3251 49.5077C57.025 52.3124 56.0131 56.0074 56.3674 59.1951C58.8802 59.7511 61.8413 58.6011 64.1414 55.7964C66.4418 52.9916 67.4534 49.2969 67.099 46.109Z" fill="#FFE431"/>
<path d="M70.2153 137.301C69.6135 131.921 67.2379 127.611 64.2259 125.58C61.7785 128.598 60.4424 133.579 61.0442 138.959C61.1166 139.605 61.2158 140.234 61.3373 140.847C60.0644 139.374 58.8534 137.804 57.7151 136.137C57.0188 135.118 56.3556 134.069 55.7231 132.995C57.2678 131.234 58.4761 128.702 59.0252 125.679C59.833 121.233 58.9966 116.943 57.1196 114.194C54.4843 115.619 52.2533 119.008 51.4456 123.454C51.4175 123.608 51.396 123.762 51.3721 123.916C50.3227 121.168 49.4517 118.316 48.7689 115.387C50.4854 114.448 52.0867 112.715 53.2285 110.322C54.8925 106.833 55.1263 102.893 54.137 99.8926C51.5859 100.165 48.9454 102.251 47.2814 105.739C47.2664 105.77 47.2536 105.802 47.2389 105.834C47.0505 103.738 46.9542 101.621 46.9542 99.4925C46.9542 98.5436 46.9797 97.5989 47.0167 96.6566C48.6757 96.6333 50.4502 95.9377 52.0432 94.5163C54.43 92.3866 55.7564 89.2176 55.7958 86.262C53.5955 85.3048 50.7991 85.8139 48.4129 87.9432C48.1996 88.134 47.9976 88.335 47.8011 88.5414C48.1954 86.0146 48.7245 83.5305 49.3885 81.1048C50.706 81.3589 52.1725 81.1431 53.5942 80.3705C55.8923 79.1218 57.4464 76.7621 57.8908 74.2923C56.2738 73.0663 54.0291 72.8198 51.8485 73.8482C52.5729 72.0693 53.3756 70.3347 54.2542 68.6495C55.2472 69.0543 56.3797 69.1717 57.5514 68.9136C59.7194 68.4371 61.427 66.8176 62.2022 64.8167C60.9432 63.2632 58.9066 62.4666 56.7389 62.9431C55.201 63.2812 53.8969 64.1958 52.991 65.4122C53.5879 63.9187 53.8279 62.0505 53.5619 60.0959C53.187 57.3403 51.9128 55.17 50.3385 54.1847C49.1162 55.7849 48.4895 58.3737 48.8644 61.1285C49.0915 62.7977 49.6503 64.2505 50.4043 65.3572C45.1139 75.4873 42.3223 87.2637 42.3223 99.4918C42.3223 114.381 46.5468 128.766 54.2175 139.996C61.8111 151.113 72.2684 158.435 83.6633 160.614L84.3523 154.792C78.8254 153.735 73.5426 151.338 68.7711 147.793C70.0631 144.905 70.6526 141.21 70.2153 137.301Z" fill="#FFE431"/>
<path d="M156.715 154.189C154.338 157.306 150.414 159.008 146.176 158.241C141.938 157.475 138.542 154.45 136.943 150.614C139.32 147.497 143.244 145.796 147.482 146.562C151.72 147.329 155.116 150.353 156.715 154.189Z" fill="#FFC82D"/>
<path d="M167.067 130.137C165.945 133.482 163.272 136.314 159.766 137.34C156.261 138.365 152.878 137.304 150.711 134.921C151.834 131.575 154.506 128.743 158.012 127.718C161.518 126.693 164.9 127.754 167.067 130.137Z" fill="#FFC82D"/>
<path d="M172.14 106.286C171.925 109.536 170.28 112.9 167.529 115.02C164.778 117.14 161.67 117.438 159.303 116.178C159.519 112.928 161.163 109.564 163.915 107.444C166.666 105.324 169.773 105.026 172.14 106.286Z" fill="#FFC82D"/>
<path d="M168.875 81.9964C169.632 84.809 169.229 88.3835 167.545 91.4339C165.86 94.4849 163.354 96.1808 161.015 96.2307C160.258 93.4182 160.661 89.8436 162.345 86.7933C164.03 83.7423 166.537 82.0467 168.875 81.9964Z" fill="#FFC82D"/>
<path d="M163.104 66.4492C164.128 68.6345 164.287 71.718 163.302 74.6515C162.317 77.585 160.455 79.5687 158.506 80.136C157.482 77.9506 157.323 74.8671 158.308 71.9337C159.293 69.0002 161.155 67.0168 163.104 66.4492Z" fill="#FFC82D"/>
<path d="M136.907 46.109C139.42 45.553 142.381 46.7029 144.681 49.5077C146.981 52.3124 147.993 56.0074 147.639 59.1951C145.126 59.7511 142.165 58.6011 139.865 55.7964C137.565 52.9916 136.553 49.2969 136.907 46.109Z" fill="#FFE431"/>
<path d="M133.791 137.301C134.393 131.921 136.768 127.611 139.78 125.58C142.228 128.598 143.564 133.579 142.962 138.959C142.89 139.605 142.791 140.234 142.669 140.847C143.942 139.374 145.153 137.804 146.291 136.137C146.988 135.118 147.651 134.069 148.283 132.995C146.739 131.234 145.53 128.702 144.981 125.679C144.173 121.233 145.01 116.943 146.887 114.194C149.522 115.619 151.753 119.008 152.561 123.454C152.589 123.608 152.61 123.762 152.634 123.916C153.684 121.168 154.555 118.316 155.237 115.387C153.521 114.448 151.92 112.715 150.778 110.322C149.114 106.833 148.88 102.893 149.869 99.8926C152.42 100.165 155.061 102.251 156.725 105.739C156.74 105.77 156.753 105.802 156.767 105.834C156.956 103.738 157.052 101.621 157.052 99.4925C157.052 98.5436 157.027 97.5989 156.99 96.6566C155.331 96.6333 153.556 95.9377 151.963 94.5163C149.576 92.3866 148.25 89.2176 148.211 86.262C150.411 85.3047 153.207 85.8139 155.593 87.9432C155.807 88.134 156.009 88.335 156.205 88.5414C155.811 86.0146 155.282 83.5305 154.618 81.1048C153.3 81.3589 151.834 81.1431 150.412 80.3705C148.114 79.1218 146.56 76.7621 146.115 74.2923C147.733 73.0663 149.977 72.8199 152.158 73.8482C151.433 72.0693 150.631 70.3347 149.752 68.6495C148.759 69.0543 147.627 69.1717 146.455 68.9136C144.287 68.4371 142.579 66.8176 141.804 64.8167C143.063 63.2632 145.1 62.4666 147.267 62.9431C148.805 63.2812 150.109 64.1958 151.015 65.4122C150.418 63.9187 150.178 62.0505 150.444 60.0959C150.819 57.3403 152.094 55.17 153.668 54.1847C154.89 55.7849 155.517 58.3737 155.142 61.1285C154.915 62.7977 154.356 64.2505 153.602 65.3572C158.892 75.4873 161.684 87.2637 161.684 99.4918C161.684 114.381 157.46 128.766 149.789 139.996C142.195 151.113 131.738 158.435 120.343 160.614L119.654 154.792C125.181 153.735 130.464 151.338 135.235 147.793C133.943 144.905 133.354 141.21 133.791 137.301Z" fill="#FFE431"/>
<path d="M101.02 99.3044C98.641 98.9298 97.3663 97.3128 98.0006 92.3155L98.0707 91.7125C98.6044 87.37 99.0496 86.4046 101.108 86.5173C101.712 86.5569 102.407 86.9436 103.102 87.5222C103.746 88.2744 105.176 89.2519 105.984 91.1887C106.564 92.6078 106.759 93.5336 106.841 94.5324L106.969 95.7566V95.7506C107.052 96.2347 107.303 96.6739 107.68 96.9897C108.056 97.3056 108.533 97.4776 109.025 97.475C109.516 97.4725 109.991 97.2955 110.364 96.9757C110.737 96.656 110.985 96.2142 111.062 95.7292C111.086 95.5952 111.599 82.4366 111.599 82.2204C111.599 81.0632 110.678 80.1192 109.525 80.1009C109.251 80.1021 108.979 80.1572 108.726 80.2632C108.473 80.3691 108.244 80.5238 108.05 80.7183C107.857 80.9129 107.704 81.1435 107.601 81.3971C107.497 81.6506 107.444 81.9221 107.445 82.196C107.445 82.2235 107.442 84.0384 107.402 85.8686C105.768 84.0658 103.673 82.4488 101.322 82.3057C95.0456 81.9707 94.3594 87.8207 93.9447 91.1918L93.8837 91.7887C93.0359 98.4548 95.2285 102.657 100.379 103.473C105.984 104.366 109.72 105.666 109.754 109.162C109.775 110.52 109.07 111.912 107.841 112.981C107.118 113.61 106.266 114.074 105.345 114.341C104.424 114.607 103.456 114.67 102.508 114.525C101.949 114.429 101.399 114.285 100.864 114.095C100.132 113.681 98.2811 112.542 97.3449 111.227C96.552 110.118 96.2776 108.373 96.1922 107.268C96.2044 106.771 96.2074 106.446 96.2074 106.406C96.2181 105.853 96.0099 105.318 95.6279 104.917C95.246 104.516 94.7211 104.282 94.1673 104.265C93.8914 104.262 93.6176 104.314 93.3616 104.417C93.1056 104.52 92.8724 104.672 92.6753 104.865C92.4782 105.057 92.3211 105.287 92.2129 105.541C92.1047 105.794 92.0476 106.066 92.0448 106.342C92.0448 106.382 91.993 110.505 91.8435 112.99C91.6301 116.988 91.8435 120.378 91.8435 120.524C91.9289 121.687 92.9109 122.564 94.0606 122.485C94.3352 122.467 94.6035 122.395 94.85 122.273C95.0965 122.151 95.3162 121.981 95.4963 121.773C95.6765 121.566 95.8136 121.324 95.8995 121.063C95.9855 120.802 96.0186 120.527 95.997 120.253C95.997 120.235 95.8964 118.593 95.9086 116.324C97.6995 117.499 99.7098 118.3 101.819 118.678C103.365 118.936 104.949 118.846 106.456 118.414C107.963 117.982 109.354 117.219 110.528 116.181C112.702 114.296 113.95 111.723 113.913 109.116C113.84 101.336 105.176 99.9683 101.02 99.3044ZM109.461 64.8563C106.547 64.8586 103.685 65.6174 101.154 67.058H100.812C92.7706 67.058 85.7566 71.297 82.0575 78.4108C79.8375 82.6528 79.3129 86.7853 79.011 89.3098C78.9744 89.5808 78.9561 89.8275 78.9256 90.1077C78.5597 93.0738 78.5506 95.9059 78.8952 98.5492C77.6857 100.94 77.034 103.573 76.9892 106.251V106.299C76.9641 108.28 76.9061 110.259 76.8154 112.238C76.6593 115.22 76.6512 118.208 76.791 121.191L76.8306 121.827C77.5137 130.866 85.0187 137.943 93.9355 137.943C97.7736 137.954 101.5 136.653 104.496 134.258C110.349 134.027 115.944 131.791 120.339 127.924C125.907 123.091 129.057 116.215 128.969 109.074C128.929 104.926 127.914 101.04 125.986 97.6143C126.343 93.7376 126.66 82.4001 126.66 82.2965C126.66 72.8471 119.085 65.0298 109.769 64.8563H109.461ZM109.632 73.0024C114.639 73.0937 118.713 77.3023 118.713 82.3849C118.713 82.5006 118.271 96.0794 118.057 97.2549C117.932 97.9766 117.724 98.6816 117.438 99.3562C119.744 102.066 120.991 105.447 121.022 109.272C121.086 114.007 118.945 118.639 115.148 121.94C111.949 124.763 107.829 126.326 103.56 126.337C102.828 126.332 102.097 126.284 101.37 126.191C101.204 126.416 101.029 126.635 100.846 126.846C99.9928 127.84 98.9336 128.638 97.7416 129.184C96.5495 129.73 95.253 130.01 93.9416 130.007C89.1447 130.007 85.1071 126.185 84.7533 121.31L84.7289 120.938C84.6023 118.237 84.6074 115.532 84.7442 112.831C84.8631 110.764 84.9272 107.256 84.9333 106.497C84.9653 104.223 85.8124 102.035 87.3211 100.331C86.5983 97.7878 86.3696 94.7395 86.8118 91.1339L86.885 90.4883C87.1381 88.3719 87.5193 85.2505 89.0807 82.2661C91.4136 77.7804 95.6921 75.2071 100.815 75.2071C101.658 75.2022 102.499 75.2735 103.328 75.4203C104.993 73.8977 107.201 72.9536 109.632 73.0024Z" fill="#F9A83A"/>
<g clip-path="url(#clip0_1883_149)">
<path d="M91.8396 167.9V172.803H86.0479V166.22H91.8396V167.9Z" fill="#DDB200"/>
<path d="M117.248 167.9V172.803H111.457V166.22H117.248V167.9Z" fill="#DDB200"/>
<path d="M116.286 167.9H86.9819V145.449C86.9819 144.935 87.4029 144.514 87.9175 144.514H115.35C115.865 144.514 116.286 144.935 116.286 145.449L116.286 167.9Z" fill="#FFE477"/>
<path d="M86.982 152.408H78.104L80.3435 162.606L78.104 172.803H91.8395L86.982 167.9V152.408Z" fill="#FFEB99"/>
<path d="M116.314 152.408H125.192L122.952 162.606L125.192 172.803H111.456L116.285 167.9L116.314 152.408Z" fill="#FFEB99"/>
<path d="M98.7772 157.093L96.333 154.548L99.8241 154.03L101.49 150.919L103.061 154.079L106.535 154.702L104.014 157.173L104.495 160.669L101.367 159.035L98.1904 160.573L98.7772 157.093Z" fill="#DDB200"/>
<g opacity="0.33">
<path d="M78.948 168.896L78.0898 172.804H86.0336H91.8254V168.896H86.0336H78.948Z" fill="#DDB200"/>
<path d="M116.285 163.992H86.9814V167.899H116.285V163.992Z" fill="#DDB200"/>
<path d="M117.234 168.896H111.442V172.804H117.234H125.177L124.319 168.896H117.234Z" fill="#DDB200"/>
</g>
</g>
<defs>
<clipPath id="clip0_1883_149">
<rect width="47.1018" height="47.1018" fill="white" transform="translate(78.0898 135.108)"/>
</clipPath>
</defs>
</svg>
