<svg width="600" height="800" viewBox="0 0 600 800" fill="none" xmlns="http://www.w3.org/2000/svg">
<path d="M405.91 108.232L325.04 11.8801C324.789 11.5992 324.475 11.4056 324.225 11.1248C322.978 9.7151 321.585 8.45538 320.115 7.29928C319.922 7.15204 319.775 6.98844 319.581 6.86846C313.991 2.60942 307.109 0 299.545 0C291.982 0 285.1 2.62578 279.51 6.86574C279.316 6.99934 279.169 7.14658 278.976 7.29655C277.509 8.46901 276.113 9.72873 274.866 11.1221C274.616 11.4029 274.288 11.5965 274.051 11.8773L193.181 108.232C181.361 122.291 183.202 143.292 197.274 155.125C211.362 166.915 232.363 165.091 244.167 151.003L266.264 124.679V536.449C266.264 554.824 281.154 569.728 299.543 569.728C317.931 569.728 332.822 554.824 332.822 536.449V124.696L354.919 151.019C361.49 158.864 370.935 162.913 380.426 162.913C387.96 162.913 395.568 160.36 401.798 155.142C415.892 143.308 417.73 122.307 405.91 108.232Z" fill="#0050FF"/>
<path d="M534.358 800H64.7364C29.0389 800 0 770.961 0 735.279V265.645C0 229.964 29.0389 200.925 64.7364 200.925H185.383C203.772 200.925 218.662 215.828 218.662 234.203C218.662 252.578 203.772 267.499 185.383 267.499H66.5606V733.442H532.52V267.482H416.383C397.995 267.482 383.104 252.578 383.104 234.187C383.104 215.812 397.995 200.908 416.383 200.908H534.344C570.041 200.908 599.08 229.947 599.08 265.628V735.266C599.094 770.963 570.055 800 534.358 800Z" fill="#0050FF"/>
</svg>
