<svg width="75" height="74" viewBox="0 0 75 74" fill="none" xmlns="http://www.w3.org/2000/svg">
<g clip-path="url(#clip0_105_363)">
<path d="M15.053 14.3887H10.9419V18.4998H15.053V14.3887Z" fill="#36D7D4"/>
<path d="M23.2752 14.3887H19.1641V18.4998H23.2752V14.3887Z" fill="#36D7D4"/>
<path d="M31.4973 14.3887H27.3862V18.4998H31.4973V14.3887Z" fill="#36D7D4"/>
<path d="M66.4421 8.22217H8.8865C7.79617 8.22217 6.75049 8.6553 5.97951 9.42628C5.20852 10.1973 4.77539 11.2429 4.77539 12.3333V61.6666C4.77539 62.7569 5.20852 63.8026 5.97951 64.5736C6.75049 65.3446 7.79617 65.7777 8.8865 65.7777H66.4421C67.5324 65.7777 68.5781 65.3446 69.3491 64.5736C70.12 63.8026 70.5532 62.7569 70.5532 61.6666V12.3333C70.5532 11.2429 70.12 10.1973 69.3491 9.42628C68.5781 8.6553 67.5324 8.22217 66.4421 8.22217ZM8.8865 12.3333H66.4421V20.9666H8.8865V12.3333ZM8.8865 61.6666V24.2555H66.4421V61.6666H8.8865Z" fill="#36D7D4"/>
</g>
<defs>
<clipPath id="clip0_105_363">
<rect width="74" height="74" fill="white" transform="translate(0.664062)"/>
</clipPath>
</defs>
</svg>
