<svg width="354" height="142" viewBox="0 0 354 142" fill="none" xmlns="http://www.w3.org/2000/svg">
<path d="M310.956 125.791C310.566 126.182 310.566 126.815 310.956 127.206L317.32 133.57C317.711 133.96 318.344 133.96 318.734 133.57C319.125 133.179 319.125 132.546 318.734 132.155L313.077 126.498L318.734 120.842C319.125 120.451 319.125 119.818 318.734 119.427C318.344 119.037 317.711 119.037 317.32 119.427L310.956 125.791ZM0.663467 2.99906C1.70941 2.99906 2.75246 2.99986 3.79261 3.00145L3.79567 1.00145C2.75449 0.999862 1.71043 0.999063 0.663469 0.999062L0.663467 2.99906ZM9.99886 3.02048C12.0561 3.02997 14.1018 3.04261 16.136 3.05835L16.1515 1.05841C14.1152 1.04265 12.0674 1.03001 10.0081 1.0205L9.99886 3.02048ZM22.2044 3.11485C24.2158 3.13677 26.2158 3.16177 28.2044 3.18981L28.2326 1.19001C26.2418 1.16194 24.2397 1.13692 22.2262 1.11497L22.2044 3.11485ZM34.1363 3.28302C36.1493 3.31792 38.1504 3.35598 40.1397 3.39716L40.1811 1.39759C38.1895 1.35636 36.1862 1.31826 34.171 1.28332L34.1363 3.28302ZM46.3572 3.53692C48.4167 3.58691 50.4634 3.64029 52.4973 3.69702L52.5531 1.69779C50.5168 1.641 48.4677 1.58756 46.4057 1.53751L46.3572 3.53692ZM58.5607 3.87721C60.569 3.9406 62.5646 4.00729 64.5475 4.07726L64.6181 2.0785C62.6326 2.00845 60.6346 1.94167 58.6238 1.87821L58.5607 3.87721ZM70.4584 4.29692C72.5015 4.37672 74.5308 4.46004 76.5465 4.54683L76.6325 2.54868C74.6142 2.46178 72.5822 2.37835 70.5364 2.29845L70.4584 4.29692ZM82.7381 4.82631C84.7875 4.92313 86.8224 5.02359 88.8431 5.12764L88.9459 3.13029C86.9224 3.02609 84.8846 2.92549 82.8324 2.82854L82.7381 4.82631ZM94.862 5.45052C96.8541 5.5617 98.8318 5.67643 100.795 5.79464L100.916 3.79826C98.9491 3.67987 96.9684 3.56497 94.9735 3.45363L94.862 5.45052ZM106.748 6.16648C108.836 6.30165 110.907 6.44082 112.962 6.58393L113.101 4.58877C111.043 4.44542 108.968 4.30603 106.878 4.17066L106.748 6.16648ZM119.078 7.02505C121.101 7.17598 123.107 7.3308 125.098 7.48944L125.257 5.49576C123.263 5.33686 121.253 5.18178 119.227 5.03059L119.078 7.02505ZM131.02 7.97673C133.022 8.14668 135.008 8.32054 136.977 8.49826L137.157 6.50636C135.184 6.32831 133.195 6.15414 131.189 5.9839L131.02 7.97673ZM143.173 9.07542C145.219 9.27208 147.248 9.47297 149.258 9.67803L149.461 7.68836C147.447 7.4829 145.415 7.28161 143.364 7.08459L143.173 9.07542ZM155.233 10.3056C157.207 10.5189 159.162 10.7363 161.1 10.9577L161.327 8.97062C159.385 8.74876 157.426 8.53093 155.448 8.31719L155.233 10.3056ZM167.197 11.6747C169.258 11.9241 171.299 12.1781 173.319 12.4367L173.573 10.4529C171.548 10.1937 169.503 9.93912 167.437 9.68916L167.197 11.6747ZM179.315 13.2258C181.293 13.4932 183.251 13.7651 185.187 14.0413L185.47 12.0614C183.528 11.7845 181.566 11.5119 179.583 11.2438L179.315 13.2258ZM191.178 14.9191C193.241 15.2295 195.279 15.545 197.294 15.8653L197.608 13.8901C195.588 13.5689 193.544 13.2526 191.476 12.9413L191.178 14.9191ZM203.267 16.8406C205.234 17.1705 207.177 17.5051 209.097 17.8443L209.445 15.8748C207.519 15.5346 205.57 15.199 203.597 14.8682L203.267 16.8406ZM215.101 18.9342C217.145 19.3153 219.162 19.7018 221.151 20.0933L221.537 18.131C219.542 17.7381 217.519 17.3504 215.468 16.968L215.101 18.9342ZM227.036 21.2834C228.981 21.6874 230.899 22.0965 232.79 22.5104L233.218 20.5567C231.32 20.1412 229.395 19.7307 227.442 19.3252L227.036 21.2834ZM238.88 23.8818C240.878 24.3446 242.844 24.8129 244.778 25.2865L245.254 23.3439C243.311 22.8683 241.337 22.398 239.331 21.9334L238.88 23.8818ZM250.486 26.7231C252.515 27.2477 254.507 27.7784 256.463 28.3147L256.992 26.3859C255.026 25.847 253.025 25.3138 250.987 24.7868L250.486 26.7231ZM262.312 29.9667C264.225 30.523 266.101 31.0848 267.941 31.652L268.53 29.7407C266.68 29.1704 264.794 28.6055 262.871 28.0462L262.312 29.9667ZM273.853 33.5331C275.8 34.1725 277.703 34.818 279.564 35.469L280.224 33.5813C278.352 32.9259 276.436 32.2763 274.477 31.6329L273.853 33.5331ZM285.159 37.4917C287.128 38.227 289.044 38.9686 290.909 39.716L291.653 37.8595C289.773 37.1061 287.842 36.3588 285.859 35.6182L285.159 37.4917ZM296.352 41.9751C298.289 42.808 300.165 43.6472 301.982 44.492L302.826 42.6784C300.99 41.8252 299.096 40.9781 297.142 40.1377L296.352 41.9751ZM307.335 47.0814C309.205 48.0236 311.005 48.9715 312.736 49.9241L313.7 48.1719C311.947 47.2071 310.126 46.248 308.234 45.2953L307.335 47.0814ZM317.877 52.8867C319.68 53.9762 321.397 55.0703 323.03 56.1675L324.145 54.5073C322.484 53.3915 320.74 52.2803 318.911 51.1749L317.877 52.8867ZM327.834 59.5822C329.519 60.8513 331.096 62.1223 332.569 63.393L333.875 61.8785C332.367 60.5777 330.756 59.2791 329.038 57.9848L327.834 59.5822ZM336.961 67.4812C338.416 68.9507 339.738 70.4162 340.932 71.8739L342.479 70.6064C341.243 69.0974 339.879 67.5854 338.381 66.0737L336.961 67.4812ZM344.41 76.6383C345.533 78.3875 346.477 80.1193 347.255 81.8273L349.075 80.9989C348.256 79.1989 347.265 77.3832 346.093 75.5578L344.41 76.6383ZM349.23 87.3698C349.74 89.3494 350.029 91.2874 350.117 93.1741L352.115 93.0811C352.02 91.0537 351.71 88.9797 351.167 86.8708L349.23 87.3698ZM349.739 98.9993C349.392 100.932 348.828 102.798 348.07 104.582L349.91 105.364C350.726 103.446 351.333 101.437 351.708 99.3528L349.739 98.9993ZM345.225 109.691C344.114 111.278 342.836 112.774 341.409 114.167L342.806 115.598C344.317 114.122 345.678 112.531 346.864 110.838L345.225 109.691ZM336.861 117.914C335.268 119.022 333.565 120.025 331.768 120.913L332.653 122.706C334.537 121.776 336.327 120.722 338.003 119.555L336.861 117.914ZM326.285 123.16C324.432 123.776 322.513 124.278 320.542 124.657L320.92 126.621C322.975 126.226 324.979 125.702 326.916 125.058L326.285 123.16ZM314.651 125.404C313.663 125.467 312.666 125.498 311.663 125.498L311.663 127.498C312.708 127.498 313.747 127.465 314.777 127.4L314.651 125.404ZM310.249 125.084C309.468 125.865 309.468 127.132 310.249 127.913L322.977 140.641C323.758 141.422 325.024 141.422 325.805 140.641C326.586 139.86 326.586 138.593 325.805 137.812L314.492 126.498L325.805 115.185C326.587 114.404 326.587 113.137 325.805 112.356C325.024 111.575 323.758 111.575 322.977 112.356L310.249 125.084ZM0.663466 3.99906C1.7089 3.99906 2.75144 3.99986 3.79108 4.00145L3.7972 0.00145562C2.75551 -0.000138037 1.71094 -0.000936731 0.66347 -0.000937958L0.663466 3.99906ZM9.99425 4.02047C12.0504 4.02996 14.0951 4.04259 16.1283 4.05832L16.1592 0.0584359C14.1219 0.042671 12.073 0.0300206 10.0127 0.0205135L9.99425 4.02047ZM22.1935 4.11479C24.2039 4.1367 26.2028 4.16169 28.1903 4.18971L28.2467 0.190105C26.2549 0.162022 24.2517 0.136987 22.2371 0.115032L22.1935 4.11479ZM34.119 4.28287C36.1308 4.31775 38.1308 4.35579 40.119 4.39695L40.2018 0.397807C38.2091 0.356556 36.2046 0.318431 34.1883 0.283467L34.119 4.28287ZM46.3329 4.53663C48.3913 4.58659 50.4368 4.63993 52.4695 4.69663L52.581 0.698182C50.5434 0.641355 48.4931 0.587881 46.43 0.537806L46.3329 4.53663ZM58.5291 4.87671C60.5362 4.94006 62.5306 5.00671 64.5123 5.07663L64.6533 1.07912C62.6666 1.00903 60.6673 0.942205 58.6553 0.878702L58.5291 4.87671ZM70.4194 5.29616C72.4611 5.37591 74.4891 5.45917 76.5035 5.5459L76.6755 1.54961C74.6558 1.46265 72.6225 1.37916 70.5755 1.29921L70.4194 5.29616ZM82.6909 5.8252C84.7389 5.92195 86.7724 6.02234 88.7916 6.12632L88.9973 2.13161C86.9724 2.02734 84.9332 1.92667 82.8796 1.82966L82.6909 5.8252ZM94.8063 6.44897C96.7969 6.56007 98.7732 6.67471 100.735 6.79284L100.976 2.80007C99.0077 2.68159 97.0256 2.56661 95.0292 2.45518L94.8063 6.44897ZM106.684 7.16439C108.77 7.29945 110.839 7.43852 112.893 7.58152L113.171 3.59118C111.111 3.44773 109.035 3.30823 106.942 3.17275L106.684 7.16439ZM119.004 8.02227C121.025 8.17309 123.03 8.32778 125.018 8.48628L125.336 4.49892C123.341 4.33988 121.329 4.18468 119.302 4.03337L119.004 8.02227ZM130.936 8.97315C132.936 9.14294 134.92 9.31665 136.887 9.49421L137.247 5.51041C135.272 5.3322 133.281 5.15787 131.274 4.98748L130.936 8.97315ZM143.077 10.0708C145.122 10.2673 147.148 10.468 149.156 10.6729L149.562 6.69352C147.546 6.48786 145.512 6.28638 143.46 6.08917L143.077 10.0708ZM155.126 11.2998C157.097 11.5129 159.051 11.7301 160.986 11.9512L161.44 7.97708C159.497 7.75499 157.535 7.53693 155.556 7.32298L155.126 11.2998ZM167.077 12.6674C169.136 12.9166 171.174 13.1703 173.192 13.4286L173.7 9.46096C171.673 9.20153 169.625 8.94664 167.557 8.6964L167.077 12.6674ZM179.181 14.2167C181.157 14.4839 183.112 14.7555 185.046 15.0313L185.611 11.0714C183.667 10.7941 181.702 10.5213 179.717 10.2528L179.181 14.2167ZM191.029 15.9079C193.089 16.218 195.125 16.533 197.137 16.8529L197.765 12.9025C195.742 12.5809 193.695 12.2642 191.624 11.9525L191.029 15.9079ZM203.101 17.8269C205.065 18.1563 207.006 18.4904 208.923 18.8291L209.619 14.8901C207.69 14.5493 205.738 14.2132 203.763 13.8819L203.101 17.8269ZM214.918 19.9172C216.959 20.2978 218.972 20.6836 220.958 21.0745L221.73 17.1499C219.731 16.7563 217.705 16.3679 215.651 15.985L214.918 19.9172ZM226.832 22.2625C228.774 22.6658 230.689 23.0742 232.576 23.4873L233.432 19.5798C231.53 19.1636 229.602 18.7523 227.646 18.3461L226.832 22.2625ZM238.654 24.856C240.648 25.3179 242.61 25.7852 244.54 26.2578L245.491 22.3726C243.545 21.8959 241.567 21.4247 239.557 20.9592L238.654 24.856ZM250.236 27.6912C252.26 28.2147 254.247 28.7441 256.198 29.2791L257.256 25.4215C255.286 24.8813 253.28 24.3469 251.238 23.8186L250.236 27.6912ZM262.033 30.9269C263.941 31.4817 265.812 32.0421 267.646 32.6076L268.825 28.7851C266.969 28.2132 265.078 27.6467 263.15 27.086L262.033 30.9269ZM273.541 34.4831C275.482 35.1206 277.379 35.764 279.233 36.4129L280.555 32.6374C278.676 31.9798 276.754 31.3282 274.789 30.6828L273.541 34.4831ZM284.809 38.4285C286.771 39.1611 288.68 39.8999 290.537 40.6443L292.025 36.9313C290.137 36.1748 288.199 35.4247 286.209 34.6814L284.809 38.4285ZM295.957 42.8937C297.885 43.723 299.753 44.5582 301.561 45.3988L303.247 41.7716C301.403 40.9142 299.5 40.0631 297.537 39.2191L295.957 42.8937ZM306.885 47.9745C308.745 48.9114 310.534 49.8537 312.254 50.8002L314.182 47.2958C312.418 46.325 310.586 45.3601 308.684 44.4022L306.885 47.9745ZM317.36 53.7426C319.149 54.8242 320.853 55.9096 322.472 56.9975L324.703 53.6772C323.028 52.5521 321.271 51.4323 319.428 50.319L317.36 53.7426ZM327.233 60.3809C328.901 61.6374 330.46 62.8946 331.916 64.1502L334.529 61.1212C333.003 59.8053 331.374 58.493 329.64 57.1861L327.233 60.3809ZM336.25 68.1849C337.685 69.6334 338.986 71.0755 340.159 72.5076L343.253 69.9727C341.996 68.4381 340.61 66.9028 339.092 65.3699L336.25 68.1849ZM343.569 77.1785C344.667 78.8897 345.588 80.5794 346.345 82.2415L349.985 80.5847C349.145 78.7388 348.131 76.881 346.935 75.0176L343.569 77.1785ZM348.262 87.6193C348.755 89.5343 349.033 91.4043 349.118 93.2205L353.114 93.0346C353.016 90.9368 352.695 88.7948 352.135 86.6214L348.262 87.6193ZM348.755 98.8225C348.421 100.68 347.88 102.473 347.149 104.191L350.831 105.755C351.675 103.77 352.304 101.69 352.692 99.5295L348.755 98.8225ZM344.406 109.117C343.333 110.651 342.095 112.1 340.711 113.451L343.505 116.313C345.058 114.797 346.46 113.158 347.683 111.411L344.406 109.117ZM336.289 117.093C334.739 118.171 333.079 119.15 331.325 120.016L333.096 123.602C335.023 122.651 336.856 121.572 338.574 120.376L336.289 117.093ZM325.97 122.211C324.158 122.813 322.281 123.304 320.354 123.675L321.109 127.603C323.207 127.199 325.253 126.664 327.231 126.007L325.97 122.211ZM314.588 124.406C313.621 124.467 312.645 124.498 311.663 124.498L311.663 128.498C312.729 128.498 313.789 128.465 314.84 128.398L314.588 124.406Z" fill="black"/>
</svg>
