<svg width="272" height="208" viewBox="0 0 272 208" fill="none" xmlns="http://www.w3.org/2000/svg">
<path d="M270.155 189.129C270.637 189.4 270.807 190.01 270.536 190.491L266.117 198.332C265.846 198.813 265.236 198.983 264.755 198.712C264.274 198.441 264.103 197.831 264.375 197.35L268.302 190.38L261.333 186.453C260.852 186.181 260.682 185.572 260.953 185.09C261.224 184.609 261.834 184.439 262.315 184.71L270.155 189.129ZM269.933 190.963C268.941 191.24 267.951 191.513 266.963 191.781L266.44 189.851C267.422 189.584 268.408 189.313 269.396 189.037L269.933 190.963ZM261.072 193.335C259.119 193.835 257.176 194.317 255.245 194.782L254.777 192.838C256.699 192.375 258.632 191.895 260.576 191.397L261.072 193.335ZM249.482 196.124C247.543 196.56 245.616 196.978 243.699 197.379L243.29 195.421C245.196 195.023 247.114 194.607 249.043 194.173L249.482 196.124ZM237.705 198.582C235.72 198.963 233.746 199.326 231.785 199.67L231.44 197.7C233.39 197.358 235.353 196.997 237.328 196.618L237.705 198.582ZM225.938 200.645C223.974 200.956 222.023 201.247 220.084 201.52L219.805 199.54C221.732 199.269 223.673 198.979 225.626 198.67L225.938 200.645ZM214.027 202.317C212.021 202.562 210.03 202.787 208.053 202.992L207.847 201.003C209.812 200.799 211.791 200.576 213.784 200.332L214.027 202.317ZM202.162 203.548C200.158 203.718 198.169 203.867 196.194 203.996L196.064 202C198.025 201.872 200.002 201.724 201.993 201.555L202.162 203.548ZM190.122 204.33C188.114 204.421 186.121 204.489 184.144 204.537L184.096 202.538C186.059 202.49 188.038 202.422 190.033 202.332L190.122 204.33ZM178.261 204.619C176.211 204.626 174.179 204.61 172.164 204.572L172.202 202.572C174.202 202.61 176.219 202.626 178.254 202.619L178.261 204.619ZM166.138 204.39C164.147 204.307 162.173 204.202 160.217 204.076L160.346 202.08C162.287 202.205 164.245 202.309 166.221 202.392L166.138 204.39ZM154.223 203.617C152.194 203.436 150.185 203.233 148.195 203.006L148.421 201.019C150.394 201.244 152.387 201.446 154.4 201.624L154.223 203.617ZM142.286 202.258C140.296 201.981 138.327 201.68 136.378 201.357L136.706 199.384C138.637 199.704 140.589 200.002 142.562 200.277L142.286 202.258ZM130.403 200.282C128.433 199.9 126.486 199.494 124.56 199.065L124.995 197.113C126.902 197.538 128.832 197.94 130.784 198.318L130.403 200.282ZM118.744 197.685C116.766 197.185 114.813 196.662 112.884 196.114L113.43 194.19C115.34 194.732 117.274 195.251 119.233 195.745L118.744 197.685ZM107.172 194.401C105.246 193.792 103.345 193.159 101.471 192.503L102.132 190.615C103.987 191.265 105.868 191.891 107.775 192.494L107.172 194.401ZM95.7961 190.414C93.9317 189.694 92.0943 188.951 90.2842 188.185L91.0636 186.343C92.8542 187.101 94.6718 187.836 96.5166 188.549L95.7961 190.414ZM84.7457 185.732C82.911 184.883 81.1059 184.01 79.3308 183.114L80.2318 181.328C81.9869 182.214 83.7716 183.077 85.586 183.917L84.7457 185.732ZM74.0558 180.338C72.2662 179.356 70.509 178.351 68.7845 177.324L69.8081 175.606C71.5122 176.621 73.2486 177.614 75.0175 178.584L74.0558 180.338ZM63.7086 174.176C62.003 173.075 60.332 171.952 58.6954 170.807L59.8415 169.168C61.4577 170.299 63.1083 171.408 64.7932 172.495L63.7086 174.176ZM53.8285 167.266C52.2243 166.052 50.6564 164.817 49.1249 163.562L50.3922 162.015C51.904 163.253 53.4517 164.473 55.0356 165.672L53.8285 167.266ZM44.5168 159.633C43.0193 158.304 41.5601 156.956 40.1395 155.591L41.5256 154.149C42.927 155.496 44.3666 156.826 45.8444 158.138L44.5168 159.633ZM35.8462 151.289C34.455 149.836 33.1053 148.366 31.7973 146.88L33.2984 145.558C34.588 147.023 35.9188 148.473 37.2908 149.906L35.8462 151.289ZM27.8979 142.254C26.6307 140.682 25.4083 139.096 24.2308 137.497L25.8413 136.311C27.0014 137.886 28.2059 139.449 29.4548 140.998L27.8979 142.254ZM20.7626 132.557C19.6378 130.875 18.5613 129.181 17.533 127.478L19.2453 126.444C20.2575 128.121 21.3175 129.789 22.4251 131.446L20.7626 132.557ZM14.5409 122.242C13.5781 120.459 12.6672 118.668 11.8084 116.871L13.6128 116.009C14.4574 117.776 15.3534 119.538 16.3007 121.292L14.5409 122.242ZM9.34563 111.364C8.56618 109.493 7.84255 107.618 7.17489 105.742L9.05911 105.072C9.71486 106.914 10.4258 108.756 11.1918 110.594L9.34563 111.364ZM5.30512 99.9949C4.73242 98.0529 4.21981 96.1121 3.76739 94.1754L5.71496 93.7205C6.15858 95.6195 6.66143 97.5234 7.22345 99.4292L5.30512 99.9949ZM2.56608 88.2354C2.22596 86.2437 1.95043 84.2595 1.73968 82.2858L3.72837 82.0734C3.93463 84.0049 4.20437 85.9477 4.53754 87.8987L2.56608 88.2354ZM1.29469 76.2213C1.21467 74.1976 1.2047 72.1888 1.26502 70.1984L3.26411 70.259C3.20522 72.202 3.21492 74.1643 3.29314 76.1423L1.29469 76.2213ZM1.67209 64.1411C1.88433 62.1193 2.17245 60.1212 2.53671 58.1508L4.50337 58.5143C4.14879 60.4324 3.86808 62.3789 3.66117 64.3499L1.67209 64.1411ZM3.87842 52.2515C4.41192 50.287 5.0262 48.3561 5.72155 46.4631L7.5989 47.1527C6.92388 48.9903 6.3271 50.866 5.80851 52.7757L3.87842 52.2515ZM8.06309 40.877C8.93112 39.0446 9.88222 37.2557 10.9166 35.5149L12.636 36.5365C11.634 38.2228 10.7122 39.9565 9.87052 41.7332L8.06309 40.877ZM14.2589 30.4559C15.4534 28.8238 16.7304 27.244 18.0899 25.721L19.5819 27.0529C18.2656 28.5274 17.0294 30.0568 15.8728 31.6371L14.2589 30.4559ZM22.326 21.4102C23.7991 20.0476 25.3495 18.7426 26.977 17.4992L28.1912 19.0885C26.6132 20.294 25.1109 21.5586 23.6841 22.8784L22.326 21.4102ZM31.9585 14.0412C33.6378 12.9839 35.3857 11.9851 37.2024 11.0481L38.1192 12.8256C36.3526 13.7368 34.6543 14.7072 33.0241 15.7337L31.9585 14.0412ZM42.7359 8.47656C44.5467 7.7221 46.4165 7.02366 48.3454 6.38381L48.9751 8.28209C47.0925 8.90661 45.2692 9.58773 43.5051 10.3227L42.7359 8.47656ZM54.2253 4.6639C56.1107 4.18293 58.0462 3.75392 60.0317 3.37886L60.403 5.34411C58.4578 5.71153 56.5634 6.13149 54.7197 6.60183L54.2253 4.6639ZM66.0725 2.42601C68.0025 2.17945 69.9754 1.98083 71.9914 1.83174L72.1389 3.82629C70.1575 3.97283 68.2199 4.16793 66.326 4.40988L66.0725 2.42601ZM78.0447 1.53751C79.0744 1.51277 80.1145 1.5003 81.1649 1.5003L81.1649 3.5003C80.1303 3.5003 79.1063 3.51258 78.0928 3.53693L78.0447 1.53751ZM270.646 188.258C271.609 188.8 271.949 190.02 271.407 190.982L262.569 206.663C262.027 207.625 260.807 207.966 259.845 207.424C258.883 206.881 258.542 205.662 259.085 204.699L266.94 190.761L253.001 182.905C252.039 182.363 251.699 181.143 252.241 180.181C252.783 179.218 254.003 178.878 254.965 179.42L270.646 188.258ZM270.202 191.927C269.207 192.204 268.215 192.477 267.225 192.746L266.178 188.886C267.158 188.62 268.141 188.349 269.127 188.074L270.202 191.927ZM261.32 194.304C259.362 194.805 257.415 195.289 255.479 195.754L254.543 191.865C256.46 191.404 258.389 190.925 260.328 190.429L261.32 194.304ZM249.701 197.099C247.758 197.537 245.825 197.956 243.904 198.358L243.085 194.442C244.987 194.045 246.899 193.63 248.823 193.197L249.701 197.099ZM237.894 199.564C235.903 199.947 233.925 200.31 231.958 200.655L231.267 196.715C233.212 196.374 235.169 196.014 237.139 195.636L237.894 199.564ZM226.094 201.633C224.125 201.944 222.168 202.237 220.223 202.511L219.665 198.55C221.587 198.279 223.522 197.99 225.469 197.682L226.094 201.633ZM214.148 203.31C212.137 203.556 210.139 203.781 208.156 203.987L207.743 200.008C209.702 199.805 211.676 199.582 213.663 199.339L214.148 203.31ZM202.246 204.544C200.236 204.714 198.24 204.864 196.259 204.994L195.998 201.002C197.954 200.874 199.923 200.727 201.908 200.558L202.246 204.544ZM190.167 205.329C188.152 205.42 186.153 205.489 184.169 205.537L184.072 201.538C186.028 201.491 188 201.423 189.988 201.333L190.167 205.329ZM178.264 205.619C176.207 205.626 174.167 205.61 172.145 205.572L172.221 201.572C174.213 201.61 176.223 201.626 178.251 201.619L178.264 205.619ZM166.096 205.389C164.097 205.306 162.116 205.201 160.153 205.074L160.411 201.082C162.344 201.207 164.294 201.311 166.262 201.393L166.096 205.389ZM154.135 204.613C152.097 204.432 150.08 204.227 148.082 204L148.534 200.025C150.499 200.249 152.484 200.45 154.488 200.628L154.135 204.613ZM142.147 203.249C140.149 202.97 138.171 202.668 136.214 202.343L136.869 198.397C138.792 198.716 140.736 199.013 142.7 199.287L142.147 203.249ZM130.213 201.263C128.234 200.879 126.278 200.472 124.343 200.041L125.212 196.137C127.111 196.56 129.031 196.96 130.974 197.337L130.213 201.263ZM118.499 198.654C116.512 198.153 114.549 197.626 112.611 197.076L113.703 193.228C115.604 193.768 117.528 194.284 119.478 194.776L118.499 198.654ZM106.87 195.355C104.934 194.743 103.024 194.106 101.14 193.446L102.462 189.671C104.308 190.318 106.179 190.941 108.076 191.541L106.87 195.355ZM95.4359 191.347C93.5616 190.624 91.7144 189.876 89.8944 189.106L91.4534 185.422C93.2341 186.176 95.0419 186.907 96.8768 187.616L95.4359 191.347ZM84.3256 186.64C82.4806 185.786 80.6655 184.908 78.8802 184.007L80.6824 180.436C82.4273 181.316 84.2019 182.175 86.0061 183.01L84.3256 186.64ZM73.575 181.215C71.7749 180.228 70.0075 179.217 68.2727 178.183L70.3199 174.747C72.0137 175.756 73.7399 176.743 75.4984 177.707L73.575 181.215ZM63.1663 175.016C61.4504 173.909 59.769 172.778 58.1223 171.627L60.4145 168.349C62.0206 169.472 63.661 170.574 65.3355 171.655L63.1663 175.016ZM53.2249 168.064C51.6106 166.842 50.0327 165.599 48.4912 164.336L51.0259 161.242C52.5277 162.472 54.0655 163.683 55.6391 164.874L53.2249 168.064ZM43.8531 160.381C42.3456 159.044 40.8767 157.686 39.4465 156.311L42.2186 153.428C43.6104 154.766 45.0403 156.087 46.5082 157.39L43.8531 160.381ZM35.1239 151.981C33.7231 150.518 32.364 149.037 31.0467 147.541L34.049 144.898C35.3294 146.352 36.6508 147.791 38.0132 149.214L35.1239 151.981ZM27.1195 142.881C25.8431 141.299 24.6118 139.701 23.4255 138.09L26.6465 135.718C27.7979 137.282 28.9935 138.833 30.2332 140.37L27.1195 142.881ZM19.9314 133.113C18.798 131.418 17.7132 129.711 16.6769 127.994L20.1015 125.928C21.1056 127.591 22.1573 129.246 23.2564 130.89L19.9314 133.113ZM13.661 122.717C12.6905 120.92 11.7721 119.115 10.9061 117.303L14.5151 115.578C15.3525 117.33 16.2411 119.077 17.1805 120.817L13.661 122.717ZM8.42254 111.748C7.63638 109.861 6.9064 107.97 6.23276 106.078L10.0012 104.736C10.651 106.562 11.3555 108.387 12.1149 110.21L8.42254 111.748ZM4.34597 100.278C3.76795 98.3177 3.25041 96.3584 2.7936 94.4029L6.68874 93.493C7.12796 95.3732 7.6259 97.2586 8.18263 99.1464L4.34597 100.278ZM1.58037 88.4038C1.23676 86.3918 0.95835 84.3868 0.74534 82.392L4.72274 81.9673C4.92671 83.8775 5.19354 85.7996 5.52328 87.7304L1.58037 88.4038ZM0.295488 76.2608C0.214554 74.2143 0.204442 72.1822 0.265461 70.1681L4.26364 70.2893C4.20548 72.2086 4.21504 74.1476 4.29237 76.1027L0.295488 76.2608ZM0.677565 64.0367C0.892466 61.9895 1.18429 59.9655 1.55336 57.969L5.48672 58.6961C5.13696 60.5881 4.85994 62.5087 4.6557 64.4543L0.677565 64.0367ZM2.91337 51.9894C3.45432 49.9975 4.07736 48.0389 4.78286 46.1183L8.53756 47.4976C7.87272 49.3074 7.28471 51.1555 6.77356 53.0378L2.91337 51.9894ZM7.15934 40.4489C8.04059 38.5886 9.00635 36.7721 10.0569 35.004L13.4957 37.0473C12.5098 38.7064 11.6027 40.4125 10.7743 42.1613L7.15934 40.4489ZM13.4519 29.8653C14.6654 28.2072 15.9627 26.6023 17.3439 25.0551L20.3279 27.7188C19.0333 29.1691 17.8173 30.6734 16.6798 32.2277L13.4519 29.8653ZM21.647 20.6761C23.1432 19.2921 24.7175 17.9669 26.37 16.7046L28.7983 19.8831C27.2451 21.0697 25.7668 22.3141 24.3631 23.6125L21.647 20.6761ZM31.4257 13.1949C33.1295 12.1222 34.9023 11.1093 36.744 10.1594L38.5776 13.7143C36.8361 14.6126 35.1626 15.5689 33.5568 16.5799L31.4257 13.1949ZM42.3513 7.55348C44.1855 6.78929 46.0786 6.08219 48.0305 5.43467L49.2899 9.23123C47.4304 9.84808 45.6304 10.5205 43.8896 11.2458L42.3513 7.55348ZM53.9782 3.69493C55.8843 3.20865 57.8404 2.77511 59.8461 2.39624L60.5886 6.32673C58.6636 6.69034 56.7898 7.10577 54.9669 7.5708L53.9782 3.69493ZM65.9458 1.43407C67.8938 1.18521 69.8844 0.984833 71.9176 0.834461L72.2126 4.82356C70.2486 4.96882 68.3287 5.16217 66.4527 5.40182L65.9458 1.43407ZM78.0207 0.537796C79.0585 0.512859 80.1066 0.500301 81.1649 0.500303L81.1649 4.5003C80.1382 4.5003 79.1222 4.51248 78.1168 4.53664L78.0207 0.537796Z" fill="black"/>
</svg>
