<svg width="185" height="204" viewBox="0 0 185 204" fill="none" xmlns="http://www.w3.org/2000/svg">
<path d="M1.63071 185.154C1.16342 185.448 1.02325 186.065 1.31763 186.533L6.11485 194.148C6.40923 194.615 7.02668 194.755 7.49397 194.461C7.96126 194.166 8.10143 193.549 7.80705 193.082L3.54285 186.313L10.3117 182.049C10.7789 181.754 10.9191 181.137 10.6247 180.669C10.3304 180.202 9.7129 180.062 9.24561 180.356L1.63071 185.154ZM1.94235 186.975C2.95659 187.205 3.96788 187.427 4.9762 187.641L5.39093 185.684C4.392 185.473 3.39005 185.253 2.38511 185.025L1.94235 186.975ZM10.9901 188.825C12.9827 189.188 14.963 189.518 16.9309 189.817L17.2312 187.84C15.2826 187.544 13.3215 187.217 11.3481 186.858L10.9901 188.825ZM23.0198 190.646C25.0536 190.892 27.0734 191.103 29.0788 191.282L29.256 189.289C27.2714 189.113 25.2724 188.904 23.2593 188.661L23.0198 190.646ZM35.1139 191.722C37.1777 191.84 39.2255 191.922 41.257 191.97L41.3043 189.97C39.295 189.923 37.2693 189.841 35.2275 189.725L35.1139 191.722ZM47.302 192.012C49.3643 191.992 51.4087 191.936 53.435 191.846L53.3459 189.848C51.3429 189.937 49.3216 189.992 47.2824 190.012L47.302 192.012ZM59.5127 191.468C61.5513 191.305 63.5703 191.106 65.5694 190.874L65.3383 188.887C63.3631 189.117 61.368 189.313 59.3533 189.474L59.5127 191.468ZM71.6369 190.054C73.6476 189.745 75.6368 189.4 77.604 189.022L77.2262 187.058C75.2834 187.431 73.3187 187.772 71.3325 188.078L71.6369 190.054ZM83.6158 187.745C85.596 187.284 87.5523 186.789 89.4842 186.26L88.9562 184.331C87.0491 184.853 85.1178 185.342 83.1626 185.797L83.6158 187.745ZM95.3803 184.519C97.3235 183.903 99.2401 183.253 101.129 182.569L100.449 180.688C98.5849 181.363 96.6936 182.005 94.7758 182.613L95.3803 184.519ZM106.853 180.365C108.743 179.593 110.603 178.786 112.433 177.948L111.6 176.13C109.795 176.956 107.96 177.752 106.096 178.514L106.853 180.365ZM117.948 175.28C119.768 174.351 121.555 173.39 123.309 172.399L122.325 170.658C120.596 171.635 118.834 172.583 117.039 173.498L117.948 175.28ZM128.576 169.269C130.308 168.187 132.005 167.074 133.666 165.932L132.533 164.284C130.897 165.409 129.224 166.506 127.516 167.572L128.576 169.269ZM138.639 162.346C140.267 161.115 141.856 159.855 143.404 158.569L142.126 157.03C140.601 158.297 139.036 159.538 137.432 160.751L138.639 162.346ZM148.034 154.536C149.54 153.16 151.003 151.758 152.422 150.332L151.005 148.921C149.608 150.324 148.168 151.705 146.685 153.06L148.034 154.536ZM156.649 145.869C158.019 144.349 159.341 142.805 160.615 141.24L159.063 139.978C157.812 141.516 156.511 143.035 155.163 144.53L156.649 145.869ZM164.359 136.387C165.571 134.728 166.729 133.049 167.833 131.353L166.157 130.262C165.073 131.928 163.935 133.577 162.744 135.207L164.359 136.387ZM171.022 126.143C172.049 124.354 173.016 122.55 173.923 120.732L172.134 119.839C171.244 121.622 170.295 123.392 169.287 125.147L171.022 126.143ZM176.482 115.195C177.29 113.295 178.033 111.384 178.708 109.465L176.822 108.801C176.161 110.679 175.434 112.55 174.641 114.412L176.482 115.195ZM180.551 103.62C181.102 101.642 181.581 99.6589 181.987 97.6746L180.027 97.274C179.631 99.2117 179.163 101.149 178.624 103.083L180.551 103.62ZM182.997 91.6026C183.259 89.5629 183.441 87.5255 183.542 85.494L181.545 85.3944C181.446 87.3732 181.268 89.359 181.013 91.3483L182.997 91.6026ZM183.6 79.3547C183.535 77.2981 183.384 75.2516 183.146 73.2193L181.159 73.4524C181.391 75.4273 181.538 77.4171 181.601 79.4179L183.6 79.3547ZM182.163 67.1541C181.746 65.1462 181.238 63.1568 180.64 61.19L178.726 61.7723C179.307 63.6808 179.8 65.6116 180.205 67.561L182.163 67.1541ZM178.584 55.4017C177.814 53.5125 176.953 51.6494 176.001 49.8162L174.226 50.7381C175.15 52.5167 175.985 54.3242 176.732 56.1567L178.584 55.4017ZM172.916 44.4844C171.826 42.7843 170.651 41.1156 169.389 39.4815L167.806 40.704C169.033 42.2921 170.174 43.913 171.232 45.5635L172.916 44.4844ZM165.409 34.761C164.05 33.2814 162.613 31.8361 161.096 30.4278L159.735 31.8936C161.214 33.2662 162.613 34.6738 163.935 36.1136L165.409 34.761ZM156.448 26.4323C154.87 25.1746 153.22 23.9523 151.497 22.7677L150.364 24.4158C152.049 25.5742 153.661 26.7685 155.202 27.9964L156.448 26.4323ZM146.379 19.4902C144.64 18.453 142.837 17.4507 140.969 16.4851L140.05 18.2618C141.883 19.2092 143.651 20.1919 145.355 21.2079L146.379 19.4902ZM135.531 13.8622C133.685 13.0326 131.783 12.2361 129.825 11.4742L129.1 13.3381C131.027 14.0879 132.897 14.8711 134.711 15.6864L135.531 13.8622ZM124.152 9.41915C122.246 8.77755 120.292 8.16656 118.288 7.58737L117.733 9.50872C119.709 10.0801 121.636 10.6824 123.514 11.3146L124.152 9.41915ZM112.409 6.01522C110.479 5.53948 108.507 5.09156 106.493 4.67237L106.086 6.63041C108.076 7.04475 110.024 7.48728 111.93 7.95707L112.409 6.01522ZM100.392 3.51383C98.4654 3.18195 96.5025 2.87504 94.5033 2.59383L94.2247 4.57433C96.204 4.85274 98.1465 5.15648 100.053 5.4848L100.392 3.51383ZM88.396 1.82794C87.3599 1.71338 86.3146 1.60542 85.2601 1.50414L85.0689 3.49498C86.114 3.59535 87.1497 3.70233 88.1762 3.81583L88.396 1.82794ZM1.09768 184.308C0.163106 184.896 -0.117232 186.131 0.47153 187.066L10.066 202.296C10.6547 203.23 11.8896 203.51 12.8242 202.922C13.7588 202.333 14.0391 201.098 13.4504 200.163L4.92198 186.626L18.4596 178.097C19.3942 177.509 19.6745 176.274 19.0857 175.339C18.497 174.405 17.2621 174.124 16.3275 174.713L1.09768 184.308ZM1.72097 187.95C2.73986 188.181 3.75582 188.404 4.76883 188.619L5.5983 184.706C4.60406 184.495 3.60677 184.276 2.60649 184.049L1.72097 187.95ZM10.8111 189.809C12.8132 190.173 14.8032 190.505 16.7808 190.806L17.3813 186.851C15.4424 186.557 13.4909 186.231 11.527 185.874L10.8111 189.809ZM22.9001 191.639C24.9442 191.886 26.9743 192.098 28.9902 192.278L29.3446 188.293C27.3705 188.118 25.3818 187.91 23.379 187.668L22.9001 191.639ZM35.057 192.72C37.1318 192.839 39.1907 192.921 41.2333 192.97L41.3279 188.971C39.3298 188.923 37.3151 188.842 35.2844 188.727L35.057 192.72ZM47.3118 193.012C49.3856 192.992 51.4417 192.936 53.4795 192.845L53.3014 188.849C51.31 188.938 49.3002 188.992 47.2726 189.012L47.3118 193.012ZM59.5925 192.465C61.643 192.301 63.674 192.101 65.685 191.867L65.2227 187.894C63.2595 188.122 61.2763 188.317 59.2735 188.477L59.5925 192.465ZM71.7891 191.043C73.8121 190.731 75.8135 190.384 77.7929 190.004L77.0372 186.076C75.1067 186.447 73.1543 186.785 71.1803 187.089L71.7891 191.043ZM83.8424 188.719C85.8351 188.255 87.8039 187.757 89.7482 187.225L88.6921 183.367C86.7975 183.885 84.8787 184.371 82.936 184.823L83.8424 188.719ZM95.6826 185.473C97.6385 184.852 99.5677 184.198 101.47 183.51L100.109 179.748C98.2573 180.418 96.3786 181.056 94.4735 181.66L95.6826 185.473ZM107.231 181.291C109.134 180.513 111.007 179.701 112.85 178.857L111.184 175.22C109.391 176.041 107.569 176.831 105.717 177.588L107.231 181.291ZM118.403 176.17C120.235 175.235 122.035 174.268 123.801 173.269L121.833 169.787C120.116 170.758 118.366 171.698 116.584 172.608L118.403 176.17ZM129.105 170.117C130.851 169.027 132.56 167.906 134.232 166.757L131.966 163.46C130.342 164.577 128.682 165.665 126.987 166.724L129.105 170.117ZM139.242 163.144C140.882 161.904 142.483 160.634 144.043 159.338L141.487 156.261C139.974 157.518 138.421 158.75 136.829 159.954L139.242 163.144ZM148.708 155.274C150.227 153.888 151.701 152.474 153.131 151.037L150.296 148.216C148.911 149.608 147.482 150.977 146.01 152.321L148.708 155.274ZM157.392 146.539C158.773 145.006 160.106 143.449 161.39 141.871L158.288 139.347C157.047 140.872 155.757 142.377 154.42 143.861L157.392 146.539ZM165.166 136.977C166.389 135.303 167.557 133.61 168.671 131.898L165.319 129.716C164.244 131.367 163.116 133.001 161.936 134.617L165.166 136.977ZM171.889 126.641C172.925 124.836 173.902 123.014 174.818 121.179L171.239 119.393C170.358 121.157 169.418 122.911 168.42 124.65L171.889 126.641ZM177.402 115.586C178.219 113.667 178.969 111.736 179.652 109.797L175.879 108.469C175.225 110.326 174.505 112.178 173.721 114.02L177.402 115.586ZM181.514 103.888C182.072 101.888 182.556 99.8824 182.967 97.8749L179.048 97.0737C178.656 98.9881 178.194 100.903 177.661 102.815L181.514 103.888ZM183.989 91.7298C184.254 89.6649 184.438 87.6017 184.541 85.5438L180.546 85.3445C180.449 87.297 180.273 89.2571 180.022 91.2212L183.989 91.7298ZM184.6 79.3231C184.534 77.2385 184.381 75.1637 184.139 73.1028L180.166 73.5689C180.394 75.5152 180.539 77.4766 180.602 79.4496L184.6 79.3231ZM183.142 66.9506C182.719 64.9135 182.204 62.8948 181.596 60.8988L177.77 62.0635C178.342 63.9428 178.827 65.8443 179.226 67.7645L183.142 66.9506ZM179.51 55.0241C178.728 53.1067 177.855 51.2158 176.889 49.3552L173.339 51.199C174.249 52.9504 175.071 54.73 175.806 56.5343L179.51 55.0241ZM173.758 43.9449C172.652 42.22 171.46 40.5273 170.18 38.8702L167.015 41.3153C168.223 42.8803 169.348 44.4773 170.39 46.103L173.758 43.9449ZM166.145 34.0847C164.769 32.5852 163.312 31.121 161.776 29.6948L159.055 32.6266C160.514 33.9813 161.895 35.37 163.199 36.7899L166.145 34.0847ZM157.071 25.6503C155.474 24.3776 153.805 23.1413 152.063 21.9437L149.797 25.2398C151.463 26.3852 153.056 27.5655 154.578 28.7784L157.071 25.6503ZM146.891 18.6314C145.134 17.5836 143.313 16.5714 141.428 15.5967L139.591 19.1501C141.406 20.0885 143.157 21.0614 144.842 22.0668L146.891 18.6314ZM135.941 12.9502C134.079 12.1133 132.161 11.3102 130.187 10.5422L128.737 14.2701C130.649 15.0138 132.503 15.7904 134.3 16.5985L135.941 12.9502ZM124.471 8.47143C122.552 7.8251 120.583 7.20981 118.566 6.62669L117.455 10.4694C119.418 11.0368 121.331 11.6349 123.195 12.2623L124.471 8.47143ZM112.648 5.04429C110.706 4.56557 108.723 4.11496 106.697 3.69335L105.882 7.60944C107.861 8.02134 109.797 8.46119 111.69 8.928L112.648 5.04429ZM100.562 2.52834C98.6248 2.19468 96.6518 1.88619 94.6425 1.60358L94.0854 5.56458C96.0547 5.84159 97.9871 6.14375 99.8829 6.47029L100.562 2.52834ZM88.5059 0.834001C87.465 0.718907 86.415 0.61045 85.3557 0.508718L84.9733 4.49039C86.0136 4.59031 87.0446 4.6968 88.0663 4.80977L88.5059 0.834001Z" fill="black"/>
</svg>
