<svg width="163" height="128" viewBox="0 0 163 128" fill="none" xmlns="http://www.w3.org/2000/svg">
<circle cx="63.7179" cy="63.9371" r="63.0133" fill="#0050FF"/>
<g clip-path="url(#clip0_1999_2)">
<path d="M145.305 20.6756L42.9153 34.4973C40.5186 34.8209 38.8388 37.0249 39.1623 39.4217L47.8303 103.632C48.1538 106.029 50.3579 107.709 52.7546 107.385L155.144 93.5635C157.541 93.2399 159.22 91.0359 158.897 88.6391L150.229 24.4285C149.905 22.0318 147.701 20.352 145.305 20.6756ZM113.296 39.1327L128.958 37.0186L130.129 45.6959L114.468 47.81C112.069 48.1338 109.857 46.457 109.533 44.0585C109.209 41.66 110.898 39.4565 113.296 39.1327ZM115.053 52.1487L121.169 51.3231L122.341 60.0004L116.225 60.826C113.826 61.1498 111.614 59.473 111.29 57.0745C110.966 54.676 112.655 52.4725 115.053 52.1487ZM116.693 64.2964L128.883 62.6508L130.055 71.3281L117.865 72.9737C115.466 73.2975 113.254 71.6207 112.93 69.2222C112.606 66.8236 114.295 64.6202 116.693 64.2964ZM79.6446 91.3647C68.1889 92.9111 57.6107 84.8485 56.0644 73.3936C54.5181 61.9388 62.631 51.3539 74.0867 49.8074C74.5654 49.7428 75.0577 50.0722 75.1223 50.5508L77.6888 69.5626L96.6274 67.006C97.106 66.9414 97.5491 67.2918 97.6138 67.7704C99.1602 79.2262 91.1003 89.8183 79.6446 91.3647ZM101.318 62.8383L81.4107 65.5256C80.9321 65.5902 80.6492 65.3098 80.5845 64.8303L77.897 44.922C77.8324 44.4434 78.0937 44.0123 78.5732 43.9476C90.0281 42.4012 100.564 50.4301 102.11 61.885C102.175 62.3654 101.797 62.7737 101.318 62.8383ZM120.414 84.9986L119.505 85.1214C117.106 85.4452 114.893 83.7684 114.57 81.3698C114.246 78.9713 115.935 76.7679 118.333 76.4441L119.243 76.3213L120.414 84.9986ZM141.177 82.1958L126.488 84.1787L125.316 75.5014L140.004 73.5186C142.403 73.1949 144.615 74.8717 144.939 77.2702C145.263 79.6687 143.574 81.8722 141.177 82.1958ZM139.537 70.0481L136.129 70.5082L134.958 61.8309L138.365 61.3708C140.764 61.0471 142.977 62.7239 143.3 65.1224C143.624 67.5209 141.934 69.7245 139.537 70.0481ZM137.897 57.9004L128.415 59.1804L127.243 50.5031L136.726 49.2231C139.124 48.8994 141.337 50.5762 141.66 52.9747C141.984 55.3732 140.295 57.5768 137.897 57.9004ZM136.211 44.936L135.037 36.2402C137.641 35.8949 139.639 37.6078 139.962 40.0028C140.286 42.3978 138.813 44.5793 136.211 44.936Z" fill="white"/>
</g>
<defs>
<clipPath id="clip0_1999_2">
<rect width="112.074" height="112.074" fill="white" transform="translate(36 15.9932) rotate(-7.68801)"/>
</clipPath>
</defs>
</svg>
