<svg width="153" height="127" viewBox="0 0 153 127" fill="none" xmlns="http://www.w3.org/2000/svg">
<circle cx="63.0797" cy="63.9352" r="63.0133" fill="#0050FF"/>
<g clip-path="url(#clip0_1999_3)">
<path d="M128.577 69.8456C130.887 69.9979 132.873 68.3919 133.014 66.2587C133.154 64.1254 131.396 62.2726 129.086 62.1204C126.776 61.9681 124.79 63.5741 124.649 65.7073C124.509 67.8406 126.267 69.6934 128.577 69.8456Z" fill="white"/>
<path d="M116.03 69.0185C118.34 69.1707 120.327 67.5648 120.467 65.4315C120.608 63.2982 118.849 61.4455 116.54 61.2932C114.23 61.141 112.243 62.7469 112.103 64.8802C111.962 67.0135 113.721 68.8662 116.03 69.0185Z" fill="white"/>
<path d="M127.049 93.0214C129.359 93.1736 131.346 91.5677 131.486 89.4344C131.627 87.3012 129.868 85.4484 127.559 85.2962C125.249 85.1439 123.262 86.7499 123.122 88.8831C122.981 91.0164 124.74 92.8692 127.049 93.0214Z" fill="white"/>
<path d="M114.503 92.1933C116.812 92.3455 118.799 90.7396 118.939 88.6063C119.08 86.473 117.322 84.6203 115.012 84.468C112.702 84.3158 110.716 85.9217 110.575 88.055C110.434 90.1883 112.193 92.041 114.503 92.1933Z" fill="white"/>
<path d="M143.924 28.1833L60.2803 22.6702C59.1711 22.5971 58.0806 22.9339 57.2485 23.6066C56.4165 24.2793 55.9111 25.2327 55.8436 26.2571L51.2609 95.7843C51.1934 96.8087 51.5693 97.8202 52.3058 98.5963C53.0424 99.3724 54.0793 99.8494 55.1885 99.9226L138.832 105.436C139.941 105.509 141.032 105.172 141.864 104.499C142.696 103.827 143.201 102.873 143.269 101.849L147.851 32.3215C147.919 31.2971 147.543 30.2856 146.807 29.5095C146.07 28.7334 145.033 28.2564 143.924 28.1833ZM62.4258 53.8468L137.705 58.8085L136.687 74.259L61.4074 69.2973L62.4258 53.8468ZM63.9533 30.6711L139.233 35.6328L138.214 51.0833L62.935 46.1215L63.9533 30.6711ZM135.159 97.4347L59.8799 92.473L60.8982 77.0225L136.177 81.9843L135.159 97.4347Z" fill="white"/>
<path d="M130.105 46.6698C132.414 46.8221 134.401 45.2161 134.541 43.0829C134.682 40.9496 132.924 39.0968 130.614 38.9446C128.304 38.7924 126.318 40.3983 126.177 42.5316C126.036 44.6648 127.795 46.5176 130.105 46.6698Z" fill="white"/>
<path d="M117.558 45.8427C119.868 45.9949 121.854 44.389 121.995 42.2557C122.135 40.1225 120.377 38.2697 118.067 38.1175C115.757 37.9652 113.771 39.5712 113.63 41.7044C113.49 43.8377 115.248 45.6904 117.558 45.8427Z" fill="white"/>
</g>
<defs>
<clipPath id="clip0_1999_3">
<rect width="100.59" height="92.904" fill="white" transform="translate(52.4248 14.3926) rotate(3.77099)"/>
</clipPath>
</defs>
</svg>
