<svg width="145" height="127" viewBox="0 0 145 127" fill="none" xmlns="http://www.w3.org/2000/svg">
<circle cx="63.7125" cy="63.9342" r="63.0133" fill="#0050FF"/>
<g clip-path="url(#clip0_1999_4)">
<path d="M94.2156 20.5676C71.8653 22.3323 55.1107 33.2919 56.0762 45.5211L59.5483 89.4964C60.5138 101.726 78.7808 109.92 101.131 108.155C123.481 106.391 140.236 95.4311 139.27 83.2019L135.798 39.2267C134.821 26.9983 116.566 18.8029 94.2156 20.5676ZM64.5875 66.6545C64.4488 64.8978 65.0808 63.0802 66.4635 61.2375C66.9079 60.655 67.1158 59.9657 67.1423 59.2908C74.7503 63.2062 85.6016 65.155 97.6608 64.2028C109.607 63.2597 119.953 59.6829 126.847 54.7022C127.027 55.2468 127.318 55.7485 127.762 56.1696C129.57 57.8401 130.554 59.61 130.699 61.4461C131.259 68.5411 118.305 77.5241 98.8226 79.0624C79.3398 80.6007 65.1477 73.7495 64.5875 66.6545ZM94.7525 27.3679C114.235 25.8296 128.438 32.6686 128.998 39.7636C129.558 46.8586 116.606 55.8529 97.123 57.3912C77.6401 58.9295 63.4376 52.0905 62.8765 44.9842C62.3154 37.8779 75.2696 28.9062 94.7525 27.3679ZM100.595 101.366C81.1122 102.905 66.9097 96.0658 66.3486 88.9595C66.2099 87.2027 66.8419 85.3851 68.2246 83.5425C68.802 82.767 69.0015 81.8275 68.8637 80.9488C76.4709 84.853 87.3221 86.8017 99.37 85.8505C111.271 84.9109 121.574 81.3603 128.47 76.4136C128.576 77.1694 128.919 77.9064 129.522 78.4633C131.33 80.1338 132.314 81.9036 132.459 83.7397C133.02 90.846 120.078 99.8282 100.595 101.366Z" fill="white"/>
</g>
<defs>
<clipPath id="clip0_1999_4">
<rect width="87.8718" height="87.8718" fill="white" transform="translate(50.416 24.0254) rotate(-4.51443)"/>
</clipPath>
</defs>
</svg>
