<svg width="75" height="74" viewBox="0 0 75 74" fill="none" xmlns="http://www.w3.org/2000/svg">
<g clip-path="url(#clip0_105_369)">
<path d="M69.6458 46.25L70.4321 41.625L58.4764 39.6594V30.0625C58.4764 29.8775 58.4764 29.7156 58.4764 29.5306L70.1777 26.3856L68.9983 21.9225L57.8289 24.9056C57.0684 22.0309 55.7007 19.3525 53.8179 17.0508C51.9351 14.7492 49.5809 12.8777 46.9139 11.5625V4.625H42.2889V9.78188C39.2464 9.07265 36.0815 9.07265 33.0389 9.78188V4.625H28.4139V11.5625C25.7388 12.8927 23.3815 14.7832 21.5021 17.1055C19.6226 19.4278 18.2652 22.1276 17.5221 25.0212L6.3527 21.9225L5.28895 26.3856L16.8514 29.5306C16.8514 29.7156 16.8514 29.8775 16.8514 30.0625V39.6594L4.91895 41.625L5.65895 46.25L16.8514 44.3538C16.9043 47.2073 17.55 50.0187 18.7477 52.6094L8.27207 63.1081L11.5558 66.3919L21.2452 56.6794C23.1913 59.1776 25.6817 61.1987 28.527 62.589C31.3722 63.9792 34.4972 64.7018 37.6639 64.7018C40.8307 64.7018 43.9556 63.9792 46.8009 62.589C49.6461 61.1987 52.1366 59.1776 54.0827 56.6794L63.7721 66.3919L67.0558 63.1081L56.5571 52.6094C57.7627 50.0205 58.4164 47.209 58.4764 44.3538L69.6458 46.25ZM35.3514 59.94C31.5021 59.3844 27.9814 57.4614 25.4335 54.5229C22.8857 51.5844 21.481 47.8268 21.4764 43.9375V30.0625H35.3514V59.94ZM22.1471 25.4375C23.1408 22.0935 25.1882 19.1601 27.9842 17.074C30.7803 14.988 34.1755 13.861 37.6639 13.861C41.1524 13.861 44.5476 14.988 47.3437 17.074C50.1397 19.1601 52.1871 22.0935 53.1808 25.4375H22.1471ZM53.8514 43.9375C53.8469 47.8268 52.4422 51.5844 49.8943 54.5229C47.3465 57.4614 43.8258 59.3844 39.9764 59.94V30.0625H53.8514V43.9375Z" fill="#36D7D4"/>
</g>
<defs>
<clipPath id="clip0_105_369">
<rect width="74" height="74" fill="white" transform="translate(0.664062)"/>
</clipPath>
</defs>
</svg>
