<svg width="69" height="69" viewBox="0 0 69 69" fill="none" xmlns="http://www.w3.org/2000/svg">
<path d="M34.2346 35.4288C32.6423 35.5615 31.1827 34.898 29.5903 34.3673C21.2307 31.5807 12.7384 28.7942 4.37881 26.0076C3.84804 25.7423 3.44996 25.6096 3.05189 25.2115C2.52112 24.8134 2.52112 24.2826 3.05189 23.8846C3.44996 23.6192 3.98073 23.2211 4.5115 23.0884C13.5346 20.4346 22.425 17.7807 31.448 14.9942C33.4384 14.3307 35.5615 14.3307 37.6846 14.9942C46.575 17.648 55.4654 20.3019 64.3557 22.9557C64.8865 23.2211 65.4173 23.3538 65.948 23.7519C66.6115 24.1499 66.6115 24.8134 65.948 25.2115C65.55 25.4769 65.1519 25.7423 64.6211 25.8749C55.7307 28.7942 46.8403 31.8461 37.8173 34.7653C36.623 35.2961 35.5615 35.4288 34.2346 35.4288Z" fill="white"/>
<path d="M16.5864 35.8268C15.2595 35.5614 14.9941 36.3576 14.9941 37.021C14.9941 40.471 14.9941 43.7883 14.9941 47.1056C14.9941 48.2999 15.3922 48.9633 16.1884 49.7595C16.4538 50.0249 16.8518 50.2903 17.1172 50.5556C19.2403 52.0153 21.7614 52.9441 24.2826 53.6076C29.3249 54.9345 34.3672 55.1999 39.5422 54.5364C42.8595 54.1383 46.1768 53.2095 49.2288 51.8826C50.5557 51.2191 51.8826 50.5556 52.8115 49.4941C53.4749 48.8306 53.7403 48.1672 53.6076 47.2383C53.7403 44.0537 53.7403 40.7364 53.7403 37.4191C53.7403 35.5614 52.4134 35.8268 51.8826 35.9595C47.2384 37.5518 42.3288 39.0114 37.6845 40.6037C35.2961 41.3999 33.0403 41.3999 30.7845 40.6037L16.5864 35.8268Z" fill="white"/>
<path d="M60.9056 32.775C60.5075 32.9077 60.3748 33.0404 60.3748 33.5711C60.3748 36.6231 60.3748 39.5423 60.3748 42.5942C60.3748 42.8596 60.2421 43.2577 60.1094 43.5231C59.4459 45.1154 58.7825 46.7077 58.2517 48.3C57.7209 49.7596 57.9863 51.3519 59.0479 52.4134C59.3132 52.8115 59.844 53.2096 60.2421 53.475C60.6402 53.8731 61.3036 54.0057 61.8344 54.1384C62.7632 54.2711 63.5594 53.7404 64.2229 53.2096C64.4883 52.9442 64.8863 52.6788 65.1517 52.2807C65.9479 51.2192 66.0806 49.8923 65.8152 48.6981C65.4171 46.8404 64.6209 45.2481 63.8248 43.6557C63.5594 43.3904 63.5594 42.8596 63.5594 42.5942C63.5594 39.2769 63.5594 36.0923 63.5594 32.775C63.5594 32.1115 63.0286 32.2442 62.7632 32.3769L60.9056 32.775Z" fill="white"/>
</svg>
