<svg width="140" height="140" viewBox="0 0 140 140" fill="none" xmlns="http://www.w3.org/2000/svg">
<circle cx="69.5179" cy="69.5179" r="69.5179" fill="white"/>
<path d="M72.551 94.1853C71.8846 94.4892 71.1317 94.5361 70.4338 94.317L46.4134 84.0822C42.8596 82.9669 43.7432 79.2583 47.4181 79.844L73.4015 81.3527C74.1232 81.4678 74.7788 81.8461 75.245 82.4164L78.4401 86.8863C78.9318 88.8249 78.7218 89.7425 77.3613 91.5992L72.551 94.1853Z" fill="#162831"/>
<path fill-rule="evenodd" clip-rule="evenodd" d="M69.5182 40.4945C51.0447 40.4945 36.0709 55.669 36.0709 74.3854C36.0709 83.6854 39.7652 92.1074 45.7526 98.2331L43.1128 100.885C36.4641 94.0829 32.3545 84.7187 32.3545 74.3854C32.3545 53.5861 48.9942 36.7266 69.5182 36.7266C90.0422 36.7266 106.682 53.5861 106.682 74.3854C106.682 85.0004 102.345 94.592 95.3752 101.435L92.7899 98.7282C99.0674 92.5652 102.965 83.9382 102.965 74.3854C102.965 55.669 87.9917 40.4945 69.5182 40.4945Z" fill="#162831"/>
<path fill-rule="evenodd" clip-rule="evenodd" d="M67.6602 49.9139V40.4942L71.3765 40.4941V49.9139H67.6602Z" fill="#162831"/>
<path fill-rule="evenodd" clip-rule="evenodd" d="M93.1297 99.0252L86.3525 92.154L88.9804 89.4897L95.7575 96.3607L93.1297 99.0252Z" fill="#162831"/>
<path fill-rule="evenodd" clip-rule="evenodd" d="M51.1628 56.575L44.5928 49.9144L47.2206 47.25L53.7906 53.9107L51.1628 56.575Z" fill="#162831"/>
<path fill-rule="evenodd" clip-rule="evenodd" d="M94.9473 70.6372H104.238V74.4051H94.9473V70.6372Z" fill="#162831"/>
<path fill-rule="evenodd" clip-rule="evenodd" d="M34.3105 70.6372H43.6015V74.4051H34.3105V70.6372Z" fill="#162831"/>
<path fill-rule="evenodd" clip-rule="evenodd" d="M85.4727 53.6822L92.2502 46.8115L94.8779 49.476L88.1003 56.3467L85.4727 53.6822Z" fill="#162831"/>
<path fill-rule="evenodd" clip-rule="evenodd" d="M51.3025 92.5349L44.5253 99.4063L41.8975 96.742L48.6745 89.8706L51.3025 92.5349Z" fill="#162831"/>
</svg>
