<svg width="75" height="74" viewBox="0 0 75 74" fill="none" xmlns="http://www.w3.org/2000/svg">
<g clip-path="url(#clip0_105_179)">
<path d="M37.6638 20.4028C28.5122 20.4028 21.0669 27.8482 21.0669 36.9998C21.0669 46.1513 28.5122 53.5967 37.6638 53.5967C46.8154 53.5967 54.2608 46.1513 54.2608 36.9998C54.2608 27.8482 46.8154 20.4028 37.6638 20.4028ZM37.6638 48.5674C31.2856 48.5674 26.0962 43.3782 26.0962 36.9998C26.0962 30.6213 31.2854 25.4321 37.6638 25.4321C44.0423 25.4321 49.2315 30.6213 49.2315 36.9998C49.2315 43.3782 44.042 48.5674 37.6638 48.5674Z" fill="#36D7D4"/>
<path d="M37.6643 28.2617C32.8458 28.2617 28.9258 32.1817 28.9258 37.0002C28.9258 41.8187 32.8458 45.7387 37.6643 45.7387C42.4827 45.7387 46.4027 41.8187 46.4027 37.0002C46.4027 32.1817 42.4827 28.2617 37.6643 28.2617ZM37.6643 40.7094C35.6192 40.7094 33.955 39.0453 33.955 37.0002C33.955 34.9551 35.6192 33.291 37.6643 33.291C39.7093 33.291 41.3735 34.9551 41.3735 37.0002C41.3735 39.0453 39.7093 40.7094 37.6643 40.7094Z" fill="#36D7D4"/>
<path d="M72.6182 45.428L68.081 42.8084C68.4433 40.9003 68.6262 38.9541 68.6262 36.9997C68.6262 35.0453 68.4433 33.0992 68.081 31.1911L72.6182 28.5715C73.1958 28.2381 73.6171 27.689 73.7897 27.0444C73.9624 26.4003 73.872 25.7139 73.5386 25.1363L65.8752 11.8629C65.1808 10.6605 63.644 10.2484 62.4401 10.9425L57.8969 13.5652C54.9389 11.0115 51.5168 9.03248 47.8422 7.75181V2.51475C47.8422 1.12595 46.7162 0 45.3274 0H30.0007C28.6119 0 27.4859 1.12595 27.4859 2.51475V7.75256C23.8113 9.03323 20.3892 11.012 17.4312 13.5659L12.888 10.943C11.6848 10.2484 10.147 10.6607 9.45286 11.8634L1.7895 25.1368C1.45613 25.7144 1.36568 26.4008 1.53835 27.0449C1.71101 27.6892 2.13234 28.2383 2.70989 28.572L7.24706 31.1916C6.88479 33.0997 6.7019 35.0459 6.7019 37.0002C6.7019 38.9546 6.88479 40.9008 7.24706 42.8089L2.70989 45.4285C2.13234 45.7619 1.71101 46.311 1.53835 46.9556C1.36568 47.5997 1.45613 48.2861 1.7895 48.8637L9.45286 62.1371C10.1473 63.3398 11.6846 63.7521 12.888 63.0575L17.4312 60.4348C20.3892 62.9884 23.8113 64.9675 27.4859 66.2482V71.486C27.4859 72.8748 28.6119 74.0007 30.0007 74.0007H45.3274C46.7162 74.0007 47.8422 72.8748 47.8422 71.486V66.2482C51.5168 64.9675 54.9389 62.9887 57.8969 60.4348L62.4401 63.0575C63.6435 63.7519 65.1811 63.3395 65.8752 62.1371L73.5386 48.8637C73.872 48.2861 73.9624 47.5997 73.7897 46.9556C73.6171 46.3108 73.1958 45.7616 72.6182 45.428ZM62.7904 30.558C63.3254 32.6519 63.5967 34.8194 63.5967 37C63.5967 39.1806 63.3254 41.3478 62.7904 43.442C62.5111 44.5343 62.9932 45.6787 63.9694 46.2423L67.9256 48.5263L62.777 57.4442L58.8133 55.1559C57.8364 54.5923 56.6033 54.7473 55.7975 55.5361C52.6796 58.5868 48.8251 60.815 44.6514 61.9801C43.5646 62.2833 42.8129 63.2737 42.8129 64.4022V68.9707H32.5154V64.4022C32.5154 63.2737 31.7637 62.2833 30.6769 61.9801C26.503 60.815 22.6488 58.5871 19.5308 55.5361C18.7243 54.7473 17.4912 54.5923 16.515 55.1559L12.5514 57.4442L7.40279 48.5263L11.3589 46.2423C12.3351 45.6787 12.8172 44.5343 12.5379 43.442C12.003 41.3481 11.7317 39.1806 11.7317 37C11.7317 34.8194 12.003 32.6522 12.5379 30.558C12.8172 29.4657 12.3351 28.3213 11.3589 27.7577L7.40279 25.4737L12.5514 16.5558L16.515 18.8441C17.4922 19.4079 18.725 19.2527 19.5308 18.4639C22.6488 15.4132 26.5033 13.185 30.6769 12.0199C31.7637 11.7167 32.5154 10.7263 32.5154 9.59782V5.02926H42.8129V9.59782C42.8129 10.7263 43.5646 11.7167 44.6514 12.0199C48.8253 13.185 52.6796 15.4129 55.7975 18.4639C56.6043 19.253 57.8371 19.4079 58.8133 18.8441L62.777 16.5558L67.9256 25.4737L63.9694 27.7577C62.9935 28.3213 62.5114 29.4657 62.7904 30.558Z" fill="#36D7D4"/>
</g>
<defs>
<clipPath id="clip0_105_179">
<rect width="74" height="74" fill="white" transform="translate(0.664062)"/>
</clipPath>
</defs>
</svg>
