<svg width="301" height="301" viewBox="0 0 301 301" fill="none" xmlns="http://www.w3.org/2000/svg">
<circle cx="150.5" cy="150.5" r="145.5" stroke="white" stroke-width="10"/>
<path d="M243.685 191.028C240.922 191.373 239.195 191.373 238.504 191.719C237.122 192.41 234.013 193.101 230.213 193.101C225.377 193.101 220.887 191.373 217.087 188.61H214.323C213.287 188.61 212.596 188.61 211.56 188.264C207.76 189.646 204.306 189.646 202.233 189.646H201.542C196.706 189.992 191.87 188.955 187.725 186.883C185.652 187.574 183.925 187.919 181.853 187.919L169.071 188.264C163.199 188.264 158.018 186.192 153.872 182.392C152.145 182.392 150.418 182.047 149.036 181.701C146.964 184.119 144.2 186.192 140.746 187.919C134.183 191.028 126.929 191.373 120.02 188.61C119.329 188.264 118.293 187.919 117.602 187.574L109.657 188.61H107.239C106.202 188.955 105.512 189.646 104.821 189.992C99.6392 192.41 94.8031 192.41 92.7305 192.41H91.0033C85.131 192.41 79.2586 190.683 74.7679 187.574C73.3862 187.919 71.659 188.264 70.2773 188.264C67.1684 190.337 63.3686 191.719 59.2234 192.064H57.8417C46.4423 192.064 37.1156 183.428 36.0793 172.029V171.683C36.0793 169.956 35.7339 166.156 36.0793 162.011C36.0793 159.939 36.4247 156.83 36.4247 156.139C36.4247 153.375 37.1156 150.612 38.1519 147.848C37.461 145.085 37.8065 142.321 38.1519 139.558V138.521C38.4973 136.103 39.1882 131.267 41.6063 126.431C46.0969 118.14 54.3873 112.959 63.714 112.959C66.823 111.232 69.9319 110.541 73.3862 110.541H74.4225C81.3312 110.886 87.549 114.341 91.3488 119.868C94.4577 117.104 98.2575 115.377 102.403 114.686C110.693 113.65 117.602 113.304 123.474 114.341C126.583 111.577 130.728 109.505 134.873 109.159L143.855 107.777H146.618C151.8 107.777 156.981 109.85 161.126 113.304H161.817L174.944 112.959C180.471 112.959 185.307 112.613 186.343 112.613H188.07C192.906 112.613 198.088 114.341 201.888 117.45C205.688 114.686 210.178 113.304 215.014 113.304H219.505C222.959 111.232 226.759 109.85 230.904 109.85L241.958 109.505H242.304C254.048 109.505 263.72 119.177 264.066 130.922C264.066 136.449 262.339 141.285 258.884 145.43V155.448C261.993 158.902 263.72 163.393 264.066 168.229C264.757 179.974 255.775 189.992 243.685 191.028Z" fill="white"/>
<path d="M242.994 178.592C238.504 178.938 235.74 179.283 235.049 179.628L234.704 179.974C233.668 180.319 232.286 181.01 230.559 181.01C228.486 181.01 226.068 180.319 224.341 178.592C223.65 177.901 222.959 177.21 222.614 176.52H214.669C213.287 176.52 211.905 176.174 210.869 175.483C210.524 175.829 209.833 175.829 209.487 176.174C206.724 177.556 204.306 177.556 202.579 177.556H200.851C195.67 177.556 191.525 175.829 188.761 172.72C187.034 174.447 184.616 175.483 182.198 175.483L169.417 175.829C164.926 175.829 160.781 172.374 160.09 168.229C158.363 169.265 156.636 169.956 154.563 169.956C152.491 169.956 150.418 169.265 148.691 168.229C148.345 167.884 148 167.538 147.654 167.538C146.618 168.229 145.236 168.229 143.855 168.229H142.818C141.437 172.374 139.019 175.138 135.219 176.865C133.492 177.556 131.419 178.247 129.692 178.247C127.965 178.247 125.892 177.901 124.165 177.21C122.438 176.52 121.056 175.483 120.02 174.447C119.329 174.792 118.638 174.792 117.947 175.138L107.93 176.52H106.548C105.512 176.52 104.821 176.52 103.784 176.174C102.403 177.556 100.675 178.247 99.2937 178.938C96.5302 180.319 94.1122 180.319 92.385 180.319H90.6578C84.44 180.319 79.6039 177.556 76.8405 173.756C74.077 175.483 70.6226 176.52 67.5137 176.52H65.4411C65.4411 176.865 65.0957 176.865 65.0957 177.21C63.3685 178.938 60.9505 180.319 58.5324 180.319H57.8416C53.0055 180.319 48.8603 176.52 48.5149 171.338V170.993C48.5149 169.265 48.1694 166.156 48.5149 162.702C48.5149 160.284 48.8603 156.484 48.8603 156.484C48.8603 154.066 49.8966 151.993 51.2783 150.266C49.8966 147.503 49.5512 144.394 50.242 140.939V140.249C50.5875 138.176 50.9329 135.067 52.3146 131.958C54.7327 127.467 59.2233 125.049 64.4048 125.049H66.8229C68.55 123.667 70.6226 122.631 73.0407 122.631C78.2222 122.631 82.3674 127.122 82.3674 132.303V136.103C84.0946 135.412 86.1672 135.067 88.2398 135.067C89.2761 135.067 89.967 135.067 91.0033 135.412C92.385 133.685 94.4576 132.649 96.5302 132.303C96.8757 131.613 97.2211 131.267 97.5665 130.576C98.9483 128.504 101.366 127.122 103.784 126.776C105.857 126.431 110.002 126.086 114.838 126.086C120.365 126.086 124.856 126.776 128.31 128.504C129.346 124.704 132.11 121.94 136.255 121.249L145.236 119.868H146.618C149.382 119.868 151.8 120.904 153.527 122.977C154.218 123.667 155.254 125.049 155.599 126.086L155.945 127.122C157.672 126.086 159.399 125.395 161.472 125.395L174.944 125.049C181.507 125.049 187.379 124.704 187.379 124.358H188.07C190.488 124.358 193.252 125.395 194.979 127.122C196.361 128.504 197.397 130.231 197.742 132.303H198.433C199.47 132.303 200.16 132.303 201.197 132.649C202.579 130.922 204.651 129.885 206.724 129.54C208.451 127.122 211.56 125.049 215.014 125.049H223.995C225.723 122.977 228.141 121.595 231.25 121.595H242.303C247.485 121.595 251.63 125.74 251.976 130.922C251.976 134.722 249.903 138.176 246.794 139.558V160.629C249.558 162.011 251.63 165.12 251.976 168.574C252.321 173.756 248.176 178.247 242.994 178.592Z" fill="#F9A83A"/>
<path d="M147.309 137.139L144.891 149.575L151.8 148.539L147.309 137.139Z" fill="#F9A83A"/>
<path d="M64.7508 149.23C62.3327 148.885 60.951 147.158 61.6418 142.321V141.631C62.3327 137.485 62.6782 136.449 64.7508 136.449C65.4416 136.449 66.1325 136.794 66.8234 137.485C67.5142 138.176 68.896 139.213 69.5868 141.285C70.2777 142.667 70.2777 143.703 70.6231 144.74V146.121C70.6231 146.812 71.314 147.503 72.3503 147.848C73.3866 148.194 74.4229 147.158 74.7684 146.121C74.7684 146.121 75.4592 132.995 75.4592 132.649C75.4592 131.613 74.4229 130.577 73.3866 130.577C72.3503 130.577 71.314 131.613 71.314 132.649V136.449C69.5868 134.722 67.5142 132.995 65.0962 132.995C58.5329 131.958 57.8421 137.831 57.4966 141.285V141.976C56.8058 148.539 58.8784 152.685 64.0599 153.721C69.5868 154.757 73.3866 155.794 73.3866 159.248C73.3866 160.63 72.6957 162.011 71.314 163.048C69.9323 164.43 67.8597 164.775 65.7871 164.43C65.0962 164.43 64.7508 164.084 64.0599 164.084C63.369 163.739 61.2964 162.702 60.6055 161.321C60.2601 159.939 59.9147 158.212 59.9147 157.175V156.484C59.9147 155.448 58.8784 154.412 57.8421 154.412C56.8058 154.412 55.7695 155.448 55.7695 156.484C55.7695 156.484 55.7695 160.63 55.424 163.048C55.0786 167.193 55.424 170.302 55.424 170.647C55.424 171.684 56.4603 172.72 57.4966 172.72C58.5329 172.72 59.5692 171.684 59.5692 170.647V166.848C60.951 167.884 63.0236 168.92 65.4416 169.266C68.5505 169.957 71.6594 168.92 74.0775 166.848C76.1501 165.12 77.5318 162.357 77.5318 159.939C77.5318 151.303 68.896 149.921 64.7508 149.23ZM122.784 143.358C122.438 143.703 122.093 144.049 121.402 144.394C121.057 144.74 120.02 145.085 119.675 145.085L118.638 145.43C117.257 146.121 115.184 146.467 113.112 146.812V137.14C118.638 137.14 123.475 137.485 124.511 139.213V139.903C124.511 140.594 123.82 141.976 122.784 143.358ZM134.874 162.011C133.838 161.666 132.456 162.357 132.11 163.393C131.42 165.811 130.729 165.811 130.383 166.157C130.038 166.502 129.347 166.157 128.311 165.811C128.311 165.811 127.965 165.12 127.62 164.775C127.274 164.084 126.929 161.321 126.929 159.593C126.929 153.375 125.547 149.921 123.82 148.194C124.856 147.503 125.893 146.467 125.893 146.467C128.311 143.012 129.002 140.249 127.62 137.831C124.165 131.958 109.312 133.686 104.476 134.376C103.439 134.376 102.403 135.758 102.749 136.794C102.749 137.831 104.13 138.867 105.167 138.522C106.203 138.522 107.239 138.176 108.275 138.176V147.848H107.239C106.203 147.848 105.167 148.885 105.167 149.921C105.167 150.957 106.203 151.994 107.239 151.994H108.275V164.084L105.512 164.43C104.476 164.43 103.439 165.811 103.785 166.848C103.785 167.884 105.167 168.92 106.203 168.575L116.22 167.193C117.257 167.193 118.293 165.811 117.948 164.775C117.948 163.739 116.566 162.702 115.53 163.048L112.421 163.393V151.303C114.493 150.957 116.22 150.612 117.948 149.921H118.638C119.329 149.921 120.02 150.267 120.366 150.957C121.057 151.994 121.747 154.066 122.093 159.248C122.093 160.284 122.438 164.43 123.129 166.157C123.475 166.848 124.511 168.575 126.238 169.266C127.62 169.611 129.347 170.302 131.42 169.266C133.147 168.229 134.528 167.193 135.219 164.084C136.601 163.393 135.91 162.357 134.874 162.011ZM210.179 155.448C209.142 155.448 208.106 156.484 208.106 157.521V160.284C208.106 161.321 207.761 162.702 207.415 163.048C207.07 163.739 206.724 164.084 206.033 164.775C205.688 165.12 204.997 165.466 204.306 165.811C203.615 166.157 203.27 166.157 201.888 166.157H200.506C194.979 166.502 194.289 162.011 194.289 160.975V151.994C194.634 148.539 195.325 146.121 196.707 145.085C197.743 144.394 199.125 144.74 201.543 145.43C204.306 146.467 206.033 149.576 206.379 149.576C206.724 150.267 207.76 150.612 208.797 150.612C209.833 150.267 210.179 149.576 210.179 148.539V139.213C210.179 138.176 209.142 137.14 208.106 137.14C207.07 137.14 206.033 138.176 206.033 139.213V143.012C205.342 142.321 204.306 141.976 203.27 141.285C202.234 140.594 198.088 138.867 194.979 140.94C192.561 142.667 190.834 145.776 190.489 150.957V160.63C190.834 163.739 193.252 169.957 200.852 169.957H201.888C203.27 169.957 204.652 169.957 206.033 169.266C207.07 168.92 208.106 168.229 209.142 167.193C209.833 166.502 210.179 165.811 210.869 164.775C211.56 163.393 211.906 160.975 212.251 160.284V156.83C212.251 156.139 211.215 155.448 210.179 155.448ZM244.377 169.266C244.377 168.229 243.34 167.193 242.304 167.193C241.613 167.193 240.577 167.193 239.54 167.538C239.54 164.084 239.54 156.83 239.195 133.34H242.304C243.34 133.34 244.377 132.304 244.377 131.267C244.377 130.231 243.34 129.195 242.304 129.195L231.25 129.54C230.214 129.54 229.177 130.577 229.177 131.613C229.177 132.649 230.214 133.686 231.25 133.686H234.704V148.194L222.269 150.267V137.14H225.723C226.759 137.14 227.796 136.104 227.796 135.067C227.796 134.031 226.759 132.995 225.723 132.995H214.669C213.633 132.995 212.597 134.031 212.597 135.067C212.597 136.104 213.633 137.14 214.669 137.14H218.124V165.12H214.669C213.633 165.12 212.597 166.157 212.597 167.193C212.597 168.229 213.633 169.266 214.669 169.266L226.069 169.611C227.105 169.611 228.141 168.575 228.141 167.538C228.141 166.502 227.105 165.466 226.069 165.466H222.614V154.757L235.05 152.685V168.575C232.286 169.266 230.214 169.266 229.177 170.647C228.487 171.338 228.487 172.72 229.523 173.411C230.214 174.102 231.25 173.756 232.632 173.411C233.668 172.72 237.813 172.375 242.649 172.029C243.686 171.338 244.377 170.302 244.377 169.266Z" fill="white"/>
<path d="M144.891 149.576L147.309 137.14L151.8 148.54L144.891 149.576ZM163.199 153.03C162.508 153.376 161.472 153.721 159.399 154.757L156.636 148.194L148.691 129.195C148.691 128.85 148.345 128.159 148 128.159C147.655 127.813 146.964 127.468 146.273 127.468L137.292 128.504C136.255 128.504 135.219 129.54 135.564 130.922C135.564 131.958 136.601 132.995 137.982 132.649C137.982 132.649 141.437 132.304 144.2 131.958C143.509 135.758 140.4 151.303 139.364 156.139L133.146 155.794C132.11 155.794 131.074 156.485 131.074 157.866C131.074 158.903 131.765 159.939 133.146 159.939L143.509 160.284C144.546 160.284 145.582 159.594 145.582 158.212C145.582 157.175 144.891 156.139 143.509 156.139L143.855 153.03L153.527 151.303L155.6 156.485C153.872 157.521 153.182 157.866 152.145 158.903C151.454 159.939 151.8 160.975 152.491 161.666C153.527 162.357 154.909 162.012 155.6 161.321C156.636 159.939 160.436 158.212 164.235 156.83C165.272 156.485 165.963 155.103 165.617 154.067C165.272 153.376 164.235 152.685 163.199 153.03Z" fill="white"/>
<path d="M188.071 131.958C188.071 131.958 181.853 132.303 174.944 132.649L161.472 132.994C160.781 132.994 160.436 133.34 159.745 133.685C159.4 134.031 159.054 134.722 159.4 135.412L161.127 145.776C161.127 146.812 162.508 147.848 163.545 147.503C164.581 147.503 165.272 146.466 165.272 145.43C165.272 145.43 164.581 139.903 163.89 137.14H172.872V164.429H168.381C167.345 164.429 166.308 165.466 166.308 166.502C166.308 167.538 167.345 168.574 168.381 168.574L181.162 168.229C182.198 168.229 183.235 167.193 183.235 166.156C183.235 165.12 182.198 164.084 181.162 164.084H177.017V136.794C180.471 136.794 183.58 136.449 185.653 136.449V140.594C185.653 142.667 185.998 143.357 185.998 143.703C186.689 144.739 187.725 145.085 188.761 144.394C189.452 144.048 189.798 143.012 189.798 142.321C189.798 142.321 189.798 137.485 190.143 134.722C190.143 134.031 190.143 133.685 189.452 132.994C189.452 132.303 188.761 131.958 188.071 131.958ZM99.9849 157.52C98.9486 157.52 97.9123 158.557 97.9123 159.593V162.702C97.9123 163.393 97.5668 164.775 97.2214 165.466C96.876 166.156 96.5305 166.502 95.8397 167.193C95.4942 167.538 94.8034 167.884 94.1125 168.229C93.4216 168.574 93.0762 168.574 91.6945 168.574H90.3127C84.7858 168.574 84.0949 164.429 84.0949 163.393V154.411C84.4404 150.957 85.1312 148.539 86.513 147.503C87.5493 146.812 88.931 147.157 91.349 147.848C94.1125 148.884 96.1851 151.993 96.1851 151.993C96.5305 152.684 97.5669 153.03 98.6032 153.03C99.6395 152.684 99.9849 151.993 99.9849 150.957V141.63C99.9849 140.594 98.9486 139.558 97.9123 139.558C96.876 139.558 95.8397 140.594 95.8397 141.63V145.43C95.1488 144.739 94.1125 144.048 93.0762 143.703C91.6945 143.012 87.8947 141.63 84.4404 143.357C82.0223 145.085 80.2951 148.194 79.9497 153.375V163.047C80.2951 166.156 82.7132 172.374 90.6582 172.374H91.6945C93.0762 172.374 94.4579 172.374 95.8397 171.683C96.876 171.338 97.9123 170.647 98.9486 169.611C99.6395 168.92 99.9849 168.229 100.676 167.193C101.367 165.811 101.712 163.393 102.057 162.702V159.248C102.057 158.557 101.021 157.52 99.9849 157.52Z" fill="white"/>
</svg>
