<svg width="159" height="159" viewBox="0 0 159 159" fill="none" xmlns="http://www.w3.org/2000/svg">
<circle cx="79.5" cy="79.5" r="79.5" fill="white"/>
<path fill-rule="evenodd" clip-rule="evenodd" d="M79.5 47.1835C58.3739 47.1835 41.25 64.0315 41.25 84.812C41.25 95.1377 45.4748 104.489 52.3219 111.29L49.3031 114.235C41.6997 106.682 37 96.285 37 84.812C37 61.7189 56.0289 43 79.5 43C102.971 43 122 61.7189 122 84.812C122 96.5977 117.041 107.247 109.07 114.845L106.113 111.839C113.292 104.997 117.75 95.4184 117.75 84.812C117.75 64.0315 100.626 47.1835 79.5 47.1835Z" fill="#162831"/>
<path fill-rule="evenodd" clip-rule="evenodd" d="M77.375 57.6422V47.1836L81.625 47.1836V57.6422H77.375Z" fill="#162831"/>
<path fill-rule="evenodd" clip-rule="evenodd" d="M106.502 112.17L98.752 104.541L101.757 101.583L109.507 109.211L106.502 112.17Z" fill="#162831"/>
<path fill-rule="evenodd" clip-rule="evenodd" d="M58.5085 65.0374L50.9951 57.6423L54.0003 54.6841L61.5137 62.0793L58.5085 65.0374Z" fill="#162831"/>
<path fill-rule="evenodd" clip-rule="evenodd" d="M108.58 80.6514H119.205V84.8348H108.58V80.6514Z" fill="#162831"/>
<path fill-rule="evenodd" clip-rule="evenodd" d="M39.2373 80.6514H49.8624V84.8348H39.2373V80.6514Z" fill="#162831"/>
<path fill-rule="evenodd" clip-rule="evenodd" d="M97.7451 61.8256L105.496 54.1973L108.501 57.1556L100.75 64.784L97.7451 61.8256Z" fill="#162831"/>
<path fill-rule="evenodd" clip-rule="evenodd" d="M58.6686 104.963L50.9183 112.593L47.9131 109.635L55.6632 102.005L58.6686 104.963Z" fill="#162831"/>
<path d="M73.0233 111.605C72.5172 110.951 72.2709 110.137 72.3312 109.317L77.3666 80.408C77.673 76.2313 81.9764 76.2693 82.2828 80.4461L87.3429 109.317C87.403 110.137 87.1569 110.951 86.6507 111.605L82.5654 116.231C80.5626 117.256 79.5001 117.256 77.1084 116.231L73.0233 111.605Z" fill="#162831"/>
</svg>
