<svg width="75" height="74" viewBox="0 0 75 74" fill="none" xmlns="http://www.w3.org/2000/svg">
<g clip-path="url(#clip0_105_164)">
<path d="M31.7308 19.5089H69.8935C72.528 19.5089 74.6638 17.3731 74.6638 14.7386C74.6638 12.1041 72.528 9.96826 69.8935 9.96826H31.7308C29.0963 9.96826 26.9604 12.1041 26.9604 14.7386C26.9604 17.3731 29.096 19.5089 31.7308 19.5089Z" fill="#36D7D4"/>
<path d="M69.8935 32.23H31.7308C29.0963 32.23 26.9604 34.3658 26.9604 37.0003C26.9604 39.6348 29.0963 41.7707 31.7308 41.7707H69.8935C72.528 41.7707 74.6638 39.6348 74.6638 37.0003C74.6638 34.3658 72.528 32.23 69.8935 32.23Z" fill="#36D7D4"/>
<path d="M69.8935 54.4912H31.7308C29.0963 54.4912 26.9604 56.627 26.9604 59.2615C26.9604 61.896 29.0963 64.0319 31.7308 64.0319H69.8935C72.528 64.0319 74.6638 61.896 74.6638 59.2615C74.6638 56.627 72.528 54.4912 69.8935 54.4912Z" fill="#36D7D4"/>
<path d="M16.1787 33.2043L13.0019 32.7426L11.5813 29.8638C11.1794 29.0497 10.3506 28.5342 9.44231 28.5342C8.53468 28.5342 7.70528 29.0497 7.3033 29.8638L5.88237 32.7426L2.70596 33.2043C1.80755 33.3347 1.06083 33.9641 0.780337 34.8275C0.499841 35.691 0.733906 36.6387 1.38363 37.2725L3.68229 39.513L3.13943 42.677C2.98582 43.5719 3.35377 44.4763 4.08809 45.01C4.50374 45.3121 4.99541 45.4657 5.49025 45.4657C5.86965 45.4657 6.25096 45.3751 6.59983 45.1919L9.44168 43.6978L12.2835 45.1919C12.6327 45.3754 13.0137 45.4657 13.3931 45.4657C13.3953 45.4657 13.3979 45.4657 13.3998 45.4657C14.717 45.4654 15.7846 44.3978 15.7846 43.0805C15.7846 42.8805 15.7601 42.6859 15.7137 42.5001L15.2011 39.513L17.4997 37.2725C18.1501 36.6387 18.3838 35.691 18.1033 34.8275C17.8238 33.9641 17.0771 33.3347 16.1787 33.2043Z" fill="#36D7D4"/>
<path d="M16.1787 10.9426L13.0019 10.4809L11.5813 7.60211C11.1794 6.78798 10.3506 6.27246 9.44231 6.27246C8.53468 6.27246 7.70528 6.78798 7.3033 7.60211L5.88237 10.4809L2.70596 10.9426C1.80755 11.073 1.06083 11.7024 0.780337 12.5658C0.499841 13.4292 0.733906 14.3769 1.38363 15.0108L3.68229 17.2512L3.13943 20.4152C2.98582 21.3102 3.35377 22.2146 4.08809 22.7482C4.50374 23.0504 4.99541 23.204 5.49025 23.204C5.86965 23.204 6.25096 23.1133 6.59983 22.9302L9.44168 21.4361L12.2835 22.9302C12.6327 23.1137 13.0137 23.204 13.3931 23.204C13.3953 23.204 13.3979 23.204 13.3998 23.204C14.717 23.204 15.7846 22.1361 15.7846 20.8188C15.7846 20.6188 15.7601 20.4241 15.7137 20.2384L15.2011 17.2512L17.4997 15.0108C18.1501 14.3769 18.3838 13.4292 18.1033 12.5658C17.8238 11.7024 17.0771 11.073 16.1787 10.9426Z" fill="#36D7D4"/>
<path d="M16.1787 55.4656L13.0019 55.0038L11.5813 52.1251C11.1794 51.3109 10.3506 50.7954 9.44231 50.7954C8.53468 50.7954 7.70528 51.3109 7.3033 52.1251L5.88237 55.0038L2.70596 55.4656C1.80755 55.596 1.06083 56.2253 0.780337 57.0888C0.499841 57.9522 0.733906 58.8999 1.38363 59.5337L3.68229 61.7742L3.13943 64.9382C2.98582 65.8331 3.35377 66.7376 4.08809 67.2712C4.50374 67.5733 4.99541 67.7269 5.49025 67.7269C5.86965 67.7269 6.25096 67.6363 6.59983 67.4531L9.44168 65.959L12.2835 67.4531C12.6327 67.6366 13.0137 67.7269 13.3931 67.7269C13.3953 67.7269 13.3979 67.7269 13.3998 67.7269C14.717 67.7266 15.7846 66.659 15.7846 65.3418C15.7846 65.1417 15.7601 64.9471 15.7137 64.7614L15.2011 61.7742L17.4997 59.5337C18.1501 58.8999 18.3838 57.9522 18.1033 57.0888C17.8238 56.2253 17.0771 55.596 16.1787 55.4656Z" fill="#36D7D4"/>
</g>
<defs>
<clipPath id="clip0_105_164">
<rect width="74" height="74" fill="white" transform="translate(0.664062)"/>
</clipPath>
</defs>
</svg>
