<svg width="69" height="69" viewBox="0 0 69 69" fill="none" xmlns="http://www.w3.org/2000/svg">
<g clip-path="url(#clip0_105_253)">
<path d="M49.5065 33.5623C52.5437 33.5623 55.0146 31.0914 55.0146 28.0543C55.0146 25.0173 52.5437 22.5464 49.5065 22.5464C46.4693 22.5464 43.9985 25.0172 43.9985 28.0543C43.9985 31.0915 46.4693 33.5623 49.5065 33.5623ZM49.5065 24.7485C51.3294 24.7485 52.8125 26.2316 52.8125 28.0543C52.8125 29.8773 51.3294 31.3602 49.5065 31.3602C47.6837 31.3602 46.2007 29.8771 46.2007 28.0543C46.2007 26.2316 47.6837 24.7485 49.5065 24.7485Z" fill="white"/>
<path d="M49.5066 35.7646C48.0119 35.7646 46.5298 36.1359 45.2201 36.8383C44.6842 37.1257 44.4827 37.7931 44.7701 38.329C45.0574 38.8647 45.7245 39.0662 46.2607 38.7789C47.2515 38.2476 48.3741 37.9668 49.5066 37.9668C52.9291 37.9668 55.7765 40.4766 56.3053 43.7522H49.5066C48.8984 43.7522 48.4055 44.2452 48.4055 44.8533C48.4055 45.4613 48.8984 45.9543 49.5066 45.9543H57.4942C58.1024 45.9543 58.5952 45.4613 58.5952 44.8533C58.5952 39.8417 54.5181 35.7646 49.5066 35.7646Z" fill="white"/>
<path d="M19.5915 43.7519H12.6952C13.224 40.4763 16.0713 37.9664 19.4939 37.9664C20.6265 37.9664 21.7486 38.2471 22.7392 38.7783C23.2751 39.0657 23.9426 38.8642 24.2298 38.3282C24.5172 37.7923 24.3157 37.1249 23.7798 36.8375C22.4703 36.1353 20.9883 35.7642 19.4939 35.7642C14.4823 35.7642 10.4053 39.8412 10.4053 44.8528C10.4053 45.4609 10.8981 45.9538 11.5063 45.9538H19.5917C20.1999 45.9538 20.6927 45.4609 20.6927 44.8528C20.6927 44.2447 20.1997 43.7519 19.5915 43.7519Z" fill="white"/>
<path d="M19.4935 33.5623C22.5306 33.5623 25.0014 31.0914 25.0014 28.0543C25.0014 25.0173 22.5306 22.5464 19.4935 22.5464C16.4563 22.5464 13.9854 25.0172 13.9854 28.0543C13.9854 31.0915 16.4564 33.5623 19.4935 33.5623ZM19.4935 24.7485C21.3162 24.7485 22.7993 26.2316 22.7993 28.0543C22.7993 29.8773 21.3162 31.3602 19.4935 31.3602C17.6705 31.3602 16.1875 29.8771 16.1875 28.0543C16.1876 26.2316 17.6705 24.7485 19.4935 24.7485Z" fill="white"/>
<path d="M34.4999 33.9608C38.4103 33.9608 41.5917 30.7795 41.5917 26.8691C41.5917 22.9587 38.4103 19.7773 34.4999 19.7773C30.5895 19.7773 27.4082 22.9587 27.4082 26.8691C27.4082 30.7795 30.5895 33.9608 34.4999 33.9608ZM34.4999 21.9795C37.1961 21.9795 39.3895 24.1729 39.3895 26.8691C39.3895 29.5652 37.1962 31.7587 34.4999 31.7587C31.8036 31.7587 29.6103 29.5652 29.6103 26.8691C29.6103 24.1729 31.8038 21.9795 34.4999 21.9795Z" fill="white"/>
<path d="M34.5002 36.1626C27.9058 36.1626 22.541 41.5274 22.541 48.1216C22.541 48.7297 23.0339 49.2227 23.6421 49.2227H45.3581C45.9664 49.2227 46.4592 48.7297 46.4592 48.1216C46.4592 41.5274 41.0944 36.1626 34.5002 36.1626ZM24.805 47.0206C25.3533 42.1568 29.4923 38.3647 34.5002 38.3647C39.5081 38.3647 43.6469 42.1568 44.1953 47.0206H24.805Z" fill="white"/>
<path d="M67.8989 33.3989H65.2256C64.6564 17.3187 51.6813 4.34362 35.6011 3.77459V1.10106C35.6011 0.492983 35.1082 0 34.5 0C33.8918 0 33.3989 0.492983 33.3989 1.10106V3.77459C17.3187 4.34362 4.34362 17.3187 3.77445 33.3989H1.10106C0.492836 33.3989 0 33.8919 0 34.5C0 35.1081 0.492836 35.6011 1.10106 35.6011H3.77445C4.34362 51.6813 17.3187 64.6564 33.3989 65.2254V67.8989C33.3989 68.507 33.8918 69 34.5 69C35.1082 69 35.6011 68.507 35.6011 67.8989V65.2254C51.6813 64.6564 64.6564 51.6813 65.2256 35.6011H67.8989C68.5072 35.6011 69 35.1081 69 34.5C69 33.8919 68.5072 33.3989 67.8989 33.3989ZM35.6011 63.0218V60.3935C35.6011 59.7854 35.1082 59.2924 34.5 59.2924C33.8918 59.2924 33.3989 59.7854 33.3989 60.3935V63.0218C18.5331 62.455 6.54487 50.4669 5.97804 35.6011H8.6065C9.21473 35.6011 9.70757 35.1081 9.70757 34.5C9.70757 33.8919 9.21473 33.3989 8.6065 33.3989H5.97804C6.54487 18.5331 18.5331 6.54502 33.3989 5.97819V8.6065C33.3989 9.21458 33.8918 9.70757 34.5 9.70757C35.1082 9.70757 35.6011 9.21458 35.6011 8.6065V5.97819C50.4669 6.54502 62.455 18.5331 63.022 33.3989H60.3935C59.7853 33.3989 59.2924 33.8919 59.2924 34.5C59.2924 35.1081 59.7853 35.6011 60.3935 35.6011H63.022C62.455 50.4669 50.4669 62.455 35.6011 63.0218Z" fill="white"/>
</g>
<defs>
<clipPath id="clip0_105_253">
<rect width="69" height="69" fill="white"/>
</clipPath>
</defs>
</svg>
