<svg width="144" height="127" viewBox="0 0 144 127" fill="none" xmlns="http://www.w3.org/2000/svg">
<circle cx="63.0768" cy="63.9352" r="63.0133" fill="#0050FF"/>
<path d="M125.828 13.8735L72.5021 13.605C71.8236 13.6096 71.1475 13.685 70.4848 13.8301C69.4501 13.6784 68.4066 13.5946 67.361 13.5791C61.8236 13.5384 56.4701 15.5645 52.3473 19.2612C48.2244 22.958 45.6285 28.0595 45.0673 33.5685C44.506 39.0775 46.0197 44.5978 49.3123 49.0501C52.6049 53.5023 57.4398 56.5664 62.8716 57.6433L62.6672 98.2343C62.6635 100.727 63.6456 103.12 65.3992 104.891C67.1529 106.663 69.5358 107.669 72.0284 107.69L125.355 107.959C126.59 107.965 127.815 107.728 128.959 107.261C130.102 106.794 131.143 106.106 132.021 105.236C132.899 104.367 133.598 103.334 134.076 102.194C134.555 101.055 134.804 99.8331 134.81 98.5975L135.189 23.3294C135.202 20.8341 134.223 18.436 132.467 16.6627C130.712 14.8893 128.324 13.886 125.828 13.8735ZM51.2881 35.7432C51.304 32.5783 52.2585 29.4894 54.0308 26.8672C55.803 24.2451 58.3133 22.2076 61.244 21.0128C64.1746 19.8179 67.3939 19.5193 70.4943 20.1548C73.5947 20.7903 76.4369 22.3314 78.6612 24.5828C80.8854 26.8343 82.3917 29.6951 82.9894 32.803C83.5871 35.9109 83.2494 39.1263 82.019 42.0422C80.7885 44.9581 78.7207 47.4434 76.0771 49.1836C73.4336 50.9238 70.3332 51.8406 67.1684 51.818C65.0696 51.8075 62.9935 51.3831 61.0588 50.5691C59.1242 49.7551 57.3692 48.5676 55.8941 47.0744C54.419 45.5813 53.2529 43.8119 52.4626 41.8675C51.6722 39.9232 51.2731 37.842 51.2881 35.7432ZM128.527 98.5659C128.523 99.3947 128.189 100.188 127.6 100.771C127.011 101.354 126.215 101.679 125.386 101.675L72.06 101.407C71.2312 101.402 70.438 101.069 69.8549 100.48C69.2718 99.8912 68.9466 99.0947 68.9508 98.2659L69.1538 57.9437C74.4522 57.4818 79.4049 55.1199 83.0988 51.2934C83.3665 51.3271 83.6372 51.3285 83.9052 51.2974L114.147 51.4497C114.922 51.4536 115.667 51.1494 116.218 50.6039C116.769 50.0584 117.081 49.3164 117.085 48.5411C117.089 47.7657 116.785 47.0206 116.239 46.4696C115.694 45.9186 114.952 45.6069 114.176 45.603L87.2948 45.4676C89.3952 41.2598 90.1035 36.4932 89.3174 31.8565C88.5314 27.2197 86.2917 22.9529 82.922 19.6723L125.932 19.8889C126.761 19.8931 127.554 20.2263 128.137 20.8153C128.721 21.4043 129.046 22.2008 129.042 23.0296L128.527 98.5659Z" fill="white"/>
<path d="M77.3336 28.4484C77.0469 28.1503 76.7034 27.9127 76.3232 27.7497C75.9431 27.5867 75.5341 27.5016 75.1206 27.4995C74.707 27.4975 74.2972 27.5784 73.9154 27.7375C73.5337 27.8967 73.1877 28.1308 72.8981 28.4261L64.6578 36.6173L61.6482 33.7123C61.389 33.3441 61.0532 33.0363 60.664 32.81C60.2748 32.5836 59.8413 32.4441 59.3931 32.4008C58.9449 32.3576 58.4927 32.4117 58.0674 32.5595C57.642 32.7073 57.2537 32.9452 56.9289 33.257C56.6041 33.5688 56.3505 33.9472 56.1854 34.3661C56.0204 34.785 55.9479 35.2346 55.9728 35.6842C55.9977 36.1338 56.1194 36.5727 56.3297 36.9708C56.54 37.3689 56.8338 37.7169 57.1911 37.991L62.4066 43.2593C62.6969 43.5504 63.0419 43.7814 63.4216 43.939C63.8014 44.0966 64.2086 44.1777 64.6197 44.1777C65.4454 44.1622 66.2366 43.8432 66.842 43.2816L77.3112 32.8839C77.6094 32.5972 77.847 32.2537 78.01 31.8735C78.173 31.4934 78.258 31.0844 78.2601 30.6709C78.2622 30.2573 78.1812 29.8475 78.0221 29.4657C77.8629 29.084 77.6288 28.738 77.3336 28.4484Z" fill="white"/>
<path d="M114.014 57.9346L83.772 57.7823C82.9967 57.7784 82.2516 58.0826 81.7006 58.6281C81.1496 59.1736 80.8378 59.9156 80.8339 60.6909C80.83 61.4663 81.1343 62.2114 81.6797 62.7624C82.2252 63.3134 82.9672 63.6251 83.7426 63.629L113.984 63.7813C114.76 63.7852 115.505 63.4809 116.056 62.9355C116.607 62.39 116.918 61.648 116.922 60.8726C116.926 60.0973 116.622 59.3522 116.076 58.8012C115.531 58.2502 114.789 57.9385 114.014 57.9346Z" fill="white"/>
<path d="M113.953 69.998L83.7114 69.8458C82.9361 69.8419 82.191 70.1461 81.64 70.6916C81.089 71.2371 80.7773 71.9791 80.7734 72.7544C80.7695 73.5297 81.0737 74.2749 81.6192 74.8259C82.1647 75.3769 82.9067 75.6886 83.682 75.6925L113.924 75.8448C114.699 75.8487 115.444 75.5444 115.995 74.9989C116.546 74.4535 116.858 73.7114 116.862 72.9361C116.866 72.1608 116.561 71.4157 116.016 70.8647C115.47 70.3137 114.728 70.0019 113.953 69.998Z" fill="white"/>
</svg>
