<svg width="159" height="159" viewBox="0 0 159 159" fill="none" xmlns="http://www.w3.org/2000/svg">
<circle cx="79.5" cy="79.5" r="79.5" fill="white"/>
<path d="M72.1619 95.7998C72.673 95.1297 73.4078 94.6717 74.2285 94.512L103.899 91.7368C108.077 90.9235 109.154 95.1478 105.134 96.5616L78.1136 109.213C77.3244 109.491 76.4621 109.467 75.689 109.145L70.0926 106.378C68.5675 104.69 68.2925 103.649 68.6801 101.034L72.1619 95.7998Z" fill="#162831"/>
<path fill-rule="evenodd" clip-rule="evenodd" d="M79.5 47.309C58.3739 47.309 41.25 64.6624 41.25 86.0663C41.25 96.7016 45.4748 106.333 52.3219 113.338L49.3031 116.371C41.6997 108.592 37 97.8833 37 86.0663C37 62.2804 56.0289 43 79.5 43C102.971 43 122 62.2804 122 86.0663C122 98.2054 117.041 109.174 109.07 117L106.113 113.904C113.292 106.857 117.75 96.9907 117.75 86.0663C117.75 64.6624 100.626 47.309 79.5 47.309Z" fill="#162831"/>
<path fill-rule="evenodd" clip-rule="evenodd" d="M77.375 58.0815V47.3091L81.625 47.3091V58.0815H77.375Z" fill="#162831"/>
<path fill-rule="evenodd" clip-rule="evenodd" d="M106.502 114.245L98.752 106.387L101.757 103.34L109.508 111.197L106.502 114.245Z" fill="#162831"/>
<path fill-rule="evenodd" clip-rule="evenodd" d="M58.5085 65.6986L50.9951 58.0817L54.0003 55.0347L61.5137 62.6517L58.5085 65.6986Z" fill="#162831"/>
<path fill-rule="evenodd" clip-rule="evenodd" d="M108.58 81.7808H119.205V86.0897H108.58V81.7808Z" fill="#162831"/>
<path fill-rule="evenodd" clip-rule="evenodd" d="M39.2373 81.7808H49.8624V86.0897H39.2373V81.7808Z" fill="#162831"/>
<path fill-rule="evenodd" clip-rule="evenodd" d="M97.7451 62.3904L105.496 54.5332L108.501 57.5803L100.75 65.4375L97.7451 62.3904Z" fill="#162831"/>
<path fill-rule="evenodd" clip-rule="evenodd" d="M58.6686 106.822L50.9183 114.68L47.9131 111.633L55.6632 103.775L58.6686 106.822Z" fill="#162831"/>
</svg>
