<svg width="69" height="69" viewBox="0 0 69 69" fill="none" xmlns="http://www.w3.org/2000/svg">
<g clip-path="url(#clip0_105_189)">
<path d="M67.5494 52.5048L57.8291 42.9002C56.3043 41.3936 53.8467 41.4083 52.3401 42.9331C50.8335 44.4579 50.8482 46.9155 52.373 48.4222L55.4966 51.5086H23.2192C23.2192 51.5086 39.7361 35.0002 46.3674 28.3723L46.3662 32.76C46.3656 34.9036 48.1029 36.6418 50.2465 36.6424C50.2468 36.6424 50.2471 36.6424 50.2476 36.6424C52.3906 36.6424 54.1283 34.9053 54.1289 32.7621L54.1326 18.9109C54.1328 17.8815 53.7242 16.8942 52.9965 16.1661C52.2688 15.438 51.2817 15.0289 50.2522 15.0286L36.5873 15.025C36.587 15.025 36.5867 15.025 36.5863 15.025C34.4432 15.025 32.7055 16.7622 32.7049 18.9053C32.7043 21.0489 34.4416 22.7871 36.5852 22.7877L40.9729 22.7888L17.7267 46.0229V13.2343L20.908 16.3776C21.6644 17.1251 22.6503 17.4981 23.6358 17.4981C24.6369 17.4981 25.6376 17.1131 26.3969 16.3447C27.9035 14.8199 27.8888 12.3624 26.364 10.8558L16.5111 1.12041C15.7788 0.396857 14.7885 -0.00621169 13.7598 7.23917e-05C12.7304 0.00620861 11.7456 0.421106 11.0221 1.15331L1.41777 10.8737C-0.0888526 12.3985 -0.0741405 14.856 1.45067 16.3626C2.97549 17.8693 5.433 17.8545 6.93963 16.3297L9.96405 13.2688C9.96405 24.2817 9.96405 55.389 9.96405 55.39C9.96405 55.3938 9.96434 55.3976 9.96434 55.4013C9.96708 56.3449 10.326 57.2789 10.9563 57.9816C11.6702 58.7774 12.7741 59.271 13.8454 59.2713H55.4071L52.3251 62.3905C50.8185 63.9153 50.8332 66.3727 52.358 67.8794C53.1144 68.6269 54.1002 68.9999 55.0858 68.9999C56.0869 68.9999 57.0877 68.6149 57.8469 67.8465L67.5823 57.9938C69.089 56.4689 69.0742 54.0114 67.5494 52.5048Z" fill="white"/>
</g>
<defs>
<clipPath id="clip0_105_189">
<rect width="69" height="69" fill="white"/>
</clipPath>
</defs>
</svg>
