<svg width="546" height="546" viewBox="0 0 546 546" fill="none" xmlns="http://www.w3.org/2000/svg">
<circle cx="273" cy="273" r="273" fill="#0050FF"/>
<path d="M185.055 413V388.33L277.703 286.911C288.576 275.033 297.53 264.709 304.566 255.937C311.601 247.074 316.809 238.76 320.19 230.993C323.662 223.136 325.398 214.913 325.398 206.324C325.398 196.456 323.022 187.913 318.271 180.695C313.611 173.477 307.215 167.903 299.083 163.975C290.952 160.046 281.815 158.081 271.673 158.081C260.891 158.081 251.48 160.32 243.44 164.797C235.491 169.183 229.323 175.35 224.938 183.299C220.643 191.248 218.496 200.568 218.496 211.258H186.152C186.152 194.811 189.943 180.375 197.527 167.949C205.111 155.523 215.435 145.838 228.501 138.894C241.658 131.95 256.414 128.478 272.769 128.478C289.216 128.478 303.789 131.95 316.489 138.894C329.189 145.838 339.149 155.203 346.367 166.99C353.585 178.776 357.194 191.888 357.194 206.324C357.194 216.649 355.321 226.745 351.575 236.613C347.92 246.389 341.524 257.308 332.387 269.368C323.342 281.338 310.779 295.957 294.698 313.225L231.653 380.655V382.848H362.128V413H185.055Z" fill="white"/>
</svg>
