<svg width="546" height="546" viewBox="0 0 546 546" fill="none" xmlns="http://www.w3.org/2000/svg">
<circle cx="273" cy="273" r="273" fill="#0050FF"/>
<path d="M273.896 416.837C255.805 416.837 239.678 413.731 225.516 407.518C211.445 401.305 200.253 392.67 191.938 381.615C183.715 370.468 179.238 357.539 178.507 342.829H213.044C213.775 351.874 216.882 359.686 222.364 366.265C227.846 372.752 235.019 377.777 243.881 381.341C252.744 384.904 262.566 386.686 273.348 386.686C285.408 386.686 296.099 384.584 305.418 380.381C314.738 376.178 322.047 370.331 327.347 362.839C332.646 355.346 335.296 346.666 335.296 336.798C335.296 326.474 332.737 317.383 327.621 309.525C322.504 301.576 315.012 295.363 305.144 290.886C295.276 286.409 283.216 284.17 268.962 284.17H246.485V254.018H268.962C280.109 254.018 289.886 252.008 298.291 247.988C306.789 243.968 313.413 238.303 318.164 230.993C323.007 223.684 325.428 215.095 325.428 205.228C325.428 195.725 323.326 187.456 319.124 180.421C314.921 173.386 308.982 167.903 301.307 163.975C293.723 160.046 284.769 158.081 274.444 158.081C264.759 158.081 255.622 159.863 247.034 163.426C238.536 166.898 231.592 171.969 226.202 178.639C220.811 185.218 217.887 193.167 217.43 202.486H184.537C185.086 187.776 189.517 174.893 197.832 163.837C206.146 152.69 217.019 144.01 230.45 137.797C243.973 131.584 258.82 128.478 274.992 128.478C292.352 128.478 307.246 131.995 319.672 139.031C332.098 145.975 341.646 155.157 348.316 166.579C354.986 178 358.321 190.334 358.321 203.583C358.321 219.39 354.163 232.867 345.849 244.014C337.626 255.161 326.433 262.881 312.271 267.176V269.368C329.996 272.292 343.839 279.83 353.798 291.982C363.757 304.043 368.737 318.982 368.737 336.798C368.737 352.057 364.579 365.762 356.265 377.914C348.042 389.975 336.803 399.477 322.55 406.421C308.296 413.365 292.078 416.837 273.896 416.837Z" fill="white"/>
</svg>
