<svg width="288" height="288" viewBox="0 0 288 288" fill="none" xmlns="http://www.w3.org/2000/svg">
<circle cx="144" cy="144" r="144" fill="white"/>
<path d="M211.878 165.304C211.878 165.304 225.946 180.109 229.426 186.96C229.494 187.059 229.547 187.168 229.583 187.284C231.001 189.815 231.349 191.799 230.653 193.264C229.478 195.684 225.503 196.898 224.154 197H199.289C197.558 197 193.956 196.518 189.572 193.292C186.222 190.798 182.89 186.691 179.662 182.677C174.842 176.716 170.675 171.543 166.456 171.543C165.923 171.542 165.393 171.636 164.89 171.821C161.697 172.896 157.642 177.745 157.642 190.659C157.642 194.701 154.65 197 152.553 197H141.165C137.284 197 117.083 195.554 99.1697 175.427C77.2196 150.786 57.5054 101.355 57.314 100.92C56.0873 97.7212 58.6625 95.9783 61.4465 95.9783H86.5547C89.9216 95.9783 91.0178 98.1476 91.7834 100.094C92.6708 102.329 95.9594 111.266 101.353 121.306C110.088 137.64 115.456 144.287 119.745 144.287C120.551 144.29 121.343 144.066 122.042 143.638C127.645 140.357 126.601 119.034 126.34 114.64C126.34 113.787 126.331 105.119 123.46 100.929C121.407 97.9251 117.91 96.757 115.795 96.3306C116.361 95.4592 117.562 94.1242 119.101 93.3362C122.938 91.2967 129.872 91 136.754 91H140.573C148.038 91.1112 149.969 91.6211 152.683 92.3535C158.147 93.7441 158.251 97.5172 157.773 110.366C157.634 114.037 157.486 118.172 157.486 123.039C157.486 124.077 157.442 125.236 157.442 126.414C157.277 133.005 157.06 140.431 161.427 143.481C161.993 143.857 162.648 144.056 163.315 144.056C164.829 144.056 169.361 144.056 181.655 121.574C187.049 111.646 191.225 99.9369 191.512 99.0561C191.755 98.5648 192.486 97.1835 193.373 96.6273C194.005 96.2694 194.712 96.0906 195.427 96.1081H224.963C228.182 96.1081 230.366 96.6273 230.792 97.9251C231.506 100.03 230.653 106.454 217.168 125.885C214.897 129.121 212.905 131.92 211.156 134.368C198.933 151.463 198.933 152.325 211.878 165.304V165.304Z" fill="#0077FF"/>
</svg>
